M48
; DRILL file {KiCad (5.1.0)-1} date 21-Aug-20 01:31:32
; FORMAT={-:-/ absolute / metric / decimal}
; #@! TF.CreationDate,2020-08-21T01:31:32+01:00
; #@! TF.GenerationSoftware,Kicad,Pcbnew,(5.1.0)-1
; #@! TF.FileFunction,Plated,1,2,PTH
FMAT,2
METRIC
T1C0.400
T2C0.600
T3C0.800
T4C1.000
T5C1.100
T6C1.500
%
G90
G05
T1
X46.2Y-122.2
X48.05Y-121.95
X48.2Y-109.65
X60.0Y-120.6
X63.85Y-107.55
X65.05Y-108.5
X70.35Y-105.45
X70.45Y-101.2
X73.8Y-86.9
X76.35Y-105.5
X76.9Y-99.4
X78.8Y-138.55
X79.2Y-143.05
X79.4Y-141.55
X80.55Y-136.45
X85.25Y-103.7
X85.9Y-118.55
X86.5Y-97.1
X87.1Y-98.6
X88.8Y-118.2
X89.3Y-70.9
X91.0Y-118.8
X92.95Y-64.35
X94.2Y-59.9
X106.05Y-105.75
X107.4Y-94.95
X108.45Y-95.85
X109.7Y-93.85
X110.55Y-94.65
X111.5Y-95.3
X114.65Y-89.3
X120.45Y-93.85
X121.2Y-77.55
X128.65Y-148.0
X128.65Y-151.4
X133.75Y-112.45
X133.85Y-116.05
X138.45Y-74.05
X138.45Y-78.35
X143.3Y-130.8
X143.35Y-134.9
X147.95Y-92.7
X147.95Y-96.5
X171.8Y-116.05
X171.95Y-111.85
X176.45Y-78.35
X176.5Y-74.1
X181.25Y-130.85
X181.3Y-134.9
X186.0Y-93.0
X186.05Y-96.5
X209.9Y-116.05
X210.0Y-112.45
X214.65Y-74.1
X214.65Y-78.35
X219.35Y-131.0
X219.35Y-134.9
X224.3Y-92.85
X224.3Y-96.5
X224.8Y-147.85
X224.8Y-151.4
X248.0Y-111.95
X248.05Y-116.05
X252.8Y-74.15
X252.85Y-78.35
X257.5Y-134.9
X257.55Y-131.15
X262.3Y-92.9
X262.3Y-96.5
X286.25Y-112.95
X286.3Y-116.05
X290.85Y-74.05
X290.85Y-78.35
X295.6Y-134.9
X295.65Y-130.8
X300.35Y-92.8
X300.35Y-96.5
X312.25Y-148.0
X312.25Y-151.4
X324.35Y-112.35
X324.35Y-116.05
X328.95Y-74.3
X328.95Y-78.35
X338.55Y-92.9
X338.55Y-96.5
X340.85Y-131.0
X340.85Y-134.9
X350.95Y-151.4
X351.0Y-148.05
X82.895Y-61.585
X82.9Y-62.91
X83.745Y-61.585
X83.75Y-62.91
X84.595Y-61.585
X84.6Y-62.91
X85.445Y-61.585
X85.45Y-62.91
X86.295Y-61.585
X86.3Y-62.91
X87.145Y-61.585
X87.15Y-62.91
X87.995Y-61.585
X88.0Y-62.91
X88.85Y-61.585
X88.85Y-62.91
T3
X75.75Y-107.95
X75.75Y-112.83
X61.65Y-137.95
X61.65Y-139.95
X63.65Y-137.95
X63.65Y-139.95
X65.65Y-137.95
X65.65Y-139.95
X43.25Y-100.4
X43.25Y-102.4
X43.25Y-104.4
X43.25Y-106.4
X82.3Y-82.7
X82.3Y-85.24
X82.3Y-87.78
X82.3Y-90.32
X82.3Y-92.86
X82.3Y-95.4
X82.3Y-97.94
X82.3Y-100.48
X82.3Y-103.02
X82.3Y-105.56
X82.3Y-108.1
X82.3Y-110.64
X82.3Y-113.18
X82.3Y-115.72
X82.3Y-118.26
X82.3Y-120.8
X82.3Y-123.34
X82.3Y-125.88
X82.3Y-128.42
X82.3Y-130.96
X97.54Y-82.7
X97.54Y-85.24
X97.54Y-87.78
X97.54Y-90.32
X97.54Y-92.86
X97.54Y-95.4
X97.54Y-97.94
X97.54Y-100.48
X97.54Y-103.02
X97.54Y-105.56
X97.54Y-108.1
X97.54Y-110.64
X97.54Y-113.18
X97.54Y-115.72
X97.54Y-118.26
X97.54Y-120.8
X97.54Y-123.34
X97.54Y-125.88
X97.54Y-128.42
X97.54Y-130.96
T4
X55.75Y-83.22
X55.75Y-85.72
X55.75Y-88.22
X70.25Y-83.22
X70.25Y-88.22
X55.75Y-121.82
X55.75Y-124.32
X55.75Y-126.82
X70.25Y-121.82
X70.25Y-126.82
T5
X52.55Y-109.6
X52.55Y-114.1
X59.05Y-109.6
X59.05Y-114.1
X52.6Y-98.3
X52.6Y-102.8
X59.1Y-98.3
X59.1Y-102.8
T6
X340.95Y-121.1
X347.3Y-118.56
X276.65Y-121.1
X283.0Y-118.56
X367.15Y-140.15
X373.5Y-137.61
X267.15Y-102.05
X273.5Y-99.51
X386.15Y-83.0
X392.5Y-80.46
X214.75Y-63.95
X221.1Y-61.41
X105.2Y-82.99
X111.55Y-80.45
X219.5Y-121.1
X225.85Y-118.56
X162.35Y-121.1
X168.7Y-118.56
X300.45Y-83.0
X306.8Y-80.46
X186.15Y-83.0
X192.5Y-80.46
X152.85Y-102.05
X159.2Y-99.51
X338.55Y-83.0
X344.9Y-80.46
X257.6Y-121.1
X263.95Y-118.56
X129.0Y-83.0
X135.35Y-80.46
X386.2Y-121.1
X392.55Y-118.56
X290.95Y-63.95
X297.3Y-61.41
X100.45Y-63.95
X106.8Y-61.41
X195.7Y-63.95
X202.05Y-61.41
X176.65Y-63.95
X183.0Y-61.41
X355.25Y-102.05
X361.6Y-99.51
X324.3Y-102.05
X330.65Y-99.51
X229.05Y-102.05
X235.4Y-99.51
X171.9Y-102.05
X178.25Y-99.51
X329.05Y-63.94
X335.4Y-61.4
X310.0Y-63.95
X316.35Y-61.41
X362.35Y-83.0
X368.7Y-80.46
X248.1Y-102.05
X254.45Y-99.51
X126.6Y-140.15
X132.95Y-137.61
X262.35Y-83.0
X268.7Y-80.46
X133.8Y-102.05
X140.15Y-99.51
X286.2Y-102.05
X292.55Y-99.51
X348.05Y-140.15
X354.4Y-137.61
X200.45Y-121.1
X206.8Y-118.56
X150.4Y-140.15
X156.75Y-137.61
X295.7Y-121.1
X302.05Y-118.56
X233.8Y-63.95
X240.15Y-61.41
X167.1Y-83.0
X173.45Y-80.46
X309.95Y-140.14
X316.3Y-137.6
X205.2Y-83.0
X211.55Y-80.46
X119.5Y-63.95
X125.85Y-61.41
X386.2Y-63.94
X392.55Y-61.4
X281.4Y-83.0
X287.75Y-80.46
X238.55Y-121.1
X244.9Y-118.56
X102.8Y-140.15
X109.15Y-137.61
X386.2Y-102.05
X392.55Y-99.51
X290.9Y-140.15
X297.25Y-137.61
X148.05Y-83.0
X154.4Y-80.46
X329.0Y-140.15
X335.35Y-137.61
X224.25Y-83.0
X230.6Y-80.46
X138.55Y-63.95
X144.9Y-61.41
X357.6Y-63.95
X363.95Y-61.41
X221.85Y-140.15
X228.2Y-137.61
X181.4Y-121.1
X187.75Y-118.56
X305.25Y-102.05
X311.6Y-99.51
X190.95Y-102.05
X197.3Y-99.51
X143.3Y-121.1
X149.65Y-118.56
X386.2Y-140.15
X392.55Y-137.61
X319.5Y-83.0
X325.85Y-80.46
X243.3Y-83.0
X249.65Y-80.46
X157.6Y-63.95
X163.95Y-61.41
X314.75Y-121.1
X321.1Y-118.56
X210.0Y-102.05
X216.35Y-99.51
X112.35Y-121.1
X118.7Y-118.56
X367.15Y-121.1
X373.5Y-118.56
X271.9Y-63.95
X278.25Y-61.41
X252.85Y-63.95
X259.2Y-61.41
X107.6Y-102.05
X113.95Y-99.51
T2
G00X81.55Y-58.95
M15
G01X81.55Y-58.15
M16
G05
G00X81.55Y-62.68
M15
G01X81.55Y-61.18
M16
G05
G00X90.2Y-58.95
M15
G01X90.2Y-58.15
M16
G05
G00X90.2Y-62.68
M15
G01X90.2Y-61.18
M16
G05
T6
G00X62.6Y-80.12
M15
G01X63.9Y-80.12
M16
G05
G00X62.6Y-91.32
M15
G01X63.9Y-91.32
M16
G05
G00X62.6Y-118.72
M15
G01X63.9Y-118.72
M16
G05
G00X62.6Y-129.92
M15
G01X63.9Y-129.92
M16
G05
T0
M30
