G04 #@! TF.GenerationSoftware,KiCad,Pcbnew,(5.1.0)-1*
G04 #@! TF.CreationDate,2020-08-21T01:29:19+01:00*
G04 #@! TF.ProjectId,marcoboard,6d617263-6f62-46f6-9172-642e6b696361,rev?*
G04 #@! TF.SameCoordinates,Original*
G04 #@! TF.FileFunction,Copper,L1,Top*
G04 #@! TF.FilePolarity,Positive*
%FSLAX46Y46*%
G04 Gerber Fmt 4.6, Leading zero omitted, Abs format (unit mm)*
G04 Created by KiCad (PCBNEW (5.1.0)-1) date 2020-08-21 01:29:19*
%MOMM*%
%LPD*%
G04 APERTURE LIST*
%ADD10O,1.350000X1.350000*%
%ADD11R,1.350000X1.350000*%
%ADD12O,1.600000X1.600000*%
%ADD13R,1.600000X1.600000*%
%ADD14C,2.200000*%
%ADD15C,1.500000*%
%ADD16C,0.650000*%
%ADD17O,0.900000X2.400000*%
%ADD18O,0.900000X1.700000*%
%ADD19C,2.000000*%
%ADD20R,1.060000X0.650000*%
%ADD21C,0.100000*%
%ADD22C,0.875000*%
%ADD23R,2.000000X2.000000*%
%ADD24R,3.200000X2.000000*%
%ADD25C,0.800000*%
%ADD26C,0.250000*%
%ADD27C,0.381000*%
%ADD28C,0.254000*%
G04 APERTURE END LIST*
D10*
X43250000Y-106400000D03*
X43250000Y-104400000D03*
X43250000Y-102400000D03*
D11*
X43250000Y-100400000D03*
D10*
X65650000Y-137950000D03*
X65650000Y-139950000D03*
X63650000Y-137950000D03*
X63650000Y-139950000D03*
X61650000Y-137950000D03*
D11*
X61650000Y-139950000D03*
D12*
X97540000Y-82700000D03*
X82300000Y-130960000D03*
X97540000Y-85240000D03*
X82300000Y-128420000D03*
X97540000Y-87780000D03*
X82300000Y-125880000D03*
X97540000Y-90320000D03*
X82300000Y-123340000D03*
X97540000Y-92860000D03*
X82300000Y-120800000D03*
X97540000Y-95400000D03*
X82300000Y-118260000D03*
X97540000Y-97940000D03*
X82300000Y-115720000D03*
X97540000Y-100480000D03*
X82300000Y-113180000D03*
X97540000Y-103020000D03*
X82300000Y-110640000D03*
X97540000Y-105560000D03*
X82300000Y-108100000D03*
X97540000Y-108100000D03*
X82300000Y-105560000D03*
X97540000Y-110640000D03*
X82300000Y-103020000D03*
X97540000Y-113180000D03*
X82300000Y-100480000D03*
X97540000Y-115720000D03*
X82300000Y-97940000D03*
X97540000Y-118260000D03*
X82300000Y-95400000D03*
X97540000Y-120800000D03*
X82300000Y-92860000D03*
X97540000Y-123340000D03*
X82300000Y-90320000D03*
X97540000Y-125880000D03*
X82300000Y-87780000D03*
X97540000Y-128420000D03*
X82300000Y-85240000D03*
X97540000Y-130960000D03*
D13*
X82300000Y-82700000D03*
D14*
X126600000Y-140150000D03*
X132950000Y-137610000D03*
X357600000Y-63950000D03*
X363950000Y-61410000D03*
X348050000Y-140150000D03*
X354400000Y-137610000D03*
D15*
X75750000Y-107950000D03*
X75750000Y-112830000D03*
D16*
X87150000Y-62910000D03*
X88850000Y-62910000D03*
X88000000Y-62910000D03*
X86300000Y-62910000D03*
X85450000Y-62910000D03*
X84600000Y-62910000D03*
X83750000Y-62910000D03*
X82900000Y-62910000D03*
X88850000Y-61585000D03*
X87995000Y-61585000D03*
X87145000Y-61585000D03*
X86295000Y-61585000D03*
X85445000Y-61585000D03*
X84595000Y-61585000D03*
X83745000Y-61585000D03*
X82895000Y-61585000D03*
D17*
X90200000Y-61930000D03*
X81550000Y-61930000D03*
D18*
X90200000Y-58550000D03*
X81550000Y-58550000D03*
D19*
X59100000Y-102800000D03*
X59100000Y-98300000D03*
X52600000Y-102800000D03*
X52600000Y-98300000D03*
X59050000Y-114100000D03*
X59050000Y-109600000D03*
X52550000Y-114100000D03*
X52550000Y-109600000D03*
D20*
X85150000Y-70900000D03*
X85150000Y-71850000D03*
X85150000Y-69950000D03*
X87350000Y-69950000D03*
X87350000Y-70900000D03*
X87350000Y-71850000D03*
D21*
G36*
X46477691Y-119338553D02*
G01*
X46498926Y-119341703D01*
X46519750Y-119346919D01*
X46539962Y-119354151D01*
X46559368Y-119363330D01*
X46577781Y-119374366D01*
X46595024Y-119387154D01*
X46610930Y-119401570D01*
X46625346Y-119417476D01*
X46638134Y-119434719D01*
X46649170Y-119453132D01*
X46658349Y-119472538D01*
X46665581Y-119492750D01*
X46670797Y-119513574D01*
X46673947Y-119534809D01*
X46675000Y-119556250D01*
X46675000Y-119993750D01*
X46673947Y-120015191D01*
X46670797Y-120036426D01*
X46665581Y-120057250D01*
X46658349Y-120077462D01*
X46649170Y-120096868D01*
X46638134Y-120115281D01*
X46625346Y-120132524D01*
X46610930Y-120148430D01*
X46595024Y-120162846D01*
X46577781Y-120175634D01*
X46559368Y-120186670D01*
X46539962Y-120195849D01*
X46519750Y-120203081D01*
X46498926Y-120208297D01*
X46477691Y-120211447D01*
X46456250Y-120212500D01*
X45943750Y-120212500D01*
X45922309Y-120211447D01*
X45901074Y-120208297D01*
X45880250Y-120203081D01*
X45860038Y-120195849D01*
X45840632Y-120186670D01*
X45822219Y-120175634D01*
X45804976Y-120162846D01*
X45789070Y-120148430D01*
X45774654Y-120132524D01*
X45761866Y-120115281D01*
X45750830Y-120096868D01*
X45741651Y-120077462D01*
X45734419Y-120057250D01*
X45729203Y-120036426D01*
X45726053Y-120015191D01*
X45725000Y-119993750D01*
X45725000Y-119556250D01*
X45726053Y-119534809D01*
X45729203Y-119513574D01*
X45734419Y-119492750D01*
X45741651Y-119472538D01*
X45750830Y-119453132D01*
X45761866Y-119434719D01*
X45774654Y-119417476D01*
X45789070Y-119401570D01*
X45804976Y-119387154D01*
X45822219Y-119374366D01*
X45840632Y-119363330D01*
X45860038Y-119354151D01*
X45880250Y-119346919D01*
X45901074Y-119341703D01*
X45922309Y-119338553D01*
X45943750Y-119337500D01*
X46456250Y-119337500D01*
X46477691Y-119338553D01*
X46477691Y-119338553D01*
G37*
D22*
X46200000Y-119775000D03*
D21*
G36*
X46477691Y-117763553D02*
G01*
X46498926Y-117766703D01*
X46519750Y-117771919D01*
X46539962Y-117779151D01*
X46559368Y-117788330D01*
X46577781Y-117799366D01*
X46595024Y-117812154D01*
X46610930Y-117826570D01*
X46625346Y-117842476D01*
X46638134Y-117859719D01*
X46649170Y-117878132D01*
X46658349Y-117897538D01*
X46665581Y-117917750D01*
X46670797Y-117938574D01*
X46673947Y-117959809D01*
X46675000Y-117981250D01*
X46675000Y-118418750D01*
X46673947Y-118440191D01*
X46670797Y-118461426D01*
X46665581Y-118482250D01*
X46658349Y-118502462D01*
X46649170Y-118521868D01*
X46638134Y-118540281D01*
X46625346Y-118557524D01*
X46610930Y-118573430D01*
X46595024Y-118587846D01*
X46577781Y-118600634D01*
X46559368Y-118611670D01*
X46539962Y-118620849D01*
X46519750Y-118628081D01*
X46498926Y-118633297D01*
X46477691Y-118636447D01*
X46456250Y-118637500D01*
X45943750Y-118637500D01*
X45922309Y-118636447D01*
X45901074Y-118633297D01*
X45880250Y-118628081D01*
X45860038Y-118620849D01*
X45840632Y-118611670D01*
X45822219Y-118600634D01*
X45804976Y-118587846D01*
X45789070Y-118573430D01*
X45774654Y-118557524D01*
X45761866Y-118540281D01*
X45750830Y-118521868D01*
X45741651Y-118502462D01*
X45734419Y-118482250D01*
X45729203Y-118461426D01*
X45726053Y-118440191D01*
X45725000Y-118418750D01*
X45725000Y-117981250D01*
X45726053Y-117959809D01*
X45729203Y-117938574D01*
X45734419Y-117917750D01*
X45741651Y-117897538D01*
X45750830Y-117878132D01*
X45761866Y-117859719D01*
X45774654Y-117842476D01*
X45789070Y-117826570D01*
X45804976Y-117812154D01*
X45822219Y-117799366D01*
X45840632Y-117788330D01*
X45860038Y-117779151D01*
X45880250Y-117771919D01*
X45901074Y-117766703D01*
X45922309Y-117763553D01*
X45943750Y-117762500D01*
X46456250Y-117762500D01*
X46477691Y-117763553D01*
X46477691Y-117763553D01*
G37*
D22*
X46200000Y-118200000D03*
D21*
G36*
X50077691Y-119188553D02*
G01*
X50098926Y-119191703D01*
X50119750Y-119196919D01*
X50139962Y-119204151D01*
X50159368Y-119213330D01*
X50177781Y-119224366D01*
X50195024Y-119237154D01*
X50210930Y-119251570D01*
X50225346Y-119267476D01*
X50238134Y-119284719D01*
X50249170Y-119303132D01*
X50258349Y-119322538D01*
X50265581Y-119342750D01*
X50270797Y-119363574D01*
X50273947Y-119384809D01*
X50275000Y-119406250D01*
X50275000Y-119843750D01*
X50273947Y-119865191D01*
X50270797Y-119886426D01*
X50265581Y-119907250D01*
X50258349Y-119927462D01*
X50249170Y-119946868D01*
X50238134Y-119965281D01*
X50225346Y-119982524D01*
X50210930Y-119998430D01*
X50195024Y-120012846D01*
X50177781Y-120025634D01*
X50159368Y-120036670D01*
X50139962Y-120045849D01*
X50119750Y-120053081D01*
X50098926Y-120058297D01*
X50077691Y-120061447D01*
X50056250Y-120062500D01*
X49543750Y-120062500D01*
X49522309Y-120061447D01*
X49501074Y-120058297D01*
X49480250Y-120053081D01*
X49460038Y-120045849D01*
X49440632Y-120036670D01*
X49422219Y-120025634D01*
X49404976Y-120012846D01*
X49389070Y-119998430D01*
X49374654Y-119982524D01*
X49361866Y-119965281D01*
X49350830Y-119946868D01*
X49341651Y-119927462D01*
X49334419Y-119907250D01*
X49329203Y-119886426D01*
X49326053Y-119865191D01*
X49325000Y-119843750D01*
X49325000Y-119406250D01*
X49326053Y-119384809D01*
X49329203Y-119363574D01*
X49334419Y-119342750D01*
X49341651Y-119322538D01*
X49350830Y-119303132D01*
X49361866Y-119284719D01*
X49374654Y-119267476D01*
X49389070Y-119251570D01*
X49404976Y-119237154D01*
X49422219Y-119224366D01*
X49440632Y-119213330D01*
X49460038Y-119204151D01*
X49480250Y-119196919D01*
X49501074Y-119191703D01*
X49522309Y-119188553D01*
X49543750Y-119187500D01*
X50056250Y-119187500D01*
X50077691Y-119188553D01*
X50077691Y-119188553D01*
G37*
D22*
X49800000Y-119625000D03*
D21*
G36*
X50077691Y-117613553D02*
G01*
X50098926Y-117616703D01*
X50119750Y-117621919D01*
X50139962Y-117629151D01*
X50159368Y-117638330D01*
X50177781Y-117649366D01*
X50195024Y-117662154D01*
X50210930Y-117676570D01*
X50225346Y-117692476D01*
X50238134Y-117709719D01*
X50249170Y-117728132D01*
X50258349Y-117747538D01*
X50265581Y-117767750D01*
X50270797Y-117788574D01*
X50273947Y-117809809D01*
X50275000Y-117831250D01*
X50275000Y-118268750D01*
X50273947Y-118290191D01*
X50270797Y-118311426D01*
X50265581Y-118332250D01*
X50258349Y-118352462D01*
X50249170Y-118371868D01*
X50238134Y-118390281D01*
X50225346Y-118407524D01*
X50210930Y-118423430D01*
X50195024Y-118437846D01*
X50177781Y-118450634D01*
X50159368Y-118461670D01*
X50139962Y-118470849D01*
X50119750Y-118478081D01*
X50098926Y-118483297D01*
X50077691Y-118486447D01*
X50056250Y-118487500D01*
X49543750Y-118487500D01*
X49522309Y-118486447D01*
X49501074Y-118483297D01*
X49480250Y-118478081D01*
X49460038Y-118470849D01*
X49440632Y-118461670D01*
X49422219Y-118450634D01*
X49404976Y-118437846D01*
X49389070Y-118423430D01*
X49374654Y-118407524D01*
X49361866Y-118390281D01*
X49350830Y-118371868D01*
X49341651Y-118352462D01*
X49334419Y-118332250D01*
X49329203Y-118311426D01*
X49326053Y-118290191D01*
X49325000Y-118268750D01*
X49325000Y-117831250D01*
X49326053Y-117809809D01*
X49329203Y-117788574D01*
X49334419Y-117767750D01*
X49341651Y-117747538D01*
X49350830Y-117728132D01*
X49361866Y-117709719D01*
X49374654Y-117692476D01*
X49389070Y-117676570D01*
X49404976Y-117662154D01*
X49422219Y-117649366D01*
X49440632Y-117638330D01*
X49460038Y-117629151D01*
X49480250Y-117621919D01*
X49501074Y-117616703D01*
X49522309Y-117613553D01*
X49543750Y-117612500D01*
X50056250Y-117612500D01*
X50077691Y-117613553D01*
X50077691Y-117613553D01*
G37*
D22*
X49800000Y-118050000D03*
D21*
G36*
X90740191Y-68426053D02*
G01*
X90761426Y-68429203D01*
X90782250Y-68434419D01*
X90802462Y-68441651D01*
X90821868Y-68450830D01*
X90840281Y-68461866D01*
X90857524Y-68474654D01*
X90873430Y-68489070D01*
X90887846Y-68504976D01*
X90900634Y-68522219D01*
X90911670Y-68540632D01*
X90920849Y-68560038D01*
X90928081Y-68580250D01*
X90933297Y-68601074D01*
X90936447Y-68622309D01*
X90937500Y-68643750D01*
X90937500Y-69156250D01*
X90936447Y-69177691D01*
X90933297Y-69198926D01*
X90928081Y-69219750D01*
X90920849Y-69239962D01*
X90911670Y-69259368D01*
X90900634Y-69277781D01*
X90887846Y-69295024D01*
X90873430Y-69310930D01*
X90857524Y-69325346D01*
X90840281Y-69338134D01*
X90821868Y-69349170D01*
X90802462Y-69358349D01*
X90782250Y-69365581D01*
X90761426Y-69370797D01*
X90740191Y-69373947D01*
X90718750Y-69375000D01*
X90281250Y-69375000D01*
X90259809Y-69373947D01*
X90238574Y-69370797D01*
X90217750Y-69365581D01*
X90197538Y-69358349D01*
X90178132Y-69349170D01*
X90159719Y-69338134D01*
X90142476Y-69325346D01*
X90126570Y-69310930D01*
X90112154Y-69295024D01*
X90099366Y-69277781D01*
X90088330Y-69259368D01*
X90079151Y-69239962D01*
X90071919Y-69219750D01*
X90066703Y-69198926D01*
X90063553Y-69177691D01*
X90062500Y-69156250D01*
X90062500Y-68643750D01*
X90063553Y-68622309D01*
X90066703Y-68601074D01*
X90071919Y-68580250D01*
X90079151Y-68560038D01*
X90088330Y-68540632D01*
X90099366Y-68522219D01*
X90112154Y-68504976D01*
X90126570Y-68489070D01*
X90142476Y-68474654D01*
X90159719Y-68461866D01*
X90178132Y-68450830D01*
X90197538Y-68441651D01*
X90217750Y-68434419D01*
X90238574Y-68429203D01*
X90259809Y-68426053D01*
X90281250Y-68425000D01*
X90718750Y-68425000D01*
X90740191Y-68426053D01*
X90740191Y-68426053D01*
G37*
D22*
X90500000Y-68900000D03*
D21*
G36*
X92315191Y-68426053D02*
G01*
X92336426Y-68429203D01*
X92357250Y-68434419D01*
X92377462Y-68441651D01*
X92396868Y-68450830D01*
X92415281Y-68461866D01*
X92432524Y-68474654D01*
X92448430Y-68489070D01*
X92462846Y-68504976D01*
X92475634Y-68522219D01*
X92486670Y-68540632D01*
X92495849Y-68560038D01*
X92503081Y-68580250D01*
X92508297Y-68601074D01*
X92511447Y-68622309D01*
X92512500Y-68643750D01*
X92512500Y-69156250D01*
X92511447Y-69177691D01*
X92508297Y-69198926D01*
X92503081Y-69219750D01*
X92495849Y-69239962D01*
X92486670Y-69259368D01*
X92475634Y-69277781D01*
X92462846Y-69295024D01*
X92448430Y-69310930D01*
X92432524Y-69325346D01*
X92415281Y-69338134D01*
X92396868Y-69349170D01*
X92377462Y-69358349D01*
X92357250Y-69365581D01*
X92336426Y-69370797D01*
X92315191Y-69373947D01*
X92293750Y-69375000D01*
X91856250Y-69375000D01*
X91834809Y-69373947D01*
X91813574Y-69370797D01*
X91792750Y-69365581D01*
X91772538Y-69358349D01*
X91753132Y-69349170D01*
X91734719Y-69338134D01*
X91717476Y-69325346D01*
X91701570Y-69310930D01*
X91687154Y-69295024D01*
X91674366Y-69277781D01*
X91663330Y-69259368D01*
X91654151Y-69239962D01*
X91646919Y-69219750D01*
X91641703Y-69198926D01*
X91638553Y-69177691D01*
X91637500Y-69156250D01*
X91637500Y-68643750D01*
X91638553Y-68622309D01*
X91641703Y-68601074D01*
X91646919Y-68580250D01*
X91654151Y-68560038D01*
X91663330Y-68540632D01*
X91674366Y-68522219D01*
X91687154Y-68504976D01*
X91701570Y-68489070D01*
X91717476Y-68474654D01*
X91734719Y-68461866D01*
X91753132Y-68450830D01*
X91772538Y-68441651D01*
X91792750Y-68434419D01*
X91813574Y-68429203D01*
X91834809Y-68426053D01*
X91856250Y-68425000D01*
X92293750Y-68425000D01*
X92315191Y-68426053D01*
X92315191Y-68426053D01*
G37*
D22*
X92075000Y-68900000D03*
D21*
G36*
X90740191Y-72076053D02*
G01*
X90761426Y-72079203D01*
X90782250Y-72084419D01*
X90802462Y-72091651D01*
X90821868Y-72100830D01*
X90840281Y-72111866D01*
X90857524Y-72124654D01*
X90873430Y-72139070D01*
X90887846Y-72154976D01*
X90900634Y-72172219D01*
X90911670Y-72190632D01*
X90920849Y-72210038D01*
X90928081Y-72230250D01*
X90933297Y-72251074D01*
X90936447Y-72272309D01*
X90937500Y-72293750D01*
X90937500Y-72806250D01*
X90936447Y-72827691D01*
X90933297Y-72848926D01*
X90928081Y-72869750D01*
X90920849Y-72889962D01*
X90911670Y-72909368D01*
X90900634Y-72927781D01*
X90887846Y-72945024D01*
X90873430Y-72960930D01*
X90857524Y-72975346D01*
X90840281Y-72988134D01*
X90821868Y-72999170D01*
X90802462Y-73008349D01*
X90782250Y-73015581D01*
X90761426Y-73020797D01*
X90740191Y-73023947D01*
X90718750Y-73025000D01*
X90281250Y-73025000D01*
X90259809Y-73023947D01*
X90238574Y-73020797D01*
X90217750Y-73015581D01*
X90197538Y-73008349D01*
X90178132Y-72999170D01*
X90159719Y-72988134D01*
X90142476Y-72975346D01*
X90126570Y-72960930D01*
X90112154Y-72945024D01*
X90099366Y-72927781D01*
X90088330Y-72909368D01*
X90079151Y-72889962D01*
X90071919Y-72869750D01*
X90066703Y-72848926D01*
X90063553Y-72827691D01*
X90062500Y-72806250D01*
X90062500Y-72293750D01*
X90063553Y-72272309D01*
X90066703Y-72251074D01*
X90071919Y-72230250D01*
X90079151Y-72210038D01*
X90088330Y-72190632D01*
X90099366Y-72172219D01*
X90112154Y-72154976D01*
X90126570Y-72139070D01*
X90142476Y-72124654D01*
X90159719Y-72111866D01*
X90178132Y-72100830D01*
X90197538Y-72091651D01*
X90217750Y-72084419D01*
X90238574Y-72079203D01*
X90259809Y-72076053D01*
X90281250Y-72075000D01*
X90718750Y-72075000D01*
X90740191Y-72076053D01*
X90740191Y-72076053D01*
G37*
D22*
X90500000Y-72550000D03*
D21*
G36*
X92315191Y-72076053D02*
G01*
X92336426Y-72079203D01*
X92357250Y-72084419D01*
X92377462Y-72091651D01*
X92396868Y-72100830D01*
X92415281Y-72111866D01*
X92432524Y-72124654D01*
X92448430Y-72139070D01*
X92462846Y-72154976D01*
X92475634Y-72172219D01*
X92486670Y-72190632D01*
X92495849Y-72210038D01*
X92503081Y-72230250D01*
X92508297Y-72251074D01*
X92511447Y-72272309D01*
X92512500Y-72293750D01*
X92512500Y-72806250D01*
X92511447Y-72827691D01*
X92508297Y-72848926D01*
X92503081Y-72869750D01*
X92495849Y-72889962D01*
X92486670Y-72909368D01*
X92475634Y-72927781D01*
X92462846Y-72945024D01*
X92448430Y-72960930D01*
X92432524Y-72975346D01*
X92415281Y-72988134D01*
X92396868Y-72999170D01*
X92377462Y-73008349D01*
X92357250Y-73015581D01*
X92336426Y-73020797D01*
X92315191Y-73023947D01*
X92293750Y-73025000D01*
X91856250Y-73025000D01*
X91834809Y-73023947D01*
X91813574Y-73020797D01*
X91792750Y-73015581D01*
X91772538Y-73008349D01*
X91753132Y-72999170D01*
X91734719Y-72988134D01*
X91717476Y-72975346D01*
X91701570Y-72960930D01*
X91687154Y-72945024D01*
X91674366Y-72927781D01*
X91663330Y-72909368D01*
X91654151Y-72889962D01*
X91646919Y-72869750D01*
X91641703Y-72848926D01*
X91638553Y-72827691D01*
X91637500Y-72806250D01*
X91637500Y-72293750D01*
X91638553Y-72272309D01*
X91641703Y-72251074D01*
X91646919Y-72230250D01*
X91654151Y-72210038D01*
X91663330Y-72190632D01*
X91674366Y-72172219D01*
X91687154Y-72154976D01*
X91701570Y-72139070D01*
X91717476Y-72124654D01*
X91734719Y-72111866D01*
X91753132Y-72100830D01*
X91772538Y-72091651D01*
X91792750Y-72084419D01*
X91813574Y-72079203D01*
X91834809Y-72076053D01*
X91856250Y-72075000D01*
X92293750Y-72075000D01*
X92315191Y-72076053D01*
X92315191Y-72076053D01*
G37*
D22*
X92075000Y-72550000D03*
D21*
G36*
X95827691Y-61063553D02*
G01*
X95848926Y-61066703D01*
X95869750Y-61071919D01*
X95889962Y-61079151D01*
X95909368Y-61088330D01*
X95927781Y-61099366D01*
X95945024Y-61112154D01*
X95960930Y-61126570D01*
X95975346Y-61142476D01*
X95988134Y-61159719D01*
X95999170Y-61178132D01*
X96008349Y-61197538D01*
X96015581Y-61217750D01*
X96020797Y-61238574D01*
X96023947Y-61259809D01*
X96025000Y-61281250D01*
X96025000Y-61718750D01*
X96023947Y-61740191D01*
X96020797Y-61761426D01*
X96015581Y-61782250D01*
X96008349Y-61802462D01*
X95999170Y-61821868D01*
X95988134Y-61840281D01*
X95975346Y-61857524D01*
X95960930Y-61873430D01*
X95945024Y-61887846D01*
X95927781Y-61900634D01*
X95909368Y-61911670D01*
X95889962Y-61920849D01*
X95869750Y-61928081D01*
X95848926Y-61933297D01*
X95827691Y-61936447D01*
X95806250Y-61937500D01*
X95293750Y-61937500D01*
X95272309Y-61936447D01*
X95251074Y-61933297D01*
X95230250Y-61928081D01*
X95210038Y-61920849D01*
X95190632Y-61911670D01*
X95172219Y-61900634D01*
X95154976Y-61887846D01*
X95139070Y-61873430D01*
X95124654Y-61857524D01*
X95111866Y-61840281D01*
X95100830Y-61821868D01*
X95091651Y-61802462D01*
X95084419Y-61782250D01*
X95079203Y-61761426D01*
X95076053Y-61740191D01*
X95075000Y-61718750D01*
X95075000Y-61281250D01*
X95076053Y-61259809D01*
X95079203Y-61238574D01*
X95084419Y-61217750D01*
X95091651Y-61197538D01*
X95100830Y-61178132D01*
X95111866Y-61159719D01*
X95124654Y-61142476D01*
X95139070Y-61126570D01*
X95154976Y-61112154D01*
X95172219Y-61099366D01*
X95190632Y-61088330D01*
X95210038Y-61079151D01*
X95230250Y-61071919D01*
X95251074Y-61066703D01*
X95272309Y-61063553D01*
X95293750Y-61062500D01*
X95806250Y-61062500D01*
X95827691Y-61063553D01*
X95827691Y-61063553D01*
G37*
D22*
X95550000Y-61500000D03*
D21*
G36*
X95827691Y-62638553D02*
G01*
X95848926Y-62641703D01*
X95869750Y-62646919D01*
X95889962Y-62654151D01*
X95909368Y-62663330D01*
X95927781Y-62674366D01*
X95945024Y-62687154D01*
X95960930Y-62701570D01*
X95975346Y-62717476D01*
X95988134Y-62734719D01*
X95999170Y-62753132D01*
X96008349Y-62772538D01*
X96015581Y-62792750D01*
X96020797Y-62813574D01*
X96023947Y-62834809D01*
X96025000Y-62856250D01*
X96025000Y-63293750D01*
X96023947Y-63315191D01*
X96020797Y-63336426D01*
X96015581Y-63357250D01*
X96008349Y-63377462D01*
X95999170Y-63396868D01*
X95988134Y-63415281D01*
X95975346Y-63432524D01*
X95960930Y-63448430D01*
X95945024Y-63462846D01*
X95927781Y-63475634D01*
X95909368Y-63486670D01*
X95889962Y-63495849D01*
X95869750Y-63503081D01*
X95848926Y-63508297D01*
X95827691Y-63511447D01*
X95806250Y-63512500D01*
X95293750Y-63512500D01*
X95272309Y-63511447D01*
X95251074Y-63508297D01*
X95230250Y-63503081D01*
X95210038Y-63495849D01*
X95190632Y-63486670D01*
X95172219Y-63475634D01*
X95154976Y-63462846D01*
X95139070Y-63448430D01*
X95124654Y-63432524D01*
X95111866Y-63415281D01*
X95100830Y-63396868D01*
X95091651Y-63377462D01*
X95084419Y-63357250D01*
X95079203Y-63336426D01*
X95076053Y-63315191D01*
X95075000Y-63293750D01*
X95075000Y-62856250D01*
X95076053Y-62834809D01*
X95079203Y-62813574D01*
X95084419Y-62792750D01*
X95091651Y-62772538D01*
X95100830Y-62753132D01*
X95111866Y-62734719D01*
X95124654Y-62717476D01*
X95139070Y-62701570D01*
X95154976Y-62687154D01*
X95172219Y-62674366D01*
X95190632Y-62663330D01*
X95210038Y-62654151D01*
X95230250Y-62646919D01*
X95251074Y-62641703D01*
X95272309Y-62638553D01*
X95293750Y-62637500D01*
X95806250Y-62637500D01*
X95827691Y-62638553D01*
X95827691Y-62638553D01*
G37*
D22*
X95550000Y-63075000D03*
D21*
G36*
X93177691Y-62638553D02*
G01*
X93198926Y-62641703D01*
X93219750Y-62646919D01*
X93239962Y-62654151D01*
X93259368Y-62663330D01*
X93277781Y-62674366D01*
X93295024Y-62687154D01*
X93310930Y-62701570D01*
X93325346Y-62717476D01*
X93338134Y-62734719D01*
X93349170Y-62753132D01*
X93358349Y-62772538D01*
X93365581Y-62792750D01*
X93370797Y-62813574D01*
X93373947Y-62834809D01*
X93375000Y-62856250D01*
X93375000Y-63293750D01*
X93373947Y-63315191D01*
X93370797Y-63336426D01*
X93365581Y-63357250D01*
X93358349Y-63377462D01*
X93349170Y-63396868D01*
X93338134Y-63415281D01*
X93325346Y-63432524D01*
X93310930Y-63448430D01*
X93295024Y-63462846D01*
X93277781Y-63475634D01*
X93259368Y-63486670D01*
X93239962Y-63495849D01*
X93219750Y-63503081D01*
X93198926Y-63508297D01*
X93177691Y-63511447D01*
X93156250Y-63512500D01*
X92643750Y-63512500D01*
X92622309Y-63511447D01*
X92601074Y-63508297D01*
X92580250Y-63503081D01*
X92560038Y-63495849D01*
X92540632Y-63486670D01*
X92522219Y-63475634D01*
X92504976Y-63462846D01*
X92489070Y-63448430D01*
X92474654Y-63432524D01*
X92461866Y-63415281D01*
X92450830Y-63396868D01*
X92441651Y-63377462D01*
X92434419Y-63357250D01*
X92429203Y-63336426D01*
X92426053Y-63315191D01*
X92425000Y-63293750D01*
X92425000Y-62856250D01*
X92426053Y-62834809D01*
X92429203Y-62813574D01*
X92434419Y-62792750D01*
X92441651Y-62772538D01*
X92450830Y-62753132D01*
X92461866Y-62734719D01*
X92474654Y-62717476D01*
X92489070Y-62701570D01*
X92504976Y-62687154D01*
X92522219Y-62674366D01*
X92540632Y-62663330D01*
X92560038Y-62654151D01*
X92580250Y-62646919D01*
X92601074Y-62641703D01*
X92622309Y-62638553D01*
X92643750Y-62637500D01*
X93156250Y-62637500D01*
X93177691Y-62638553D01*
X93177691Y-62638553D01*
G37*
D22*
X92900000Y-63075000D03*
D21*
G36*
X93177691Y-61063553D02*
G01*
X93198926Y-61066703D01*
X93219750Y-61071919D01*
X93239962Y-61079151D01*
X93259368Y-61088330D01*
X93277781Y-61099366D01*
X93295024Y-61112154D01*
X93310930Y-61126570D01*
X93325346Y-61142476D01*
X93338134Y-61159719D01*
X93349170Y-61178132D01*
X93358349Y-61197538D01*
X93365581Y-61217750D01*
X93370797Y-61238574D01*
X93373947Y-61259809D01*
X93375000Y-61281250D01*
X93375000Y-61718750D01*
X93373947Y-61740191D01*
X93370797Y-61761426D01*
X93365581Y-61782250D01*
X93358349Y-61802462D01*
X93349170Y-61821868D01*
X93338134Y-61840281D01*
X93325346Y-61857524D01*
X93310930Y-61873430D01*
X93295024Y-61887846D01*
X93277781Y-61900634D01*
X93259368Y-61911670D01*
X93239962Y-61920849D01*
X93219750Y-61928081D01*
X93198926Y-61933297D01*
X93177691Y-61936447D01*
X93156250Y-61937500D01*
X92643750Y-61937500D01*
X92622309Y-61936447D01*
X92601074Y-61933297D01*
X92580250Y-61928081D01*
X92560038Y-61920849D01*
X92540632Y-61911670D01*
X92522219Y-61900634D01*
X92504976Y-61887846D01*
X92489070Y-61873430D01*
X92474654Y-61857524D01*
X92461866Y-61840281D01*
X92450830Y-61821868D01*
X92441651Y-61802462D01*
X92434419Y-61782250D01*
X92429203Y-61761426D01*
X92426053Y-61740191D01*
X92425000Y-61718750D01*
X92425000Y-61281250D01*
X92426053Y-61259809D01*
X92429203Y-61238574D01*
X92434419Y-61217750D01*
X92441651Y-61197538D01*
X92450830Y-61178132D01*
X92461866Y-61159719D01*
X92474654Y-61142476D01*
X92489070Y-61126570D01*
X92504976Y-61112154D01*
X92522219Y-61099366D01*
X92540632Y-61088330D01*
X92560038Y-61079151D01*
X92580250Y-61071919D01*
X92601074Y-61066703D01*
X92622309Y-61063553D01*
X92643750Y-61062500D01*
X93156250Y-61062500D01*
X93177691Y-61063553D01*
X93177691Y-61063553D01*
G37*
D22*
X92900000Y-61500000D03*
D21*
G36*
X62127691Y-108763553D02*
G01*
X62148926Y-108766703D01*
X62169750Y-108771919D01*
X62189962Y-108779151D01*
X62209368Y-108788330D01*
X62227781Y-108799366D01*
X62245024Y-108812154D01*
X62260930Y-108826570D01*
X62275346Y-108842476D01*
X62288134Y-108859719D01*
X62299170Y-108878132D01*
X62308349Y-108897538D01*
X62315581Y-108917750D01*
X62320797Y-108938574D01*
X62323947Y-108959809D01*
X62325000Y-108981250D01*
X62325000Y-109418750D01*
X62323947Y-109440191D01*
X62320797Y-109461426D01*
X62315581Y-109482250D01*
X62308349Y-109502462D01*
X62299170Y-109521868D01*
X62288134Y-109540281D01*
X62275346Y-109557524D01*
X62260930Y-109573430D01*
X62245024Y-109587846D01*
X62227781Y-109600634D01*
X62209368Y-109611670D01*
X62189962Y-109620849D01*
X62169750Y-109628081D01*
X62148926Y-109633297D01*
X62127691Y-109636447D01*
X62106250Y-109637500D01*
X61593750Y-109637500D01*
X61572309Y-109636447D01*
X61551074Y-109633297D01*
X61530250Y-109628081D01*
X61510038Y-109620849D01*
X61490632Y-109611670D01*
X61472219Y-109600634D01*
X61454976Y-109587846D01*
X61439070Y-109573430D01*
X61424654Y-109557524D01*
X61411866Y-109540281D01*
X61400830Y-109521868D01*
X61391651Y-109502462D01*
X61384419Y-109482250D01*
X61379203Y-109461426D01*
X61376053Y-109440191D01*
X61375000Y-109418750D01*
X61375000Y-108981250D01*
X61376053Y-108959809D01*
X61379203Y-108938574D01*
X61384419Y-108917750D01*
X61391651Y-108897538D01*
X61400830Y-108878132D01*
X61411866Y-108859719D01*
X61424654Y-108842476D01*
X61439070Y-108826570D01*
X61454976Y-108812154D01*
X61472219Y-108799366D01*
X61490632Y-108788330D01*
X61510038Y-108779151D01*
X61530250Y-108771919D01*
X61551074Y-108766703D01*
X61572309Y-108763553D01*
X61593750Y-108762500D01*
X62106250Y-108762500D01*
X62127691Y-108763553D01*
X62127691Y-108763553D01*
G37*
D22*
X61850000Y-109200000D03*
D21*
G36*
X62127691Y-107188553D02*
G01*
X62148926Y-107191703D01*
X62169750Y-107196919D01*
X62189962Y-107204151D01*
X62209368Y-107213330D01*
X62227781Y-107224366D01*
X62245024Y-107237154D01*
X62260930Y-107251570D01*
X62275346Y-107267476D01*
X62288134Y-107284719D01*
X62299170Y-107303132D01*
X62308349Y-107322538D01*
X62315581Y-107342750D01*
X62320797Y-107363574D01*
X62323947Y-107384809D01*
X62325000Y-107406250D01*
X62325000Y-107843750D01*
X62323947Y-107865191D01*
X62320797Y-107886426D01*
X62315581Y-107907250D01*
X62308349Y-107927462D01*
X62299170Y-107946868D01*
X62288134Y-107965281D01*
X62275346Y-107982524D01*
X62260930Y-107998430D01*
X62245024Y-108012846D01*
X62227781Y-108025634D01*
X62209368Y-108036670D01*
X62189962Y-108045849D01*
X62169750Y-108053081D01*
X62148926Y-108058297D01*
X62127691Y-108061447D01*
X62106250Y-108062500D01*
X61593750Y-108062500D01*
X61572309Y-108061447D01*
X61551074Y-108058297D01*
X61530250Y-108053081D01*
X61510038Y-108045849D01*
X61490632Y-108036670D01*
X61472219Y-108025634D01*
X61454976Y-108012846D01*
X61439070Y-107998430D01*
X61424654Y-107982524D01*
X61411866Y-107965281D01*
X61400830Y-107946868D01*
X61391651Y-107927462D01*
X61384419Y-107907250D01*
X61379203Y-107886426D01*
X61376053Y-107865191D01*
X61375000Y-107843750D01*
X61375000Y-107406250D01*
X61376053Y-107384809D01*
X61379203Y-107363574D01*
X61384419Y-107342750D01*
X61391651Y-107322538D01*
X61400830Y-107303132D01*
X61411866Y-107284719D01*
X61424654Y-107267476D01*
X61439070Y-107251570D01*
X61454976Y-107237154D01*
X61472219Y-107224366D01*
X61490632Y-107213330D01*
X61510038Y-107204151D01*
X61530250Y-107196919D01*
X61551074Y-107191703D01*
X61572309Y-107188553D01*
X61593750Y-107187500D01*
X62106250Y-107187500D01*
X62127691Y-107188553D01*
X62127691Y-107188553D01*
G37*
D22*
X61850000Y-107625000D03*
D14*
X386200000Y-140150000D03*
X392550000Y-137610000D03*
X386200000Y-121100000D03*
X392550000Y-118560000D03*
X386200000Y-102050000D03*
X392550000Y-99510000D03*
X386150000Y-83000000D03*
X392500000Y-80460000D03*
X386200000Y-63940000D03*
X392550000Y-61400000D03*
X367150000Y-140150000D03*
X373500000Y-137610000D03*
X367150000Y-121100000D03*
X373500000Y-118560000D03*
X355250000Y-102050000D03*
X361600000Y-99510000D03*
X362350000Y-83000000D03*
X368700000Y-80460000D03*
X340950000Y-121100000D03*
X347300000Y-118560000D03*
X338550000Y-83000000D03*
X344900000Y-80460000D03*
X329050000Y-63940000D03*
X335400000Y-61400000D03*
X329000000Y-140150000D03*
X335350000Y-137610000D03*
X324300000Y-102050000D03*
X330650000Y-99510000D03*
X319500000Y-83000000D03*
X325850000Y-80460000D03*
X310000000Y-63950000D03*
X316350000Y-61410000D03*
X309950000Y-140140000D03*
X316300000Y-137600000D03*
X314750000Y-121100000D03*
X321100000Y-118560000D03*
X305250000Y-102050000D03*
X311600000Y-99510000D03*
X300450000Y-83000000D03*
X306800000Y-80460000D03*
X290950000Y-63950000D03*
X297300000Y-61410000D03*
X290900000Y-140150000D03*
X297250000Y-137610000D03*
X295700000Y-121100000D03*
X302050000Y-118560000D03*
X286200000Y-102050000D03*
X292550000Y-99510000D03*
X281400000Y-83000000D03*
X287750000Y-80460000D03*
X271900000Y-63950000D03*
X278250000Y-61410000D03*
X276650000Y-121100000D03*
X283000000Y-118560000D03*
X267150000Y-102050000D03*
X273500000Y-99510000D03*
X262350000Y-83000000D03*
X268700000Y-80460000D03*
X252850000Y-63950000D03*
X259200000Y-61410000D03*
X257600000Y-121100000D03*
X263950000Y-118560000D03*
X248100000Y-102050000D03*
X254450000Y-99510000D03*
X243300000Y-83000000D03*
X249650000Y-80460000D03*
X233800000Y-63950000D03*
X240150000Y-61410000D03*
X238550000Y-121100000D03*
X244900000Y-118560000D03*
X229050000Y-102050000D03*
X235400000Y-99510000D03*
X224250000Y-83000000D03*
X230600000Y-80460000D03*
X214750000Y-63950000D03*
X221100000Y-61410000D03*
X221850000Y-140150000D03*
X228200000Y-137610000D03*
X219500000Y-121100000D03*
X225850000Y-118560000D03*
X210000000Y-102050000D03*
X216350000Y-99510000D03*
X205200000Y-83000000D03*
X211550000Y-80460000D03*
X195700000Y-63950000D03*
X202050000Y-61410000D03*
X200450000Y-121100000D03*
X206800000Y-118560000D03*
X190950000Y-102050000D03*
X197300000Y-99510000D03*
X186150000Y-83000000D03*
X192500000Y-80460000D03*
X176650000Y-63950000D03*
X183000000Y-61410000D03*
X181400000Y-121100000D03*
X187750000Y-118560000D03*
X171900000Y-102050000D03*
X178250000Y-99510000D03*
X167100000Y-83000000D03*
X173450000Y-80460000D03*
X157600000Y-63950000D03*
X163950000Y-61410000D03*
X150400000Y-140150000D03*
X156750000Y-137610000D03*
X162350000Y-121100000D03*
X168700000Y-118560000D03*
X152850000Y-102050000D03*
X159200000Y-99510000D03*
X148050000Y-83000000D03*
X154400000Y-80460000D03*
X138550000Y-63950000D03*
X144900000Y-61410000D03*
X143300000Y-121100000D03*
X149650000Y-118560000D03*
X133800000Y-102050000D03*
X140150000Y-99510000D03*
X129000000Y-83000000D03*
X135350000Y-80460000D03*
X119500000Y-63950000D03*
X125850000Y-61410000D03*
X102800000Y-140150000D03*
X109150000Y-137610000D03*
X112350000Y-121100000D03*
X118700000Y-118560000D03*
X107600000Y-102050000D03*
X113950000Y-99510000D03*
X105200000Y-82990000D03*
X111550000Y-80450000D03*
X100450000Y-63950000D03*
X106800000Y-61410000D03*
D21*
G36*
X78177691Y-64013553D02*
G01*
X78198926Y-64016703D01*
X78219750Y-64021919D01*
X78239962Y-64029151D01*
X78259368Y-64038330D01*
X78277781Y-64049366D01*
X78295024Y-64062154D01*
X78310930Y-64076570D01*
X78325346Y-64092476D01*
X78338134Y-64109719D01*
X78349170Y-64128132D01*
X78358349Y-64147538D01*
X78365581Y-64167750D01*
X78370797Y-64188574D01*
X78373947Y-64209809D01*
X78375000Y-64231250D01*
X78375000Y-64668750D01*
X78373947Y-64690191D01*
X78370797Y-64711426D01*
X78365581Y-64732250D01*
X78358349Y-64752462D01*
X78349170Y-64771868D01*
X78338134Y-64790281D01*
X78325346Y-64807524D01*
X78310930Y-64823430D01*
X78295024Y-64837846D01*
X78277781Y-64850634D01*
X78259368Y-64861670D01*
X78239962Y-64870849D01*
X78219750Y-64878081D01*
X78198926Y-64883297D01*
X78177691Y-64886447D01*
X78156250Y-64887500D01*
X77643750Y-64887500D01*
X77622309Y-64886447D01*
X77601074Y-64883297D01*
X77580250Y-64878081D01*
X77560038Y-64870849D01*
X77540632Y-64861670D01*
X77522219Y-64850634D01*
X77504976Y-64837846D01*
X77489070Y-64823430D01*
X77474654Y-64807524D01*
X77461866Y-64790281D01*
X77450830Y-64771868D01*
X77441651Y-64752462D01*
X77434419Y-64732250D01*
X77429203Y-64711426D01*
X77426053Y-64690191D01*
X77425000Y-64668750D01*
X77425000Y-64231250D01*
X77426053Y-64209809D01*
X77429203Y-64188574D01*
X77434419Y-64167750D01*
X77441651Y-64147538D01*
X77450830Y-64128132D01*
X77461866Y-64109719D01*
X77474654Y-64092476D01*
X77489070Y-64076570D01*
X77504976Y-64062154D01*
X77522219Y-64049366D01*
X77540632Y-64038330D01*
X77560038Y-64029151D01*
X77580250Y-64021919D01*
X77601074Y-64016703D01*
X77622309Y-64013553D01*
X77643750Y-64012500D01*
X78156250Y-64012500D01*
X78177691Y-64013553D01*
X78177691Y-64013553D01*
G37*
D22*
X77900000Y-64450000D03*
D21*
G36*
X78177691Y-65588553D02*
G01*
X78198926Y-65591703D01*
X78219750Y-65596919D01*
X78239962Y-65604151D01*
X78259368Y-65613330D01*
X78277781Y-65624366D01*
X78295024Y-65637154D01*
X78310930Y-65651570D01*
X78325346Y-65667476D01*
X78338134Y-65684719D01*
X78349170Y-65703132D01*
X78358349Y-65722538D01*
X78365581Y-65742750D01*
X78370797Y-65763574D01*
X78373947Y-65784809D01*
X78375000Y-65806250D01*
X78375000Y-66243750D01*
X78373947Y-66265191D01*
X78370797Y-66286426D01*
X78365581Y-66307250D01*
X78358349Y-66327462D01*
X78349170Y-66346868D01*
X78338134Y-66365281D01*
X78325346Y-66382524D01*
X78310930Y-66398430D01*
X78295024Y-66412846D01*
X78277781Y-66425634D01*
X78259368Y-66436670D01*
X78239962Y-66445849D01*
X78219750Y-66453081D01*
X78198926Y-66458297D01*
X78177691Y-66461447D01*
X78156250Y-66462500D01*
X77643750Y-66462500D01*
X77622309Y-66461447D01*
X77601074Y-66458297D01*
X77580250Y-66453081D01*
X77560038Y-66445849D01*
X77540632Y-66436670D01*
X77522219Y-66425634D01*
X77504976Y-66412846D01*
X77489070Y-66398430D01*
X77474654Y-66382524D01*
X77461866Y-66365281D01*
X77450830Y-66346868D01*
X77441651Y-66327462D01*
X77434419Y-66307250D01*
X77429203Y-66286426D01*
X77426053Y-66265191D01*
X77425000Y-66243750D01*
X77425000Y-65806250D01*
X77426053Y-65784809D01*
X77429203Y-65763574D01*
X77434419Y-65742750D01*
X77441651Y-65722538D01*
X77450830Y-65703132D01*
X77461866Y-65684719D01*
X77474654Y-65667476D01*
X77489070Y-65651570D01*
X77504976Y-65637154D01*
X77522219Y-65624366D01*
X77540632Y-65613330D01*
X77560038Y-65604151D01*
X77580250Y-65596919D01*
X77601074Y-65591703D01*
X77622309Y-65588553D01*
X77643750Y-65587500D01*
X78156250Y-65587500D01*
X78177691Y-65588553D01*
X78177691Y-65588553D01*
G37*
D22*
X77900000Y-66025000D03*
D23*
X55750000Y-121820000D03*
D19*
X55750000Y-124320000D03*
X55750000Y-126820000D03*
D24*
X63250000Y-118720000D03*
X63250000Y-129920000D03*
D19*
X70250000Y-121820000D03*
X70250000Y-126820000D03*
D23*
X55750000Y-83220000D03*
D19*
X55750000Y-85720000D03*
X55750000Y-88220000D03*
D24*
X63250000Y-80120000D03*
X63250000Y-91320000D03*
D19*
X70250000Y-83220000D03*
X70250000Y-88220000D03*
D21*
G36*
X73815191Y-73076053D02*
G01*
X73836426Y-73079203D01*
X73857250Y-73084419D01*
X73877462Y-73091651D01*
X73896868Y-73100830D01*
X73915281Y-73111866D01*
X73932524Y-73124654D01*
X73948430Y-73139070D01*
X73962846Y-73154976D01*
X73975634Y-73172219D01*
X73986670Y-73190632D01*
X73995849Y-73210038D01*
X74003081Y-73230250D01*
X74008297Y-73251074D01*
X74011447Y-73272309D01*
X74012500Y-73293750D01*
X74012500Y-73806250D01*
X74011447Y-73827691D01*
X74008297Y-73848926D01*
X74003081Y-73869750D01*
X73995849Y-73889962D01*
X73986670Y-73909368D01*
X73975634Y-73927781D01*
X73962846Y-73945024D01*
X73948430Y-73960930D01*
X73932524Y-73975346D01*
X73915281Y-73988134D01*
X73896868Y-73999170D01*
X73877462Y-74008349D01*
X73857250Y-74015581D01*
X73836426Y-74020797D01*
X73815191Y-74023947D01*
X73793750Y-74025000D01*
X73356250Y-74025000D01*
X73334809Y-74023947D01*
X73313574Y-74020797D01*
X73292750Y-74015581D01*
X73272538Y-74008349D01*
X73253132Y-73999170D01*
X73234719Y-73988134D01*
X73217476Y-73975346D01*
X73201570Y-73960930D01*
X73187154Y-73945024D01*
X73174366Y-73927781D01*
X73163330Y-73909368D01*
X73154151Y-73889962D01*
X73146919Y-73869750D01*
X73141703Y-73848926D01*
X73138553Y-73827691D01*
X73137500Y-73806250D01*
X73137500Y-73293750D01*
X73138553Y-73272309D01*
X73141703Y-73251074D01*
X73146919Y-73230250D01*
X73154151Y-73210038D01*
X73163330Y-73190632D01*
X73174366Y-73172219D01*
X73187154Y-73154976D01*
X73201570Y-73139070D01*
X73217476Y-73124654D01*
X73234719Y-73111866D01*
X73253132Y-73100830D01*
X73272538Y-73091651D01*
X73292750Y-73084419D01*
X73313574Y-73079203D01*
X73334809Y-73076053D01*
X73356250Y-73075000D01*
X73793750Y-73075000D01*
X73815191Y-73076053D01*
X73815191Y-73076053D01*
G37*
D22*
X73575000Y-73550000D03*
D21*
G36*
X75390191Y-73076053D02*
G01*
X75411426Y-73079203D01*
X75432250Y-73084419D01*
X75452462Y-73091651D01*
X75471868Y-73100830D01*
X75490281Y-73111866D01*
X75507524Y-73124654D01*
X75523430Y-73139070D01*
X75537846Y-73154976D01*
X75550634Y-73172219D01*
X75561670Y-73190632D01*
X75570849Y-73210038D01*
X75578081Y-73230250D01*
X75583297Y-73251074D01*
X75586447Y-73272309D01*
X75587500Y-73293750D01*
X75587500Y-73806250D01*
X75586447Y-73827691D01*
X75583297Y-73848926D01*
X75578081Y-73869750D01*
X75570849Y-73889962D01*
X75561670Y-73909368D01*
X75550634Y-73927781D01*
X75537846Y-73945024D01*
X75523430Y-73960930D01*
X75507524Y-73975346D01*
X75490281Y-73988134D01*
X75471868Y-73999170D01*
X75452462Y-74008349D01*
X75432250Y-74015581D01*
X75411426Y-74020797D01*
X75390191Y-74023947D01*
X75368750Y-74025000D01*
X74931250Y-74025000D01*
X74909809Y-74023947D01*
X74888574Y-74020797D01*
X74867750Y-74015581D01*
X74847538Y-74008349D01*
X74828132Y-73999170D01*
X74809719Y-73988134D01*
X74792476Y-73975346D01*
X74776570Y-73960930D01*
X74762154Y-73945024D01*
X74749366Y-73927781D01*
X74738330Y-73909368D01*
X74729151Y-73889962D01*
X74721919Y-73869750D01*
X74716703Y-73848926D01*
X74713553Y-73827691D01*
X74712500Y-73806250D01*
X74712500Y-73293750D01*
X74713553Y-73272309D01*
X74716703Y-73251074D01*
X74721919Y-73230250D01*
X74729151Y-73210038D01*
X74738330Y-73190632D01*
X74749366Y-73172219D01*
X74762154Y-73154976D01*
X74776570Y-73139070D01*
X74792476Y-73124654D01*
X74809719Y-73111866D01*
X74828132Y-73100830D01*
X74847538Y-73091651D01*
X74867750Y-73084419D01*
X74888574Y-73079203D01*
X74909809Y-73076053D01*
X74931250Y-73075000D01*
X75368750Y-73075000D01*
X75390191Y-73076053D01*
X75390191Y-73076053D01*
G37*
D22*
X75150000Y-73550000D03*
D21*
G36*
X73765191Y-67676053D02*
G01*
X73786426Y-67679203D01*
X73807250Y-67684419D01*
X73827462Y-67691651D01*
X73846868Y-67700830D01*
X73865281Y-67711866D01*
X73882524Y-67724654D01*
X73898430Y-67739070D01*
X73912846Y-67754976D01*
X73925634Y-67772219D01*
X73936670Y-67790632D01*
X73945849Y-67810038D01*
X73953081Y-67830250D01*
X73958297Y-67851074D01*
X73961447Y-67872309D01*
X73962500Y-67893750D01*
X73962500Y-68406250D01*
X73961447Y-68427691D01*
X73958297Y-68448926D01*
X73953081Y-68469750D01*
X73945849Y-68489962D01*
X73936670Y-68509368D01*
X73925634Y-68527781D01*
X73912846Y-68545024D01*
X73898430Y-68560930D01*
X73882524Y-68575346D01*
X73865281Y-68588134D01*
X73846868Y-68599170D01*
X73827462Y-68608349D01*
X73807250Y-68615581D01*
X73786426Y-68620797D01*
X73765191Y-68623947D01*
X73743750Y-68625000D01*
X73306250Y-68625000D01*
X73284809Y-68623947D01*
X73263574Y-68620797D01*
X73242750Y-68615581D01*
X73222538Y-68608349D01*
X73203132Y-68599170D01*
X73184719Y-68588134D01*
X73167476Y-68575346D01*
X73151570Y-68560930D01*
X73137154Y-68545024D01*
X73124366Y-68527781D01*
X73113330Y-68509368D01*
X73104151Y-68489962D01*
X73096919Y-68469750D01*
X73091703Y-68448926D01*
X73088553Y-68427691D01*
X73087500Y-68406250D01*
X73087500Y-67893750D01*
X73088553Y-67872309D01*
X73091703Y-67851074D01*
X73096919Y-67830250D01*
X73104151Y-67810038D01*
X73113330Y-67790632D01*
X73124366Y-67772219D01*
X73137154Y-67754976D01*
X73151570Y-67739070D01*
X73167476Y-67724654D01*
X73184719Y-67711866D01*
X73203132Y-67700830D01*
X73222538Y-67691651D01*
X73242750Y-67684419D01*
X73263574Y-67679203D01*
X73284809Y-67676053D01*
X73306250Y-67675000D01*
X73743750Y-67675000D01*
X73765191Y-67676053D01*
X73765191Y-67676053D01*
G37*
D22*
X73525000Y-68150000D03*
D21*
G36*
X75340191Y-67676053D02*
G01*
X75361426Y-67679203D01*
X75382250Y-67684419D01*
X75402462Y-67691651D01*
X75421868Y-67700830D01*
X75440281Y-67711866D01*
X75457524Y-67724654D01*
X75473430Y-67739070D01*
X75487846Y-67754976D01*
X75500634Y-67772219D01*
X75511670Y-67790632D01*
X75520849Y-67810038D01*
X75528081Y-67830250D01*
X75533297Y-67851074D01*
X75536447Y-67872309D01*
X75537500Y-67893750D01*
X75537500Y-68406250D01*
X75536447Y-68427691D01*
X75533297Y-68448926D01*
X75528081Y-68469750D01*
X75520849Y-68489962D01*
X75511670Y-68509368D01*
X75500634Y-68527781D01*
X75487846Y-68545024D01*
X75473430Y-68560930D01*
X75457524Y-68575346D01*
X75440281Y-68588134D01*
X75421868Y-68599170D01*
X75402462Y-68608349D01*
X75382250Y-68615581D01*
X75361426Y-68620797D01*
X75340191Y-68623947D01*
X75318750Y-68625000D01*
X74881250Y-68625000D01*
X74859809Y-68623947D01*
X74838574Y-68620797D01*
X74817750Y-68615581D01*
X74797538Y-68608349D01*
X74778132Y-68599170D01*
X74759719Y-68588134D01*
X74742476Y-68575346D01*
X74726570Y-68560930D01*
X74712154Y-68545024D01*
X74699366Y-68527781D01*
X74688330Y-68509368D01*
X74679151Y-68489962D01*
X74671919Y-68469750D01*
X74666703Y-68448926D01*
X74663553Y-68427691D01*
X74662500Y-68406250D01*
X74662500Y-67893750D01*
X74663553Y-67872309D01*
X74666703Y-67851074D01*
X74671919Y-67830250D01*
X74679151Y-67810038D01*
X74688330Y-67790632D01*
X74699366Y-67772219D01*
X74712154Y-67754976D01*
X74726570Y-67739070D01*
X74742476Y-67724654D01*
X74759719Y-67711866D01*
X74778132Y-67700830D01*
X74797538Y-67691651D01*
X74817750Y-67684419D01*
X74838574Y-67679203D01*
X74859809Y-67676053D01*
X74881250Y-67675000D01*
X75318750Y-67675000D01*
X75340191Y-67676053D01*
X75340191Y-67676053D01*
G37*
D22*
X75100000Y-68150000D03*
D21*
G36*
X73815191Y-70376053D02*
G01*
X73836426Y-70379203D01*
X73857250Y-70384419D01*
X73877462Y-70391651D01*
X73896868Y-70400830D01*
X73915281Y-70411866D01*
X73932524Y-70424654D01*
X73948430Y-70439070D01*
X73962846Y-70454976D01*
X73975634Y-70472219D01*
X73986670Y-70490632D01*
X73995849Y-70510038D01*
X74003081Y-70530250D01*
X74008297Y-70551074D01*
X74011447Y-70572309D01*
X74012500Y-70593750D01*
X74012500Y-71106250D01*
X74011447Y-71127691D01*
X74008297Y-71148926D01*
X74003081Y-71169750D01*
X73995849Y-71189962D01*
X73986670Y-71209368D01*
X73975634Y-71227781D01*
X73962846Y-71245024D01*
X73948430Y-71260930D01*
X73932524Y-71275346D01*
X73915281Y-71288134D01*
X73896868Y-71299170D01*
X73877462Y-71308349D01*
X73857250Y-71315581D01*
X73836426Y-71320797D01*
X73815191Y-71323947D01*
X73793750Y-71325000D01*
X73356250Y-71325000D01*
X73334809Y-71323947D01*
X73313574Y-71320797D01*
X73292750Y-71315581D01*
X73272538Y-71308349D01*
X73253132Y-71299170D01*
X73234719Y-71288134D01*
X73217476Y-71275346D01*
X73201570Y-71260930D01*
X73187154Y-71245024D01*
X73174366Y-71227781D01*
X73163330Y-71209368D01*
X73154151Y-71189962D01*
X73146919Y-71169750D01*
X73141703Y-71148926D01*
X73138553Y-71127691D01*
X73137500Y-71106250D01*
X73137500Y-70593750D01*
X73138553Y-70572309D01*
X73141703Y-70551074D01*
X73146919Y-70530250D01*
X73154151Y-70510038D01*
X73163330Y-70490632D01*
X73174366Y-70472219D01*
X73187154Y-70454976D01*
X73201570Y-70439070D01*
X73217476Y-70424654D01*
X73234719Y-70411866D01*
X73253132Y-70400830D01*
X73272538Y-70391651D01*
X73292750Y-70384419D01*
X73313574Y-70379203D01*
X73334809Y-70376053D01*
X73356250Y-70375000D01*
X73793750Y-70375000D01*
X73815191Y-70376053D01*
X73815191Y-70376053D01*
G37*
D22*
X73575000Y-70850000D03*
D21*
G36*
X75390191Y-70376053D02*
G01*
X75411426Y-70379203D01*
X75432250Y-70384419D01*
X75452462Y-70391651D01*
X75471868Y-70400830D01*
X75490281Y-70411866D01*
X75507524Y-70424654D01*
X75523430Y-70439070D01*
X75537846Y-70454976D01*
X75550634Y-70472219D01*
X75561670Y-70490632D01*
X75570849Y-70510038D01*
X75578081Y-70530250D01*
X75583297Y-70551074D01*
X75586447Y-70572309D01*
X75587500Y-70593750D01*
X75587500Y-71106250D01*
X75586447Y-71127691D01*
X75583297Y-71148926D01*
X75578081Y-71169750D01*
X75570849Y-71189962D01*
X75561670Y-71209368D01*
X75550634Y-71227781D01*
X75537846Y-71245024D01*
X75523430Y-71260930D01*
X75507524Y-71275346D01*
X75490281Y-71288134D01*
X75471868Y-71299170D01*
X75452462Y-71308349D01*
X75432250Y-71315581D01*
X75411426Y-71320797D01*
X75390191Y-71323947D01*
X75368750Y-71325000D01*
X74931250Y-71325000D01*
X74909809Y-71323947D01*
X74888574Y-71320797D01*
X74867750Y-71315581D01*
X74847538Y-71308349D01*
X74828132Y-71299170D01*
X74809719Y-71288134D01*
X74792476Y-71275346D01*
X74776570Y-71260930D01*
X74762154Y-71245024D01*
X74749366Y-71227781D01*
X74738330Y-71209368D01*
X74729151Y-71189962D01*
X74721919Y-71169750D01*
X74716703Y-71148926D01*
X74713553Y-71127691D01*
X74712500Y-71106250D01*
X74712500Y-70593750D01*
X74713553Y-70572309D01*
X74716703Y-70551074D01*
X74721919Y-70530250D01*
X74729151Y-70510038D01*
X74738330Y-70490632D01*
X74749366Y-70472219D01*
X74762154Y-70454976D01*
X74776570Y-70439070D01*
X74792476Y-70424654D01*
X74809719Y-70411866D01*
X74828132Y-70400830D01*
X74847538Y-70391651D01*
X74867750Y-70384419D01*
X74888574Y-70379203D01*
X74909809Y-70376053D01*
X74931250Y-70375000D01*
X75368750Y-70375000D01*
X75390191Y-70376053D01*
X75390191Y-70376053D01*
G37*
D22*
X75150000Y-70850000D03*
D21*
G36*
X68865191Y-107626053D02*
G01*
X68886426Y-107629203D01*
X68907250Y-107634419D01*
X68927462Y-107641651D01*
X68946868Y-107650830D01*
X68965281Y-107661866D01*
X68982524Y-107674654D01*
X68998430Y-107689070D01*
X69012846Y-107704976D01*
X69025634Y-107722219D01*
X69036670Y-107740632D01*
X69045849Y-107760038D01*
X69053081Y-107780250D01*
X69058297Y-107801074D01*
X69061447Y-107822309D01*
X69062500Y-107843750D01*
X69062500Y-108356250D01*
X69061447Y-108377691D01*
X69058297Y-108398926D01*
X69053081Y-108419750D01*
X69045849Y-108439962D01*
X69036670Y-108459368D01*
X69025634Y-108477781D01*
X69012846Y-108495024D01*
X68998430Y-108510930D01*
X68982524Y-108525346D01*
X68965281Y-108538134D01*
X68946868Y-108549170D01*
X68927462Y-108558349D01*
X68907250Y-108565581D01*
X68886426Y-108570797D01*
X68865191Y-108573947D01*
X68843750Y-108575000D01*
X68406250Y-108575000D01*
X68384809Y-108573947D01*
X68363574Y-108570797D01*
X68342750Y-108565581D01*
X68322538Y-108558349D01*
X68303132Y-108549170D01*
X68284719Y-108538134D01*
X68267476Y-108525346D01*
X68251570Y-108510930D01*
X68237154Y-108495024D01*
X68224366Y-108477781D01*
X68213330Y-108459368D01*
X68204151Y-108439962D01*
X68196919Y-108419750D01*
X68191703Y-108398926D01*
X68188553Y-108377691D01*
X68187500Y-108356250D01*
X68187500Y-107843750D01*
X68188553Y-107822309D01*
X68191703Y-107801074D01*
X68196919Y-107780250D01*
X68204151Y-107760038D01*
X68213330Y-107740632D01*
X68224366Y-107722219D01*
X68237154Y-107704976D01*
X68251570Y-107689070D01*
X68267476Y-107674654D01*
X68284719Y-107661866D01*
X68303132Y-107650830D01*
X68322538Y-107641651D01*
X68342750Y-107634419D01*
X68363574Y-107629203D01*
X68384809Y-107626053D01*
X68406250Y-107625000D01*
X68843750Y-107625000D01*
X68865191Y-107626053D01*
X68865191Y-107626053D01*
G37*
D22*
X68625000Y-108100000D03*
D21*
G36*
X70440191Y-107626053D02*
G01*
X70461426Y-107629203D01*
X70482250Y-107634419D01*
X70502462Y-107641651D01*
X70521868Y-107650830D01*
X70540281Y-107661866D01*
X70557524Y-107674654D01*
X70573430Y-107689070D01*
X70587846Y-107704976D01*
X70600634Y-107722219D01*
X70611670Y-107740632D01*
X70620849Y-107760038D01*
X70628081Y-107780250D01*
X70633297Y-107801074D01*
X70636447Y-107822309D01*
X70637500Y-107843750D01*
X70637500Y-108356250D01*
X70636447Y-108377691D01*
X70633297Y-108398926D01*
X70628081Y-108419750D01*
X70620849Y-108439962D01*
X70611670Y-108459368D01*
X70600634Y-108477781D01*
X70587846Y-108495024D01*
X70573430Y-108510930D01*
X70557524Y-108525346D01*
X70540281Y-108538134D01*
X70521868Y-108549170D01*
X70502462Y-108558349D01*
X70482250Y-108565581D01*
X70461426Y-108570797D01*
X70440191Y-108573947D01*
X70418750Y-108575000D01*
X69981250Y-108575000D01*
X69959809Y-108573947D01*
X69938574Y-108570797D01*
X69917750Y-108565581D01*
X69897538Y-108558349D01*
X69878132Y-108549170D01*
X69859719Y-108538134D01*
X69842476Y-108525346D01*
X69826570Y-108510930D01*
X69812154Y-108495024D01*
X69799366Y-108477781D01*
X69788330Y-108459368D01*
X69779151Y-108439962D01*
X69771919Y-108419750D01*
X69766703Y-108398926D01*
X69763553Y-108377691D01*
X69762500Y-108356250D01*
X69762500Y-107843750D01*
X69763553Y-107822309D01*
X69766703Y-107801074D01*
X69771919Y-107780250D01*
X69779151Y-107760038D01*
X69788330Y-107740632D01*
X69799366Y-107722219D01*
X69812154Y-107704976D01*
X69826570Y-107689070D01*
X69842476Y-107674654D01*
X69859719Y-107661866D01*
X69878132Y-107650830D01*
X69897538Y-107641651D01*
X69917750Y-107634419D01*
X69938574Y-107629203D01*
X69959809Y-107626053D01*
X69981250Y-107625000D01*
X70418750Y-107625000D01*
X70440191Y-107626053D01*
X70440191Y-107626053D01*
G37*
D22*
X70200000Y-108100000D03*
D21*
G36*
X68765191Y-112876053D02*
G01*
X68786426Y-112879203D01*
X68807250Y-112884419D01*
X68827462Y-112891651D01*
X68846868Y-112900830D01*
X68865281Y-112911866D01*
X68882524Y-112924654D01*
X68898430Y-112939070D01*
X68912846Y-112954976D01*
X68925634Y-112972219D01*
X68936670Y-112990632D01*
X68945849Y-113010038D01*
X68953081Y-113030250D01*
X68958297Y-113051074D01*
X68961447Y-113072309D01*
X68962500Y-113093750D01*
X68962500Y-113606250D01*
X68961447Y-113627691D01*
X68958297Y-113648926D01*
X68953081Y-113669750D01*
X68945849Y-113689962D01*
X68936670Y-113709368D01*
X68925634Y-113727781D01*
X68912846Y-113745024D01*
X68898430Y-113760930D01*
X68882524Y-113775346D01*
X68865281Y-113788134D01*
X68846868Y-113799170D01*
X68827462Y-113808349D01*
X68807250Y-113815581D01*
X68786426Y-113820797D01*
X68765191Y-113823947D01*
X68743750Y-113825000D01*
X68306250Y-113825000D01*
X68284809Y-113823947D01*
X68263574Y-113820797D01*
X68242750Y-113815581D01*
X68222538Y-113808349D01*
X68203132Y-113799170D01*
X68184719Y-113788134D01*
X68167476Y-113775346D01*
X68151570Y-113760930D01*
X68137154Y-113745024D01*
X68124366Y-113727781D01*
X68113330Y-113709368D01*
X68104151Y-113689962D01*
X68096919Y-113669750D01*
X68091703Y-113648926D01*
X68088553Y-113627691D01*
X68087500Y-113606250D01*
X68087500Y-113093750D01*
X68088553Y-113072309D01*
X68091703Y-113051074D01*
X68096919Y-113030250D01*
X68104151Y-113010038D01*
X68113330Y-112990632D01*
X68124366Y-112972219D01*
X68137154Y-112954976D01*
X68151570Y-112939070D01*
X68167476Y-112924654D01*
X68184719Y-112911866D01*
X68203132Y-112900830D01*
X68222538Y-112891651D01*
X68242750Y-112884419D01*
X68263574Y-112879203D01*
X68284809Y-112876053D01*
X68306250Y-112875000D01*
X68743750Y-112875000D01*
X68765191Y-112876053D01*
X68765191Y-112876053D01*
G37*
D22*
X68525000Y-113350000D03*
D21*
G36*
X70340191Y-112876053D02*
G01*
X70361426Y-112879203D01*
X70382250Y-112884419D01*
X70402462Y-112891651D01*
X70421868Y-112900830D01*
X70440281Y-112911866D01*
X70457524Y-112924654D01*
X70473430Y-112939070D01*
X70487846Y-112954976D01*
X70500634Y-112972219D01*
X70511670Y-112990632D01*
X70520849Y-113010038D01*
X70528081Y-113030250D01*
X70533297Y-113051074D01*
X70536447Y-113072309D01*
X70537500Y-113093750D01*
X70537500Y-113606250D01*
X70536447Y-113627691D01*
X70533297Y-113648926D01*
X70528081Y-113669750D01*
X70520849Y-113689962D01*
X70511670Y-113709368D01*
X70500634Y-113727781D01*
X70487846Y-113745024D01*
X70473430Y-113760930D01*
X70457524Y-113775346D01*
X70440281Y-113788134D01*
X70421868Y-113799170D01*
X70402462Y-113808349D01*
X70382250Y-113815581D01*
X70361426Y-113820797D01*
X70340191Y-113823947D01*
X70318750Y-113825000D01*
X69881250Y-113825000D01*
X69859809Y-113823947D01*
X69838574Y-113820797D01*
X69817750Y-113815581D01*
X69797538Y-113808349D01*
X69778132Y-113799170D01*
X69759719Y-113788134D01*
X69742476Y-113775346D01*
X69726570Y-113760930D01*
X69712154Y-113745024D01*
X69699366Y-113727781D01*
X69688330Y-113709368D01*
X69679151Y-113689962D01*
X69671919Y-113669750D01*
X69666703Y-113648926D01*
X69663553Y-113627691D01*
X69662500Y-113606250D01*
X69662500Y-113093750D01*
X69663553Y-113072309D01*
X69666703Y-113051074D01*
X69671919Y-113030250D01*
X69679151Y-113010038D01*
X69688330Y-112990632D01*
X69699366Y-112972219D01*
X69712154Y-112954976D01*
X69726570Y-112939070D01*
X69742476Y-112924654D01*
X69759719Y-112911866D01*
X69778132Y-112900830D01*
X69797538Y-112891651D01*
X69817750Y-112884419D01*
X69838574Y-112879203D01*
X69859809Y-112876053D01*
X69881250Y-112875000D01*
X70318750Y-112875000D01*
X70340191Y-112876053D01*
X70340191Y-112876053D01*
G37*
D22*
X70100000Y-113350000D03*
D25*
X89300000Y-70900000D03*
X70450000Y-101200000D03*
X63850000Y-107550000D03*
X328950000Y-74300000D03*
X328950000Y-78350000D03*
X290850000Y-74050000D03*
X290850000Y-78350000D03*
X252800000Y-74150000D03*
X252850000Y-78350000D03*
X214650000Y-74100000D03*
X214650000Y-78350000D03*
X176500000Y-74100000D03*
X176450000Y-78350000D03*
X138450000Y-74050000D03*
X138450000Y-78350000D03*
X109700000Y-93850000D03*
X107400000Y-94950000D03*
X121200000Y-77550000D03*
X120450000Y-93850000D03*
X110550000Y-94650000D03*
X108450000Y-95850000D03*
X338550000Y-92900000D03*
X338550000Y-96500000D03*
X300350000Y-92800000D03*
X300350000Y-96500000D03*
X262300000Y-92900000D03*
X262300000Y-96500000D03*
X224300000Y-92850000D03*
X224300000Y-96500000D03*
X186000000Y-93000000D03*
X186050000Y-96500000D03*
X147950000Y-92700000D03*
X147950000Y-96500000D03*
X73800000Y-86900000D03*
X76900000Y-99400000D03*
X111500000Y-95300000D03*
X106050000Y-105750000D03*
X114650000Y-89300000D03*
X80550000Y-136450000D03*
X65050000Y-108500000D03*
X70350000Y-105450000D03*
X76350000Y-105500000D03*
X92950000Y-64350000D03*
X94200000Y-59900000D03*
X48050000Y-121950000D03*
X48200000Y-109650000D03*
X46200000Y-122200000D03*
X60000000Y-120600000D03*
X79400000Y-141550000D03*
X88800000Y-118200000D03*
X85250000Y-103700000D03*
X79200000Y-143050000D03*
X91000000Y-118800000D03*
X87100000Y-98600000D03*
X78800000Y-138550000D03*
X85900000Y-118550000D03*
X86500000Y-97100000D03*
X324350000Y-112350000D03*
X324350000Y-116050000D03*
X286250000Y-112950000D03*
X286300000Y-116050000D03*
X248000000Y-111950000D03*
X248050000Y-116050000D03*
X210000000Y-112450000D03*
X209900000Y-116050000D03*
X171950000Y-111850000D03*
X171800000Y-116050000D03*
X133750000Y-112450000D03*
X133850000Y-116050000D03*
X143300000Y-130800000D03*
X143350000Y-134900000D03*
X181250000Y-130850000D03*
X181300000Y-134900000D03*
X219350000Y-131000000D03*
X219350000Y-134900000D03*
X257550000Y-131150000D03*
X257500000Y-134900000D03*
X295650000Y-130800000D03*
X295600000Y-134900000D03*
X340850000Y-131000000D03*
X340850000Y-134900000D03*
X351000000Y-148050000D03*
X350950000Y-151400000D03*
X128650000Y-148000000D03*
X128650000Y-151400000D03*
X224800000Y-147850000D03*
X224800000Y-151400000D03*
X312250000Y-148000000D03*
X312250000Y-151400000D03*
D26*
X96414999Y-104434999D02*
X96414999Y-76364999D01*
X97540000Y-105560000D02*
X96414999Y-104434999D01*
X87350000Y-70900000D02*
X89300000Y-70900000D01*
X81168630Y-108100000D02*
X76918630Y-103850000D01*
X82300000Y-108100000D02*
X81168630Y-108100000D01*
X76918630Y-103850000D02*
X70800000Y-103850000D01*
X76100000Y-113180000D02*
X75750000Y-112830000D01*
X70620000Y-112830000D02*
X70100000Y-113350000D01*
X75750000Y-112830000D02*
X70620000Y-112830000D01*
X70350000Y-107950000D02*
X70200000Y-108100000D01*
X75750000Y-107950000D02*
X70350000Y-107950000D01*
D27*
X77900000Y-66025000D02*
X77900000Y-68150000D01*
X86061000Y-70900000D02*
X85150000Y-70900000D01*
X86070501Y-70909501D02*
X86061000Y-70900000D01*
X86070501Y-72487401D02*
X86070501Y-70909501D01*
X85992401Y-72565501D02*
X86070501Y-72487401D01*
X79615501Y-72565501D02*
X85992401Y-72565501D01*
X77900000Y-70850000D02*
X79615501Y-72565501D01*
X76950000Y-68150000D02*
X77900000Y-69100000D01*
X75100000Y-68150000D02*
X76950000Y-68150000D01*
X77900000Y-68150000D02*
X77900000Y-69100000D01*
X77000000Y-70850000D02*
X77900000Y-69950000D01*
X75150000Y-70850000D02*
X77000000Y-70850000D01*
X77900000Y-69100000D02*
X77900000Y-69950000D01*
X77900000Y-69950000D02*
X77900000Y-70850000D01*
X77900000Y-71337500D02*
X77900000Y-70850000D01*
X75687500Y-73550000D02*
X77900000Y-71337500D01*
X75150000Y-73550000D02*
X75687500Y-73550000D01*
X77900000Y-101160000D02*
X82300000Y-105560000D01*
X77900000Y-70850000D02*
X77900000Y-101160000D01*
X77900000Y-101160000D02*
X70490000Y-101160000D01*
X70490000Y-101160000D02*
X70450000Y-101200000D01*
X61925000Y-107550000D02*
X61850000Y-107625000D01*
X63850000Y-107550000D02*
X61925000Y-107550000D01*
X46475000Y-107625000D02*
X43250000Y-104400000D01*
X52275000Y-107625000D02*
X51975000Y-107625000D01*
X52275000Y-107625000D02*
X46475000Y-107625000D01*
X61850000Y-107625000D02*
X52275000Y-107625000D01*
X51975000Y-107625000D02*
X50700000Y-108900000D01*
X50700000Y-108900000D02*
X50700000Y-135950000D01*
X50700000Y-135950000D02*
X52700000Y-137950000D01*
X52700000Y-137950000D02*
X61650000Y-137950000D01*
D26*
X328950000Y-74300000D02*
X328950000Y-78350000D01*
X290850000Y-74050000D02*
X290850000Y-78350000D01*
X252800000Y-74150000D02*
X252800000Y-78300000D01*
X214650000Y-74100000D02*
X214650000Y-78350000D01*
X176500000Y-74100000D02*
X176500000Y-78300000D01*
X138450000Y-74050000D02*
X138450000Y-78350000D01*
X109700000Y-93850000D02*
X108600000Y-94950000D01*
X108600000Y-94950000D02*
X107400000Y-94950000D01*
X121200000Y-77550000D02*
X121200000Y-93100000D01*
X121200000Y-93100000D02*
X120450000Y-93850000D01*
X110550000Y-94650000D02*
X109350000Y-95850000D01*
X109350000Y-95850000D02*
X108450000Y-95850000D01*
X107400000Y-102250000D02*
X107600000Y-102050000D01*
X338550000Y-92900000D02*
X338550000Y-96500000D01*
X300350000Y-92800000D02*
X300350000Y-96500000D01*
X262300000Y-92900000D02*
X262300000Y-96500000D01*
X224300000Y-92850000D02*
X224300000Y-96500000D01*
X186000000Y-93000000D02*
X186000000Y-96450000D01*
X147950000Y-92700000D02*
X147950000Y-96500000D01*
X73800000Y-86900000D02*
X73800000Y-96300000D01*
X73800000Y-96300000D02*
X76900000Y-99400000D01*
X111500000Y-95300000D02*
X106050000Y-100750000D01*
X106050000Y-100750000D02*
X106050000Y-105750000D01*
X133750000Y-102100000D02*
X133800000Y-102050000D01*
X147950000Y-83100000D02*
X148050000Y-83000000D01*
X152800000Y-102100000D02*
X152850000Y-102050000D01*
X167050000Y-83050000D02*
X167100000Y-83000000D01*
X186000000Y-83150000D02*
X186150000Y-83000000D01*
X191000000Y-102100000D02*
X190950000Y-102050000D01*
X205150000Y-83050000D02*
X205200000Y-83000000D01*
X210050000Y-102100000D02*
X210000000Y-102050000D01*
X221800000Y-140200000D02*
X221850000Y-140150000D01*
X224300000Y-83050000D02*
X224250000Y-83000000D01*
X229000000Y-102100000D02*
X229050000Y-102050000D01*
X243100000Y-83200000D02*
X243300000Y-83000000D01*
X248000000Y-102150000D02*
X248100000Y-102050000D01*
X262300000Y-83050000D02*
X262350000Y-83000000D01*
X281350000Y-83050000D02*
X281400000Y-83000000D01*
X295600000Y-121200000D02*
X295700000Y-121100000D01*
X290850000Y-140200000D02*
X290900000Y-140150000D01*
X314600000Y-121250000D02*
X314750000Y-121100000D01*
X366950000Y-121300000D02*
X367150000Y-121100000D01*
X69250001Y-125820001D02*
X67420001Y-125820001D01*
X70250000Y-126820000D02*
X69250001Y-125820001D01*
X67420001Y-125820001D02*
X66200000Y-124600000D01*
X66200000Y-92270000D02*
X70250000Y-88220000D01*
X66200000Y-124600000D02*
X66200000Y-92270000D01*
D27*
X83745000Y-61585000D02*
X83745000Y-61125381D01*
D26*
X83750000Y-61590000D02*
X83745000Y-61585000D01*
D27*
X83750000Y-62910000D02*
X83750000Y-61590000D01*
D26*
X88000000Y-61590000D02*
X87995000Y-61585000D01*
D27*
X88000000Y-62910000D02*
X88000000Y-61590000D01*
X77900000Y-61300000D02*
X77900000Y-64450000D01*
X79100000Y-60100000D02*
X77900000Y-61300000D01*
X83745000Y-61125381D02*
X82719619Y-60100000D01*
X82719619Y-60100000D02*
X79100000Y-60100000D01*
X87995000Y-61125381D02*
X87995000Y-61585000D01*
X87790893Y-60921274D02*
X87995000Y-61125381D01*
X83745000Y-61125381D02*
X83949107Y-60921274D01*
X87745369Y-60875750D02*
X87790893Y-60921274D01*
X87494692Y-60875750D02*
X87745369Y-60875750D01*
X87488441Y-60869499D02*
X87494692Y-60875750D01*
X84944692Y-60875750D02*
X85095308Y-60875750D01*
X84938441Y-60869499D02*
X84944692Y-60875750D01*
X84251559Y-60869499D02*
X84938441Y-60869499D01*
X84245308Y-60875750D02*
X84251559Y-60869499D01*
X83949107Y-60921274D02*
X83994631Y-60875750D01*
X85794692Y-60875750D02*
X85945308Y-60875750D01*
X85095308Y-60875750D02*
X85101559Y-60869499D01*
X86638441Y-60869499D02*
X86644692Y-60875750D01*
X86795308Y-60875750D02*
X86801559Y-60869499D01*
X85101559Y-60869499D02*
X85788441Y-60869499D01*
X86644692Y-60875750D02*
X86795308Y-60875750D01*
X85788441Y-60869499D02*
X85794692Y-60875750D01*
X83994631Y-60875750D02*
X84245308Y-60875750D01*
X85945308Y-60875750D02*
X85951559Y-60869499D01*
X86801559Y-60869499D02*
X87488441Y-60869499D01*
X85951559Y-60869499D02*
X86638441Y-60869499D01*
D26*
X149650000Y-118560000D02*
X149650000Y-113300000D01*
X149650000Y-113300000D02*
X146250000Y-109900000D01*
X146250000Y-105610000D02*
X140150000Y-99510000D01*
X146250000Y-109900000D02*
X146250000Y-105610000D01*
X140150000Y-85260000D02*
X135350000Y-80460000D01*
X140150000Y-99510000D02*
X140150000Y-85260000D01*
X135350000Y-70910000D02*
X125850000Y-61410000D01*
X135350000Y-80460000D02*
X135350000Y-70910000D01*
X106800000Y-61410000D02*
X113650000Y-68260000D01*
X113650000Y-78350000D02*
X111550000Y-80450000D01*
X111550000Y-80450000D02*
X119000000Y-87900000D01*
X119000000Y-94460000D02*
X113950000Y-99510000D01*
X119000000Y-87900000D02*
X119000000Y-94460000D01*
X118700000Y-104260000D02*
X113950000Y-99510000D01*
X118700000Y-118560000D02*
X118700000Y-104260000D01*
X110705634Y-137610000D02*
X120400000Y-127915634D01*
X109150000Y-137610000D02*
X110705634Y-137610000D01*
X120400000Y-120260000D02*
X118700000Y-118560000D01*
X120400000Y-127915634D02*
X120400000Y-120260000D01*
X134049999Y-136510001D02*
X134049999Y-125100001D01*
X132950000Y-137610000D02*
X134049999Y-136510001D01*
X140590000Y-118560000D02*
X149650000Y-118560000D01*
X134049999Y-125100001D02*
X140590000Y-118560000D01*
X113650000Y-70500000D02*
X113650000Y-78350000D01*
X113650000Y-68260000D02*
X113650000Y-70500000D01*
X108355634Y-61410000D02*
X125850000Y-61410000D01*
X106800000Y-61410000D02*
X108355634Y-61410000D01*
X99790000Y-80450000D02*
X97540000Y-82700000D01*
X111550000Y-80450000D02*
X99790000Y-80450000D01*
X187750000Y-109010000D02*
X178250000Y-99510000D01*
X187750000Y-118560000D02*
X187750000Y-109010000D01*
X178250000Y-85260000D02*
X173450000Y-80460000D01*
X178250000Y-99510000D02*
X178250000Y-85260000D01*
X173450000Y-70910000D02*
X163950000Y-61410000D01*
X173450000Y-80460000D02*
X173450000Y-70910000D01*
X168700000Y-109010000D02*
X159200000Y-99510000D01*
X168700000Y-118560000D02*
X168700000Y-109010000D01*
X159200000Y-85260000D02*
X154400000Y-80460000D01*
X159200000Y-99510000D02*
X159200000Y-85260000D01*
X154400000Y-70910000D02*
X144900000Y-61410000D01*
X154400000Y-80460000D02*
X154400000Y-70910000D01*
X170050000Y-119910000D02*
X168700000Y-118560000D01*
X170050000Y-125865634D02*
X170050000Y-119910000D01*
X156750000Y-137610000D02*
X158305634Y-137610000D01*
X158305634Y-137610000D02*
X170050000Y-125865634D01*
X146455634Y-61410000D02*
X163950000Y-61410000D01*
X144900000Y-61410000D02*
X146455634Y-61410000D01*
X101600000Y-89300000D02*
X97540000Y-85240000D01*
X114650000Y-89300000D02*
X101600000Y-89300000D01*
X228200000Y-120910000D02*
X225850000Y-118560000D01*
X228200000Y-137610000D02*
X228200000Y-120910000D01*
X225850000Y-109010000D02*
X216350000Y-99510000D01*
X225850000Y-118560000D02*
X225850000Y-109010000D01*
X216350000Y-85260000D02*
X211550000Y-80460000D01*
X216350000Y-99510000D02*
X216350000Y-85260000D01*
X211550000Y-70910000D02*
X202050000Y-61410000D01*
X211550000Y-80460000D02*
X211550000Y-70910000D01*
X206800000Y-109010000D02*
X197300000Y-99510000D01*
X206800000Y-118560000D02*
X206800000Y-109010000D01*
X197300000Y-85260000D02*
X192500000Y-80460000D01*
X197300000Y-99510000D02*
X197300000Y-85260000D01*
X192500000Y-70910000D02*
X183000000Y-61410000D01*
X192500000Y-80460000D02*
X192500000Y-70910000D01*
X184555634Y-61410000D02*
X202050000Y-61410000D01*
X183000000Y-61410000D02*
X184555634Y-61410000D01*
X227100001Y-138709999D02*
X159090001Y-138709999D01*
X228200000Y-137610000D02*
X227100001Y-138709999D01*
X159090001Y-138709999D02*
X158450000Y-139350000D01*
X158450000Y-139350000D02*
X153650000Y-139350000D01*
X153024999Y-138724999D02*
X135475001Y-138724999D01*
X153650000Y-139350000D02*
X153024999Y-138724999D01*
X135475001Y-138724999D02*
X134500000Y-139700000D01*
X134500000Y-139700000D02*
X130200000Y-139700000D01*
X130200000Y-139700000D02*
X128700000Y-138200000D01*
X128700000Y-138200000D02*
X112250000Y-138200000D01*
X112250000Y-138200000D02*
X110900000Y-139550000D01*
X110900000Y-139550000D02*
X105700000Y-139550000D01*
X105700000Y-139550000D02*
X99565021Y-133415021D01*
X99565021Y-89805021D02*
X97540000Y-87780000D01*
X99565021Y-133415021D02*
X99565021Y-89805021D01*
X263950000Y-118560000D02*
X263950000Y-110750000D01*
X254450000Y-101250000D02*
X254450000Y-99510000D01*
X263950000Y-110750000D02*
X254450000Y-101250000D01*
X254500000Y-85310000D02*
X249650000Y-80460000D01*
X247490000Y-68750000D02*
X240150000Y-61410000D01*
X247900000Y-68750000D02*
X247490000Y-68750000D01*
X249650000Y-80460000D02*
X249650000Y-70500000D01*
X249650000Y-70500000D02*
X247900000Y-68750000D01*
X244900000Y-109010000D02*
X235400000Y-99510000D01*
X244900000Y-118560000D02*
X244900000Y-109010000D01*
X235400000Y-85260000D02*
X230600000Y-80460000D01*
X235400000Y-99510000D02*
X235400000Y-85260000D01*
X230600000Y-70910000D02*
X221100000Y-61410000D01*
X230600000Y-80460000D02*
X230600000Y-70910000D01*
X221100000Y-61410000D02*
X240150000Y-61410000D01*
X99115011Y-144789970D02*
X99115011Y-91895011D01*
X263950000Y-120115634D02*
X264500000Y-120665634D01*
X263950000Y-118560000D02*
X263950000Y-120115634D01*
X264500000Y-120665634D02*
X264500000Y-144650000D01*
X99115011Y-91895011D02*
X97540000Y-90320000D01*
X264500000Y-144650000D02*
X263825041Y-145324959D01*
X263825041Y-145324959D02*
X99650000Y-145324959D01*
X99650000Y-145324959D02*
X99115011Y-144789970D01*
X254450000Y-85360000D02*
X254450000Y-99510000D01*
X254500000Y-85310000D02*
X254450000Y-85360000D01*
X302050000Y-109010000D02*
X292550000Y-99510000D01*
X302050000Y-118560000D02*
X302050000Y-109010000D01*
X292550000Y-85260000D02*
X287750000Y-80460000D01*
X292550000Y-99510000D02*
X292550000Y-85260000D01*
X287750000Y-70910000D02*
X278250000Y-61410000D01*
X287750000Y-80460000D02*
X287750000Y-70910000D01*
X268700000Y-70910000D02*
X268700000Y-80460000D01*
X259200000Y-61410000D02*
X268700000Y-70910000D01*
X273500000Y-85260000D02*
X273500000Y-99510000D01*
X268700000Y-80460000D02*
X273500000Y-85260000D01*
X273500000Y-99510000D02*
X279790000Y-105800000D01*
X279790000Y-115350000D02*
X283000000Y-118560000D01*
X279790000Y-105800000D02*
X279790000Y-115350000D01*
X298349999Y-136510001D02*
X300739999Y-136510001D01*
X297250000Y-137610000D02*
X298349999Y-136510001D01*
X300739999Y-136510001D02*
X303700000Y-133550000D01*
X303700000Y-120210000D02*
X302050000Y-118560000D01*
X303700000Y-133550000D02*
X303700000Y-120210000D01*
X260755634Y-61410000D02*
X278250000Y-61410000D01*
X259200000Y-61410000D02*
X260755634Y-61410000D01*
X297250000Y-139165634D02*
X299100000Y-141015634D01*
X297250000Y-137610000D02*
X297250000Y-139165634D01*
X299100000Y-144050000D02*
X297375031Y-145774969D01*
X299100000Y-141015634D02*
X299100000Y-144050000D01*
X98665001Y-93985001D02*
X98339999Y-93659999D01*
X98665001Y-144976370D02*
X98665001Y-93985001D01*
X99463600Y-145774969D02*
X98665001Y-144976370D01*
X99924969Y-145774969D02*
X99463600Y-145774969D01*
X98339999Y-93659999D02*
X97540000Y-92860000D01*
X297375031Y-145774969D02*
X99924969Y-145774969D01*
X335350000Y-104210000D02*
X330650000Y-99510000D01*
X335350000Y-137610000D02*
X335350000Y-104210000D01*
X330650000Y-85260000D02*
X325850000Y-80460000D01*
X330650000Y-99510000D02*
X330650000Y-85260000D01*
X325850000Y-70910000D02*
X316350000Y-61410000D01*
X325850000Y-80460000D02*
X325850000Y-70910000D01*
X321100000Y-109010000D02*
X311600000Y-99510000D01*
X321100000Y-118560000D02*
X321100000Y-109010000D01*
X311600000Y-85260000D02*
X306800000Y-80460000D01*
X311600000Y-99510000D02*
X311600000Y-85260000D01*
X306800000Y-70910000D02*
X297300000Y-61410000D01*
X306800000Y-80460000D02*
X306800000Y-70910000D01*
X317399999Y-136500001D02*
X317399999Y-132450001D01*
X316300000Y-137600000D02*
X317399999Y-136500001D01*
X317399999Y-132450001D02*
X322650000Y-127200000D01*
X322650000Y-120110000D02*
X321100000Y-118560000D01*
X322650000Y-127200000D02*
X322650000Y-120110000D01*
X298855634Y-61410000D02*
X316350000Y-61410000D01*
X297300000Y-61410000D02*
X298855634Y-61410000D01*
X82300000Y-144950000D02*
X82300000Y-130960000D01*
X83574979Y-146224979D02*
X82300000Y-144950000D01*
X334625021Y-146224979D02*
X83574979Y-146224979D01*
X336449999Y-144400001D02*
X334625021Y-146224979D01*
X335350000Y-137610000D02*
X336449999Y-138709999D01*
X336449999Y-138709999D02*
X336449999Y-144400001D01*
X374599999Y-117400001D02*
X377950000Y-114050000D01*
X374599999Y-117460001D02*
X374599999Y-117400001D01*
X373500000Y-118560000D02*
X374599999Y-117460001D01*
X371789999Y-79360001D02*
X377950000Y-73200000D01*
X369799999Y-79360001D02*
X371789999Y-79360001D01*
X368700000Y-80460000D02*
X369799999Y-79360001D01*
X372890000Y-99510000D02*
X377950000Y-94450000D01*
X361600000Y-99510000D02*
X372890000Y-99510000D01*
X377950000Y-114050000D02*
X377950000Y-94450000D01*
X348399999Y-119659999D02*
X347300000Y-118560000D01*
X355499999Y-126759999D02*
X348399999Y-119659999D01*
X355499999Y-136510001D02*
X355499999Y-126759999D01*
X354400000Y-137610000D02*
X355499999Y-136510001D01*
X345999999Y-81559999D02*
X344900000Y-80460000D01*
X347300000Y-82860000D02*
X345999999Y-81559999D01*
X347300000Y-118560000D02*
X347300000Y-82860000D01*
X344900000Y-70900000D02*
X335400000Y-61400000D01*
X344900000Y-80460000D02*
X344900000Y-70900000D01*
X367259999Y-62509999D02*
X377950000Y-73200000D01*
X365049999Y-62509999D02*
X367259999Y-62509999D01*
X363950000Y-61410000D02*
X365049999Y-62509999D01*
X363940000Y-61400000D02*
X363950000Y-61410000D01*
X335400000Y-61400000D02*
X363940000Y-61400000D01*
X81174999Y-129545001D02*
X81500001Y-129219999D01*
X81500001Y-129219999D02*
X82300000Y-128420000D01*
X81174999Y-132175009D02*
X81174999Y-129545001D01*
X81849990Y-132850000D02*
X81174999Y-132175009D01*
X373500000Y-137610000D02*
X375200000Y-139310000D01*
X375200000Y-139310000D02*
X375200000Y-144600000D01*
X375200000Y-144600000D02*
X373125011Y-146674989D01*
X373125011Y-146674989D02*
X83388579Y-146674989D01*
X83388579Y-146674989D02*
X81849990Y-145136400D01*
X81849990Y-145136400D02*
X81849990Y-132850000D01*
X377950000Y-94450000D02*
X378000000Y-94450000D01*
X378000000Y-94450000D02*
X380300000Y-92150000D01*
X380300000Y-75550000D02*
X377950000Y-73200000D01*
X380300000Y-92150000D02*
X380300000Y-75550000D01*
X377950000Y-133160000D02*
X373500000Y-137610000D01*
X377950000Y-114050000D02*
X377950000Y-133160000D01*
X394105634Y-137610000D02*
X396450000Y-135265634D01*
X392550000Y-137610000D02*
X394105634Y-137610000D01*
X396450000Y-65300000D02*
X392550000Y-61400000D01*
X392500000Y-80460000D02*
X392500000Y-78100000D01*
X396450000Y-74150000D02*
X396450000Y-73000000D01*
X392500000Y-78100000D02*
X396450000Y-74150000D01*
X396450000Y-73000000D02*
X396450000Y-65300000D01*
X396450000Y-94054366D02*
X396450000Y-93000000D01*
X392550000Y-97954366D02*
X396450000Y-94054366D01*
X392550000Y-99510000D02*
X392550000Y-97954366D01*
X396450000Y-93000000D02*
X396450000Y-73000000D01*
X393649999Y-117450001D02*
X396450000Y-114650000D01*
X393649999Y-117460001D02*
X393649999Y-117450001D01*
X392550000Y-118560000D02*
X393649999Y-117460001D01*
X396450000Y-135265634D02*
X396450000Y-114650000D01*
X396450000Y-114650000D02*
X396450000Y-93000000D01*
X392825001Y-147124999D02*
X98525001Y-147124999D01*
X98525001Y-147124999D02*
X93124999Y-147124999D01*
X393649999Y-146300001D02*
X392825001Y-147124999D01*
X392550000Y-137610000D02*
X393649999Y-138709999D01*
X393649999Y-138709999D02*
X393649999Y-146300001D01*
X80550000Y-144472820D02*
X80550000Y-136450000D01*
X93124999Y-147124999D02*
X83202178Y-147124998D01*
X83202178Y-147124998D02*
X80550000Y-144472820D01*
X61450000Y-109600000D02*
X61850000Y-109200000D01*
X59050000Y-109600000D02*
X61450000Y-109600000D01*
X61850000Y-109200000D02*
X64350000Y-109200000D01*
X64350000Y-109200000D02*
X65050000Y-108500000D01*
X70350000Y-105450000D02*
X76300000Y-105450000D01*
X76300000Y-105450000D02*
X76350000Y-105500000D01*
X92950000Y-63125000D02*
X92900000Y-63075000D01*
X92950000Y-64350000D02*
X92950000Y-63125000D01*
X94200000Y-60150000D02*
X95550000Y-61500000D01*
X94200000Y-59900000D02*
X94200000Y-60150000D01*
X90038388Y-72088388D02*
X88661612Y-72088388D01*
X90500000Y-72550000D02*
X90038388Y-72088388D01*
X88423224Y-71850000D02*
X87350000Y-71850000D01*
X88661612Y-72088388D02*
X88423224Y-71850000D01*
X83425001Y-122214999D02*
X82300000Y-123340000D01*
X83425001Y-82024999D02*
X83425001Y-122214999D01*
X91274990Y-74175010D02*
X83425001Y-82024999D01*
X92075000Y-72550000D02*
X91274990Y-73350010D01*
X91274990Y-73350010D02*
X91274990Y-74175010D01*
X89450000Y-69950000D02*
X90500000Y-68900000D01*
X87350000Y-69950000D02*
X89450000Y-69950000D01*
X81174999Y-121925001D02*
X81500001Y-121599999D01*
X81500001Y-121599999D02*
X82300000Y-120800000D01*
X81759999Y-124465001D02*
X81174999Y-123880001D01*
X83875010Y-123429992D02*
X82840001Y-124465001D01*
X81174999Y-123880001D02*
X81174999Y-121925001D01*
X82840001Y-124465001D02*
X81759999Y-124465001D01*
X83875011Y-82211399D02*
X83875010Y-123429992D01*
X92837510Y-73248900D02*
X83875011Y-82211399D01*
X92837510Y-69662510D02*
X92837510Y-73248900D01*
X92075000Y-68900000D02*
X92837510Y-69662510D01*
X49800000Y-120200000D02*
X49800000Y-119625000D01*
X48050000Y-121950000D02*
X49800000Y-120200000D01*
X49800000Y-118050000D02*
X49800000Y-111250000D01*
X49800000Y-111250000D02*
X48200000Y-109650000D01*
X46200000Y-122200000D02*
X46200000Y-119775000D01*
X42575001Y-103074999D02*
X43250000Y-102400000D01*
X42249999Y-103400001D02*
X42575001Y-103074999D01*
X42249999Y-106880001D02*
X42249999Y-103400001D01*
X46200000Y-110830002D02*
X42249999Y-106880001D01*
X46200000Y-118200000D02*
X46200000Y-110830002D01*
X60000000Y-121165685D02*
X69134315Y-130300000D01*
X60000000Y-120600000D02*
X60000000Y-121165685D01*
X77880000Y-130300000D02*
X82300000Y-125880000D01*
X69134315Y-130300000D02*
X77880000Y-130300000D01*
X65769998Y-141550000D02*
X79400000Y-141550000D01*
X63650000Y-139950000D02*
X65250000Y-141550000D01*
X65250000Y-141550000D02*
X65769998Y-141550000D01*
X88800000Y-118200000D02*
X88800000Y-107200000D01*
X88800000Y-107200000D02*
X85300000Y-103700000D01*
X85300000Y-103700000D02*
X85250000Y-103700000D01*
X65269998Y-143050000D02*
X79200000Y-143050000D01*
X63825000Y-143050000D02*
X65269998Y-143050000D01*
X61650000Y-139950000D02*
X61650000Y-140875000D01*
X61650000Y-140875000D02*
X63825000Y-143050000D01*
X91000000Y-118800000D02*
X91000000Y-102500000D01*
X91000000Y-102500000D02*
X87100000Y-98600000D01*
X77199999Y-136949999D02*
X78800000Y-138550000D01*
X63650000Y-137950000D02*
X64650001Y-136949999D01*
X64650001Y-136949999D02*
X77199999Y-136949999D01*
X84524999Y-99075001D02*
X86500000Y-97100000D01*
X85900000Y-118550000D02*
X84524999Y-117174999D01*
X84524999Y-117174999D02*
X84524999Y-99075001D01*
X85450000Y-63369619D02*
X82400000Y-66419619D01*
X85450000Y-62910000D02*
X85450000Y-63369619D01*
X84370000Y-71850000D02*
X85150000Y-71850000D01*
X82400000Y-69880000D02*
X84370000Y-71850000D01*
X82400000Y-66419619D02*
X82400000Y-69880000D01*
X86300000Y-62797998D02*
X86300000Y-62910000D01*
X85445000Y-61942998D02*
X86300000Y-62797998D01*
X85445000Y-61585000D02*
X85445000Y-61942998D01*
X85355000Y-69950000D02*
X85150000Y-69950000D01*
X86300000Y-69005000D02*
X85355000Y-69950000D01*
X86300000Y-62910000D02*
X86300000Y-69005000D01*
X324300000Y-112300000D02*
X324350000Y-112350000D01*
X324350000Y-112350000D02*
X324350000Y-116050000D01*
X286250000Y-112950000D02*
X286250000Y-116000000D01*
X248000000Y-111950000D02*
X248000000Y-116000000D01*
X210050000Y-112400000D02*
X210000000Y-112450000D01*
X210000000Y-112450000D02*
X210000000Y-115950000D01*
X171900000Y-111800000D02*
X171950000Y-111850000D01*
X171950000Y-111850000D02*
X171950000Y-115900000D01*
X133750000Y-112450000D02*
X133750000Y-116000000D01*
X143350000Y-134900000D02*
X143250000Y-134800000D01*
X143250000Y-130750000D02*
X143300000Y-130800000D01*
X143300000Y-130800000D02*
X143300000Y-134850000D01*
X181300000Y-130800000D02*
X181250000Y-130850000D01*
X181250000Y-130850000D02*
X181250000Y-134850000D01*
X219350000Y-131000000D02*
X219350000Y-134900000D01*
X257550000Y-131150000D02*
X257550000Y-134850000D01*
X295600000Y-130750000D02*
X295650000Y-130800000D01*
X295650000Y-130800000D02*
X295650000Y-134850000D01*
X340850000Y-131000000D02*
X340850000Y-134900000D01*
X351000000Y-148050000D02*
X351000000Y-151350000D01*
X128650000Y-148000000D02*
X128650000Y-148565685D01*
X128650000Y-148565685D02*
X128650000Y-151400000D01*
X224800000Y-147850000D02*
X224800000Y-151400000D01*
X312250000Y-148000000D02*
X312250000Y-151400000D01*
D28*
G36*
X72362322Y-140790000D02*
G01*
X66655303Y-140790000D01*
X66744495Y-140681318D01*
X66866138Y-140453741D01*
X66941045Y-140206805D01*
X66966338Y-139950000D01*
X66941045Y-139693195D01*
X66866138Y-139446259D01*
X66744495Y-139218682D01*
X66580792Y-139019208D01*
X66494096Y-138948059D01*
X66521227Y-138928303D01*
X66695344Y-138739537D01*
X66829289Y-138520430D01*
X66917915Y-138279401D01*
X66795085Y-138077000D01*
X65777000Y-138077000D01*
X65777000Y-138097000D01*
X65523000Y-138097000D01*
X65523000Y-138077000D01*
X65503000Y-138077000D01*
X65503000Y-137823000D01*
X65523000Y-137823000D01*
X65523000Y-137803000D01*
X65777000Y-137803000D01*
X65777000Y-137823000D01*
X66795085Y-137823000D01*
X66863661Y-137709999D01*
X72337226Y-137709999D01*
X72362322Y-140790000D01*
X72362322Y-140790000D01*
G37*
X72362322Y-140790000D02*
X66655303Y-140790000D01*
X66744495Y-140681318D01*
X66866138Y-140453741D01*
X66941045Y-140206805D01*
X66966338Y-139950000D01*
X66941045Y-139693195D01*
X66866138Y-139446259D01*
X66744495Y-139218682D01*
X66580792Y-139019208D01*
X66494096Y-138948059D01*
X66521227Y-138928303D01*
X66695344Y-138739537D01*
X66829289Y-138520430D01*
X66917915Y-138279401D01*
X66795085Y-138077000D01*
X65777000Y-138077000D01*
X65777000Y-138097000D01*
X65523000Y-138097000D01*
X65523000Y-138077000D01*
X65503000Y-138077000D01*
X65503000Y-137823000D01*
X65523000Y-137823000D01*
X65523000Y-137803000D01*
X65777000Y-137803000D01*
X65777000Y-137823000D01*
X66795085Y-137823000D01*
X66863661Y-137709999D01*
X72337226Y-137709999D01*
X72362322Y-140790000D01*
G36*
X96642980Y-61102133D02*
G01*
X96597850Y-60953358D01*
X96518671Y-60805225D01*
X96412115Y-60675385D01*
X96282275Y-60568829D01*
X96134142Y-60489650D01*
X95973408Y-60440892D01*
X95806250Y-60424428D01*
X95549230Y-60424428D01*
X95217039Y-60092237D01*
X95235000Y-60001939D01*
X95235000Y-59798061D01*
X95195226Y-59598102D01*
X95117205Y-59409744D01*
X95003937Y-59240226D01*
X94859774Y-59096063D01*
X94690256Y-58982795D01*
X94501898Y-58904774D01*
X94301939Y-58865000D01*
X94098061Y-58865000D01*
X93898102Y-58904774D01*
X93709744Y-58982795D01*
X93540226Y-59096063D01*
X93396063Y-59240226D01*
X93282795Y-59409744D01*
X93204774Y-59598102D01*
X93165000Y-59798061D01*
X93165000Y-60001939D01*
X93204774Y-60201898D01*
X93282795Y-60390256D01*
X93306372Y-60425542D01*
X93185750Y-60427500D01*
X93027000Y-60586250D01*
X93027000Y-61373000D01*
X93851250Y-61373000D01*
X94010000Y-61214250D01*
X94013072Y-61062500D01*
X94010382Y-61035183D01*
X94436928Y-61461730D01*
X94436928Y-61718750D01*
X94453392Y-61885908D01*
X94502150Y-62046642D01*
X94581329Y-62194775D01*
X94599100Y-62216430D01*
X94544463Y-62283006D01*
X94485498Y-62393320D01*
X94449188Y-62513018D01*
X94436928Y-62637500D01*
X94440000Y-62789250D01*
X94598750Y-62948000D01*
X95423000Y-62948000D01*
X95423000Y-62928000D01*
X95677000Y-62928000D01*
X95677000Y-62948000D01*
X95697000Y-62948000D01*
X95697000Y-63202000D01*
X95677000Y-63202000D01*
X95677000Y-63988750D01*
X95835750Y-64147500D01*
X96025000Y-64150572D01*
X96149482Y-64138312D01*
X96269180Y-64102002D01*
X96379494Y-64043037D01*
X96476185Y-63963685D01*
X96555537Y-63866994D01*
X96614502Y-63756680D01*
X96623033Y-63728557D01*
X96523973Y-76771485D01*
X90462179Y-76699033D01*
X93348513Y-73812699D01*
X93377511Y-73788901D01*
X93472484Y-73673176D01*
X93543056Y-73541147D01*
X93586513Y-73397886D01*
X93597510Y-73286233D01*
X93597510Y-73286225D01*
X93601186Y-73248900D01*
X93597510Y-73211575D01*
X93597510Y-69699832D01*
X93601186Y-69662510D01*
X93597510Y-69625187D01*
X93597510Y-69625177D01*
X93586513Y-69513524D01*
X93543056Y-69370263D01*
X93489734Y-69270506D01*
X93472484Y-69238233D01*
X93401309Y-69151507D01*
X93377511Y-69122509D01*
X93348514Y-69098712D01*
X93150572Y-68900770D01*
X93150572Y-68643750D01*
X93134108Y-68476592D01*
X93085350Y-68315858D01*
X93006171Y-68167725D01*
X92899615Y-68037885D01*
X92769775Y-67931329D01*
X92621642Y-67852150D01*
X92460908Y-67803392D01*
X92293750Y-67786928D01*
X91856250Y-67786928D01*
X91689092Y-67803392D01*
X91528358Y-67852150D01*
X91380225Y-67931329D01*
X91287500Y-68007426D01*
X91194775Y-67931329D01*
X91046642Y-67852150D01*
X90885908Y-67803392D01*
X90718750Y-67786928D01*
X90281250Y-67786928D01*
X90114092Y-67803392D01*
X89953358Y-67852150D01*
X89805225Y-67931329D01*
X89675385Y-68037885D01*
X89568829Y-68167725D01*
X89489650Y-68315858D01*
X89440892Y-68476592D01*
X89424428Y-68643750D01*
X89424428Y-68900771D01*
X89135199Y-69190000D01*
X88344468Y-69190000D01*
X88331185Y-69173815D01*
X88234494Y-69094463D01*
X88124180Y-69035498D01*
X88004482Y-68999188D01*
X87880000Y-68986928D01*
X87061896Y-68986928D01*
X87060000Y-68967677D01*
X87060000Y-63870000D01*
X87244552Y-63870000D01*
X87430022Y-63833108D01*
X87575000Y-63773056D01*
X87719978Y-63833108D01*
X87905448Y-63870000D01*
X88094552Y-63870000D01*
X88280022Y-63833108D01*
X88425420Y-63772882D01*
X88564992Y-63831581D01*
X88750260Y-63869475D01*
X88939361Y-63870497D01*
X89125028Y-63834608D01*
X89300126Y-63763187D01*
X89309323Y-63758270D01*
X89322931Y-63562536D01*
X88927639Y-63167244D01*
X88960000Y-63004552D01*
X88960000Y-62815448D01*
X88959171Y-62811281D01*
X89043748Y-62895858D01*
X89029605Y-62910000D01*
X89179775Y-63060170D01*
X89246191Y-63212545D01*
X89368413Y-63388391D01*
X89522592Y-63537014D01*
X89702803Y-63652702D01*
X89905999Y-63724408D01*
X90073000Y-63597502D01*
X90073000Y-62057000D01*
X90327000Y-62057000D01*
X90327000Y-63597502D01*
X90494001Y-63724408D01*
X90697197Y-63652702D01*
X90877408Y-63537014D01*
X91031587Y-63388391D01*
X91153809Y-63212545D01*
X91239376Y-63016233D01*
X91285000Y-62807000D01*
X91285000Y-62057000D01*
X90327000Y-62057000D01*
X90073000Y-62057000D01*
X89515927Y-62057000D01*
X89698270Y-62044323D01*
X89743196Y-61937500D01*
X91786928Y-61937500D01*
X91799188Y-62061982D01*
X91835498Y-62181680D01*
X91894463Y-62291994D01*
X91949100Y-62358570D01*
X91931329Y-62380225D01*
X91852150Y-62528358D01*
X91803392Y-62689092D01*
X91786928Y-62856250D01*
X91786928Y-63293750D01*
X91803392Y-63460908D01*
X91852150Y-63621642D01*
X91931329Y-63769775D01*
X92023527Y-63882119D01*
X91954774Y-64048102D01*
X91915000Y-64248061D01*
X91915000Y-64451939D01*
X91954774Y-64651898D01*
X92032795Y-64840256D01*
X92146063Y-65009774D01*
X92290226Y-65153937D01*
X92459744Y-65267205D01*
X92648102Y-65345226D01*
X92848061Y-65385000D01*
X93051939Y-65385000D01*
X93251898Y-65345226D01*
X93440256Y-65267205D01*
X93609774Y-65153937D01*
X93753937Y-65009774D01*
X93867205Y-64840256D01*
X93945226Y-64651898D01*
X93985000Y-64451939D01*
X93985000Y-64248061D01*
X93945226Y-64048102D01*
X93867205Y-63859744D01*
X93834727Y-63811137D01*
X93868671Y-63769775D01*
X93947850Y-63621642D01*
X93980957Y-63512500D01*
X94436928Y-63512500D01*
X94449188Y-63636982D01*
X94485498Y-63756680D01*
X94544463Y-63866994D01*
X94623815Y-63963685D01*
X94720506Y-64043037D01*
X94830820Y-64102002D01*
X94950518Y-64138312D01*
X95075000Y-64150572D01*
X95264250Y-64147500D01*
X95423000Y-63988750D01*
X95423000Y-63202000D01*
X94598750Y-63202000D01*
X94440000Y-63360750D01*
X94436928Y-63512500D01*
X93980957Y-63512500D01*
X93996608Y-63460908D01*
X94013072Y-63293750D01*
X94013072Y-62856250D01*
X93996608Y-62689092D01*
X93947850Y-62528358D01*
X93868671Y-62380225D01*
X93850900Y-62358570D01*
X93905537Y-62291994D01*
X93964502Y-62181680D01*
X94000812Y-62061982D01*
X94013072Y-61937500D01*
X94010000Y-61785750D01*
X93851250Y-61627000D01*
X93027000Y-61627000D01*
X93027000Y-61647000D01*
X92773000Y-61647000D01*
X92773000Y-61627000D01*
X91948750Y-61627000D01*
X91790000Y-61785750D01*
X91786928Y-61937500D01*
X89743196Y-61937500D01*
X89771581Y-61870008D01*
X89785287Y-61803000D01*
X90073000Y-61803000D01*
X90073000Y-60262498D01*
X90327000Y-60262498D01*
X90327000Y-61803000D01*
X91285000Y-61803000D01*
X91285000Y-61062500D01*
X91786928Y-61062500D01*
X91790000Y-61214250D01*
X91948750Y-61373000D01*
X92773000Y-61373000D01*
X92773000Y-60586250D01*
X92614250Y-60427500D01*
X92425000Y-60424428D01*
X92300518Y-60436688D01*
X92180820Y-60472998D01*
X92070506Y-60531963D01*
X91973815Y-60611315D01*
X91894463Y-60708006D01*
X91835498Y-60818320D01*
X91799188Y-60938018D01*
X91786928Y-61062500D01*
X91285000Y-61062500D01*
X91285000Y-61053000D01*
X91239376Y-60843767D01*
X91153809Y-60647455D01*
X91031587Y-60471609D01*
X90877408Y-60322986D01*
X90697197Y-60207298D01*
X90494001Y-60135592D01*
X90327000Y-60262498D01*
X90073000Y-60262498D01*
X89905999Y-60135592D01*
X89702803Y-60207298D01*
X89522592Y-60322986D01*
X89368413Y-60471609D01*
X89246191Y-60647455D01*
X89223087Y-60700462D01*
X89135008Y-60663419D01*
X88949740Y-60625525D01*
X88760639Y-60624503D01*
X88666738Y-60642654D01*
X88581541Y-60538840D01*
X88550039Y-60512988D01*
X88403289Y-60366237D01*
X88357761Y-60320709D01*
X88331910Y-60289209D01*
X88206211Y-60186051D01*
X88062803Y-60109397D01*
X87907195Y-60062194D01*
X87785922Y-60050250D01*
X87785919Y-60050250D01*
X87745369Y-60046256D01*
X87704819Y-60050250D01*
X87592463Y-60050250D01*
X87528994Y-60043999D01*
X87528991Y-60043999D01*
X87488441Y-60040005D01*
X87447891Y-60043999D01*
X86842109Y-60043999D01*
X86801558Y-60040005D01*
X86761008Y-60043999D01*
X86761006Y-60043999D01*
X86720000Y-60048038D01*
X86678994Y-60043999D01*
X86678991Y-60043999D01*
X86638441Y-60040005D01*
X86597891Y-60043999D01*
X85992109Y-60043999D01*
X85951558Y-60040005D01*
X85911008Y-60043999D01*
X85911006Y-60043999D01*
X85870000Y-60048038D01*
X85828994Y-60043999D01*
X85828991Y-60043999D01*
X85788441Y-60040005D01*
X85747891Y-60043999D01*
X85142109Y-60043999D01*
X85101558Y-60040005D01*
X85061008Y-60043999D01*
X85061006Y-60043999D01*
X85020000Y-60048038D01*
X84978994Y-60043999D01*
X84978991Y-60043999D01*
X84938441Y-60040005D01*
X84897891Y-60043999D01*
X84292109Y-60043999D01*
X84251558Y-60040005D01*
X84211008Y-60043999D01*
X84211006Y-60043999D01*
X84147537Y-60050250D01*
X84035181Y-60050250D01*
X83994631Y-60046256D01*
X83954081Y-60050250D01*
X83954078Y-60050250D01*
X83847772Y-60060720D01*
X83332017Y-59544965D01*
X83306160Y-59513459D01*
X83180461Y-59410301D01*
X83037053Y-59333647D01*
X82881445Y-59286444D01*
X82760172Y-59274500D01*
X82760169Y-59274500D01*
X82719619Y-59270506D01*
X82679069Y-59274500D01*
X82591934Y-59274500D01*
X82635000Y-59077000D01*
X82635000Y-58677000D01*
X89115000Y-58677000D01*
X89115000Y-59077000D01*
X89160624Y-59286233D01*
X89246191Y-59482545D01*
X89368413Y-59658391D01*
X89522592Y-59807014D01*
X89702803Y-59922702D01*
X89905999Y-59994408D01*
X90073000Y-59867502D01*
X90073000Y-58677000D01*
X90327000Y-58677000D01*
X90327000Y-59867502D01*
X90494001Y-59994408D01*
X90697197Y-59922702D01*
X90877408Y-59807014D01*
X91031587Y-59658391D01*
X91153809Y-59482545D01*
X91239376Y-59286233D01*
X91285000Y-59077000D01*
X91285000Y-58677000D01*
X90327000Y-58677000D01*
X90073000Y-58677000D01*
X89115000Y-58677000D01*
X82635000Y-58677000D01*
X81677000Y-58677000D01*
X81677000Y-58697000D01*
X81423000Y-58697000D01*
X81423000Y-58677000D01*
X80465000Y-58677000D01*
X80465000Y-59077000D01*
X80508066Y-59274500D01*
X79140550Y-59274500D01*
X79099999Y-59270506D01*
X79059449Y-59274500D01*
X79059447Y-59274500D01*
X78938174Y-59286444D01*
X78782566Y-59333647D01*
X78689111Y-59383601D01*
X78639157Y-59410301D01*
X78597542Y-59444454D01*
X78513459Y-59513459D01*
X78487606Y-59544961D01*
X77344966Y-60687602D01*
X77313459Y-60713459D01*
X77254769Y-60784974D01*
X77210301Y-60839158D01*
X77170470Y-60913677D01*
X77133647Y-60982567D01*
X77086444Y-61138175D01*
X77076543Y-61238707D01*
X77070506Y-61300000D01*
X77074500Y-61340551D01*
X77074501Y-63595336D01*
X77037885Y-63625385D01*
X76931329Y-63755225D01*
X76852150Y-63903358D01*
X76803392Y-64064092D01*
X76786928Y-64231250D01*
X76786928Y-64668750D01*
X76803392Y-64835908D01*
X76852150Y-64996642D01*
X76931329Y-65144775D01*
X77007426Y-65237500D01*
X76931329Y-65330225D01*
X76852150Y-65478358D01*
X76803392Y-65639092D01*
X76786928Y-65806250D01*
X76786928Y-66243750D01*
X76803392Y-66410908D01*
X76852150Y-66571642D01*
X76931329Y-66719775D01*
X77037885Y-66849615D01*
X77074500Y-66879664D01*
X77074501Y-67332768D01*
X76990553Y-67324500D01*
X76990550Y-67324500D01*
X76950000Y-67320506D01*
X76909450Y-67324500D01*
X75954664Y-67324500D01*
X75924615Y-67287885D01*
X75794775Y-67181329D01*
X75646642Y-67102150D01*
X75485908Y-67053392D01*
X75318750Y-67036928D01*
X74881250Y-67036928D01*
X74714092Y-67053392D01*
X74553358Y-67102150D01*
X74405225Y-67181329D01*
X74383570Y-67199100D01*
X74316994Y-67144463D01*
X74206680Y-67085498D01*
X74086982Y-67049188D01*
X73962500Y-67036928D01*
X73810750Y-67040000D01*
X73652000Y-67198750D01*
X73652000Y-68023000D01*
X73672000Y-68023000D01*
X73672000Y-68277000D01*
X73652000Y-68277000D01*
X73652000Y-69101250D01*
X73810750Y-69260000D01*
X73962500Y-69263072D01*
X74086982Y-69250812D01*
X74206680Y-69214502D01*
X74316994Y-69155537D01*
X74383570Y-69100900D01*
X74405225Y-69118671D01*
X74553358Y-69197850D01*
X74714092Y-69246608D01*
X74881250Y-69263072D01*
X75318750Y-69263072D01*
X75485908Y-69246608D01*
X75646642Y-69197850D01*
X75794775Y-69118671D01*
X75924615Y-69012115D01*
X75954664Y-68975500D01*
X76608067Y-68975500D01*
X77074500Y-69441933D01*
X77074500Y-69608067D01*
X76658068Y-70024500D01*
X76004664Y-70024500D01*
X75974615Y-69987885D01*
X75844775Y-69881329D01*
X75696642Y-69802150D01*
X75535908Y-69753392D01*
X75368750Y-69736928D01*
X74931250Y-69736928D01*
X74764092Y-69753392D01*
X74603358Y-69802150D01*
X74455225Y-69881329D01*
X74433570Y-69899100D01*
X74366994Y-69844463D01*
X74256680Y-69785498D01*
X74136982Y-69749188D01*
X74012500Y-69736928D01*
X73860750Y-69740000D01*
X73702000Y-69898750D01*
X73702000Y-70723000D01*
X73722000Y-70723000D01*
X73722000Y-70977000D01*
X73702000Y-70977000D01*
X73702000Y-71801250D01*
X73860750Y-71960000D01*
X74012500Y-71963072D01*
X74136982Y-71950812D01*
X74256680Y-71914502D01*
X74366994Y-71855537D01*
X74433570Y-71800900D01*
X74455225Y-71818671D01*
X74603358Y-71897850D01*
X74764092Y-71946608D01*
X74931250Y-71963072D01*
X75368750Y-71963072D01*
X75535908Y-71946608D01*
X75696642Y-71897850D01*
X75844775Y-71818671D01*
X75974615Y-71712115D01*
X76004664Y-71675500D01*
X76394567Y-71675500D01*
X75597878Y-72472190D01*
X75535908Y-72453392D01*
X75368750Y-72436928D01*
X74931250Y-72436928D01*
X74764092Y-72453392D01*
X74603358Y-72502150D01*
X74455225Y-72581329D01*
X74433570Y-72599100D01*
X74366994Y-72544463D01*
X74256680Y-72485498D01*
X74136982Y-72449188D01*
X74012500Y-72436928D01*
X73860750Y-72440000D01*
X73702000Y-72598750D01*
X73702000Y-73423000D01*
X73722000Y-73423000D01*
X73722000Y-73677000D01*
X73702000Y-73677000D01*
X73702000Y-74501250D01*
X73860750Y-74660000D01*
X74012500Y-74663072D01*
X74136982Y-74650812D01*
X74256680Y-74614502D01*
X74366994Y-74555537D01*
X74433570Y-74500900D01*
X74455225Y-74518671D01*
X74603358Y-74597850D01*
X74764092Y-74646608D01*
X74931250Y-74663072D01*
X75368750Y-74663072D01*
X75535908Y-74646608D01*
X75696642Y-74597850D01*
X75844775Y-74518671D01*
X75974615Y-74412115D01*
X76081171Y-74282275D01*
X76086164Y-74272934D01*
X76148342Y-74239699D01*
X76274041Y-74136541D01*
X76299898Y-74105034D01*
X77074500Y-73330432D01*
X77074500Y-76539021D01*
X71967855Y-76477985D01*
X71943051Y-76480129D01*
X71919142Y-76487071D01*
X71897047Y-76498544D01*
X71877614Y-76514107D01*
X71861591Y-76533162D01*
X71849594Y-76554976D01*
X71842082Y-76578713D01*
X71839341Y-76606011D01*
X72032684Y-100334500D01*
X71017638Y-100334500D01*
X70940256Y-100282795D01*
X70751898Y-100204774D01*
X70551939Y-100165000D01*
X70348061Y-100165000D01*
X70148102Y-100204774D01*
X69959744Y-100282795D01*
X69790226Y-100396063D01*
X69646063Y-100540226D01*
X69532795Y-100709744D01*
X69454774Y-100898102D01*
X69415000Y-101098061D01*
X69415000Y-101301939D01*
X69454774Y-101501898D01*
X69532795Y-101690256D01*
X69646063Y-101859774D01*
X69790226Y-102003937D01*
X69959744Y-102117205D01*
X70148102Y-102195226D01*
X70348061Y-102235000D01*
X70551939Y-102235000D01*
X70751898Y-102195226D01*
X70940256Y-102117205D01*
X71109774Y-102003937D01*
X71128211Y-101985500D01*
X72046137Y-101985500D01*
X72068174Y-104690000D01*
X71053711Y-104690000D01*
X71009774Y-104646063D01*
X70840256Y-104532795D01*
X70651898Y-104454774D01*
X70451939Y-104415000D01*
X70248061Y-104415000D01*
X70048102Y-104454774D01*
X69859744Y-104532795D01*
X69690226Y-104646063D01*
X69546063Y-104790226D01*
X69432795Y-104959744D01*
X69354774Y-105148102D01*
X69315000Y-105348061D01*
X69315000Y-105551939D01*
X69354774Y-105751898D01*
X69432795Y-105940256D01*
X69546063Y-106109774D01*
X69690226Y-106253937D01*
X69859744Y-106367205D01*
X70048102Y-106445226D01*
X70248061Y-106485000D01*
X70451939Y-106485000D01*
X70651898Y-106445226D01*
X70840256Y-106367205D01*
X71009774Y-106253937D01*
X71053711Y-106210000D01*
X72080559Y-106210000D01*
X72088544Y-107190000D01*
X70966266Y-107190000D01*
X70894775Y-107131329D01*
X70746642Y-107052150D01*
X70585908Y-107003392D01*
X70418750Y-106986928D01*
X69981250Y-106986928D01*
X69814092Y-107003392D01*
X69653358Y-107052150D01*
X69505225Y-107131329D01*
X69483570Y-107149100D01*
X69416994Y-107094463D01*
X69306680Y-107035498D01*
X69186982Y-106999188D01*
X69062500Y-106986928D01*
X68910750Y-106990000D01*
X68752000Y-107148750D01*
X68752000Y-107973000D01*
X68772000Y-107973000D01*
X68772000Y-108227000D01*
X68752000Y-108227000D01*
X68752000Y-109051250D01*
X68910750Y-109210000D01*
X69062500Y-109213072D01*
X69186982Y-109200812D01*
X69306680Y-109164502D01*
X69416994Y-109105537D01*
X69483570Y-109050900D01*
X69505225Y-109068671D01*
X69653358Y-109147850D01*
X69814092Y-109196608D01*
X69981250Y-109213072D01*
X70418750Y-109213072D01*
X70585908Y-109196608D01*
X70746642Y-109147850D01*
X70894775Y-109068671D01*
X71024615Y-108962115D01*
X71131171Y-108832275D01*
X71196529Y-108710000D01*
X72100929Y-108710000D01*
X72128307Y-112070000D01*
X70657322Y-112070000D01*
X70619999Y-112066324D01*
X70582676Y-112070000D01*
X70582667Y-112070000D01*
X70471014Y-112080997D01*
X70327753Y-112124454D01*
X70195723Y-112195026D01*
X70144666Y-112236928D01*
X69881250Y-112236928D01*
X69714092Y-112253392D01*
X69553358Y-112302150D01*
X69405225Y-112381329D01*
X69383570Y-112399100D01*
X69316994Y-112344463D01*
X69206680Y-112285498D01*
X69086982Y-112249188D01*
X68962500Y-112236928D01*
X68810750Y-112240000D01*
X68652000Y-112398750D01*
X68652000Y-113223000D01*
X68672000Y-113223000D01*
X68672000Y-113477000D01*
X68652000Y-113477000D01*
X68652000Y-114301250D01*
X68810750Y-114460000D01*
X68962500Y-114463072D01*
X69086982Y-114450812D01*
X69206680Y-114414502D01*
X69316994Y-114355537D01*
X69383570Y-114300900D01*
X69405225Y-114318671D01*
X69553358Y-114397850D01*
X69714092Y-114446608D01*
X69881250Y-114463072D01*
X70318750Y-114463072D01*
X70485908Y-114446608D01*
X70646642Y-114397850D01*
X70794775Y-114318671D01*
X70924615Y-114212115D01*
X71031171Y-114082275D01*
X71110350Y-113934142D01*
X71159108Y-113773408D01*
X71175572Y-113606250D01*
X71175572Y-113590000D01*
X72140692Y-113590000D01*
X72270655Y-129540000D01*
X69449117Y-129540000D01*
X60941271Y-121032155D01*
X60995226Y-120901898D01*
X61035000Y-120701939D01*
X61035000Y-120498061D01*
X60995226Y-120298102D01*
X60917205Y-120109744D01*
X60803937Y-119940226D01*
X60659774Y-119796063D01*
X60490256Y-119682795D01*
X60301898Y-119604774D01*
X60101939Y-119565000D01*
X59898061Y-119565000D01*
X59698102Y-119604774D01*
X59509744Y-119682795D01*
X59340226Y-119796063D01*
X59196063Y-119940226D01*
X59082795Y-120109744D01*
X59004774Y-120298102D01*
X58965000Y-120498061D01*
X58965000Y-120701939D01*
X59004774Y-120901898D01*
X59082795Y-121090256D01*
X59196063Y-121259774D01*
X59251013Y-121314724D01*
X59294454Y-121457932D01*
X59317328Y-121500725D01*
X59365026Y-121589961D01*
X59434815Y-121674998D01*
X59460000Y-121705686D01*
X59488998Y-121729484D01*
X68570516Y-130811003D01*
X68594314Y-130840001D01*
X68623312Y-130863799D01*
X68710038Y-130934974D01*
X68842068Y-131005546D01*
X68985329Y-131049003D01*
X69096982Y-131060000D01*
X69096991Y-131060000D01*
X69134314Y-131063676D01*
X69171637Y-131060000D01*
X72283040Y-131060000D01*
X72324840Y-136189999D01*
X64687324Y-136189999D01*
X64650001Y-136186323D01*
X64612678Y-136189999D01*
X64612668Y-136189999D01*
X64501015Y-136200996D01*
X64357754Y-136244453D01*
X64225724Y-136315025D01*
X64185470Y-136348061D01*
X64110000Y-136409998D01*
X64086202Y-136438996D01*
X63869880Y-136655318D01*
X63714351Y-136640000D01*
X63585649Y-136640000D01*
X63393195Y-136658955D01*
X63146259Y-136733862D01*
X62918682Y-136855505D01*
X62719208Y-137019208D01*
X62650000Y-137103539D01*
X62580792Y-137019208D01*
X62381318Y-136855505D01*
X62153741Y-136733862D01*
X61906805Y-136658955D01*
X61714351Y-136640000D01*
X61585649Y-136640000D01*
X61393195Y-136658955D01*
X61146259Y-136733862D01*
X60918682Y-136855505D01*
X60719208Y-137019208D01*
X60632798Y-137124500D01*
X53477000Y-137124500D01*
X53477000Y-128920000D01*
X61011928Y-128920000D01*
X61011928Y-130920000D01*
X61024188Y-131044482D01*
X61060498Y-131164180D01*
X61119463Y-131274494D01*
X61198815Y-131371185D01*
X61295506Y-131450537D01*
X61405820Y-131509502D01*
X61525518Y-131545812D01*
X61650000Y-131558072D01*
X64850000Y-131558072D01*
X64974482Y-131545812D01*
X65094180Y-131509502D01*
X65204494Y-131450537D01*
X65301185Y-131371185D01*
X65380537Y-131274494D01*
X65439502Y-131164180D01*
X65475812Y-131044482D01*
X65488072Y-130920000D01*
X65488072Y-128920000D01*
X65475812Y-128795518D01*
X65439502Y-128675820D01*
X65380537Y-128565506D01*
X65301185Y-128468815D01*
X65204494Y-128389463D01*
X65094180Y-128330498D01*
X64974482Y-128294188D01*
X64850000Y-128281928D01*
X61650000Y-128281928D01*
X61525518Y-128294188D01*
X61405820Y-128330498D01*
X61295506Y-128389463D01*
X61198815Y-128468815D01*
X61119463Y-128565506D01*
X61060498Y-128675820D01*
X61024188Y-128795518D01*
X61011928Y-128920000D01*
X53477000Y-128920000D01*
X53477000Y-126658967D01*
X54115000Y-126658967D01*
X54115000Y-126981033D01*
X54177832Y-127296912D01*
X54301082Y-127594463D01*
X54480013Y-127862252D01*
X54707748Y-128089987D01*
X54975537Y-128268918D01*
X55273088Y-128392168D01*
X55588967Y-128455000D01*
X55911033Y-128455000D01*
X56226912Y-128392168D01*
X56524463Y-128268918D01*
X56792252Y-128089987D01*
X57019987Y-127862252D01*
X57198918Y-127594463D01*
X57322168Y-127296912D01*
X57385000Y-126981033D01*
X57385000Y-126658967D01*
X57322168Y-126343088D01*
X57198918Y-126045537D01*
X57019987Y-125777748D01*
X56792252Y-125550013D01*
X56695065Y-125485075D01*
X56705808Y-125455413D01*
X55750000Y-124499605D01*
X54794192Y-125455413D01*
X54804935Y-125485075D01*
X54707748Y-125550013D01*
X54480013Y-125777748D01*
X54301082Y-126045537D01*
X54177832Y-126343088D01*
X54115000Y-126658967D01*
X53477000Y-126658967D01*
X53477000Y-124382595D01*
X54108282Y-124382595D01*
X54152039Y-124701675D01*
X54257205Y-125006088D01*
X54350186Y-125180044D01*
X54614587Y-125275808D01*
X55570395Y-124320000D01*
X55556253Y-124305858D01*
X55735858Y-124126253D01*
X55750000Y-124140395D01*
X55764143Y-124126253D01*
X55943748Y-124305858D01*
X55929605Y-124320000D01*
X56885413Y-125275808D01*
X57149814Y-125180044D01*
X57290704Y-124890429D01*
X57372384Y-124578892D01*
X57391718Y-124257405D01*
X57347961Y-123938325D01*
X57242795Y-123633912D01*
X57149814Y-123459956D01*
X57000777Y-123405976D01*
X57104494Y-123350537D01*
X57201185Y-123271185D01*
X57280537Y-123174494D01*
X57339502Y-123064180D01*
X57375812Y-122944482D01*
X57388072Y-122820000D01*
X57388072Y-120820000D01*
X57375812Y-120695518D01*
X57339502Y-120575820D01*
X57280537Y-120465506D01*
X57201185Y-120368815D01*
X57104494Y-120289463D01*
X56994180Y-120230498D01*
X56874482Y-120194188D01*
X56750000Y-120181928D01*
X54750000Y-120181928D01*
X54625518Y-120194188D01*
X54505820Y-120230498D01*
X54395506Y-120289463D01*
X54298815Y-120368815D01*
X54219463Y-120465506D01*
X54160498Y-120575820D01*
X54124188Y-120695518D01*
X54111928Y-120820000D01*
X54111928Y-122820000D01*
X54124188Y-122944482D01*
X54160498Y-123064180D01*
X54219463Y-123174494D01*
X54298815Y-123271185D01*
X54395506Y-123350537D01*
X54499223Y-123405976D01*
X54350186Y-123459956D01*
X54209296Y-123749571D01*
X54127616Y-124061108D01*
X54108282Y-124382595D01*
X53477000Y-124382595D01*
X53477000Y-117400000D01*
X53474560Y-117375224D01*
X53467333Y-117351399D01*
X53455597Y-117329443D01*
X53439803Y-117310197D01*
X53420557Y-117294403D01*
X53398601Y-117282667D01*
X53374776Y-117275440D01*
X53347595Y-117273023D01*
X51525500Y-117307532D01*
X51525500Y-115304108D01*
X51594193Y-115235415D01*
X51689956Y-115499814D01*
X51979571Y-115640704D01*
X52291108Y-115722384D01*
X52612595Y-115741718D01*
X52931675Y-115697961D01*
X53236088Y-115592795D01*
X53410044Y-115499814D01*
X53505808Y-115235413D01*
X58094192Y-115235413D01*
X58189956Y-115499814D01*
X58479571Y-115640704D01*
X58791108Y-115722384D01*
X59112595Y-115741718D01*
X59431675Y-115697961D01*
X59736088Y-115592795D01*
X59910044Y-115499814D01*
X60005808Y-115235413D01*
X59050000Y-114279605D01*
X58094192Y-115235413D01*
X53505808Y-115235413D01*
X52550000Y-114279605D01*
X52535858Y-114293748D01*
X52356253Y-114114143D01*
X52370395Y-114100000D01*
X52729605Y-114100000D01*
X53685413Y-115055808D01*
X53949814Y-114960044D01*
X54090704Y-114670429D01*
X54172384Y-114358892D01*
X54184189Y-114162595D01*
X57408282Y-114162595D01*
X57452039Y-114481675D01*
X57557205Y-114786088D01*
X57650186Y-114960044D01*
X57914587Y-115055808D01*
X58870395Y-114100000D01*
X59229605Y-114100000D01*
X60185413Y-115055808D01*
X60449814Y-114960044D01*
X60590704Y-114670429D01*
X60672384Y-114358892D01*
X60691718Y-114037405D01*
X60647961Y-113718325D01*
X60542795Y-113413912D01*
X60449814Y-113239956D01*
X60185413Y-113144192D01*
X59229605Y-114100000D01*
X58870395Y-114100000D01*
X57914587Y-113144192D01*
X57650186Y-113239956D01*
X57509296Y-113529571D01*
X57427616Y-113841108D01*
X57408282Y-114162595D01*
X54184189Y-114162595D01*
X54191718Y-114037405D01*
X54147961Y-113718325D01*
X54042795Y-113413912D01*
X53949814Y-113239956D01*
X53685413Y-113144192D01*
X52729605Y-114100000D01*
X52370395Y-114100000D01*
X52356253Y-114085858D01*
X52535858Y-113906253D01*
X52550000Y-113920395D01*
X53505808Y-112964587D01*
X58094192Y-112964587D01*
X59050000Y-113920395D01*
X60005808Y-112964587D01*
X59910044Y-112700186D01*
X59620429Y-112559296D01*
X59308892Y-112477616D01*
X58987405Y-112458282D01*
X58668325Y-112502039D01*
X58363912Y-112607205D01*
X58189956Y-112700186D01*
X58094192Y-112964587D01*
X53505808Y-112964587D01*
X53410044Y-112700186D01*
X53120429Y-112559296D01*
X52808892Y-112477616D01*
X52487405Y-112458282D01*
X52168325Y-112502039D01*
X51863912Y-112607205D01*
X51689956Y-112700186D01*
X51594193Y-112964585D01*
X51525500Y-112895892D01*
X51525500Y-110881849D01*
X51775537Y-111048918D01*
X52073088Y-111172168D01*
X52388967Y-111235000D01*
X52711033Y-111235000D01*
X53026912Y-111172168D01*
X53324463Y-111048918D01*
X53592252Y-110869987D01*
X53819987Y-110642252D01*
X53998918Y-110374463D01*
X54122168Y-110076912D01*
X54185000Y-109761033D01*
X54185000Y-109438967D01*
X54122168Y-109123088D01*
X53998918Y-108825537D01*
X53819987Y-108557748D01*
X53712739Y-108450500D01*
X57887261Y-108450500D01*
X57780013Y-108557748D01*
X57601082Y-108825537D01*
X57477832Y-109123088D01*
X57415000Y-109438967D01*
X57415000Y-109761033D01*
X57477832Y-110076912D01*
X57601082Y-110374463D01*
X57780013Y-110642252D01*
X58007748Y-110869987D01*
X58275537Y-111048918D01*
X58573088Y-111172168D01*
X58888967Y-111235000D01*
X59211033Y-111235000D01*
X59526912Y-111172168D01*
X59824463Y-111048918D01*
X60092252Y-110869987D01*
X60319987Y-110642252D01*
X60498918Y-110374463D01*
X60504909Y-110360000D01*
X61412678Y-110360000D01*
X61450000Y-110363676D01*
X61487322Y-110360000D01*
X61487333Y-110360000D01*
X61598986Y-110349003D01*
X61742247Y-110305546D01*
X61798324Y-110275572D01*
X62106250Y-110275572D01*
X62273408Y-110259108D01*
X62434142Y-110210350D01*
X62582275Y-110131171D01*
X62712115Y-110024615D01*
X62765143Y-109960000D01*
X64312678Y-109960000D01*
X64350000Y-109963676D01*
X64387322Y-109960000D01*
X64387333Y-109960000D01*
X64498986Y-109949003D01*
X64642247Y-109905546D01*
X64774276Y-109834974D01*
X64890001Y-109740001D01*
X64913803Y-109710998D01*
X65089802Y-109535000D01*
X65151939Y-109535000D01*
X65351898Y-109495226D01*
X65440000Y-109458732D01*
X65440000Y-117477462D01*
X65439502Y-117475820D01*
X65380537Y-117365506D01*
X65301185Y-117268815D01*
X65204494Y-117189463D01*
X65094180Y-117130498D01*
X64974482Y-117094188D01*
X64850000Y-117081928D01*
X61650000Y-117081928D01*
X61525518Y-117094188D01*
X61405820Y-117130498D01*
X61295506Y-117189463D01*
X61198815Y-117268815D01*
X61119463Y-117365506D01*
X61060498Y-117475820D01*
X61024188Y-117595518D01*
X61011928Y-117720000D01*
X61011928Y-119720000D01*
X61024188Y-119844482D01*
X61060498Y-119964180D01*
X61119463Y-120074494D01*
X61198815Y-120171185D01*
X61295506Y-120250537D01*
X61405820Y-120309502D01*
X61525518Y-120345812D01*
X61650000Y-120358072D01*
X64850000Y-120358072D01*
X64974482Y-120345812D01*
X65094180Y-120309502D01*
X65204494Y-120250537D01*
X65301185Y-120171185D01*
X65380537Y-120074494D01*
X65439502Y-119964180D01*
X65440000Y-119962538D01*
X65440000Y-124562678D01*
X65436324Y-124600000D01*
X65440000Y-124637322D01*
X65440000Y-124637332D01*
X65450997Y-124748985D01*
X65493553Y-124889277D01*
X65494454Y-124892246D01*
X65565026Y-125024276D01*
X65594345Y-125060001D01*
X65659999Y-125140001D01*
X65689003Y-125163804D01*
X66856201Y-126331003D01*
X66880000Y-126360002D01*
X66908998Y-126383800D01*
X66995724Y-126454975D01*
X67127754Y-126525547D01*
X67271015Y-126569004D01*
X67382668Y-126580001D01*
X67382678Y-126580001D01*
X67420001Y-126583677D01*
X67457324Y-126580001D01*
X68630707Y-126580001D01*
X68615000Y-126658967D01*
X68615000Y-126981033D01*
X68677832Y-127296912D01*
X68801082Y-127594463D01*
X68980013Y-127862252D01*
X69207748Y-128089987D01*
X69475537Y-128268918D01*
X69773088Y-128392168D01*
X70088967Y-128455000D01*
X70411033Y-128455000D01*
X70726912Y-128392168D01*
X71024463Y-128268918D01*
X71292252Y-128089987D01*
X71519987Y-127862252D01*
X71698918Y-127594463D01*
X71822168Y-127296912D01*
X71885000Y-126981033D01*
X71885000Y-126658967D01*
X71822168Y-126343088D01*
X71698918Y-126045537D01*
X71519987Y-125777748D01*
X71292252Y-125550013D01*
X71024463Y-125371082D01*
X70726912Y-125247832D01*
X70411033Y-125185000D01*
X70088967Y-125185000D01*
X69773088Y-125247832D01*
X69758279Y-125253966D01*
X69674277Y-125185027D01*
X69542248Y-125114455D01*
X69398987Y-125070998D01*
X69287334Y-125060001D01*
X69287323Y-125060001D01*
X69250001Y-125056325D01*
X69212679Y-125060001D01*
X67734803Y-125060001D01*
X66960000Y-124285199D01*
X66960000Y-121658967D01*
X68615000Y-121658967D01*
X68615000Y-121981033D01*
X68677832Y-122296912D01*
X68801082Y-122594463D01*
X68980013Y-122862252D01*
X69207748Y-123089987D01*
X69475537Y-123268918D01*
X69773088Y-123392168D01*
X70088967Y-123455000D01*
X70411033Y-123455000D01*
X70726912Y-123392168D01*
X71024463Y-123268918D01*
X71292252Y-123089987D01*
X71519987Y-122862252D01*
X71698918Y-122594463D01*
X71822168Y-122296912D01*
X71885000Y-121981033D01*
X71885000Y-121658967D01*
X71822168Y-121343088D01*
X71698918Y-121045537D01*
X71519987Y-120777748D01*
X71292252Y-120550013D01*
X71024463Y-120371082D01*
X70726912Y-120247832D01*
X70411033Y-120185000D01*
X70088967Y-120185000D01*
X69773088Y-120247832D01*
X69475537Y-120371082D01*
X69207748Y-120550013D01*
X68980013Y-120777748D01*
X68801082Y-121045537D01*
X68677832Y-121343088D01*
X68615000Y-121658967D01*
X66960000Y-121658967D01*
X66960000Y-113825000D01*
X67449428Y-113825000D01*
X67461688Y-113949482D01*
X67497998Y-114069180D01*
X67556963Y-114179494D01*
X67636315Y-114276185D01*
X67733006Y-114355537D01*
X67843320Y-114414502D01*
X67963018Y-114450812D01*
X68087500Y-114463072D01*
X68239250Y-114460000D01*
X68398000Y-114301250D01*
X68398000Y-113477000D01*
X67611250Y-113477000D01*
X67452500Y-113635750D01*
X67449428Y-113825000D01*
X66960000Y-113825000D01*
X66960000Y-112875000D01*
X67449428Y-112875000D01*
X67452500Y-113064250D01*
X67611250Y-113223000D01*
X68398000Y-113223000D01*
X68398000Y-112398750D01*
X68239250Y-112240000D01*
X68087500Y-112236928D01*
X67963018Y-112249188D01*
X67843320Y-112285498D01*
X67733006Y-112344463D01*
X67636315Y-112423815D01*
X67556963Y-112520506D01*
X67497998Y-112630820D01*
X67461688Y-112750518D01*
X67449428Y-112875000D01*
X66960000Y-112875000D01*
X66960000Y-108575000D01*
X67549428Y-108575000D01*
X67561688Y-108699482D01*
X67597998Y-108819180D01*
X67656963Y-108929494D01*
X67736315Y-109026185D01*
X67833006Y-109105537D01*
X67943320Y-109164502D01*
X68063018Y-109200812D01*
X68187500Y-109213072D01*
X68339250Y-109210000D01*
X68498000Y-109051250D01*
X68498000Y-108227000D01*
X67711250Y-108227000D01*
X67552500Y-108385750D01*
X67549428Y-108575000D01*
X66960000Y-108575000D01*
X66960000Y-107625000D01*
X67549428Y-107625000D01*
X67552500Y-107814250D01*
X67711250Y-107973000D01*
X68498000Y-107973000D01*
X68498000Y-107148750D01*
X68339250Y-106990000D01*
X68187500Y-106986928D01*
X68063018Y-106999188D01*
X67943320Y-107035498D01*
X67833006Y-107094463D01*
X67736315Y-107173815D01*
X67656963Y-107270506D01*
X67597998Y-107380820D01*
X67561688Y-107500518D01*
X67549428Y-107625000D01*
X66960000Y-107625000D01*
X66960000Y-92584801D01*
X69758625Y-89786177D01*
X69773088Y-89792168D01*
X70088967Y-89855000D01*
X70411033Y-89855000D01*
X70726912Y-89792168D01*
X71024463Y-89668918D01*
X71292252Y-89489987D01*
X71519987Y-89262252D01*
X71698918Y-88994463D01*
X71822168Y-88696912D01*
X71885000Y-88381033D01*
X71885000Y-88058967D01*
X71822168Y-87743088D01*
X71698918Y-87445537D01*
X71519987Y-87177748D01*
X71292252Y-86950013D01*
X71024463Y-86771082D01*
X70726912Y-86647832D01*
X70411033Y-86585000D01*
X70088967Y-86585000D01*
X69773088Y-86647832D01*
X69475537Y-86771082D01*
X69207748Y-86950013D01*
X68980013Y-87177748D01*
X68801082Y-87445537D01*
X68677832Y-87743088D01*
X68615000Y-88058967D01*
X68615000Y-88381033D01*
X68677832Y-88696912D01*
X68683823Y-88711375D01*
X65688998Y-91706201D01*
X65660000Y-91729999D01*
X65636202Y-91758997D01*
X65636201Y-91758998D01*
X65565026Y-91845724D01*
X65494454Y-91977754D01*
X65488072Y-91998793D01*
X65488072Y-90320000D01*
X65475812Y-90195518D01*
X65439502Y-90075820D01*
X65380537Y-89965506D01*
X65301185Y-89868815D01*
X65204494Y-89789463D01*
X65094180Y-89730498D01*
X64974482Y-89694188D01*
X64850000Y-89681928D01*
X61650000Y-89681928D01*
X61525518Y-89694188D01*
X61405820Y-89730498D01*
X61295506Y-89789463D01*
X61198815Y-89868815D01*
X61119463Y-89965506D01*
X61060498Y-90075820D01*
X61024188Y-90195518D01*
X61011928Y-90320000D01*
X61011928Y-92320000D01*
X61024188Y-92444482D01*
X61060498Y-92564180D01*
X61119463Y-92674494D01*
X61198815Y-92771185D01*
X61295506Y-92850537D01*
X61405820Y-92909502D01*
X61525518Y-92945812D01*
X61650000Y-92958072D01*
X64850000Y-92958072D01*
X64974482Y-92945812D01*
X65094180Y-92909502D01*
X65204494Y-92850537D01*
X65301185Y-92771185D01*
X65380537Y-92674494D01*
X65439502Y-92564180D01*
X65440001Y-92562535D01*
X65440001Y-107541268D01*
X65351898Y-107504774D01*
X65151939Y-107465000D01*
X64948061Y-107465000D01*
X64885000Y-107477544D01*
X64885000Y-107448061D01*
X64845226Y-107248102D01*
X64767205Y-107059744D01*
X64653937Y-106890226D01*
X64509774Y-106746063D01*
X64340256Y-106632795D01*
X64151898Y-106554774D01*
X63951939Y-106515000D01*
X63748061Y-106515000D01*
X63548102Y-106554774D01*
X63359744Y-106632795D01*
X63222497Y-106724500D01*
X62619648Y-106724500D01*
X62582275Y-106693829D01*
X62434142Y-106614650D01*
X62273408Y-106565892D01*
X62106250Y-106549428D01*
X61593750Y-106549428D01*
X61426592Y-106565892D01*
X61265858Y-106614650D01*
X61117725Y-106693829D01*
X60988963Y-106799500D01*
X52015550Y-106799500D01*
X51974999Y-106795506D01*
X51934449Y-106799500D01*
X46816934Y-106799500D01*
X44552987Y-104535555D01*
X44566338Y-104400000D01*
X44541045Y-104143195D01*
X44478016Y-103935413D01*
X51644192Y-103935413D01*
X51739956Y-104199814D01*
X52029571Y-104340704D01*
X52341108Y-104422384D01*
X52662595Y-104441718D01*
X52981675Y-104397961D01*
X53286088Y-104292795D01*
X53460044Y-104199814D01*
X53555808Y-103935413D01*
X58144192Y-103935413D01*
X58239956Y-104199814D01*
X58529571Y-104340704D01*
X58841108Y-104422384D01*
X59162595Y-104441718D01*
X59481675Y-104397961D01*
X59786088Y-104292795D01*
X59960044Y-104199814D01*
X60055808Y-103935413D01*
X59100000Y-102979605D01*
X58144192Y-103935413D01*
X53555808Y-103935413D01*
X52600000Y-102979605D01*
X51644192Y-103935413D01*
X44478016Y-103935413D01*
X44466138Y-103896259D01*
X44344495Y-103668682D01*
X44180792Y-103469208D01*
X44096461Y-103400000D01*
X44180792Y-103330792D01*
X44344495Y-103131318D01*
X44466138Y-102903741D01*
X44478619Y-102862595D01*
X50958282Y-102862595D01*
X51002039Y-103181675D01*
X51107205Y-103486088D01*
X51200186Y-103660044D01*
X51464587Y-103755808D01*
X52420395Y-102800000D01*
X52779605Y-102800000D01*
X53735413Y-103755808D01*
X53999814Y-103660044D01*
X54140704Y-103370429D01*
X54222384Y-103058892D01*
X54234189Y-102862595D01*
X57458282Y-102862595D01*
X57502039Y-103181675D01*
X57607205Y-103486088D01*
X57700186Y-103660044D01*
X57964587Y-103755808D01*
X58920395Y-102800000D01*
X59279605Y-102800000D01*
X60235413Y-103755808D01*
X60499814Y-103660044D01*
X60640704Y-103370429D01*
X60722384Y-103058892D01*
X60741718Y-102737405D01*
X60697961Y-102418325D01*
X60592795Y-102113912D01*
X60499814Y-101939956D01*
X60235413Y-101844192D01*
X59279605Y-102800000D01*
X58920395Y-102800000D01*
X57964587Y-101844192D01*
X57700186Y-101939956D01*
X57559296Y-102229571D01*
X57477616Y-102541108D01*
X57458282Y-102862595D01*
X54234189Y-102862595D01*
X54241718Y-102737405D01*
X54197961Y-102418325D01*
X54092795Y-102113912D01*
X53999814Y-101939956D01*
X53735413Y-101844192D01*
X52779605Y-102800000D01*
X52420395Y-102800000D01*
X51464587Y-101844192D01*
X51200186Y-101939956D01*
X51059296Y-102229571D01*
X50977616Y-102541108D01*
X50958282Y-102862595D01*
X44478619Y-102862595D01*
X44541045Y-102656805D01*
X44566338Y-102400000D01*
X44541045Y-102143195D01*
X44466138Y-101896259D01*
X44344495Y-101668682D01*
X44341135Y-101664587D01*
X51644192Y-101664587D01*
X52600000Y-102620395D01*
X53555808Y-101664587D01*
X58144192Y-101664587D01*
X59100000Y-102620395D01*
X60055808Y-101664587D01*
X59960044Y-101400186D01*
X59670429Y-101259296D01*
X59358892Y-101177616D01*
X59037405Y-101158282D01*
X58718325Y-101202039D01*
X58413912Y-101307205D01*
X58239956Y-101400186D01*
X58144192Y-101664587D01*
X53555808Y-101664587D01*
X53460044Y-101400186D01*
X53170429Y-101259296D01*
X52858892Y-101177616D01*
X52537405Y-101158282D01*
X52218325Y-101202039D01*
X51913912Y-101307205D01*
X51739956Y-101400186D01*
X51644192Y-101664587D01*
X44341135Y-101664587D01*
X44287369Y-101599074D01*
X44376185Y-101526185D01*
X44455537Y-101429494D01*
X44514502Y-101319180D01*
X44550812Y-101199482D01*
X44563072Y-101075000D01*
X44563072Y-99725000D01*
X44550812Y-99600518D01*
X44514502Y-99480820D01*
X44455537Y-99370506D01*
X44376185Y-99273815D01*
X44279494Y-99194463D01*
X44169180Y-99135498D01*
X44049482Y-99099188D01*
X43925000Y-99086928D01*
X42575000Y-99086928D01*
X42450518Y-99099188D01*
X42330820Y-99135498D01*
X42220506Y-99194463D01*
X42123815Y-99273815D01*
X42044463Y-99370506D01*
X41985498Y-99480820D01*
X41949188Y-99600518D01*
X41936928Y-99725000D01*
X41936928Y-101075000D01*
X41949188Y-101199482D01*
X41985498Y-101319180D01*
X42044463Y-101429494D01*
X42123815Y-101526185D01*
X42212631Y-101599074D01*
X42155505Y-101668682D01*
X42033862Y-101896259D01*
X41958955Y-102143195D01*
X41933662Y-102400000D01*
X41955318Y-102619881D01*
X41738997Y-102836202D01*
X41709999Y-102860000D01*
X41686201Y-102888998D01*
X41686200Y-102888999D01*
X41615025Y-102975725D01*
X41544453Y-103107755D01*
X41500997Y-103251016D01*
X41486323Y-103400001D01*
X41490000Y-103437333D01*
X41489999Y-106842678D01*
X41486323Y-106880001D01*
X41489999Y-106917323D01*
X41489999Y-106917333D01*
X41500996Y-107028986D01*
X41541547Y-107162667D01*
X41544453Y-107172247D01*
X41615025Y-107304277D01*
X41623847Y-107315026D01*
X41709998Y-107420002D01*
X41739002Y-107443805D01*
X45440001Y-111144805D01*
X45440000Y-117291582D01*
X45337885Y-117375385D01*
X45296756Y-117425501D01*
X40560000Y-117515213D01*
X40560000Y-98138967D01*
X50965000Y-98138967D01*
X50965000Y-98461033D01*
X51027832Y-98776912D01*
X51151082Y-99074463D01*
X51330013Y-99342252D01*
X51557748Y-99569987D01*
X51825537Y-99748918D01*
X52123088Y-99872168D01*
X52438967Y-99935000D01*
X52761033Y-99935000D01*
X53076912Y-99872168D01*
X53374463Y-99748918D01*
X53642252Y-99569987D01*
X53869987Y-99342252D01*
X54048918Y-99074463D01*
X54172168Y-98776912D01*
X54235000Y-98461033D01*
X54235000Y-98138967D01*
X57465000Y-98138967D01*
X57465000Y-98461033D01*
X57527832Y-98776912D01*
X57651082Y-99074463D01*
X57830013Y-99342252D01*
X58057748Y-99569987D01*
X58325537Y-99748918D01*
X58623088Y-99872168D01*
X58938967Y-99935000D01*
X59261033Y-99935000D01*
X59576912Y-99872168D01*
X59874463Y-99748918D01*
X60142252Y-99569987D01*
X60369987Y-99342252D01*
X60548918Y-99074463D01*
X60672168Y-98776912D01*
X60735000Y-98461033D01*
X60735000Y-98138967D01*
X60672168Y-97823088D01*
X60548918Y-97525537D01*
X60369987Y-97257748D01*
X60142252Y-97030013D01*
X59874463Y-96851082D01*
X59576912Y-96727832D01*
X59261033Y-96665000D01*
X58938967Y-96665000D01*
X58623088Y-96727832D01*
X58325537Y-96851082D01*
X58057748Y-97030013D01*
X57830013Y-97257748D01*
X57651082Y-97525537D01*
X57527832Y-97823088D01*
X57465000Y-98138967D01*
X54235000Y-98138967D01*
X54172168Y-97823088D01*
X54048918Y-97525537D01*
X53869987Y-97257748D01*
X53642252Y-97030013D01*
X53374463Y-96851082D01*
X53076912Y-96727832D01*
X52761033Y-96665000D01*
X52438967Y-96665000D01*
X52123088Y-96727832D01*
X51825537Y-96851082D01*
X51557748Y-97030013D01*
X51330013Y-97257748D01*
X51151082Y-97525537D01*
X51027832Y-97823088D01*
X50965000Y-98138967D01*
X40560000Y-98138967D01*
X40560000Y-88058967D01*
X54115000Y-88058967D01*
X54115000Y-88381033D01*
X54177832Y-88696912D01*
X54301082Y-88994463D01*
X54480013Y-89262252D01*
X54707748Y-89489987D01*
X54975537Y-89668918D01*
X55273088Y-89792168D01*
X55588967Y-89855000D01*
X55911033Y-89855000D01*
X56226912Y-89792168D01*
X56524463Y-89668918D01*
X56792252Y-89489987D01*
X57019987Y-89262252D01*
X57198918Y-88994463D01*
X57322168Y-88696912D01*
X57385000Y-88381033D01*
X57385000Y-88058967D01*
X57322168Y-87743088D01*
X57198918Y-87445537D01*
X57019987Y-87177748D01*
X56792252Y-86950013D01*
X56695065Y-86885075D01*
X56705808Y-86855413D01*
X55750000Y-85899605D01*
X54794192Y-86855413D01*
X54804935Y-86885075D01*
X54707748Y-86950013D01*
X54480013Y-87177748D01*
X54301082Y-87445537D01*
X54177832Y-87743088D01*
X54115000Y-88058967D01*
X40560000Y-88058967D01*
X40560000Y-85782595D01*
X54108282Y-85782595D01*
X54152039Y-86101675D01*
X54257205Y-86406088D01*
X54350186Y-86580044D01*
X54614587Y-86675808D01*
X55570395Y-85720000D01*
X55556253Y-85705858D01*
X55735858Y-85526253D01*
X55750000Y-85540395D01*
X55764143Y-85526253D01*
X55943748Y-85705858D01*
X55929605Y-85720000D01*
X56885413Y-86675808D01*
X57149814Y-86580044D01*
X57290704Y-86290429D01*
X57372384Y-85978892D01*
X57391718Y-85657405D01*
X57347961Y-85338325D01*
X57242795Y-85033912D01*
X57149814Y-84859956D01*
X57000777Y-84805976D01*
X57104494Y-84750537D01*
X57201185Y-84671185D01*
X57280537Y-84574494D01*
X57339502Y-84464180D01*
X57375812Y-84344482D01*
X57388072Y-84220000D01*
X57388072Y-83058967D01*
X68615000Y-83058967D01*
X68615000Y-83381033D01*
X68677832Y-83696912D01*
X68801082Y-83994463D01*
X68980013Y-84262252D01*
X69207748Y-84489987D01*
X69475537Y-84668918D01*
X69773088Y-84792168D01*
X70088967Y-84855000D01*
X70411033Y-84855000D01*
X70726912Y-84792168D01*
X71024463Y-84668918D01*
X71292252Y-84489987D01*
X71519987Y-84262252D01*
X71698918Y-83994463D01*
X71822168Y-83696912D01*
X71885000Y-83381033D01*
X71885000Y-83058967D01*
X71822168Y-82743088D01*
X71698918Y-82445537D01*
X71519987Y-82177748D01*
X71292252Y-81950013D01*
X71024463Y-81771082D01*
X70726912Y-81647832D01*
X70411033Y-81585000D01*
X70088967Y-81585000D01*
X69773088Y-81647832D01*
X69475537Y-81771082D01*
X69207748Y-81950013D01*
X68980013Y-82177748D01*
X68801082Y-82445537D01*
X68677832Y-82743088D01*
X68615000Y-83058967D01*
X57388072Y-83058967D01*
X57388072Y-82220000D01*
X57375812Y-82095518D01*
X57339502Y-81975820D01*
X57280537Y-81865506D01*
X57201185Y-81768815D01*
X57104494Y-81689463D01*
X56994180Y-81630498D01*
X56874482Y-81594188D01*
X56750000Y-81581928D01*
X54750000Y-81581928D01*
X54625518Y-81594188D01*
X54505820Y-81630498D01*
X54395506Y-81689463D01*
X54298815Y-81768815D01*
X54219463Y-81865506D01*
X54160498Y-81975820D01*
X54124188Y-82095518D01*
X54111928Y-82220000D01*
X54111928Y-84220000D01*
X54124188Y-84344482D01*
X54160498Y-84464180D01*
X54219463Y-84574494D01*
X54298815Y-84671185D01*
X54395506Y-84750537D01*
X54499223Y-84805976D01*
X54350186Y-84859956D01*
X54209296Y-85149571D01*
X54127616Y-85461108D01*
X54108282Y-85782595D01*
X40560000Y-85782595D01*
X40560000Y-79120000D01*
X61011928Y-79120000D01*
X61011928Y-81120000D01*
X61024188Y-81244482D01*
X61060498Y-81364180D01*
X61119463Y-81474494D01*
X61198815Y-81571185D01*
X61295506Y-81650537D01*
X61405820Y-81709502D01*
X61525518Y-81745812D01*
X61650000Y-81758072D01*
X64850000Y-81758072D01*
X64974482Y-81745812D01*
X65094180Y-81709502D01*
X65204494Y-81650537D01*
X65301185Y-81571185D01*
X65380537Y-81474494D01*
X65439502Y-81364180D01*
X65475812Y-81244482D01*
X65488072Y-81120000D01*
X65488072Y-79120000D01*
X65475812Y-78995518D01*
X65439502Y-78875820D01*
X65380537Y-78765506D01*
X65301185Y-78668815D01*
X65204494Y-78589463D01*
X65094180Y-78530498D01*
X64974482Y-78494188D01*
X64850000Y-78481928D01*
X61650000Y-78481928D01*
X61525518Y-78494188D01*
X61405820Y-78530498D01*
X61295506Y-78589463D01*
X61198815Y-78668815D01*
X61119463Y-78765506D01*
X61060498Y-78875820D01*
X61024188Y-78995518D01*
X61011928Y-79120000D01*
X40560000Y-79120000D01*
X40560000Y-74025000D01*
X72499428Y-74025000D01*
X72511688Y-74149482D01*
X72547998Y-74269180D01*
X72606963Y-74379494D01*
X72686315Y-74476185D01*
X72783006Y-74555537D01*
X72893320Y-74614502D01*
X73013018Y-74650812D01*
X73137500Y-74663072D01*
X73289250Y-74660000D01*
X73448000Y-74501250D01*
X73448000Y-73677000D01*
X72661250Y-73677000D01*
X72502500Y-73835750D01*
X72499428Y-74025000D01*
X40560000Y-74025000D01*
X40560000Y-73075000D01*
X72499428Y-73075000D01*
X72502500Y-73264250D01*
X72661250Y-73423000D01*
X73448000Y-73423000D01*
X73448000Y-72598750D01*
X73289250Y-72440000D01*
X73137500Y-72436928D01*
X73013018Y-72449188D01*
X72893320Y-72485498D01*
X72783006Y-72544463D01*
X72686315Y-72623815D01*
X72606963Y-72720506D01*
X72547998Y-72830820D01*
X72511688Y-72950518D01*
X72499428Y-73075000D01*
X40560000Y-73075000D01*
X40560000Y-70729117D01*
X64515000Y-70729117D01*
X64515000Y-71070883D01*
X64581675Y-71406081D01*
X64712463Y-71721831D01*
X64902337Y-72005998D01*
X65144002Y-72247663D01*
X65428169Y-72437537D01*
X65743919Y-72568325D01*
X66079117Y-72635000D01*
X66420883Y-72635000D01*
X66756081Y-72568325D01*
X67071831Y-72437537D01*
X67355998Y-72247663D01*
X67597663Y-72005998D01*
X67787537Y-71721831D01*
X67918325Y-71406081D01*
X67934453Y-71325000D01*
X72499428Y-71325000D01*
X72511688Y-71449482D01*
X72547998Y-71569180D01*
X72606963Y-71679494D01*
X72686315Y-71776185D01*
X72783006Y-71855537D01*
X72893320Y-71914502D01*
X73013018Y-71950812D01*
X73137500Y-71963072D01*
X73289250Y-71960000D01*
X73448000Y-71801250D01*
X73448000Y-70977000D01*
X72661250Y-70977000D01*
X72502500Y-71135750D01*
X72499428Y-71325000D01*
X67934453Y-71325000D01*
X67985000Y-71070883D01*
X67985000Y-70729117D01*
X67918325Y-70393919D01*
X67910489Y-70375000D01*
X72499428Y-70375000D01*
X72502500Y-70564250D01*
X72661250Y-70723000D01*
X73448000Y-70723000D01*
X73448000Y-69898750D01*
X73289250Y-69740000D01*
X73137500Y-69736928D01*
X73013018Y-69749188D01*
X72893320Y-69785498D01*
X72783006Y-69844463D01*
X72686315Y-69923815D01*
X72606963Y-70020506D01*
X72547998Y-70130820D01*
X72511688Y-70250518D01*
X72499428Y-70375000D01*
X67910489Y-70375000D01*
X67787537Y-70078169D01*
X67597663Y-69794002D01*
X67355998Y-69552337D01*
X67071831Y-69362463D01*
X66756081Y-69231675D01*
X66420883Y-69165000D01*
X66079117Y-69165000D01*
X65743919Y-69231675D01*
X65428169Y-69362463D01*
X65144002Y-69552337D01*
X64902337Y-69794002D01*
X64712463Y-70078169D01*
X64581675Y-70393919D01*
X64515000Y-70729117D01*
X40560000Y-70729117D01*
X40560000Y-68625000D01*
X72449428Y-68625000D01*
X72461688Y-68749482D01*
X72497998Y-68869180D01*
X72556963Y-68979494D01*
X72636315Y-69076185D01*
X72733006Y-69155537D01*
X72843320Y-69214502D01*
X72963018Y-69250812D01*
X73087500Y-69263072D01*
X73239250Y-69260000D01*
X73398000Y-69101250D01*
X73398000Y-68277000D01*
X72611250Y-68277000D01*
X72452500Y-68435750D01*
X72449428Y-68625000D01*
X40560000Y-68625000D01*
X40560000Y-67675000D01*
X72449428Y-67675000D01*
X72452500Y-67864250D01*
X72611250Y-68023000D01*
X73398000Y-68023000D01*
X73398000Y-67198750D01*
X73239250Y-67040000D01*
X73087500Y-67036928D01*
X72963018Y-67049188D01*
X72843320Y-67085498D01*
X72733006Y-67144463D01*
X72636315Y-67223815D01*
X72556963Y-67320506D01*
X72497998Y-67430820D01*
X72461688Y-67550518D01*
X72449428Y-67675000D01*
X40560000Y-67675000D01*
X40560000Y-57782281D01*
X40564819Y-57733133D01*
X40569718Y-57716908D01*
X40577672Y-57701947D01*
X40588386Y-57688811D01*
X40601441Y-57678012D01*
X40616349Y-57669951D01*
X40632541Y-57664938D01*
X40679525Y-57660000D01*
X80577647Y-57660000D01*
X80510624Y-57813767D01*
X80465000Y-58023000D01*
X80465000Y-58423000D01*
X81423000Y-58423000D01*
X81423000Y-58403000D01*
X81677000Y-58403000D01*
X81677000Y-58423000D01*
X82635000Y-58423000D01*
X82635000Y-58023000D01*
X82589376Y-57813767D01*
X82522353Y-57660000D01*
X89227647Y-57660000D01*
X89160624Y-57813767D01*
X89115000Y-58023000D01*
X89115000Y-58423000D01*
X90073000Y-58423000D01*
X90073000Y-58403000D01*
X90327000Y-58403000D01*
X90327000Y-58423000D01*
X91285000Y-58423000D01*
X91285000Y-58023000D01*
X91239376Y-57813767D01*
X91172353Y-57660000D01*
X94717639Y-57660000D01*
X94717690Y-57660005D01*
X94748095Y-57660000D01*
X94782419Y-57660000D01*
X94782476Y-57659994D01*
X96669126Y-57659684D01*
X96642980Y-61102133D01*
X96642980Y-61102133D01*
G37*
X96642980Y-61102133D02*
X96597850Y-60953358D01*
X96518671Y-60805225D01*
X96412115Y-60675385D01*
X96282275Y-60568829D01*
X96134142Y-60489650D01*
X95973408Y-60440892D01*
X95806250Y-60424428D01*
X95549230Y-60424428D01*
X95217039Y-60092237D01*
X95235000Y-60001939D01*
X95235000Y-59798061D01*
X95195226Y-59598102D01*
X95117205Y-59409744D01*
X95003937Y-59240226D01*
X94859774Y-59096063D01*
X94690256Y-58982795D01*
X94501898Y-58904774D01*
X94301939Y-58865000D01*
X94098061Y-58865000D01*
X93898102Y-58904774D01*
X93709744Y-58982795D01*
X93540226Y-59096063D01*
X93396063Y-59240226D01*
X93282795Y-59409744D01*
X93204774Y-59598102D01*
X93165000Y-59798061D01*
X93165000Y-60001939D01*
X93204774Y-60201898D01*
X93282795Y-60390256D01*
X93306372Y-60425542D01*
X93185750Y-60427500D01*
X93027000Y-60586250D01*
X93027000Y-61373000D01*
X93851250Y-61373000D01*
X94010000Y-61214250D01*
X94013072Y-61062500D01*
X94010382Y-61035183D01*
X94436928Y-61461730D01*
X94436928Y-61718750D01*
X94453392Y-61885908D01*
X94502150Y-62046642D01*
X94581329Y-62194775D01*
X94599100Y-62216430D01*
X94544463Y-62283006D01*
X94485498Y-62393320D01*
X94449188Y-62513018D01*
X94436928Y-62637500D01*
X94440000Y-62789250D01*
X94598750Y-62948000D01*
X95423000Y-62948000D01*
X95423000Y-62928000D01*
X95677000Y-62928000D01*
X95677000Y-62948000D01*
X95697000Y-62948000D01*
X95697000Y-63202000D01*
X95677000Y-63202000D01*
X95677000Y-63988750D01*
X95835750Y-64147500D01*
X96025000Y-64150572D01*
X96149482Y-64138312D01*
X96269180Y-64102002D01*
X96379494Y-64043037D01*
X96476185Y-63963685D01*
X96555537Y-63866994D01*
X96614502Y-63756680D01*
X96623033Y-63728557D01*
X96523973Y-76771485D01*
X90462179Y-76699033D01*
X93348513Y-73812699D01*
X93377511Y-73788901D01*
X93472484Y-73673176D01*
X93543056Y-73541147D01*
X93586513Y-73397886D01*
X93597510Y-73286233D01*
X93597510Y-73286225D01*
X93601186Y-73248900D01*
X93597510Y-73211575D01*
X93597510Y-69699832D01*
X93601186Y-69662510D01*
X93597510Y-69625187D01*
X93597510Y-69625177D01*
X93586513Y-69513524D01*
X93543056Y-69370263D01*
X93489734Y-69270506D01*
X93472484Y-69238233D01*
X93401309Y-69151507D01*
X93377511Y-69122509D01*
X93348514Y-69098712D01*
X93150572Y-68900770D01*
X93150572Y-68643750D01*
X93134108Y-68476592D01*
X93085350Y-68315858D01*
X93006171Y-68167725D01*
X92899615Y-68037885D01*
X92769775Y-67931329D01*
X92621642Y-67852150D01*
X92460908Y-67803392D01*
X92293750Y-67786928D01*
X91856250Y-67786928D01*
X91689092Y-67803392D01*
X91528358Y-67852150D01*
X91380225Y-67931329D01*
X91287500Y-68007426D01*
X91194775Y-67931329D01*
X91046642Y-67852150D01*
X90885908Y-67803392D01*
X90718750Y-67786928D01*
X90281250Y-67786928D01*
X90114092Y-67803392D01*
X89953358Y-67852150D01*
X89805225Y-67931329D01*
X89675385Y-68037885D01*
X89568829Y-68167725D01*
X89489650Y-68315858D01*
X89440892Y-68476592D01*
X89424428Y-68643750D01*
X89424428Y-68900771D01*
X89135199Y-69190000D01*
X88344468Y-69190000D01*
X88331185Y-69173815D01*
X88234494Y-69094463D01*
X88124180Y-69035498D01*
X88004482Y-68999188D01*
X87880000Y-68986928D01*
X87061896Y-68986928D01*
X87060000Y-68967677D01*
X87060000Y-63870000D01*
X87244552Y-63870000D01*
X87430022Y-63833108D01*
X87575000Y-63773056D01*
X87719978Y-63833108D01*
X87905448Y-63870000D01*
X88094552Y-63870000D01*
X88280022Y-63833108D01*
X88425420Y-63772882D01*
X88564992Y-63831581D01*
X88750260Y-63869475D01*
X88939361Y-63870497D01*
X89125028Y-63834608D01*
X89300126Y-63763187D01*
X89309323Y-63758270D01*
X89322931Y-63562536D01*
X88927639Y-63167244D01*
X88960000Y-63004552D01*
X88960000Y-62815448D01*
X88959171Y-62811281D01*
X89043748Y-62895858D01*
X89029605Y-62910000D01*
X89179775Y-63060170D01*
X89246191Y-63212545D01*
X89368413Y-63388391D01*
X89522592Y-63537014D01*
X89702803Y-63652702D01*
X89905999Y-63724408D01*
X90073000Y-63597502D01*
X90073000Y-62057000D01*
X90327000Y-62057000D01*
X90327000Y-63597502D01*
X90494001Y-63724408D01*
X90697197Y-63652702D01*
X90877408Y-63537014D01*
X91031587Y-63388391D01*
X91153809Y-63212545D01*
X91239376Y-63016233D01*
X91285000Y-62807000D01*
X91285000Y-62057000D01*
X90327000Y-62057000D01*
X90073000Y-62057000D01*
X89515927Y-62057000D01*
X89698270Y-62044323D01*
X89743196Y-61937500D01*
X91786928Y-61937500D01*
X91799188Y-62061982D01*
X91835498Y-62181680D01*
X91894463Y-62291994D01*
X91949100Y-62358570D01*
X91931329Y-62380225D01*
X91852150Y-62528358D01*
X91803392Y-62689092D01*
X91786928Y-62856250D01*
X91786928Y-63293750D01*
X91803392Y-63460908D01*
X91852150Y-63621642D01*
X91931329Y-63769775D01*
X92023527Y-63882119D01*
X91954774Y-64048102D01*
X91915000Y-64248061D01*
X91915000Y-64451939D01*
X91954774Y-64651898D01*
X92032795Y-64840256D01*
X92146063Y-65009774D01*
X92290226Y-65153937D01*
X92459744Y-65267205D01*
X92648102Y-65345226D01*
X92848061Y-65385000D01*
X93051939Y-65385000D01*
X93251898Y-65345226D01*
X93440256Y-65267205D01*
X93609774Y-65153937D01*
X93753937Y-65009774D01*
X93867205Y-64840256D01*
X93945226Y-64651898D01*
X93985000Y-64451939D01*
X93985000Y-64248061D01*
X93945226Y-64048102D01*
X93867205Y-63859744D01*
X93834727Y-63811137D01*
X93868671Y-63769775D01*
X93947850Y-63621642D01*
X93980957Y-63512500D01*
X94436928Y-63512500D01*
X94449188Y-63636982D01*
X94485498Y-63756680D01*
X94544463Y-63866994D01*
X94623815Y-63963685D01*
X94720506Y-64043037D01*
X94830820Y-64102002D01*
X94950518Y-64138312D01*
X95075000Y-64150572D01*
X95264250Y-64147500D01*
X95423000Y-63988750D01*
X95423000Y-63202000D01*
X94598750Y-63202000D01*
X94440000Y-63360750D01*
X94436928Y-63512500D01*
X93980957Y-63512500D01*
X93996608Y-63460908D01*
X94013072Y-63293750D01*
X94013072Y-62856250D01*
X93996608Y-62689092D01*
X93947850Y-62528358D01*
X93868671Y-62380225D01*
X93850900Y-62358570D01*
X93905537Y-62291994D01*
X93964502Y-62181680D01*
X94000812Y-62061982D01*
X94013072Y-61937500D01*
X94010000Y-61785750D01*
X93851250Y-61627000D01*
X93027000Y-61627000D01*
X93027000Y-61647000D01*
X92773000Y-61647000D01*
X92773000Y-61627000D01*
X91948750Y-61627000D01*
X91790000Y-61785750D01*
X91786928Y-61937500D01*
X89743196Y-61937500D01*
X89771581Y-61870008D01*
X89785287Y-61803000D01*
X90073000Y-61803000D01*
X90073000Y-60262498D01*
X90327000Y-60262498D01*
X90327000Y-61803000D01*
X91285000Y-61803000D01*
X91285000Y-61062500D01*
X91786928Y-61062500D01*
X91790000Y-61214250D01*
X91948750Y-61373000D01*
X92773000Y-61373000D01*
X92773000Y-60586250D01*
X92614250Y-60427500D01*
X92425000Y-60424428D01*
X92300518Y-60436688D01*
X92180820Y-60472998D01*
X92070506Y-60531963D01*
X91973815Y-60611315D01*
X91894463Y-60708006D01*
X91835498Y-60818320D01*
X91799188Y-60938018D01*
X91786928Y-61062500D01*
X91285000Y-61062500D01*
X91285000Y-61053000D01*
X91239376Y-60843767D01*
X91153809Y-60647455D01*
X91031587Y-60471609D01*
X90877408Y-60322986D01*
X90697197Y-60207298D01*
X90494001Y-60135592D01*
X90327000Y-60262498D01*
X90073000Y-60262498D01*
X89905999Y-60135592D01*
X89702803Y-60207298D01*
X89522592Y-60322986D01*
X89368413Y-60471609D01*
X89246191Y-60647455D01*
X89223087Y-60700462D01*
X89135008Y-60663419D01*
X88949740Y-60625525D01*
X88760639Y-60624503D01*
X88666738Y-60642654D01*
X88581541Y-60538840D01*
X88550039Y-60512988D01*
X88403289Y-60366237D01*
X88357761Y-60320709D01*
X88331910Y-60289209D01*
X88206211Y-60186051D01*
X88062803Y-60109397D01*
X87907195Y-60062194D01*
X87785922Y-60050250D01*
X87785919Y-60050250D01*
X87745369Y-60046256D01*
X87704819Y-60050250D01*
X87592463Y-60050250D01*
X87528994Y-60043999D01*
X87528991Y-60043999D01*
X87488441Y-60040005D01*
X87447891Y-60043999D01*
X86842109Y-60043999D01*
X86801558Y-60040005D01*
X86761008Y-60043999D01*
X86761006Y-60043999D01*
X86720000Y-60048038D01*
X86678994Y-60043999D01*
X86678991Y-60043999D01*
X86638441Y-60040005D01*
X86597891Y-60043999D01*
X85992109Y-60043999D01*
X85951558Y-60040005D01*
X85911008Y-60043999D01*
X85911006Y-60043999D01*
X85870000Y-60048038D01*
X85828994Y-60043999D01*
X85828991Y-60043999D01*
X85788441Y-60040005D01*
X85747891Y-60043999D01*
X85142109Y-60043999D01*
X85101558Y-60040005D01*
X85061008Y-60043999D01*
X85061006Y-60043999D01*
X85020000Y-60048038D01*
X84978994Y-60043999D01*
X84978991Y-60043999D01*
X84938441Y-60040005D01*
X84897891Y-60043999D01*
X84292109Y-60043999D01*
X84251558Y-60040005D01*
X84211008Y-60043999D01*
X84211006Y-60043999D01*
X84147537Y-60050250D01*
X84035181Y-60050250D01*
X83994631Y-60046256D01*
X83954081Y-60050250D01*
X83954078Y-60050250D01*
X83847772Y-60060720D01*
X83332017Y-59544965D01*
X83306160Y-59513459D01*
X83180461Y-59410301D01*
X83037053Y-59333647D01*
X82881445Y-59286444D01*
X82760172Y-59274500D01*
X82760169Y-59274500D01*
X82719619Y-59270506D01*
X82679069Y-59274500D01*
X82591934Y-59274500D01*
X82635000Y-59077000D01*
X82635000Y-58677000D01*
X89115000Y-58677000D01*
X89115000Y-59077000D01*
X89160624Y-59286233D01*
X89246191Y-59482545D01*
X89368413Y-59658391D01*
X89522592Y-59807014D01*
X89702803Y-59922702D01*
X89905999Y-59994408D01*
X90073000Y-59867502D01*
X90073000Y-58677000D01*
X90327000Y-58677000D01*
X90327000Y-59867502D01*
X90494001Y-59994408D01*
X90697197Y-59922702D01*
X90877408Y-59807014D01*
X91031587Y-59658391D01*
X91153809Y-59482545D01*
X91239376Y-59286233D01*
X91285000Y-59077000D01*
X91285000Y-58677000D01*
X90327000Y-58677000D01*
X90073000Y-58677000D01*
X89115000Y-58677000D01*
X82635000Y-58677000D01*
X81677000Y-58677000D01*
X81677000Y-58697000D01*
X81423000Y-58697000D01*
X81423000Y-58677000D01*
X80465000Y-58677000D01*
X80465000Y-59077000D01*
X80508066Y-59274500D01*
X79140550Y-59274500D01*
X79099999Y-59270506D01*
X79059449Y-59274500D01*
X79059447Y-59274500D01*
X78938174Y-59286444D01*
X78782566Y-59333647D01*
X78689111Y-59383601D01*
X78639157Y-59410301D01*
X78597542Y-59444454D01*
X78513459Y-59513459D01*
X78487606Y-59544961D01*
X77344966Y-60687602D01*
X77313459Y-60713459D01*
X77254769Y-60784974D01*
X77210301Y-60839158D01*
X77170470Y-60913677D01*
X77133647Y-60982567D01*
X77086444Y-61138175D01*
X77076543Y-61238707D01*
X77070506Y-61300000D01*
X77074500Y-61340551D01*
X77074501Y-63595336D01*
X77037885Y-63625385D01*
X76931329Y-63755225D01*
X76852150Y-63903358D01*
X76803392Y-64064092D01*
X76786928Y-64231250D01*
X76786928Y-64668750D01*
X76803392Y-64835908D01*
X76852150Y-64996642D01*
X76931329Y-65144775D01*
X77007426Y-65237500D01*
X76931329Y-65330225D01*
X76852150Y-65478358D01*
X76803392Y-65639092D01*
X76786928Y-65806250D01*
X76786928Y-66243750D01*
X76803392Y-66410908D01*
X76852150Y-66571642D01*
X76931329Y-66719775D01*
X77037885Y-66849615D01*
X77074500Y-66879664D01*
X77074501Y-67332768D01*
X76990553Y-67324500D01*
X76990550Y-67324500D01*
X76950000Y-67320506D01*
X76909450Y-67324500D01*
X75954664Y-67324500D01*
X75924615Y-67287885D01*
X75794775Y-67181329D01*
X75646642Y-67102150D01*
X75485908Y-67053392D01*
X75318750Y-67036928D01*
X74881250Y-67036928D01*
X74714092Y-67053392D01*
X74553358Y-67102150D01*
X74405225Y-67181329D01*
X74383570Y-67199100D01*
X74316994Y-67144463D01*
X74206680Y-67085498D01*
X74086982Y-67049188D01*
X73962500Y-67036928D01*
X73810750Y-67040000D01*
X73652000Y-67198750D01*
X73652000Y-68023000D01*
X73672000Y-68023000D01*
X73672000Y-68277000D01*
X73652000Y-68277000D01*
X73652000Y-69101250D01*
X73810750Y-69260000D01*
X73962500Y-69263072D01*
X74086982Y-69250812D01*
X74206680Y-69214502D01*
X74316994Y-69155537D01*
X74383570Y-69100900D01*
X74405225Y-69118671D01*
X74553358Y-69197850D01*
X74714092Y-69246608D01*
X74881250Y-69263072D01*
X75318750Y-69263072D01*
X75485908Y-69246608D01*
X75646642Y-69197850D01*
X75794775Y-69118671D01*
X75924615Y-69012115D01*
X75954664Y-68975500D01*
X76608067Y-68975500D01*
X77074500Y-69441933D01*
X77074500Y-69608067D01*
X76658068Y-70024500D01*
X76004664Y-70024500D01*
X75974615Y-69987885D01*
X75844775Y-69881329D01*
X75696642Y-69802150D01*
X75535908Y-69753392D01*
X75368750Y-69736928D01*
X74931250Y-69736928D01*
X74764092Y-69753392D01*
X74603358Y-69802150D01*
X74455225Y-69881329D01*
X74433570Y-69899100D01*
X74366994Y-69844463D01*
X74256680Y-69785498D01*
X74136982Y-69749188D01*
X74012500Y-69736928D01*
X73860750Y-69740000D01*
X73702000Y-69898750D01*
X73702000Y-70723000D01*
X73722000Y-70723000D01*
X73722000Y-70977000D01*
X73702000Y-70977000D01*
X73702000Y-71801250D01*
X73860750Y-71960000D01*
X74012500Y-71963072D01*
X74136982Y-71950812D01*
X74256680Y-71914502D01*
X74366994Y-71855537D01*
X74433570Y-71800900D01*
X74455225Y-71818671D01*
X74603358Y-71897850D01*
X74764092Y-71946608D01*
X74931250Y-71963072D01*
X75368750Y-71963072D01*
X75535908Y-71946608D01*
X75696642Y-71897850D01*
X75844775Y-71818671D01*
X75974615Y-71712115D01*
X76004664Y-71675500D01*
X76394567Y-71675500D01*
X75597878Y-72472190D01*
X75535908Y-72453392D01*
X75368750Y-72436928D01*
X74931250Y-72436928D01*
X74764092Y-72453392D01*
X74603358Y-72502150D01*
X74455225Y-72581329D01*
X74433570Y-72599100D01*
X74366994Y-72544463D01*
X74256680Y-72485498D01*
X74136982Y-72449188D01*
X74012500Y-72436928D01*
X73860750Y-72440000D01*
X73702000Y-72598750D01*
X73702000Y-73423000D01*
X73722000Y-73423000D01*
X73722000Y-73677000D01*
X73702000Y-73677000D01*
X73702000Y-74501250D01*
X73860750Y-74660000D01*
X74012500Y-74663072D01*
X74136982Y-74650812D01*
X74256680Y-74614502D01*
X74366994Y-74555537D01*
X74433570Y-74500900D01*
X74455225Y-74518671D01*
X74603358Y-74597850D01*
X74764092Y-74646608D01*
X74931250Y-74663072D01*
X75368750Y-74663072D01*
X75535908Y-74646608D01*
X75696642Y-74597850D01*
X75844775Y-74518671D01*
X75974615Y-74412115D01*
X76081171Y-74282275D01*
X76086164Y-74272934D01*
X76148342Y-74239699D01*
X76274041Y-74136541D01*
X76299898Y-74105034D01*
X77074500Y-73330432D01*
X77074500Y-76539021D01*
X71967855Y-76477985D01*
X71943051Y-76480129D01*
X71919142Y-76487071D01*
X71897047Y-76498544D01*
X71877614Y-76514107D01*
X71861591Y-76533162D01*
X71849594Y-76554976D01*
X71842082Y-76578713D01*
X71839341Y-76606011D01*
X72032684Y-100334500D01*
X71017638Y-100334500D01*
X70940256Y-100282795D01*
X70751898Y-100204774D01*
X70551939Y-100165000D01*
X70348061Y-100165000D01*
X70148102Y-100204774D01*
X69959744Y-100282795D01*
X69790226Y-100396063D01*
X69646063Y-100540226D01*
X69532795Y-100709744D01*
X69454774Y-100898102D01*
X69415000Y-101098061D01*
X69415000Y-101301939D01*
X69454774Y-101501898D01*
X69532795Y-101690256D01*
X69646063Y-101859774D01*
X69790226Y-102003937D01*
X69959744Y-102117205D01*
X70148102Y-102195226D01*
X70348061Y-102235000D01*
X70551939Y-102235000D01*
X70751898Y-102195226D01*
X70940256Y-102117205D01*
X71109774Y-102003937D01*
X71128211Y-101985500D01*
X72046137Y-101985500D01*
X72068174Y-104690000D01*
X71053711Y-104690000D01*
X71009774Y-104646063D01*
X70840256Y-104532795D01*
X70651898Y-104454774D01*
X70451939Y-104415000D01*
X70248061Y-104415000D01*
X70048102Y-104454774D01*
X69859744Y-104532795D01*
X69690226Y-104646063D01*
X69546063Y-104790226D01*
X69432795Y-104959744D01*
X69354774Y-105148102D01*
X69315000Y-105348061D01*
X69315000Y-105551939D01*
X69354774Y-105751898D01*
X69432795Y-105940256D01*
X69546063Y-106109774D01*
X69690226Y-106253937D01*
X69859744Y-106367205D01*
X70048102Y-106445226D01*
X70248061Y-106485000D01*
X70451939Y-106485000D01*
X70651898Y-106445226D01*
X70840256Y-106367205D01*
X71009774Y-106253937D01*
X71053711Y-106210000D01*
X72080559Y-106210000D01*
X72088544Y-107190000D01*
X70966266Y-107190000D01*
X70894775Y-107131329D01*
X70746642Y-107052150D01*
X70585908Y-107003392D01*
X70418750Y-106986928D01*
X69981250Y-106986928D01*
X69814092Y-107003392D01*
X69653358Y-107052150D01*
X69505225Y-107131329D01*
X69483570Y-107149100D01*
X69416994Y-107094463D01*
X69306680Y-107035498D01*
X69186982Y-106999188D01*
X69062500Y-106986928D01*
X68910750Y-106990000D01*
X68752000Y-107148750D01*
X68752000Y-107973000D01*
X68772000Y-107973000D01*
X68772000Y-108227000D01*
X68752000Y-108227000D01*
X68752000Y-109051250D01*
X68910750Y-109210000D01*
X69062500Y-109213072D01*
X69186982Y-109200812D01*
X69306680Y-109164502D01*
X69416994Y-109105537D01*
X69483570Y-109050900D01*
X69505225Y-109068671D01*
X69653358Y-109147850D01*
X69814092Y-109196608D01*
X69981250Y-109213072D01*
X70418750Y-109213072D01*
X70585908Y-109196608D01*
X70746642Y-109147850D01*
X70894775Y-109068671D01*
X71024615Y-108962115D01*
X71131171Y-108832275D01*
X71196529Y-108710000D01*
X72100929Y-108710000D01*
X72128307Y-112070000D01*
X70657322Y-112070000D01*
X70619999Y-112066324D01*
X70582676Y-112070000D01*
X70582667Y-112070000D01*
X70471014Y-112080997D01*
X70327753Y-112124454D01*
X70195723Y-112195026D01*
X70144666Y-112236928D01*
X69881250Y-112236928D01*
X69714092Y-112253392D01*
X69553358Y-112302150D01*
X69405225Y-112381329D01*
X69383570Y-112399100D01*
X69316994Y-112344463D01*
X69206680Y-112285498D01*
X69086982Y-112249188D01*
X68962500Y-112236928D01*
X68810750Y-112240000D01*
X68652000Y-112398750D01*
X68652000Y-113223000D01*
X68672000Y-113223000D01*
X68672000Y-113477000D01*
X68652000Y-113477000D01*
X68652000Y-114301250D01*
X68810750Y-114460000D01*
X68962500Y-114463072D01*
X69086982Y-114450812D01*
X69206680Y-114414502D01*
X69316994Y-114355537D01*
X69383570Y-114300900D01*
X69405225Y-114318671D01*
X69553358Y-114397850D01*
X69714092Y-114446608D01*
X69881250Y-114463072D01*
X70318750Y-114463072D01*
X70485908Y-114446608D01*
X70646642Y-114397850D01*
X70794775Y-114318671D01*
X70924615Y-114212115D01*
X71031171Y-114082275D01*
X71110350Y-113934142D01*
X71159108Y-113773408D01*
X71175572Y-113606250D01*
X71175572Y-113590000D01*
X72140692Y-113590000D01*
X72270655Y-129540000D01*
X69449117Y-129540000D01*
X60941271Y-121032155D01*
X60995226Y-120901898D01*
X61035000Y-120701939D01*
X61035000Y-120498061D01*
X60995226Y-120298102D01*
X60917205Y-120109744D01*
X60803937Y-119940226D01*
X60659774Y-119796063D01*
X60490256Y-119682795D01*
X60301898Y-119604774D01*
X60101939Y-119565000D01*
X59898061Y-119565000D01*
X59698102Y-119604774D01*
X59509744Y-119682795D01*
X59340226Y-119796063D01*
X59196063Y-119940226D01*
X59082795Y-120109744D01*
X59004774Y-120298102D01*
X58965000Y-120498061D01*
X58965000Y-120701939D01*
X59004774Y-120901898D01*
X59082795Y-121090256D01*
X59196063Y-121259774D01*
X59251013Y-121314724D01*
X59294454Y-121457932D01*
X59317328Y-121500725D01*
X59365026Y-121589961D01*
X59434815Y-121674998D01*
X59460000Y-121705686D01*
X59488998Y-121729484D01*
X68570516Y-130811003D01*
X68594314Y-130840001D01*
X68623312Y-130863799D01*
X68710038Y-130934974D01*
X68842068Y-131005546D01*
X68985329Y-131049003D01*
X69096982Y-131060000D01*
X69096991Y-131060000D01*
X69134314Y-131063676D01*
X69171637Y-131060000D01*
X72283040Y-131060000D01*
X72324840Y-136189999D01*
X64687324Y-136189999D01*
X64650001Y-136186323D01*
X64612678Y-136189999D01*
X64612668Y-136189999D01*
X64501015Y-136200996D01*
X64357754Y-136244453D01*
X64225724Y-136315025D01*
X64185470Y-136348061D01*
X64110000Y-136409998D01*
X64086202Y-136438996D01*
X63869880Y-136655318D01*
X63714351Y-136640000D01*
X63585649Y-136640000D01*
X63393195Y-136658955D01*
X63146259Y-136733862D01*
X62918682Y-136855505D01*
X62719208Y-137019208D01*
X62650000Y-137103539D01*
X62580792Y-137019208D01*
X62381318Y-136855505D01*
X62153741Y-136733862D01*
X61906805Y-136658955D01*
X61714351Y-136640000D01*
X61585649Y-136640000D01*
X61393195Y-136658955D01*
X61146259Y-136733862D01*
X60918682Y-136855505D01*
X60719208Y-137019208D01*
X60632798Y-137124500D01*
X53477000Y-137124500D01*
X53477000Y-128920000D01*
X61011928Y-128920000D01*
X61011928Y-130920000D01*
X61024188Y-131044482D01*
X61060498Y-131164180D01*
X61119463Y-131274494D01*
X61198815Y-131371185D01*
X61295506Y-131450537D01*
X61405820Y-131509502D01*
X61525518Y-131545812D01*
X61650000Y-131558072D01*
X64850000Y-131558072D01*
X64974482Y-131545812D01*
X65094180Y-131509502D01*
X65204494Y-131450537D01*
X65301185Y-131371185D01*
X65380537Y-131274494D01*
X65439502Y-131164180D01*
X65475812Y-131044482D01*
X65488072Y-130920000D01*
X65488072Y-128920000D01*
X65475812Y-128795518D01*
X65439502Y-128675820D01*
X65380537Y-128565506D01*
X65301185Y-128468815D01*
X65204494Y-128389463D01*
X65094180Y-128330498D01*
X64974482Y-128294188D01*
X64850000Y-128281928D01*
X61650000Y-128281928D01*
X61525518Y-128294188D01*
X61405820Y-128330498D01*
X61295506Y-128389463D01*
X61198815Y-128468815D01*
X61119463Y-128565506D01*
X61060498Y-128675820D01*
X61024188Y-128795518D01*
X61011928Y-128920000D01*
X53477000Y-128920000D01*
X53477000Y-126658967D01*
X54115000Y-126658967D01*
X54115000Y-126981033D01*
X54177832Y-127296912D01*
X54301082Y-127594463D01*
X54480013Y-127862252D01*
X54707748Y-128089987D01*
X54975537Y-128268918D01*
X55273088Y-128392168D01*
X55588967Y-128455000D01*
X55911033Y-128455000D01*
X56226912Y-128392168D01*
X56524463Y-128268918D01*
X56792252Y-128089987D01*
X57019987Y-127862252D01*
X57198918Y-127594463D01*
X57322168Y-127296912D01*
X57385000Y-126981033D01*
X57385000Y-126658967D01*
X57322168Y-126343088D01*
X57198918Y-126045537D01*
X57019987Y-125777748D01*
X56792252Y-125550013D01*
X56695065Y-125485075D01*
X56705808Y-125455413D01*
X55750000Y-124499605D01*
X54794192Y-125455413D01*
X54804935Y-125485075D01*
X54707748Y-125550013D01*
X54480013Y-125777748D01*
X54301082Y-126045537D01*
X54177832Y-126343088D01*
X54115000Y-126658967D01*
X53477000Y-126658967D01*
X53477000Y-124382595D01*
X54108282Y-124382595D01*
X54152039Y-124701675D01*
X54257205Y-125006088D01*
X54350186Y-125180044D01*
X54614587Y-125275808D01*
X55570395Y-124320000D01*
X55556253Y-124305858D01*
X55735858Y-124126253D01*
X55750000Y-124140395D01*
X55764143Y-124126253D01*
X55943748Y-124305858D01*
X55929605Y-124320000D01*
X56885413Y-125275808D01*
X57149814Y-125180044D01*
X57290704Y-124890429D01*
X57372384Y-124578892D01*
X57391718Y-124257405D01*
X57347961Y-123938325D01*
X57242795Y-123633912D01*
X57149814Y-123459956D01*
X57000777Y-123405976D01*
X57104494Y-123350537D01*
X57201185Y-123271185D01*
X57280537Y-123174494D01*
X57339502Y-123064180D01*
X57375812Y-122944482D01*
X57388072Y-122820000D01*
X57388072Y-120820000D01*
X57375812Y-120695518D01*
X57339502Y-120575820D01*
X57280537Y-120465506D01*
X57201185Y-120368815D01*
X57104494Y-120289463D01*
X56994180Y-120230498D01*
X56874482Y-120194188D01*
X56750000Y-120181928D01*
X54750000Y-120181928D01*
X54625518Y-120194188D01*
X54505820Y-120230498D01*
X54395506Y-120289463D01*
X54298815Y-120368815D01*
X54219463Y-120465506D01*
X54160498Y-120575820D01*
X54124188Y-120695518D01*
X54111928Y-120820000D01*
X54111928Y-122820000D01*
X54124188Y-122944482D01*
X54160498Y-123064180D01*
X54219463Y-123174494D01*
X54298815Y-123271185D01*
X54395506Y-123350537D01*
X54499223Y-123405976D01*
X54350186Y-123459956D01*
X54209296Y-123749571D01*
X54127616Y-124061108D01*
X54108282Y-124382595D01*
X53477000Y-124382595D01*
X53477000Y-117400000D01*
X53474560Y-117375224D01*
X53467333Y-117351399D01*
X53455597Y-117329443D01*
X53439803Y-117310197D01*
X53420557Y-117294403D01*
X53398601Y-117282667D01*
X53374776Y-117275440D01*
X53347595Y-117273023D01*
X51525500Y-117307532D01*
X51525500Y-115304108D01*
X51594193Y-115235415D01*
X51689956Y-115499814D01*
X51979571Y-115640704D01*
X52291108Y-115722384D01*
X52612595Y-115741718D01*
X52931675Y-115697961D01*
X53236088Y-115592795D01*
X53410044Y-115499814D01*
X53505808Y-115235413D01*
X58094192Y-115235413D01*
X58189956Y-115499814D01*
X58479571Y-115640704D01*
X58791108Y-115722384D01*
X59112595Y-115741718D01*
X59431675Y-115697961D01*
X59736088Y-115592795D01*
X59910044Y-115499814D01*
X60005808Y-115235413D01*
X59050000Y-114279605D01*
X58094192Y-115235413D01*
X53505808Y-115235413D01*
X52550000Y-114279605D01*
X52535858Y-114293748D01*
X52356253Y-114114143D01*
X52370395Y-114100000D01*
X52729605Y-114100000D01*
X53685413Y-115055808D01*
X53949814Y-114960044D01*
X54090704Y-114670429D01*
X54172384Y-114358892D01*
X54184189Y-114162595D01*
X57408282Y-114162595D01*
X57452039Y-114481675D01*
X57557205Y-114786088D01*
X57650186Y-114960044D01*
X57914587Y-115055808D01*
X58870395Y-114100000D01*
X59229605Y-114100000D01*
X60185413Y-115055808D01*
X60449814Y-114960044D01*
X60590704Y-114670429D01*
X60672384Y-114358892D01*
X60691718Y-114037405D01*
X60647961Y-113718325D01*
X60542795Y-113413912D01*
X60449814Y-113239956D01*
X60185413Y-113144192D01*
X59229605Y-114100000D01*
X58870395Y-114100000D01*
X57914587Y-113144192D01*
X57650186Y-113239956D01*
X57509296Y-113529571D01*
X57427616Y-113841108D01*
X57408282Y-114162595D01*
X54184189Y-114162595D01*
X54191718Y-114037405D01*
X54147961Y-113718325D01*
X54042795Y-113413912D01*
X53949814Y-113239956D01*
X53685413Y-113144192D01*
X52729605Y-114100000D01*
X52370395Y-114100000D01*
X52356253Y-114085858D01*
X52535858Y-113906253D01*
X52550000Y-113920395D01*
X53505808Y-112964587D01*
X58094192Y-112964587D01*
X59050000Y-113920395D01*
X60005808Y-112964587D01*
X59910044Y-112700186D01*
X59620429Y-112559296D01*
X59308892Y-112477616D01*
X58987405Y-112458282D01*
X58668325Y-112502039D01*
X58363912Y-112607205D01*
X58189956Y-112700186D01*
X58094192Y-112964587D01*
X53505808Y-112964587D01*
X53410044Y-112700186D01*
X53120429Y-112559296D01*
X52808892Y-112477616D01*
X52487405Y-112458282D01*
X52168325Y-112502039D01*
X51863912Y-112607205D01*
X51689956Y-112700186D01*
X51594193Y-112964585D01*
X51525500Y-112895892D01*
X51525500Y-110881849D01*
X51775537Y-111048918D01*
X52073088Y-111172168D01*
X52388967Y-111235000D01*
X52711033Y-111235000D01*
X53026912Y-111172168D01*
X53324463Y-111048918D01*
X53592252Y-110869987D01*
X53819987Y-110642252D01*
X53998918Y-110374463D01*
X54122168Y-110076912D01*
X54185000Y-109761033D01*
X54185000Y-109438967D01*
X54122168Y-109123088D01*
X53998918Y-108825537D01*
X53819987Y-108557748D01*
X53712739Y-108450500D01*
X57887261Y-108450500D01*
X57780013Y-108557748D01*
X57601082Y-108825537D01*
X57477832Y-109123088D01*
X57415000Y-109438967D01*
X57415000Y-109761033D01*
X57477832Y-110076912D01*
X57601082Y-110374463D01*
X57780013Y-110642252D01*
X58007748Y-110869987D01*
X58275537Y-111048918D01*
X58573088Y-111172168D01*
X58888967Y-111235000D01*
X59211033Y-111235000D01*
X59526912Y-111172168D01*
X59824463Y-111048918D01*
X60092252Y-110869987D01*
X60319987Y-110642252D01*
X60498918Y-110374463D01*
X60504909Y-110360000D01*
X61412678Y-110360000D01*
X61450000Y-110363676D01*
X61487322Y-110360000D01*
X61487333Y-110360000D01*
X61598986Y-110349003D01*
X61742247Y-110305546D01*
X61798324Y-110275572D01*
X62106250Y-110275572D01*
X62273408Y-110259108D01*
X62434142Y-110210350D01*
X62582275Y-110131171D01*
X62712115Y-110024615D01*
X62765143Y-109960000D01*
X64312678Y-109960000D01*
X64350000Y-109963676D01*
X64387322Y-109960000D01*
X64387333Y-109960000D01*
X64498986Y-109949003D01*
X64642247Y-109905546D01*
X64774276Y-109834974D01*
X64890001Y-109740001D01*
X64913803Y-109710998D01*
X65089802Y-109535000D01*
X65151939Y-109535000D01*
X65351898Y-109495226D01*
X65440000Y-109458732D01*
X65440000Y-117477462D01*
X65439502Y-117475820D01*
X65380537Y-117365506D01*
X65301185Y-117268815D01*
X65204494Y-117189463D01*
X65094180Y-117130498D01*
X64974482Y-117094188D01*
X64850000Y-117081928D01*
X61650000Y-117081928D01*
X61525518Y-117094188D01*
X61405820Y-117130498D01*
X61295506Y-117189463D01*
X61198815Y-117268815D01*
X61119463Y-117365506D01*
X61060498Y-117475820D01*
X61024188Y-117595518D01*
X61011928Y-117720000D01*
X61011928Y-119720000D01*
X61024188Y-119844482D01*
X61060498Y-119964180D01*
X61119463Y-120074494D01*
X61198815Y-120171185D01*
X61295506Y-120250537D01*
X61405820Y-120309502D01*
X61525518Y-120345812D01*
X61650000Y-120358072D01*
X64850000Y-120358072D01*
X64974482Y-120345812D01*
X65094180Y-120309502D01*
X65204494Y-120250537D01*
X65301185Y-120171185D01*
X65380537Y-120074494D01*
X65439502Y-119964180D01*
X65440000Y-119962538D01*
X65440000Y-124562678D01*
X65436324Y-124600000D01*
X65440000Y-124637322D01*
X65440000Y-124637332D01*
X65450997Y-124748985D01*
X65493553Y-124889277D01*
X65494454Y-124892246D01*
X65565026Y-125024276D01*
X65594345Y-125060001D01*
X65659999Y-125140001D01*
X65689003Y-125163804D01*
X66856201Y-126331003D01*
X66880000Y-126360002D01*
X66908998Y-126383800D01*
X66995724Y-126454975D01*
X67127754Y-126525547D01*
X67271015Y-126569004D01*
X67382668Y-126580001D01*
X67382678Y-126580001D01*
X67420001Y-126583677D01*
X67457324Y-126580001D01*
X68630707Y-126580001D01*
X68615000Y-126658967D01*
X68615000Y-126981033D01*
X68677832Y-127296912D01*
X68801082Y-127594463D01*
X68980013Y-127862252D01*
X69207748Y-128089987D01*
X69475537Y-128268918D01*
X69773088Y-128392168D01*
X70088967Y-128455000D01*
X70411033Y-128455000D01*
X70726912Y-128392168D01*
X71024463Y-128268918D01*
X71292252Y-128089987D01*
X71519987Y-127862252D01*
X71698918Y-127594463D01*
X71822168Y-127296912D01*
X71885000Y-126981033D01*
X71885000Y-126658967D01*
X71822168Y-126343088D01*
X71698918Y-126045537D01*
X71519987Y-125777748D01*
X71292252Y-125550013D01*
X71024463Y-125371082D01*
X70726912Y-125247832D01*
X70411033Y-125185000D01*
X70088967Y-125185000D01*
X69773088Y-125247832D01*
X69758279Y-125253966D01*
X69674277Y-125185027D01*
X69542248Y-125114455D01*
X69398987Y-125070998D01*
X69287334Y-125060001D01*
X69287323Y-125060001D01*
X69250001Y-125056325D01*
X69212679Y-125060001D01*
X67734803Y-125060001D01*
X66960000Y-124285199D01*
X66960000Y-121658967D01*
X68615000Y-121658967D01*
X68615000Y-121981033D01*
X68677832Y-122296912D01*
X68801082Y-122594463D01*
X68980013Y-122862252D01*
X69207748Y-123089987D01*
X69475537Y-123268918D01*
X69773088Y-123392168D01*
X70088967Y-123455000D01*
X70411033Y-123455000D01*
X70726912Y-123392168D01*
X71024463Y-123268918D01*
X71292252Y-123089987D01*
X71519987Y-122862252D01*
X71698918Y-122594463D01*
X71822168Y-122296912D01*
X71885000Y-121981033D01*
X71885000Y-121658967D01*
X71822168Y-121343088D01*
X71698918Y-121045537D01*
X71519987Y-120777748D01*
X71292252Y-120550013D01*
X71024463Y-120371082D01*
X70726912Y-120247832D01*
X70411033Y-120185000D01*
X70088967Y-120185000D01*
X69773088Y-120247832D01*
X69475537Y-120371082D01*
X69207748Y-120550013D01*
X68980013Y-120777748D01*
X68801082Y-121045537D01*
X68677832Y-121343088D01*
X68615000Y-121658967D01*
X66960000Y-121658967D01*
X66960000Y-113825000D01*
X67449428Y-113825000D01*
X67461688Y-113949482D01*
X67497998Y-114069180D01*
X67556963Y-114179494D01*
X67636315Y-114276185D01*
X67733006Y-114355537D01*
X67843320Y-114414502D01*
X67963018Y-114450812D01*
X68087500Y-114463072D01*
X68239250Y-114460000D01*
X68398000Y-114301250D01*
X68398000Y-113477000D01*
X67611250Y-113477000D01*
X67452500Y-113635750D01*
X67449428Y-113825000D01*
X66960000Y-113825000D01*
X66960000Y-112875000D01*
X67449428Y-112875000D01*
X67452500Y-113064250D01*
X67611250Y-113223000D01*
X68398000Y-113223000D01*
X68398000Y-112398750D01*
X68239250Y-112240000D01*
X68087500Y-112236928D01*
X67963018Y-112249188D01*
X67843320Y-112285498D01*
X67733006Y-112344463D01*
X67636315Y-112423815D01*
X67556963Y-112520506D01*
X67497998Y-112630820D01*
X67461688Y-112750518D01*
X67449428Y-112875000D01*
X66960000Y-112875000D01*
X66960000Y-108575000D01*
X67549428Y-108575000D01*
X67561688Y-108699482D01*
X67597998Y-108819180D01*
X67656963Y-108929494D01*
X67736315Y-109026185D01*
X67833006Y-109105537D01*
X67943320Y-109164502D01*
X68063018Y-109200812D01*
X68187500Y-109213072D01*
X68339250Y-109210000D01*
X68498000Y-109051250D01*
X68498000Y-108227000D01*
X67711250Y-108227000D01*
X67552500Y-108385750D01*
X67549428Y-108575000D01*
X66960000Y-108575000D01*
X66960000Y-107625000D01*
X67549428Y-107625000D01*
X67552500Y-107814250D01*
X67711250Y-107973000D01*
X68498000Y-107973000D01*
X68498000Y-107148750D01*
X68339250Y-106990000D01*
X68187500Y-106986928D01*
X68063018Y-106999188D01*
X67943320Y-107035498D01*
X67833006Y-107094463D01*
X67736315Y-107173815D01*
X67656963Y-107270506D01*
X67597998Y-107380820D01*
X67561688Y-107500518D01*
X67549428Y-107625000D01*
X66960000Y-107625000D01*
X66960000Y-92584801D01*
X69758625Y-89786177D01*
X69773088Y-89792168D01*
X70088967Y-89855000D01*
X70411033Y-89855000D01*
X70726912Y-89792168D01*
X71024463Y-89668918D01*
X71292252Y-89489987D01*
X71519987Y-89262252D01*
X71698918Y-88994463D01*
X71822168Y-88696912D01*
X71885000Y-88381033D01*
X71885000Y-88058967D01*
X71822168Y-87743088D01*
X71698918Y-87445537D01*
X71519987Y-87177748D01*
X71292252Y-86950013D01*
X71024463Y-86771082D01*
X70726912Y-86647832D01*
X70411033Y-86585000D01*
X70088967Y-86585000D01*
X69773088Y-86647832D01*
X69475537Y-86771082D01*
X69207748Y-86950013D01*
X68980013Y-87177748D01*
X68801082Y-87445537D01*
X68677832Y-87743088D01*
X68615000Y-88058967D01*
X68615000Y-88381033D01*
X68677832Y-88696912D01*
X68683823Y-88711375D01*
X65688998Y-91706201D01*
X65660000Y-91729999D01*
X65636202Y-91758997D01*
X65636201Y-91758998D01*
X65565026Y-91845724D01*
X65494454Y-91977754D01*
X65488072Y-91998793D01*
X65488072Y-90320000D01*
X65475812Y-90195518D01*
X65439502Y-90075820D01*
X65380537Y-89965506D01*
X65301185Y-89868815D01*
X65204494Y-89789463D01*
X65094180Y-89730498D01*
X64974482Y-89694188D01*
X64850000Y-89681928D01*
X61650000Y-89681928D01*
X61525518Y-89694188D01*
X61405820Y-89730498D01*
X61295506Y-89789463D01*
X61198815Y-89868815D01*
X61119463Y-89965506D01*
X61060498Y-90075820D01*
X61024188Y-90195518D01*
X61011928Y-90320000D01*
X61011928Y-92320000D01*
X61024188Y-92444482D01*
X61060498Y-92564180D01*
X61119463Y-92674494D01*
X61198815Y-92771185D01*
X61295506Y-92850537D01*
X61405820Y-92909502D01*
X61525518Y-92945812D01*
X61650000Y-92958072D01*
X64850000Y-92958072D01*
X64974482Y-92945812D01*
X65094180Y-92909502D01*
X65204494Y-92850537D01*
X65301185Y-92771185D01*
X65380537Y-92674494D01*
X65439502Y-92564180D01*
X65440001Y-92562535D01*
X65440001Y-107541268D01*
X65351898Y-107504774D01*
X65151939Y-107465000D01*
X64948061Y-107465000D01*
X64885000Y-107477544D01*
X64885000Y-107448061D01*
X64845226Y-107248102D01*
X64767205Y-107059744D01*
X64653937Y-106890226D01*
X64509774Y-106746063D01*
X64340256Y-106632795D01*
X64151898Y-106554774D01*
X63951939Y-106515000D01*
X63748061Y-106515000D01*
X63548102Y-106554774D01*
X63359744Y-106632795D01*
X63222497Y-106724500D01*
X62619648Y-106724500D01*
X62582275Y-106693829D01*
X62434142Y-106614650D01*
X62273408Y-106565892D01*
X62106250Y-106549428D01*
X61593750Y-106549428D01*
X61426592Y-106565892D01*
X61265858Y-106614650D01*
X61117725Y-106693829D01*
X60988963Y-106799500D01*
X52015550Y-106799500D01*
X51974999Y-106795506D01*
X51934449Y-106799500D01*
X46816934Y-106799500D01*
X44552987Y-104535555D01*
X44566338Y-104400000D01*
X44541045Y-104143195D01*
X44478016Y-103935413D01*
X51644192Y-103935413D01*
X51739956Y-104199814D01*
X52029571Y-104340704D01*
X52341108Y-104422384D01*
X52662595Y-104441718D01*
X52981675Y-104397961D01*
X53286088Y-104292795D01*
X53460044Y-104199814D01*
X53555808Y-103935413D01*
X58144192Y-103935413D01*
X58239956Y-104199814D01*
X58529571Y-104340704D01*
X58841108Y-104422384D01*
X59162595Y-104441718D01*
X59481675Y-104397961D01*
X59786088Y-104292795D01*
X59960044Y-104199814D01*
X60055808Y-103935413D01*
X59100000Y-102979605D01*
X58144192Y-103935413D01*
X53555808Y-103935413D01*
X52600000Y-102979605D01*
X51644192Y-103935413D01*
X44478016Y-103935413D01*
X44466138Y-103896259D01*
X44344495Y-103668682D01*
X44180792Y-103469208D01*
X44096461Y-103400000D01*
X44180792Y-103330792D01*
X44344495Y-103131318D01*
X44466138Y-102903741D01*
X44478619Y-102862595D01*
X50958282Y-102862595D01*
X51002039Y-103181675D01*
X51107205Y-103486088D01*
X51200186Y-103660044D01*
X51464587Y-103755808D01*
X52420395Y-102800000D01*
X52779605Y-102800000D01*
X53735413Y-103755808D01*
X53999814Y-103660044D01*
X54140704Y-103370429D01*
X54222384Y-103058892D01*
X54234189Y-102862595D01*
X57458282Y-102862595D01*
X57502039Y-103181675D01*
X57607205Y-103486088D01*
X57700186Y-103660044D01*
X57964587Y-103755808D01*
X58920395Y-102800000D01*
X59279605Y-102800000D01*
X60235413Y-103755808D01*
X60499814Y-103660044D01*
X60640704Y-103370429D01*
X60722384Y-103058892D01*
X60741718Y-102737405D01*
X60697961Y-102418325D01*
X60592795Y-102113912D01*
X60499814Y-101939956D01*
X60235413Y-101844192D01*
X59279605Y-102800000D01*
X58920395Y-102800000D01*
X57964587Y-101844192D01*
X57700186Y-101939956D01*
X57559296Y-102229571D01*
X57477616Y-102541108D01*
X57458282Y-102862595D01*
X54234189Y-102862595D01*
X54241718Y-102737405D01*
X54197961Y-102418325D01*
X54092795Y-102113912D01*
X53999814Y-101939956D01*
X53735413Y-101844192D01*
X52779605Y-102800000D01*
X52420395Y-102800000D01*
X51464587Y-101844192D01*
X51200186Y-101939956D01*
X51059296Y-102229571D01*
X50977616Y-102541108D01*
X50958282Y-102862595D01*
X44478619Y-102862595D01*
X44541045Y-102656805D01*
X44566338Y-102400000D01*
X44541045Y-102143195D01*
X44466138Y-101896259D01*
X44344495Y-101668682D01*
X44341135Y-101664587D01*
X51644192Y-101664587D01*
X52600000Y-102620395D01*
X53555808Y-101664587D01*
X58144192Y-101664587D01*
X59100000Y-102620395D01*
X60055808Y-101664587D01*
X59960044Y-101400186D01*
X59670429Y-101259296D01*
X59358892Y-101177616D01*
X59037405Y-101158282D01*
X58718325Y-101202039D01*
X58413912Y-101307205D01*
X58239956Y-101400186D01*
X58144192Y-101664587D01*
X53555808Y-101664587D01*
X53460044Y-101400186D01*
X53170429Y-101259296D01*
X52858892Y-101177616D01*
X52537405Y-101158282D01*
X52218325Y-101202039D01*
X51913912Y-101307205D01*
X51739956Y-101400186D01*
X51644192Y-101664587D01*
X44341135Y-101664587D01*
X44287369Y-101599074D01*
X44376185Y-101526185D01*
X44455537Y-101429494D01*
X44514502Y-101319180D01*
X44550812Y-101199482D01*
X44563072Y-101075000D01*
X44563072Y-99725000D01*
X44550812Y-99600518D01*
X44514502Y-99480820D01*
X44455537Y-99370506D01*
X44376185Y-99273815D01*
X44279494Y-99194463D01*
X44169180Y-99135498D01*
X44049482Y-99099188D01*
X43925000Y-99086928D01*
X42575000Y-99086928D01*
X42450518Y-99099188D01*
X42330820Y-99135498D01*
X42220506Y-99194463D01*
X42123815Y-99273815D01*
X42044463Y-99370506D01*
X41985498Y-99480820D01*
X41949188Y-99600518D01*
X41936928Y-99725000D01*
X41936928Y-101075000D01*
X41949188Y-101199482D01*
X41985498Y-101319180D01*
X42044463Y-101429494D01*
X42123815Y-101526185D01*
X42212631Y-101599074D01*
X42155505Y-101668682D01*
X42033862Y-101896259D01*
X41958955Y-102143195D01*
X41933662Y-102400000D01*
X41955318Y-102619881D01*
X41738997Y-102836202D01*
X41709999Y-102860000D01*
X41686201Y-102888998D01*
X41686200Y-102888999D01*
X41615025Y-102975725D01*
X41544453Y-103107755D01*
X41500997Y-103251016D01*
X41486323Y-103400001D01*
X41490000Y-103437333D01*
X41489999Y-106842678D01*
X41486323Y-106880001D01*
X41489999Y-106917323D01*
X41489999Y-106917333D01*
X41500996Y-107028986D01*
X41541547Y-107162667D01*
X41544453Y-107172247D01*
X41615025Y-107304277D01*
X41623847Y-107315026D01*
X41709998Y-107420002D01*
X41739002Y-107443805D01*
X45440001Y-111144805D01*
X45440000Y-117291582D01*
X45337885Y-117375385D01*
X45296756Y-117425501D01*
X40560000Y-117515213D01*
X40560000Y-98138967D01*
X50965000Y-98138967D01*
X50965000Y-98461033D01*
X51027832Y-98776912D01*
X51151082Y-99074463D01*
X51330013Y-99342252D01*
X51557748Y-99569987D01*
X51825537Y-99748918D01*
X52123088Y-99872168D01*
X52438967Y-99935000D01*
X52761033Y-99935000D01*
X53076912Y-99872168D01*
X53374463Y-99748918D01*
X53642252Y-99569987D01*
X53869987Y-99342252D01*
X54048918Y-99074463D01*
X54172168Y-98776912D01*
X54235000Y-98461033D01*
X54235000Y-98138967D01*
X57465000Y-98138967D01*
X57465000Y-98461033D01*
X57527832Y-98776912D01*
X57651082Y-99074463D01*
X57830013Y-99342252D01*
X58057748Y-99569987D01*
X58325537Y-99748918D01*
X58623088Y-99872168D01*
X58938967Y-99935000D01*
X59261033Y-99935000D01*
X59576912Y-99872168D01*
X59874463Y-99748918D01*
X60142252Y-99569987D01*
X60369987Y-99342252D01*
X60548918Y-99074463D01*
X60672168Y-98776912D01*
X60735000Y-98461033D01*
X60735000Y-98138967D01*
X60672168Y-97823088D01*
X60548918Y-97525537D01*
X60369987Y-97257748D01*
X60142252Y-97030013D01*
X59874463Y-96851082D01*
X59576912Y-96727832D01*
X59261033Y-96665000D01*
X58938967Y-96665000D01*
X58623088Y-96727832D01*
X58325537Y-96851082D01*
X58057748Y-97030013D01*
X57830013Y-97257748D01*
X57651082Y-97525537D01*
X57527832Y-97823088D01*
X57465000Y-98138967D01*
X54235000Y-98138967D01*
X54172168Y-97823088D01*
X54048918Y-97525537D01*
X53869987Y-97257748D01*
X53642252Y-97030013D01*
X53374463Y-96851082D01*
X53076912Y-96727832D01*
X52761033Y-96665000D01*
X52438967Y-96665000D01*
X52123088Y-96727832D01*
X51825537Y-96851082D01*
X51557748Y-97030013D01*
X51330013Y-97257748D01*
X51151082Y-97525537D01*
X51027832Y-97823088D01*
X50965000Y-98138967D01*
X40560000Y-98138967D01*
X40560000Y-88058967D01*
X54115000Y-88058967D01*
X54115000Y-88381033D01*
X54177832Y-88696912D01*
X54301082Y-88994463D01*
X54480013Y-89262252D01*
X54707748Y-89489987D01*
X54975537Y-89668918D01*
X55273088Y-89792168D01*
X55588967Y-89855000D01*
X55911033Y-89855000D01*
X56226912Y-89792168D01*
X56524463Y-89668918D01*
X56792252Y-89489987D01*
X57019987Y-89262252D01*
X57198918Y-88994463D01*
X57322168Y-88696912D01*
X57385000Y-88381033D01*
X57385000Y-88058967D01*
X57322168Y-87743088D01*
X57198918Y-87445537D01*
X57019987Y-87177748D01*
X56792252Y-86950013D01*
X56695065Y-86885075D01*
X56705808Y-86855413D01*
X55750000Y-85899605D01*
X54794192Y-86855413D01*
X54804935Y-86885075D01*
X54707748Y-86950013D01*
X54480013Y-87177748D01*
X54301082Y-87445537D01*
X54177832Y-87743088D01*
X54115000Y-88058967D01*
X40560000Y-88058967D01*
X40560000Y-85782595D01*
X54108282Y-85782595D01*
X54152039Y-86101675D01*
X54257205Y-86406088D01*
X54350186Y-86580044D01*
X54614587Y-86675808D01*
X55570395Y-85720000D01*
X55556253Y-85705858D01*
X55735858Y-85526253D01*
X55750000Y-85540395D01*
X55764143Y-85526253D01*
X55943748Y-85705858D01*
X55929605Y-85720000D01*
X56885413Y-86675808D01*
X57149814Y-86580044D01*
X57290704Y-86290429D01*
X57372384Y-85978892D01*
X57391718Y-85657405D01*
X57347961Y-85338325D01*
X57242795Y-85033912D01*
X57149814Y-84859956D01*
X57000777Y-84805976D01*
X57104494Y-84750537D01*
X57201185Y-84671185D01*
X57280537Y-84574494D01*
X57339502Y-84464180D01*
X57375812Y-84344482D01*
X57388072Y-84220000D01*
X57388072Y-83058967D01*
X68615000Y-83058967D01*
X68615000Y-83381033D01*
X68677832Y-83696912D01*
X68801082Y-83994463D01*
X68980013Y-84262252D01*
X69207748Y-84489987D01*
X69475537Y-84668918D01*
X69773088Y-84792168D01*
X70088967Y-84855000D01*
X70411033Y-84855000D01*
X70726912Y-84792168D01*
X71024463Y-84668918D01*
X71292252Y-84489987D01*
X71519987Y-84262252D01*
X71698918Y-83994463D01*
X71822168Y-83696912D01*
X71885000Y-83381033D01*
X71885000Y-83058967D01*
X71822168Y-82743088D01*
X71698918Y-82445537D01*
X71519987Y-82177748D01*
X71292252Y-81950013D01*
X71024463Y-81771082D01*
X70726912Y-81647832D01*
X70411033Y-81585000D01*
X70088967Y-81585000D01*
X69773088Y-81647832D01*
X69475537Y-81771082D01*
X69207748Y-81950013D01*
X68980013Y-82177748D01*
X68801082Y-82445537D01*
X68677832Y-82743088D01*
X68615000Y-83058967D01*
X57388072Y-83058967D01*
X57388072Y-82220000D01*
X57375812Y-82095518D01*
X57339502Y-81975820D01*
X57280537Y-81865506D01*
X57201185Y-81768815D01*
X57104494Y-81689463D01*
X56994180Y-81630498D01*
X56874482Y-81594188D01*
X56750000Y-81581928D01*
X54750000Y-81581928D01*
X54625518Y-81594188D01*
X54505820Y-81630498D01*
X54395506Y-81689463D01*
X54298815Y-81768815D01*
X54219463Y-81865506D01*
X54160498Y-81975820D01*
X54124188Y-82095518D01*
X54111928Y-82220000D01*
X54111928Y-84220000D01*
X54124188Y-84344482D01*
X54160498Y-84464180D01*
X54219463Y-84574494D01*
X54298815Y-84671185D01*
X54395506Y-84750537D01*
X54499223Y-84805976D01*
X54350186Y-84859956D01*
X54209296Y-85149571D01*
X54127616Y-85461108D01*
X54108282Y-85782595D01*
X40560000Y-85782595D01*
X40560000Y-79120000D01*
X61011928Y-79120000D01*
X61011928Y-81120000D01*
X61024188Y-81244482D01*
X61060498Y-81364180D01*
X61119463Y-81474494D01*
X61198815Y-81571185D01*
X61295506Y-81650537D01*
X61405820Y-81709502D01*
X61525518Y-81745812D01*
X61650000Y-81758072D01*
X64850000Y-81758072D01*
X64974482Y-81745812D01*
X65094180Y-81709502D01*
X65204494Y-81650537D01*
X65301185Y-81571185D01*
X65380537Y-81474494D01*
X65439502Y-81364180D01*
X65475812Y-81244482D01*
X65488072Y-81120000D01*
X65488072Y-79120000D01*
X65475812Y-78995518D01*
X65439502Y-78875820D01*
X65380537Y-78765506D01*
X65301185Y-78668815D01*
X65204494Y-78589463D01*
X65094180Y-78530498D01*
X64974482Y-78494188D01*
X64850000Y-78481928D01*
X61650000Y-78481928D01*
X61525518Y-78494188D01*
X61405820Y-78530498D01*
X61295506Y-78589463D01*
X61198815Y-78668815D01*
X61119463Y-78765506D01*
X61060498Y-78875820D01*
X61024188Y-78995518D01*
X61011928Y-79120000D01*
X40560000Y-79120000D01*
X40560000Y-74025000D01*
X72499428Y-74025000D01*
X72511688Y-74149482D01*
X72547998Y-74269180D01*
X72606963Y-74379494D01*
X72686315Y-74476185D01*
X72783006Y-74555537D01*
X72893320Y-74614502D01*
X73013018Y-74650812D01*
X73137500Y-74663072D01*
X73289250Y-74660000D01*
X73448000Y-74501250D01*
X73448000Y-73677000D01*
X72661250Y-73677000D01*
X72502500Y-73835750D01*
X72499428Y-74025000D01*
X40560000Y-74025000D01*
X40560000Y-73075000D01*
X72499428Y-73075000D01*
X72502500Y-73264250D01*
X72661250Y-73423000D01*
X73448000Y-73423000D01*
X73448000Y-72598750D01*
X73289250Y-72440000D01*
X73137500Y-72436928D01*
X73013018Y-72449188D01*
X72893320Y-72485498D01*
X72783006Y-72544463D01*
X72686315Y-72623815D01*
X72606963Y-72720506D01*
X72547998Y-72830820D01*
X72511688Y-72950518D01*
X72499428Y-73075000D01*
X40560000Y-73075000D01*
X40560000Y-70729117D01*
X64515000Y-70729117D01*
X64515000Y-71070883D01*
X64581675Y-71406081D01*
X64712463Y-71721831D01*
X64902337Y-72005998D01*
X65144002Y-72247663D01*
X65428169Y-72437537D01*
X65743919Y-72568325D01*
X66079117Y-72635000D01*
X66420883Y-72635000D01*
X66756081Y-72568325D01*
X67071831Y-72437537D01*
X67355998Y-72247663D01*
X67597663Y-72005998D01*
X67787537Y-71721831D01*
X67918325Y-71406081D01*
X67934453Y-71325000D01*
X72499428Y-71325000D01*
X72511688Y-71449482D01*
X72547998Y-71569180D01*
X72606963Y-71679494D01*
X72686315Y-71776185D01*
X72783006Y-71855537D01*
X72893320Y-71914502D01*
X73013018Y-71950812D01*
X73137500Y-71963072D01*
X73289250Y-71960000D01*
X73448000Y-71801250D01*
X73448000Y-70977000D01*
X72661250Y-70977000D01*
X72502500Y-71135750D01*
X72499428Y-71325000D01*
X67934453Y-71325000D01*
X67985000Y-71070883D01*
X67985000Y-70729117D01*
X67918325Y-70393919D01*
X67910489Y-70375000D01*
X72499428Y-70375000D01*
X72502500Y-70564250D01*
X72661250Y-70723000D01*
X73448000Y-70723000D01*
X73448000Y-69898750D01*
X73289250Y-69740000D01*
X73137500Y-69736928D01*
X73013018Y-69749188D01*
X72893320Y-69785498D01*
X72783006Y-69844463D01*
X72686315Y-69923815D01*
X72606963Y-70020506D01*
X72547998Y-70130820D01*
X72511688Y-70250518D01*
X72499428Y-70375000D01*
X67910489Y-70375000D01*
X67787537Y-70078169D01*
X67597663Y-69794002D01*
X67355998Y-69552337D01*
X67071831Y-69362463D01*
X66756081Y-69231675D01*
X66420883Y-69165000D01*
X66079117Y-69165000D01*
X65743919Y-69231675D01*
X65428169Y-69362463D01*
X65144002Y-69552337D01*
X64902337Y-69794002D01*
X64712463Y-70078169D01*
X64581675Y-70393919D01*
X64515000Y-70729117D01*
X40560000Y-70729117D01*
X40560000Y-68625000D01*
X72449428Y-68625000D01*
X72461688Y-68749482D01*
X72497998Y-68869180D01*
X72556963Y-68979494D01*
X72636315Y-69076185D01*
X72733006Y-69155537D01*
X72843320Y-69214502D01*
X72963018Y-69250812D01*
X73087500Y-69263072D01*
X73239250Y-69260000D01*
X73398000Y-69101250D01*
X73398000Y-68277000D01*
X72611250Y-68277000D01*
X72452500Y-68435750D01*
X72449428Y-68625000D01*
X40560000Y-68625000D01*
X40560000Y-67675000D01*
X72449428Y-67675000D01*
X72452500Y-67864250D01*
X72611250Y-68023000D01*
X73398000Y-68023000D01*
X73398000Y-67198750D01*
X73239250Y-67040000D01*
X73087500Y-67036928D01*
X72963018Y-67049188D01*
X72843320Y-67085498D01*
X72733006Y-67144463D01*
X72636315Y-67223815D01*
X72556963Y-67320506D01*
X72497998Y-67430820D01*
X72461688Y-67550518D01*
X72449428Y-67675000D01*
X40560000Y-67675000D01*
X40560000Y-57782281D01*
X40564819Y-57733133D01*
X40569718Y-57716908D01*
X40577672Y-57701947D01*
X40588386Y-57688811D01*
X40601441Y-57678012D01*
X40616349Y-57669951D01*
X40632541Y-57664938D01*
X40679525Y-57660000D01*
X80577647Y-57660000D01*
X80510624Y-57813767D01*
X80465000Y-58023000D01*
X80465000Y-58423000D01*
X81423000Y-58423000D01*
X81423000Y-58403000D01*
X81677000Y-58403000D01*
X81677000Y-58423000D01*
X82635000Y-58423000D01*
X82635000Y-58023000D01*
X82589376Y-57813767D01*
X82522353Y-57660000D01*
X89227647Y-57660000D01*
X89160624Y-57813767D01*
X89115000Y-58023000D01*
X89115000Y-58423000D01*
X90073000Y-58423000D01*
X90073000Y-58403000D01*
X90327000Y-58403000D01*
X90327000Y-58423000D01*
X91285000Y-58423000D01*
X91285000Y-58023000D01*
X91239376Y-57813767D01*
X91172353Y-57660000D01*
X94717639Y-57660000D01*
X94717690Y-57660005D01*
X94748095Y-57660000D01*
X94782419Y-57660000D01*
X94782476Y-57659994D01*
X96669126Y-57659684D01*
X96642980Y-61102133D01*
G36*
X43377000Y-106273000D02*
G01*
X43397000Y-106273000D01*
X43397000Y-106527000D01*
X43377000Y-106527000D01*
X43377000Y-106547000D01*
X43123000Y-106547000D01*
X43123000Y-106527000D01*
X43103000Y-106527000D01*
X43103000Y-106273000D01*
X43123000Y-106273000D01*
X43123000Y-106253000D01*
X43377000Y-106253000D01*
X43377000Y-106273000D01*
X43377000Y-106273000D01*
G37*
X43377000Y-106273000D02*
X43397000Y-106273000D01*
X43397000Y-106527000D01*
X43377000Y-106527000D01*
X43377000Y-106547000D01*
X43123000Y-106547000D01*
X43123000Y-106527000D01*
X43103000Y-106527000D01*
X43103000Y-106273000D01*
X43123000Y-106273000D01*
X43123000Y-106253000D01*
X43377000Y-106253000D01*
X43377000Y-106273000D01*
G36*
X80465000Y-61053000D02*
G01*
X80465000Y-61803000D01*
X81423000Y-61803000D01*
X81423000Y-61783000D01*
X81677000Y-61783000D01*
X81677000Y-61803000D01*
X81959369Y-61803000D01*
X81970392Y-61860028D01*
X82041813Y-62035126D01*
X82046730Y-62044323D01*
X82229073Y-62057000D01*
X81677000Y-62057000D01*
X81677000Y-63597502D01*
X81844001Y-63724408D01*
X82047197Y-63652702D01*
X82227408Y-63537014D01*
X82381587Y-63388391D01*
X82503809Y-63212545D01*
X82570225Y-63060170D01*
X82720395Y-62910000D01*
X82706253Y-62895858D01*
X82790829Y-62811281D01*
X82790000Y-62815448D01*
X82790000Y-63004552D01*
X82822361Y-63167244D01*
X82427069Y-63562536D01*
X82440677Y-63758270D01*
X82614992Y-63831581D01*
X82800260Y-63869475D01*
X82989361Y-63870497D01*
X83175028Y-63834608D01*
X83325462Y-63773247D01*
X83469978Y-63833108D01*
X83655448Y-63870000D01*
X83844552Y-63870000D01*
X83882332Y-63862485D01*
X81889003Y-65855815D01*
X81859999Y-65879618D01*
X81804871Y-65946793D01*
X81765026Y-65995343D01*
X81694455Y-66127372D01*
X81694454Y-66127373D01*
X81650997Y-66270634D01*
X81640000Y-66382287D01*
X81640000Y-66382297D01*
X81636324Y-66419619D01*
X81640000Y-66456942D01*
X81640001Y-69842668D01*
X81636324Y-69880000D01*
X81640001Y-69917333D01*
X81650998Y-70028986D01*
X81653261Y-70036445D01*
X81694454Y-70172246D01*
X81765026Y-70304276D01*
X81836201Y-70391002D01*
X81860000Y-70420001D01*
X81888998Y-70443799D01*
X83185199Y-71740001D01*
X79957435Y-71740001D01*
X78725500Y-70508068D01*
X78725500Y-69990551D01*
X78729494Y-69950001D01*
X78725500Y-69909447D01*
X78725500Y-69140550D01*
X78729494Y-69100000D01*
X78725500Y-69059447D01*
X78725500Y-66879664D01*
X78762115Y-66849615D01*
X78868671Y-66719775D01*
X78947850Y-66571642D01*
X78996608Y-66410908D01*
X79013072Y-66243750D01*
X79013072Y-65806250D01*
X78996608Y-65639092D01*
X78947850Y-65478358D01*
X78868671Y-65330225D01*
X78792574Y-65237500D01*
X78868671Y-65144775D01*
X78947850Y-64996642D01*
X78996608Y-64835908D01*
X79013072Y-64668750D01*
X79013072Y-64231250D01*
X78996608Y-64064092D01*
X78947850Y-63903358D01*
X78868671Y-63755225D01*
X78762115Y-63625385D01*
X78725500Y-63595336D01*
X78725500Y-62057000D01*
X80465000Y-62057000D01*
X80465000Y-62807000D01*
X80510624Y-63016233D01*
X80596191Y-63212545D01*
X80718413Y-63388391D01*
X80872592Y-63537014D01*
X81052803Y-63652702D01*
X81255999Y-63724408D01*
X81423000Y-63597502D01*
X81423000Y-62057000D01*
X80465000Y-62057000D01*
X78725500Y-62057000D01*
X78725500Y-61641932D01*
X79441933Y-60925500D01*
X80492802Y-60925500D01*
X80465000Y-61053000D01*
X80465000Y-61053000D01*
G37*
X80465000Y-61053000D02*
X80465000Y-61803000D01*
X81423000Y-61803000D01*
X81423000Y-61783000D01*
X81677000Y-61783000D01*
X81677000Y-61803000D01*
X81959369Y-61803000D01*
X81970392Y-61860028D01*
X82041813Y-62035126D01*
X82046730Y-62044323D01*
X82229073Y-62057000D01*
X81677000Y-62057000D01*
X81677000Y-63597502D01*
X81844001Y-63724408D01*
X82047197Y-63652702D01*
X82227408Y-63537014D01*
X82381587Y-63388391D01*
X82503809Y-63212545D01*
X82570225Y-63060170D01*
X82720395Y-62910000D01*
X82706253Y-62895858D01*
X82790829Y-62811281D01*
X82790000Y-62815448D01*
X82790000Y-63004552D01*
X82822361Y-63167244D01*
X82427069Y-63562536D01*
X82440677Y-63758270D01*
X82614992Y-63831581D01*
X82800260Y-63869475D01*
X82989361Y-63870497D01*
X83175028Y-63834608D01*
X83325462Y-63773247D01*
X83469978Y-63833108D01*
X83655448Y-63870000D01*
X83844552Y-63870000D01*
X83882332Y-63862485D01*
X81889003Y-65855815D01*
X81859999Y-65879618D01*
X81804871Y-65946793D01*
X81765026Y-65995343D01*
X81694455Y-66127372D01*
X81694454Y-66127373D01*
X81650997Y-66270634D01*
X81640000Y-66382287D01*
X81640000Y-66382297D01*
X81636324Y-66419619D01*
X81640000Y-66456942D01*
X81640001Y-69842668D01*
X81636324Y-69880000D01*
X81640001Y-69917333D01*
X81650998Y-70028986D01*
X81653261Y-70036445D01*
X81694454Y-70172246D01*
X81765026Y-70304276D01*
X81836201Y-70391002D01*
X81860000Y-70420001D01*
X81888998Y-70443799D01*
X83185199Y-71740001D01*
X79957435Y-71740001D01*
X78725500Y-70508068D01*
X78725500Y-69990551D01*
X78729494Y-69950001D01*
X78725500Y-69909447D01*
X78725500Y-69140550D01*
X78729494Y-69100000D01*
X78725500Y-69059447D01*
X78725500Y-66879664D01*
X78762115Y-66849615D01*
X78868671Y-66719775D01*
X78947850Y-66571642D01*
X78996608Y-66410908D01*
X79013072Y-66243750D01*
X79013072Y-65806250D01*
X78996608Y-65639092D01*
X78947850Y-65478358D01*
X78868671Y-65330225D01*
X78792574Y-65237500D01*
X78868671Y-65144775D01*
X78947850Y-64996642D01*
X78996608Y-64835908D01*
X79013072Y-64668750D01*
X79013072Y-64231250D01*
X78996608Y-64064092D01*
X78947850Y-63903358D01*
X78868671Y-63755225D01*
X78762115Y-63625385D01*
X78725500Y-63595336D01*
X78725500Y-62057000D01*
X80465000Y-62057000D01*
X80465000Y-62807000D01*
X80510624Y-63016233D01*
X80596191Y-63212545D01*
X80718413Y-63388391D01*
X80872592Y-63537014D01*
X81052803Y-63652702D01*
X81255999Y-63724408D01*
X81423000Y-63597502D01*
X81423000Y-62057000D01*
X80465000Y-62057000D01*
X78725500Y-62057000D01*
X78725500Y-61641932D01*
X79441933Y-60925500D01*
X80492802Y-60925500D01*
X80465000Y-61053000D01*
G36*
X91380225Y-69868671D02*
G01*
X91528358Y-69947850D01*
X91689092Y-69996608D01*
X91856250Y-70013072D01*
X92077510Y-70013072D01*
X92077510Y-71436928D01*
X91856250Y-71436928D01*
X91689092Y-71453392D01*
X91528358Y-71502150D01*
X91380225Y-71581329D01*
X91287500Y-71657426D01*
X91194775Y-71581329D01*
X91046642Y-71502150D01*
X90885908Y-71453392D01*
X90718750Y-71436928D01*
X90431821Y-71436928D01*
X90330635Y-71382842D01*
X90187374Y-71339385D01*
X90075721Y-71328388D01*
X90075710Y-71328388D01*
X90038388Y-71324712D01*
X90001066Y-71328388D01*
X88978316Y-71328388D01*
X88963225Y-71309999D01*
X88847500Y-71215026D01*
X88715471Y-71144454D01*
X88572210Y-71100997D01*
X88460557Y-71090000D01*
X88460546Y-71090000D01*
X88423224Y-71086324D01*
X88416260Y-71087010D01*
X88356250Y-71027000D01*
X88274141Y-71027000D01*
X88234494Y-70994463D01*
X88124180Y-70935498D01*
X88007159Y-70900000D01*
X88124180Y-70864502D01*
X88234494Y-70805537D01*
X88274141Y-70773000D01*
X88356250Y-70773000D01*
X88419250Y-70710000D01*
X89412678Y-70710000D01*
X89450000Y-70713676D01*
X89487322Y-70710000D01*
X89487333Y-70710000D01*
X89598986Y-70699003D01*
X89742247Y-70655546D01*
X89874276Y-70584974D01*
X89990001Y-70490001D01*
X90013804Y-70460998D01*
X90461729Y-70013072D01*
X90718750Y-70013072D01*
X90885908Y-69996608D01*
X91046642Y-69947850D01*
X91194775Y-69868671D01*
X91287500Y-69792574D01*
X91380225Y-69868671D01*
X91380225Y-69868671D01*
G37*
X91380225Y-69868671D02*
X91528358Y-69947850D01*
X91689092Y-69996608D01*
X91856250Y-70013072D01*
X92077510Y-70013072D01*
X92077510Y-71436928D01*
X91856250Y-71436928D01*
X91689092Y-71453392D01*
X91528358Y-71502150D01*
X91380225Y-71581329D01*
X91287500Y-71657426D01*
X91194775Y-71581329D01*
X91046642Y-71502150D01*
X90885908Y-71453392D01*
X90718750Y-71436928D01*
X90431821Y-71436928D01*
X90330635Y-71382842D01*
X90187374Y-71339385D01*
X90075721Y-71328388D01*
X90075710Y-71328388D01*
X90038388Y-71324712D01*
X90001066Y-71328388D01*
X88978316Y-71328388D01*
X88963225Y-71309999D01*
X88847500Y-71215026D01*
X88715471Y-71144454D01*
X88572210Y-71100997D01*
X88460557Y-71090000D01*
X88460546Y-71090000D01*
X88423224Y-71086324D01*
X88416260Y-71087010D01*
X88356250Y-71027000D01*
X88274141Y-71027000D01*
X88234494Y-70994463D01*
X88124180Y-70935498D01*
X88007159Y-70900000D01*
X88124180Y-70864502D01*
X88234494Y-70805537D01*
X88274141Y-70773000D01*
X88356250Y-70773000D01*
X88419250Y-70710000D01*
X89412678Y-70710000D01*
X89450000Y-70713676D01*
X89487322Y-70710000D01*
X89487333Y-70710000D01*
X89598986Y-70699003D01*
X89742247Y-70655546D01*
X89874276Y-70584974D01*
X89990001Y-70490001D01*
X90013804Y-70460998D01*
X90461729Y-70013072D01*
X90718750Y-70013072D01*
X90885908Y-69996608D01*
X91046642Y-69947850D01*
X91194775Y-69868671D01*
X91287500Y-69792574D01*
X91380225Y-69868671D01*
G36*
X89043748Y-61570858D02*
G01*
X89029605Y-61585000D01*
X89043748Y-61599143D01*
X88952930Y-61689960D01*
X88955000Y-61679552D01*
X88955000Y-61490448D01*
X88952930Y-61480040D01*
X89043748Y-61570858D01*
X89043748Y-61570858D01*
G37*
X89043748Y-61570858D02*
X89029605Y-61585000D01*
X89043748Y-61599143D01*
X88952930Y-61689960D01*
X88955000Y-61679552D01*
X88955000Y-61490448D01*
X88952930Y-61480040D01*
X89043748Y-61570858D01*
G36*
X82785000Y-61490448D02*
G01*
X82785000Y-61679552D01*
X82785829Y-61683719D01*
X82701253Y-61599143D01*
X82715395Y-61585000D01*
X82701253Y-61570858D01*
X82785829Y-61486281D01*
X82785000Y-61490448D01*
X82785000Y-61490448D01*
G37*
X82785000Y-61490448D02*
X82785000Y-61679552D01*
X82785829Y-61683719D01*
X82701253Y-61599143D01*
X82715395Y-61585000D01*
X82701253Y-61570858D01*
X82785829Y-61486281D01*
X82785000Y-61490448D01*
M02*
