G04 #@! TF.GenerationSoftware,KiCad,Pcbnew,(5.1.0)-1*
G04 #@! TF.CreationDate,2020-08-21T01:29:19+01:00*
G04 #@! TF.ProjectId,marcoboard,6d617263-6f62-46f6-9172-642e6b696361,rev?*
G04 #@! TF.SameCoordinates,Original*
G04 #@! TF.FileFunction,Legend,Bot*
G04 #@! TF.FilePolarity,Positive*
%FSLAX46Y46*%
G04 Gerber Fmt 4.6, Leading zero omitted, Abs format (unit mm)*
G04 Created by KiCad (PCBNEW (5.1.0)-1) date 2020-08-21 01:29:19*
%MOMM*%
%LPD*%
G04 APERTURE LIST*
%ADD10C,0.120000*%
%ADD11C,0.160000*%
%ADD12C,0.150000*%
G04 APERTURE END LIST*
D10*
X59350000Y-99800000D02*
X59350000Y-101300000D01*
X58100000Y-103800000D02*
X53600000Y-103800000D01*
X52350000Y-101300000D02*
X52350000Y-99800000D01*
X53600000Y-97300000D02*
X58100000Y-97300000D01*
X59300000Y-111100000D02*
X59300000Y-112600000D01*
X58050000Y-115100000D02*
X53550000Y-115100000D01*
X52300000Y-112600000D02*
X52300000Y-111100000D01*
X53550000Y-108600000D02*
X58050000Y-108600000D01*
D11*
X76500000Y-118850000D02*
X76500000Y-120450000D01*
X76450000Y-118850000D02*
X76450000Y-120450000D01*
X76400000Y-118850000D02*
X76400000Y-120450000D01*
X76350000Y-118850000D02*
X76350000Y-120450000D01*
X73350000Y-118850000D02*
X72850000Y-118850000D01*
X73350000Y-120450000D02*
X72850000Y-120450000D01*
X76650000Y-120450000D02*
X73250000Y-120450000D01*
X72850000Y-118850000D02*
X72850000Y-120450000D01*
X75750000Y-118850000D02*
X76650000Y-118850000D01*
X73350000Y-118850000D02*
X75750000Y-118850000D01*
X76650000Y-118850000D02*
X76650000Y-120450000D01*
X74600000Y-86050000D02*
X73000000Y-86050000D01*
X74600000Y-86000000D02*
X73000000Y-86000000D01*
X74600000Y-85950000D02*
X73000000Y-85950000D01*
X74600000Y-85900000D02*
X73000000Y-85900000D01*
X74600000Y-82900000D02*
X74600000Y-82400000D01*
X73000000Y-82900000D02*
X73000000Y-82400000D01*
X73000000Y-86200000D02*
X73000000Y-82800000D01*
X74600000Y-82400000D02*
X73000000Y-82400000D01*
X74600000Y-85300000D02*
X74600000Y-86200000D01*
X74600000Y-82900000D02*
X74600000Y-85300000D01*
X74600000Y-86200000D02*
X73000000Y-86200000D01*
X387000000Y-148850000D02*
X385400000Y-148850000D01*
X387000000Y-148800000D02*
X385400000Y-148800000D01*
X387000000Y-148750000D02*
X385400000Y-148750000D01*
X387000000Y-148700000D02*
X385400000Y-148700000D01*
X387000000Y-145700000D02*
X387000000Y-145200000D01*
X385400000Y-145700000D02*
X385400000Y-145200000D01*
X385400000Y-149000000D02*
X385400000Y-145600000D01*
X387000000Y-145200000D02*
X385400000Y-145200000D01*
X387000000Y-148100000D02*
X387000000Y-149000000D01*
X387000000Y-145700000D02*
X387000000Y-148100000D01*
X387000000Y-149000000D02*
X385400000Y-149000000D01*
X386950000Y-129850000D02*
X385350000Y-129850000D01*
X386950000Y-129800000D02*
X385350000Y-129800000D01*
X386950000Y-129750000D02*
X385350000Y-129750000D01*
X386950000Y-129700000D02*
X385350000Y-129700000D01*
X386950000Y-126700000D02*
X386950000Y-126200000D01*
X385350000Y-126700000D02*
X385350000Y-126200000D01*
X385350000Y-130000000D02*
X385350000Y-126600000D01*
X386950000Y-126200000D02*
X385350000Y-126200000D01*
X386950000Y-129100000D02*
X386950000Y-130000000D01*
X386950000Y-126700000D02*
X386950000Y-129100000D01*
X386950000Y-130000000D02*
X385350000Y-130000000D01*
X387000000Y-110850000D02*
X385400000Y-110850000D01*
X387000000Y-110800000D02*
X385400000Y-110800000D01*
X387000000Y-110750000D02*
X385400000Y-110750000D01*
X387000000Y-110700000D02*
X385400000Y-110700000D01*
X387000000Y-107700000D02*
X387000000Y-107200000D01*
X385400000Y-107700000D02*
X385400000Y-107200000D01*
X385400000Y-111000000D02*
X385400000Y-107600000D01*
X387000000Y-107200000D02*
X385400000Y-107200000D01*
X387000000Y-110100000D02*
X387000000Y-111000000D01*
X387000000Y-107700000D02*
X387000000Y-110100000D01*
X387000000Y-111000000D02*
X385400000Y-111000000D01*
X386900000Y-92000000D02*
X385300000Y-92000000D01*
X386900000Y-91950000D02*
X385300000Y-91950000D01*
X386900000Y-91900000D02*
X385300000Y-91900000D01*
X386900000Y-91850000D02*
X385300000Y-91850000D01*
X386900000Y-88850000D02*
X386900000Y-88350000D01*
X385300000Y-88850000D02*
X385300000Y-88350000D01*
X385300000Y-92150000D02*
X385300000Y-88750000D01*
X386900000Y-88350000D02*
X385300000Y-88350000D01*
X386900000Y-91250000D02*
X386900000Y-92150000D01*
X386900000Y-88850000D02*
X386900000Y-91250000D01*
X386900000Y-92150000D02*
X385300000Y-92150000D01*
X387000000Y-73000000D02*
X385400000Y-73000000D01*
X387000000Y-72950000D02*
X385400000Y-72950000D01*
X387000000Y-72900000D02*
X385400000Y-72900000D01*
X387000000Y-72850000D02*
X385400000Y-72850000D01*
X387000000Y-69850000D02*
X387000000Y-69350000D01*
X385400000Y-69850000D02*
X385400000Y-69350000D01*
X385400000Y-73150000D02*
X385400000Y-69750000D01*
X387000000Y-69350000D02*
X385400000Y-69350000D01*
X387000000Y-72250000D02*
X387000000Y-73150000D01*
X387000000Y-69850000D02*
X387000000Y-72250000D01*
X387000000Y-73150000D02*
X385400000Y-73150000D01*
X367750000Y-148800000D02*
X366150000Y-148800000D01*
X367750000Y-148750000D02*
X366150000Y-148750000D01*
X367750000Y-148700000D02*
X366150000Y-148700000D01*
X367750000Y-148650000D02*
X366150000Y-148650000D01*
X367750000Y-145650000D02*
X367750000Y-145150000D01*
X366150000Y-145650000D02*
X366150000Y-145150000D01*
X366150000Y-148950000D02*
X366150000Y-145550000D01*
X367750000Y-145150000D02*
X366150000Y-145150000D01*
X367750000Y-148050000D02*
X367750000Y-148950000D01*
X367750000Y-145650000D02*
X367750000Y-148050000D01*
X367750000Y-148950000D02*
X366150000Y-148950000D01*
X367750000Y-129850000D02*
X366150000Y-129850000D01*
X367750000Y-129800000D02*
X366150000Y-129800000D01*
X367750000Y-129750000D02*
X366150000Y-129750000D01*
X367750000Y-129700000D02*
X366150000Y-129700000D01*
X367750000Y-126700000D02*
X367750000Y-126200000D01*
X366150000Y-126700000D02*
X366150000Y-126200000D01*
X366150000Y-130000000D02*
X366150000Y-126600000D01*
X367750000Y-126200000D02*
X366150000Y-126200000D01*
X367750000Y-129100000D02*
X367750000Y-130000000D01*
X367750000Y-126700000D02*
X367750000Y-129100000D01*
X367750000Y-130000000D02*
X366150000Y-130000000D01*
X356000000Y-111000000D02*
X354400000Y-111000000D01*
X356000000Y-110950000D02*
X354400000Y-110950000D01*
X356000000Y-110900000D02*
X354400000Y-110900000D01*
X356000000Y-110850000D02*
X354400000Y-110850000D01*
X356000000Y-107850000D02*
X356000000Y-107350000D01*
X354400000Y-107850000D02*
X354400000Y-107350000D01*
X354400000Y-111150000D02*
X354400000Y-107750000D01*
X356000000Y-107350000D02*
X354400000Y-107350000D01*
X356000000Y-110250000D02*
X356000000Y-111150000D01*
X356000000Y-107850000D02*
X356000000Y-110250000D01*
X356000000Y-111150000D02*
X354400000Y-111150000D01*
X363050000Y-92050000D02*
X361450000Y-92050000D01*
X363050000Y-92000000D02*
X361450000Y-92000000D01*
X363050000Y-91950000D02*
X361450000Y-91950000D01*
X363050000Y-91900000D02*
X361450000Y-91900000D01*
X363050000Y-88900000D02*
X363050000Y-88400000D01*
X361450000Y-88900000D02*
X361450000Y-88400000D01*
X361450000Y-92200000D02*
X361450000Y-88800000D01*
X363050000Y-88400000D02*
X361450000Y-88400000D01*
X363050000Y-91300000D02*
X363050000Y-92200000D01*
X363050000Y-88900000D02*
X363050000Y-91300000D01*
X363050000Y-92200000D02*
X361450000Y-92200000D01*
X358250000Y-72900000D02*
X356650000Y-72900000D01*
X358250000Y-72850000D02*
X356650000Y-72850000D01*
X358250000Y-72800000D02*
X356650000Y-72800000D01*
X358250000Y-72750000D02*
X356650000Y-72750000D01*
X358250000Y-69750000D02*
X358250000Y-69250000D01*
X356650000Y-69750000D02*
X356650000Y-69250000D01*
X356650000Y-73050000D02*
X356650000Y-69650000D01*
X358250000Y-69250000D02*
X356650000Y-69250000D01*
X358250000Y-72150000D02*
X358250000Y-73050000D01*
X358250000Y-69750000D02*
X358250000Y-72150000D01*
X358250000Y-73050000D02*
X356650000Y-73050000D01*
X348750000Y-149100000D02*
X347150000Y-149100000D01*
X348750000Y-149050000D02*
X347150000Y-149050000D01*
X348750000Y-149000000D02*
X347150000Y-149000000D01*
X348750000Y-148950000D02*
X347150000Y-148950000D01*
X348750000Y-145950000D02*
X348750000Y-145450000D01*
X347150000Y-145950000D02*
X347150000Y-145450000D01*
X347150000Y-149250000D02*
X347150000Y-145850000D01*
X348750000Y-145450000D02*
X347150000Y-145450000D01*
X348750000Y-148350000D02*
X348750000Y-149250000D01*
X348750000Y-145950000D02*
X348750000Y-148350000D01*
X348750000Y-149250000D02*
X347150000Y-149250000D01*
X341650000Y-129950000D02*
X340050000Y-129950000D01*
X341650000Y-129900000D02*
X340050000Y-129900000D01*
X341650000Y-129850000D02*
X340050000Y-129850000D01*
X341650000Y-129800000D02*
X340050000Y-129800000D01*
X341650000Y-126800000D02*
X341650000Y-126300000D01*
X340050000Y-126800000D02*
X340050000Y-126300000D01*
X340050000Y-130100000D02*
X340050000Y-126700000D01*
X341650000Y-126300000D02*
X340050000Y-126300000D01*
X341650000Y-129200000D02*
X341650000Y-130100000D01*
X341650000Y-126800000D02*
X341650000Y-129200000D01*
X341650000Y-130100000D02*
X340050000Y-130100000D01*
X339350000Y-92050000D02*
X337750000Y-92050000D01*
X339350000Y-92000000D02*
X337750000Y-92000000D01*
X339350000Y-91950000D02*
X337750000Y-91950000D01*
X339350000Y-91900000D02*
X337750000Y-91900000D01*
X339350000Y-88900000D02*
X339350000Y-88400000D01*
X337750000Y-88900000D02*
X337750000Y-88400000D01*
X337750000Y-92200000D02*
X337750000Y-88800000D01*
X339350000Y-88400000D02*
X337750000Y-88400000D01*
X339350000Y-91300000D02*
X339350000Y-92200000D01*
X339350000Y-88900000D02*
X339350000Y-91300000D01*
X339350000Y-92200000D02*
X337750000Y-92200000D01*
X329750000Y-72900000D02*
X328150000Y-72900000D01*
X329750000Y-72850000D02*
X328150000Y-72850000D01*
X329750000Y-72800000D02*
X328150000Y-72800000D01*
X329750000Y-72750000D02*
X328150000Y-72750000D01*
X329750000Y-69750000D02*
X329750000Y-69250000D01*
X328150000Y-69750000D02*
X328150000Y-69250000D01*
X328150000Y-73050000D02*
X328150000Y-69650000D01*
X329750000Y-69250000D02*
X328150000Y-69250000D01*
X329750000Y-72150000D02*
X329750000Y-73050000D01*
X329750000Y-69750000D02*
X329750000Y-72150000D01*
X329750000Y-73050000D02*
X328150000Y-73050000D01*
X329850000Y-149100000D02*
X328250000Y-149100000D01*
X329850000Y-149050000D02*
X328250000Y-149050000D01*
X329850000Y-149000000D02*
X328250000Y-149000000D01*
X329850000Y-148950000D02*
X328250000Y-148950000D01*
X329850000Y-145950000D02*
X329850000Y-145450000D01*
X328250000Y-145950000D02*
X328250000Y-145450000D01*
X328250000Y-149250000D02*
X328250000Y-145850000D01*
X329850000Y-145450000D02*
X328250000Y-145450000D01*
X329850000Y-148350000D02*
X329850000Y-149250000D01*
X329850000Y-145950000D02*
X329850000Y-148350000D01*
X329850000Y-149250000D02*
X328250000Y-149250000D01*
X325100000Y-111200000D02*
X323500000Y-111200000D01*
X325100000Y-111150000D02*
X323500000Y-111150000D01*
X325100000Y-111100000D02*
X323500000Y-111100000D01*
X325100000Y-111050000D02*
X323500000Y-111050000D01*
X325100000Y-108050000D02*
X325100000Y-107550000D01*
X323500000Y-108050000D02*
X323500000Y-107550000D01*
X323500000Y-111350000D02*
X323500000Y-107950000D01*
X325100000Y-107550000D02*
X323500000Y-107550000D01*
X325100000Y-110450000D02*
X325100000Y-111350000D01*
X325100000Y-108050000D02*
X325100000Y-110450000D01*
X325100000Y-111350000D02*
X323500000Y-111350000D01*
X320250000Y-91950000D02*
X318650000Y-91950000D01*
X320250000Y-91900000D02*
X318650000Y-91900000D01*
X320250000Y-91850000D02*
X318650000Y-91850000D01*
X320250000Y-91800000D02*
X318650000Y-91800000D01*
X320250000Y-88800000D02*
X320250000Y-88300000D01*
X318650000Y-88800000D02*
X318650000Y-88300000D01*
X318650000Y-92100000D02*
X318650000Y-88700000D01*
X320250000Y-88300000D02*
X318650000Y-88300000D01*
X320250000Y-91200000D02*
X320250000Y-92100000D01*
X320250000Y-88800000D02*
X320250000Y-91200000D01*
X320250000Y-92100000D02*
X318650000Y-92100000D01*
X310700000Y-72800000D02*
X309100000Y-72800000D01*
X310700000Y-72750000D02*
X309100000Y-72750000D01*
X310700000Y-72700000D02*
X309100000Y-72700000D01*
X310700000Y-72650000D02*
X309100000Y-72650000D01*
X310700000Y-69650000D02*
X310700000Y-69150000D01*
X309100000Y-69650000D02*
X309100000Y-69150000D01*
X309100000Y-72950000D02*
X309100000Y-69550000D01*
X310700000Y-69150000D02*
X309100000Y-69150000D01*
X310700000Y-72050000D02*
X310700000Y-72950000D01*
X310700000Y-69650000D02*
X310700000Y-72050000D01*
X310700000Y-72950000D02*
X309100000Y-72950000D01*
X310750000Y-149050000D02*
X309150000Y-149050000D01*
X310750000Y-149000000D02*
X309150000Y-149000000D01*
X310750000Y-148950000D02*
X309150000Y-148950000D01*
X310750000Y-148900000D02*
X309150000Y-148900000D01*
X310750000Y-145900000D02*
X310750000Y-145400000D01*
X309150000Y-145900000D02*
X309150000Y-145400000D01*
X309150000Y-149200000D02*
X309150000Y-145800000D01*
X310750000Y-145400000D02*
X309150000Y-145400000D01*
X310750000Y-148300000D02*
X310750000Y-149200000D01*
X310750000Y-145900000D02*
X310750000Y-148300000D01*
X310750000Y-149200000D02*
X309150000Y-149200000D01*
X315400000Y-130000000D02*
X313800000Y-130000000D01*
X315400000Y-129950000D02*
X313800000Y-129950000D01*
X315400000Y-129900000D02*
X313800000Y-129900000D01*
X315400000Y-129850000D02*
X313800000Y-129850000D01*
X315400000Y-126850000D02*
X315400000Y-126350000D01*
X313800000Y-126850000D02*
X313800000Y-126350000D01*
X313800000Y-130150000D02*
X313800000Y-126750000D01*
X315400000Y-126350000D02*
X313800000Y-126350000D01*
X315400000Y-129250000D02*
X315400000Y-130150000D01*
X315400000Y-126850000D02*
X315400000Y-129250000D01*
X315400000Y-130150000D02*
X313800000Y-130150000D01*
X306100000Y-110900000D02*
X304500000Y-110900000D01*
X306100000Y-110850000D02*
X304500000Y-110850000D01*
X306100000Y-110800000D02*
X304500000Y-110800000D01*
X306100000Y-110750000D02*
X304500000Y-110750000D01*
X306100000Y-107750000D02*
X306100000Y-107250000D01*
X304500000Y-107750000D02*
X304500000Y-107250000D01*
X304500000Y-111050000D02*
X304500000Y-107650000D01*
X306100000Y-107250000D02*
X304500000Y-107250000D01*
X306100000Y-110150000D02*
X306100000Y-111050000D01*
X306100000Y-107750000D02*
X306100000Y-110150000D01*
X306100000Y-111050000D02*
X304500000Y-111050000D01*
X301150000Y-92000000D02*
X299550000Y-92000000D01*
X301150000Y-91950000D02*
X299550000Y-91950000D01*
X301150000Y-91900000D02*
X299550000Y-91900000D01*
X301150000Y-91850000D02*
X299550000Y-91850000D01*
X301150000Y-88850000D02*
X301150000Y-88350000D01*
X299550000Y-88850000D02*
X299550000Y-88350000D01*
X299550000Y-92150000D02*
X299550000Y-88750000D01*
X301150000Y-88350000D02*
X299550000Y-88350000D01*
X301150000Y-91250000D02*
X301150000Y-92150000D01*
X301150000Y-88850000D02*
X301150000Y-91250000D01*
X301150000Y-92150000D02*
X299550000Y-92150000D01*
X291650000Y-72900000D02*
X290050000Y-72900000D01*
X291650000Y-72850000D02*
X290050000Y-72850000D01*
X291650000Y-72800000D02*
X290050000Y-72800000D01*
X291650000Y-72750000D02*
X290050000Y-72750000D01*
X291650000Y-69750000D02*
X291650000Y-69250000D01*
X290050000Y-69750000D02*
X290050000Y-69250000D01*
X290050000Y-73050000D02*
X290050000Y-69650000D01*
X291650000Y-69250000D02*
X290050000Y-69250000D01*
X291650000Y-72150000D02*
X291650000Y-73050000D01*
X291650000Y-69750000D02*
X291650000Y-72150000D01*
X291650000Y-73050000D02*
X290050000Y-73050000D01*
X291650000Y-149050000D02*
X290050000Y-149050000D01*
X291650000Y-149000000D02*
X290050000Y-149000000D01*
X291650000Y-148950000D02*
X290050000Y-148950000D01*
X291650000Y-148900000D02*
X290050000Y-148900000D01*
X291650000Y-145900000D02*
X291650000Y-145400000D01*
X290050000Y-145900000D02*
X290050000Y-145400000D01*
X290050000Y-149200000D02*
X290050000Y-145800000D01*
X291650000Y-145400000D02*
X290050000Y-145400000D01*
X291650000Y-148300000D02*
X291650000Y-149200000D01*
X291650000Y-145900000D02*
X291650000Y-148300000D01*
X291650000Y-149200000D02*
X290050000Y-149200000D01*
X296400000Y-129950000D02*
X294800000Y-129950000D01*
X296400000Y-129900000D02*
X294800000Y-129900000D01*
X296400000Y-129850000D02*
X294800000Y-129850000D01*
X296400000Y-129800000D02*
X294800000Y-129800000D01*
X296400000Y-126800000D02*
X296400000Y-126300000D01*
X294800000Y-126800000D02*
X294800000Y-126300000D01*
X294800000Y-130100000D02*
X294800000Y-126700000D01*
X296400000Y-126300000D02*
X294800000Y-126300000D01*
X296400000Y-129200000D02*
X296400000Y-130100000D01*
X296400000Y-126800000D02*
X296400000Y-129200000D01*
X296400000Y-130100000D02*
X294800000Y-130100000D01*
X287050000Y-110950000D02*
X285450000Y-110950000D01*
X287050000Y-110900000D02*
X285450000Y-110900000D01*
X287050000Y-110850000D02*
X285450000Y-110850000D01*
X287050000Y-110800000D02*
X285450000Y-110800000D01*
X287050000Y-107800000D02*
X287050000Y-107300000D01*
X285450000Y-107800000D02*
X285450000Y-107300000D01*
X285450000Y-111100000D02*
X285450000Y-107700000D01*
X287050000Y-107300000D02*
X285450000Y-107300000D01*
X287050000Y-110200000D02*
X287050000Y-111100000D01*
X287050000Y-107800000D02*
X287050000Y-110200000D01*
X287050000Y-111100000D02*
X285450000Y-111100000D01*
X282150000Y-91950000D02*
X280550000Y-91950000D01*
X282150000Y-91900000D02*
X280550000Y-91900000D01*
X282150000Y-91850000D02*
X280550000Y-91850000D01*
X282150000Y-91800000D02*
X280550000Y-91800000D01*
X282150000Y-88800000D02*
X282150000Y-88300000D01*
X280550000Y-88800000D02*
X280550000Y-88300000D01*
X280550000Y-92100000D02*
X280550000Y-88700000D01*
X282150000Y-88300000D02*
X280550000Y-88300000D01*
X282150000Y-91200000D02*
X282150000Y-92100000D01*
X282150000Y-88800000D02*
X282150000Y-91200000D01*
X282150000Y-92100000D02*
X280550000Y-92100000D01*
X272600000Y-72850000D02*
X271000000Y-72850000D01*
X272600000Y-72800000D02*
X271000000Y-72800000D01*
X272600000Y-72750000D02*
X271000000Y-72750000D01*
X272600000Y-72700000D02*
X271000000Y-72700000D01*
X272600000Y-69700000D02*
X272600000Y-69200000D01*
X271000000Y-69700000D02*
X271000000Y-69200000D01*
X271000000Y-73000000D02*
X271000000Y-69600000D01*
X272600000Y-69200000D02*
X271000000Y-69200000D01*
X272600000Y-72100000D02*
X272600000Y-73000000D01*
X272600000Y-69700000D02*
X272600000Y-72100000D01*
X272600000Y-73000000D02*
X271000000Y-73000000D01*
X277400000Y-129750000D02*
X275800000Y-129750000D01*
X277400000Y-129700000D02*
X275800000Y-129700000D01*
X277400000Y-129650000D02*
X275800000Y-129650000D01*
X277400000Y-129600000D02*
X275800000Y-129600000D01*
X277400000Y-126600000D02*
X277400000Y-126100000D01*
X275800000Y-126600000D02*
X275800000Y-126100000D01*
X275800000Y-129900000D02*
X275800000Y-126500000D01*
X277400000Y-126100000D02*
X275800000Y-126100000D01*
X277400000Y-129000000D02*
X277400000Y-129900000D01*
X277400000Y-126600000D02*
X277400000Y-129000000D01*
X277400000Y-129900000D02*
X275800000Y-129900000D01*
X267900000Y-110850000D02*
X266300000Y-110850000D01*
X267900000Y-110800000D02*
X266300000Y-110800000D01*
X267900000Y-110750000D02*
X266300000Y-110750000D01*
X267900000Y-110700000D02*
X266300000Y-110700000D01*
X267900000Y-107700000D02*
X267900000Y-107200000D01*
X266300000Y-107700000D02*
X266300000Y-107200000D01*
X266300000Y-111000000D02*
X266300000Y-107600000D01*
X267900000Y-107200000D02*
X266300000Y-107200000D01*
X267900000Y-110100000D02*
X267900000Y-111000000D01*
X267900000Y-107700000D02*
X267900000Y-110100000D01*
X267900000Y-111000000D02*
X266300000Y-111000000D01*
X263100000Y-92000000D02*
X261500000Y-92000000D01*
X263100000Y-91950000D02*
X261500000Y-91950000D01*
X263100000Y-91900000D02*
X261500000Y-91900000D01*
X263100000Y-91850000D02*
X261500000Y-91850000D01*
X263100000Y-88850000D02*
X263100000Y-88350000D01*
X261500000Y-88850000D02*
X261500000Y-88350000D01*
X261500000Y-92150000D02*
X261500000Y-88750000D01*
X263100000Y-88350000D02*
X261500000Y-88350000D01*
X263100000Y-91250000D02*
X263100000Y-92150000D01*
X263100000Y-88850000D02*
X263100000Y-91250000D01*
X263100000Y-92150000D02*
X261500000Y-92150000D01*
X253600000Y-72900000D02*
X252000000Y-72900000D01*
X253600000Y-72850000D02*
X252000000Y-72850000D01*
X253600000Y-72800000D02*
X252000000Y-72800000D01*
X253600000Y-72750000D02*
X252000000Y-72750000D01*
X253600000Y-69750000D02*
X253600000Y-69250000D01*
X252000000Y-69750000D02*
X252000000Y-69250000D01*
X252000000Y-73050000D02*
X252000000Y-69650000D01*
X253600000Y-69250000D02*
X252000000Y-69250000D01*
X253600000Y-72150000D02*
X253600000Y-73050000D01*
X253600000Y-69750000D02*
X253600000Y-72150000D01*
X253600000Y-73050000D02*
X252000000Y-73050000D01*
X258350000Y-129950000D02*
X256750000Y-129950000D01*
X258350000Y-129900000D02*
X256750000Y-129900000D01*
X258350000Y-129850000D02*
X256750000Y-129850000D01*
X258350000Y-129800000D02*
X256750000Y-129800000D01*
X258350000Y-126800000D02*
X258350000Y-126300000D01*
X256750000Y-126800000D02*
X256750000Y-126300000D01*
X256750000Y-130100000D02*
X256750000Y-126700000D01*
X258350000Y-126300000D02*
X256750000Y-126300000D01*
X258350000Y-129200000D02*
X258350000Y-130100000D01*
X258350000Y-126800000D02*
X258350000Y-129200000D01*
X258350000Y-130100000D02*
X256750000Y-130100000D01*
X248800000Y-110900000D02*
X247200000Y-110900000D01*
X248800000Y-110850000D02*
X247200000Y-110850000D01*
X248800000Y-110800000D02*
X247200000Y-110800000D01*
X248800000Y-110750000D02*
X247200000Y-110750000D01*
X248800000Y-107750000D02*
X248800000Y-107250000D01*
X247200000Y-107750000D02*
X247200000Y-107250000D01*
X247200000Y-111050000D02*
X247200000Y-107650000D01*
X248800000Y-107250000D02*
X247200000Y-107250000D01*
X248800000Y-110150000D02*
X248800000Y-111050000D01*
X248800000Y-107750000D02*
X248800000Y-110150000D01*
X248800000Y-111050000D02*
X247200000Y-111050000D01*
X243900000Y-91850000D02*
X242300000Y-91850000D01*
X243900000Y-91800000D02*
X242300000Y-91800000D01*
X243900000Y-91750000D02*
X242300000Y-91750000D01*
X243900000Y-91700000D02*
X242300000Y-91700000D01*
X243900000Y-88700000D02*
X243900000Y-88200000D01*
X242300000Y-88700000D02*
X242300000Y-88200000D01*
X242300000Y-92000000D02*
X242300000Y-88600000D01*
X243900000Y-88200000D02*
X242300000Y-88200000D01*
X243900000Y-91100000D02*
X243900000Y-92000000D01*
X243900000Y-88700000D02*
X243900000Y-91100000D01*
X243900000Y-92000000D02*
X242300000Y-92000000D01*
X234550000Y-72850000D02*
X232950000Y-72850000D01*
X234550000Y-72800000D02*
X232950000Y-72800000D01*
X234550000Y-72750000D02*
X232950000Y-72750000D01*
X234550000Y-72700000D02*
X232950000Y-72700000D01*
X234550000Y-69700000D02*
X234550000Y-69200000D01*
X232950000Y-69700000D02*
X232950000Y-69200000D01*
X232950000Y-73000000D02*
X232950000Y-69600000D01*
X234550000Y-69200000D02*
X232950000Y-69200000D01*
X234550000Y-72100000D02*
X234550000Y-73000000D01*
X234550000Y-69700000D02*
X234550000Y-72100000D01*
X234550000Y-73000000D02*
X232950000Y-73000000D01*
X239300000Y-130050000D02*
X237700000Y-130050000D01*
X239300000Y-130000000D02*
X237700000Y-130000000D01*
X239300000Y-129950000D02*
X237700000Y-129950000D01*
X239300000Y-129900000D02*
X237700000Y-129900000D01*
X239300000Y-126900000D02*
X239300000Y-126400000D01*
X237700000Y-126900000D02*
X237700000Y-126400000D01*
X237700000Y-130200000D02*
X237700000Y-126800000D01*
X239300000Y-126400000D02*
X237700000Y-126400000D01*
X239300000Y-129300000D02*
X239300000Y-130200000D01*
X239300000Y-126900000D02*
X239300000Y-129300000D01*
X239300000Y-130200000D02*
X237700000Y-130200000D01*
X229800000Y-110750000D02*
X228200000Y-110750000D01*
X229800000Y-110700000D02*
X228200000Y-110700000D01*
X229800000Y-110650000D02*
X228200000Y-110650000D01*
X229800000Y-110600000D02*
X228200000Y-110600000D01*
X229800000Y-107600000D02*
X229800000Y-107100000D01*
X228200000Y-107600000D02*
X228200000Y-107100000D01*
X228200000Y-110900000D02*
X228200000Y-107500000D01*
X229800000Y-107100000D02*
X228200000Y-107100000D01*
X229800000Y-110000000D02*
X229800000Y-110900000D01*
X229800000Y-107600000D02*
X229800000Y-110000000D01*
X229800000Y-110900000D02*
X228200000Y-110900000D01*
X225100000Y-91950000D02*
X223500000Y-91950000D01*
X225100000Y-91900000D02*
X223500000Y-91900000D01*
X225100000Y-91850000D02*
X223500000Y-91850000D01*
X225100000Y-91800000D02*
X223500000Y-91800000D01*
X225100000Y-88800000D02*
X225100000Y-88300000D01*
X223500000Y-88800000D02*
X223500000Y-88300000D01*
X223500000Y-92100000D02*
X223500000Y-88700000D01*
X225100000Y-88300000D02*
X223500000Y-88300000D01*
X225100000Y-91200000D02*
X225100000Y-92100000D01*
X225100000Y-88800000D02*
X225100000Y-91200000D01*
X225100000Y-92100000D02*
X223500000Y-92100000D01*
X215450000Y-72850000D02*
X213850000Y-72850000D01*
X215450000Y-72800000D02*
X213850000Y-72800000D01*
X215450000Y-72750000D02*
X213850000Y-72750000D01*
X215450000Y-72700000D02*
X213850000Y-72700000D01*
X215450000Y-69700000D02*
X215450000Y-69200000D01*
X213850000Y-69700000D02*
X213850000Y-69200000D01*
X213850000Y-73000000D02*
X213850000Y-69600000D01*
X215450000Y-69200000D02*
X213850000Y-69200000D01*
X215450000Y-72100000D02*
X215450000Y-73000000D01*
X215450000Y-69700000D02*
X215450000Y-72100000D01*
X215450000Y-73000000D02*
X213850000Y-73000000D01*
X222600000Y-148900000D02*
X221000000Y-148900000D01*
X222600000Y-148850000D02*
X221000000Y-148850000D01*
X222600000Y-148800000D02*
X221000000Y-148800000D01*
X222600000Y-148750000D02*
X221000000Y-148750000D01*
X222600000Y-145750000D02*
X222600000Y-145250000D01*
X221000000Y-145750000D02*
X221000000Y-145250000D01*
X221000000Y-149050000D02*
X221000000Y-145650000D01*
X222600000Y-145250000D02*
X221000000Y-145250000D01*
X222600000Y-148150000D02*
X222600000Y-149050000D01*
X222600000Y-145750000D02*
X222600000Y-148150000D01*
X222600000Y-149050000D02*
X221000000Y-149050000D01*
X220150000Y-129700000D02*
X218550000Y-129700000D01*
X220150000Y-129650000D02*
X218550000Y-129650000D01*
X220150000Y-129600000D02*
X218550000Y-129600000D01*
X220150000Y-129550000D02*
X218550000Y-129550000D01*
X220150000Y-126550000D02*
X220150000Y-126050000D01*
X218550000Y-126550000D02*
X218550000Y-126050000D01*
X218550000Y-129850000D02*
X218550000Y-126450000D01*
X220150000Y-126050000D02*
X218550000Y-126050000D01*
X220150000Y-128950000D02*
X220150000Y-129850000D01*
X220150000Y-126550000D02*
X220150000Y-128950000D01*
X220150000Y-129850000D02*
X218550000Y-129850000D01*
X210850000Y-110950000D02*
X209250000Y-110950000D01*
X210850000Y-110900000D02*
X209250000Y-110900000D01*
X210850000Y-110850000D02*
X209250000Y-110850000D01*
X210850000Y-110800000D02*
X209250000Y-110800000D01*
X210850000Y-107800000D02*
X210850000Y-107300000D01*
X209250000Y-107800000D02*
X209250000Y-107300000D01*
X209250000Y-111100000D02*
X209250000Y-107700000D01*
X210850000Y-107300000D02*
X209250000Y-107300000D01*
X210850000Y-110200000D02*
X210850000Y-111100000D01*
X210850000Y-107800000D02*
X210850000Y-110200000D01*
X210850000Y-111100000D02*
X209250000Y-111100000D01*
X205950000Y-91950000D02*
X204350000Y-91950000D01*
X205950000Y-91900000D02*
X204350000Y-91900000D01*
X205950000Y-91850000D02*
X204350000Y-91850000D01*
X205950000Y-91800000D02*
X204350000Y-91800000D01*
X205950000Y-88800000D02*
X205950000Y-88300000D01*
X204350000Y-88800000D02*
X204350000Y-88300000D01*
X204350000Y-92100000D02*
X204350000Y-88700000D01*
X205950000Y-88300000D02*
X204350000Y-88300000D01*
X205950000Y-91200000D02*
X205950000Y-92100000D01*
X205950000Y-88800000D02*
X205950000Y-91200000D01*
X205950000Y-92100000D02*
X204350000Y-92100000D01*
X196500000Y-72950000D02*
X194900000Y-72950000D01*
X196500000Y-72900000D02*
X194900000Y-72900000D01*
X196500000Y-72850000D02*
X194900000Y-72850000D01*
X196500000Y-72800000D02*
X194900000Y-72800000D01*
X196500000Y-69800000D02*
X196500000Y-69300000D01*
X194900000Y-69800000D02*
X194900000Y-69300000D01*
X194900000Y-73100000D02*
X194900000Y-69700000D01*
X196500000Y-69300000D02*
X194900000Y-69300000D01*
X196500000Y-72200000D02*
X196500000Y-73100000D01*
X196500000Y-69800000D02*
X196500000Y-72200000D01*
X196500000Y-73100000D02*
X194900000Y-73100000D01*
X201100000Y-129950000D02*
X199500000Y-129950000D01*
X201100000Y-129900000D02*
X199500000Y-129900000D01*
X201100000Y-129850000D02*
X199500000Y-129850000D01*
X201100000Y-129800000D02*
X199500000Y-129800000D01*
X201100000Y-126800000D02*
X201100000Y-126300000D01*
X199500000Y-126800000D02*
X199500000Y-126300000D01*
X199500000Y-130100000D02*
X199500000Y-126700000D01*
X201100000Y-126300000D02*
X199500000Y-126300000D01*
X201100000Y-129200000D02*
X201100000Y-130100000D01*
X201100000Y-126800000D02*
X201100000Y-129200000D01*
X201100000Y-130100000D02*
X199500000Y-130100000D01*
X191800000Y-110900000D02*
X190200000Y-110900000D01*
X191800000Y-110850000D02*
X190200000Y-110850000D01*
X191800000Y-110800000D02*
X190200000Y-110800000D01*
X191800000Y-110750000D02*
X190200000Y-110750000D01*
X191800000Y-107750000D02*
X191800000Y-107250000D01*
X190200000Y-107750000D02*
X190200000Y-107250000D01*
X190200000Y-111050000D02*
X190200000Y-107650000D01*
X191800000Y-107250000D02*
X190200000Y-107250000D01*
X191800000Y-110150000D02*
X191800000Y-111050000D01*
X191800000Y-107750000D02*
X191800000Y-110150000D01*
X191800000Y-111050000D02*
X190200000Y-111050000D01*
X186800000Y-92000000D02*
X185200000Y-92000000D01*
X186800000Y-91950000D02*
X185200000Y-91950000D01*
X186800000Y-91900000D02*
X185200000Y-91900000D01*
X186800000Y-91850000D02*
X185200000Y-91850000D01*
X186800000Y-88850000D02*
X186800000Y-88350000D01*
X185200000Y-88850000D02*
X185200000Y-88350000D01*
X185200000Y-92150000D02*
X185200000Y-88750000D01*
X186800000Y-88350000D02*
X185200000Y-88350000D01*
X186800000Y-91250000D02*
X186800000Y-92150000D01*
X186800000Y-88850000D02*
X186800000Y-91250000D01*
X186800000Y-92150000D02*
X185200000Y-92150000D01*
X177300000Y-72950000D02*
X175700000Y-72950000D01*
X177300000Y-72900000D02*
X175700000Y-72900000D01*
X177300000Y-72850000D02*
X175700000Y-72850000D01*
X177300000Y-72800000D02*
X175700000Y-72800000D01*
X177300000Y-69800000D02*
X177300000Y-69300000D01*
X175700000Y-69800000D02*
X175700000Y-69300000D01*
X175700000Y-73100000D02*
X175700000Y-69700000D01*
X177300000Y-69300000D02*
X175700000Y-69300000D01*
X177300000Y-72200000D02*
X177300000Y-73100000D01*
X177300000Y-69800000D02*
X177300000Y-72200000D01*
X177300000Y-73100000D02*
X175700000Y-73100000D01*
X182100000Y-129950000D02*
X180500000Y-129950000D01*
X182100000Y-129900000D02*
X180500000Y-129900000D01*
X182100000Y-129850000D02*
X180500000Y-129850000D01*
X182100000Y-129800000D02*
X180500000Y-129800000D01*
X182100000Y-126800000D02*
X182100000Y-126300000D01*
X180500000Y-126800000D02*
X180500000Y-126300000D01*
X180500000Y-130100000D02*
X180500000Y-126700000D01*
X182100000Y-126300000D02*
X180500000Y-126300000D01*
X182100000Y-129200000D02*
X182100000Y-130100000D01*
X182100000Y-126800000D02*
X182100000Y-129200000D01*
X182100000Y-130100000D02*
X180500000Y-130100000D01*
X172700000Y-110950000D02*
X171100000Y-110950000D01*
X172700000Y-110900000D02*
X171100000Y-110900000D01*
X172700000Y-110850000D02*
X171100000Y-110850000D01*
X172700000Y-110800000D02*
X171100000Y-110800000D01*
X172700000Y-107800000D02*
X172700000Y-107300000D01*
X171100000Y-107800000D02*
X171100000Y-107300000D01*
X171100000Y-111100000D02*
X171100000Y-107700000D01*
X172700000Y-107300000D02*
X171100000Y-107300000D01*
X172700000Y-110200000D02*
X172700000Y-111100000D01*
X172700000Y-107800000D02*
X172700000Y-110200000D01*
X172700000Y-111100000D02*
X171100000Y-111100000D01*
X167850000Y-92050000D02*
X166250000Y-92050000D01*
X167850000Y-92000000D02*
X166250000Y-92000000D01*
X167850000Y-91950000D02*
X166250000Y-91950000D01*
X167850000Y-91900000D02*
X166250000Y-91900000D01*
X167850000Y-88900000D02*
X167850000Y-88400000D01*
X166250000Y-88900000D02*
X166250000Y-88400000D01*
X166250000Y-92200000D02*
X166250000Y-88800000D01*
X167850000Y-88400000D02*
X166250000Y-88400000D01*
X167850000Y-91300000D02*
X167850000Y-92200000D01*
X167850000Y-88900000D02*
X167850000Y-91300000D01*
X167850000Y-92200000D02*
X166250000Y-92200000D01*
X159050000Y-73300000D02*
X157450000Y-73300000D01*
X159050000Y-73250000D02*
X157450000Y-73250000D01*
X159050000Y-73200000D02*
X157450000Y-73200000D01*
X159050000Y-73150000D02*
X157450000Y-73150000D01*
X159050000Y-70150000D02*
X159050000Y-69650000D01*
X157450000Y-70150000D02*
X157450000Y-69650000D01*
X157450000Y-73450000D02*
X157450000Y-70050000D01*
X159050000Y-69650000D02*
X157450000Y-69650000D01*
X159050000Y-72550000D02*
X159050000Y-73450000D01*
X159050000Y-70150000D02*
X159050000Y-72550000D01*
X159050000Y-73450000D02*
X157450000Y-73450000D01*
X151200000Y-149050000D02*
X149600000Y-149050000D01*
X151200000Y-149000000D02*
X149600000Y-149000000D01*
X151200000Y-148950000D02*
X149600000Y-148950000D01*
X151200000Y-148900000D02*
X149600000Y-148900000D01*
X151200000Y-145900000D02*
X151200000Y-145400000D01*
X149600000Y-145900000D02*
X149600000Y-145400000D01*
X149600000Y-149200000D02*
X149600000Y-145800000D01*
X151200000Y-145400000D02*
X149600000Y-145400000D01*
X151200000Y-148300000D02*
X151200000Y-149200000D01*
X151200000Y-145900000D02*
X151200000Y-148300000D01*
X151200000Y-149200000D02*
X149600000Y-149200000D01*
X162950000Y-129800000D02*
X161350000Y-129800000D01*
X162950000Y-129750000D02*
X161350000Y-129750000D01*
X162950000Y-129700000D02*
X161350000Y-129700000D01*
X162950000Y-129650000D02*
X161350000Y-129650000D01*
X162950000Y-126650000D02*
X162950000Y-126150000D01*
X161350000Y-126650000D02*
X161350000Y-126150000D01*
X161350000Y-129950000D02*
X161350000Y-126550000D01*
X162950000Y-126150000D02*
X161350000Y-126150000D01*
X162950000Y-129050000D02*
X162950000Y-129950000D01*
X162950000Y-126650000D02*
X162950000Y-129050000D01*
X162950000Y-129950000D02*
X161350000Y-129950000D01*
X153600000Y-110900000D02*
X152000000Y-110900000D01*
X153600000Y-110850000D02*
X152000000Y-110850000D01*
X153600000Y-110800000D02*
X152000000Y-110800000D01*
X153600000Y-110750000D02*
X152000000Y-110750000D01*
X153600000Y-107750000D02*
X153600000Y-107250000D01*
X152000000Y-107750000D02*
X152000000Y-107250000D01*
X152000000Y-111050000D02*
X152000000Y-107650000D01*
X153600000Y-107250000D02*
X152000000Y-107250000D01*
X153600000Y-110150000D02*
X153600000Y-111050000D01*
X153600000Y-107750000D02*
X153600000Y-110150000D01*
X153600000Y-111050000D02*
X152000000Y-111050000D01*
X148750000Y-91750000D02*
X147150000Y-91750000D01*
X148750000Y-91700000D02*
X147150000Y-91700000D01*
X148750000Y-91650000D02*
X147150000Y-91650000D01*
X148750000Y-91600000D02*
X147150000Y-91600000D01*
X148750000Y-88600000D02*
X148750000Y-88100000D01*
X147150000Y-88600000D02*
X147150000Y-88100000D01*
X147150000Y-91900000D02*
X147150000Y-88500000D01*
X148750000Y-88100000D02*
X147150000Y-88100000D01*
X148750000Y-91000000D02*
X148750000Y-91900000D01*
X148750000Y-88600000D02*
X148750000Y-91000000D01*
X148750000Y-91900000D02*
X147150000Y-91900000D01*
X139250000Y-73000000D02*
X137650000Y-73000000D01*
X139250000Y-72950000D02*
X137650000Y-72950000D01*
X139250000Y-72900000D02*
X137650000Y-72900000D01*
X139250000Y-72850000D02*
X137650000Y-72850000D01*
X139250000Y-69850000D02*
X139250000Y-69350000D01*
X137650000Y-69850000D02*
X137650000Y-69350000D01*
X137650000Y-73150000D02*
X137650000Y-69750000D01*
X139250000Y-69350000D02*
X137650000Y-69350000D01*
X139250000Y-72250000D02*
X139250000Y-73150000D01*
X139250000Y-69850000D02*
X139250000Y-72250000D01*
X139250000Y-73150000D02*
X137650000Y-73150000D01*
X127150000Y-149050000D02*
X125550000Y-149050000D01*
X127150000Y-149000000D02*
X125550000Y-149000000D01*
X127150000Y-148950000D02*
X125550000Y-148950000D01*
X127150000Y-148900000D02*
X125550000Y-148900000D01*
X127150000Y-145900000D02*
X127150000Y-145400000D01*
X125550000Y-145900000D02*
X125550000Y-145400000D01*
X125550000Y-149200000D02*
X125550000Y-145800000D01*
X127150000Y-145400000D02*
X125550000Y-145400000D01*
X127150000Y-148300000D02*
X127150000Y-149200000D01*
X127150000Y-145900000D02*
X127150000Y-148300000D01*
X127150000Y-149200000D02*
X125550000Y-149200000D01*
X144050000Y-129900000D02*
X142450000Y-129900000D01*
X144050000Y-129850000D02*
X142450000Y-129850000D01*
X144050000Y-129800000D02*
X142450000Y-129800000D01*
X144050000Y-129750000D02*
X142450000Y-129750000D01*
X144050000Y-126750000D02*
X144050000Y-126250000D01*
X142450000Y-126750000D02*
X142450000Y-126250000D01*
X142450000Y-130050000D02*
X142450000Y-126650000D01*
X144050000Y-126250000D02*
X142450000Y-126250000D01*
X144050000Y-129150000D02*
X144050000Y-130050000D01*
X144050000Y-126750000D02*
X144050000Y-129150000D01*
X144050000Y-130050000D02*
X142450000Y-130050000D01*
X134550000Y-110850000D02*
X132950000Y-110850000D01*
X134550000Y-110800000D02*
X132950000Y-110800000D01*
X134550000Y-110750000D02*
X132950000Y-110750000D01*
X134550000Y-110700000D02*
X132950000Y-110700000D01*
X134550000Y-107700000D02*
X134550000Y-107200000D01*
X132950000Y-107700000D02*
X132950000Y-107200000D01*
X132950000Y-111000000D02*
X132950000Y-107600000D01*
X134550000Y-107200000D02*
X132950000Y-107200000D01*
X134550000Y-110100000D02*
X134550000Y-111000000D01*
X134550000Y-107700000D02*
X134550000Y-110100000D01*
X134550000Y-111000000D02*
X132950000Y-111000000D01*
X129800000Y-91950000D02*
X128200000Y-91950000D01*
X129800000Y-91900000D02*
X128200000Y-91900000D01*
X129800000Y-91850000D02*
X128200000Y-91850000D01*
X129800000Y-91800000D02*
X128200000Y-91800000D01*
X129800000Y-88800000D02*
X129800000Y-88300000D01*
X128200000Y-88800000D02*
X128200000Y-88300000D01*
X128200000Y-92100000D02*
X128200000Y-88700000D01*
X129800000Y-88300000D02*
X128200000Y-88300000D01*
X129800000Y-91200000D02*
X129800000Y-92100000D01*
X129800000Y-88800000D02*
X129800000Y-91200000D01*
X129800000Y-92100000D02*
X128200000Y-92100000D01*
X120150000Y-73050000D02*
X118550000Y-73050000D01*
X120150000Y-73000000D02*
X118550000Y-73000000D01*
X120150000Y-72950000D02*
X118550000Y-72950000D01*
X120150000Y-72900000D02*
X118550000Y-72900000D01*
X120150000Y-69900000D02*
X120150000Y-69400000D01*
X118550000Y-69900000D02*
X118550000Y-69400000D01*
X118550000Y-73200000D02*
X118550000Y-69800000D01*
X120150000Y-69400000D02*
X118550000Y-69400000D01*
X120150000Y-72300000D02*
X120150000Y-73200000D01*
X120150000Y-69900000D02*
X120150000Y-72300000D01*
X120150000Y-73200000D02*
X118550000Y-73200000D01*
X103500000Y-149000000D02*
X101900000Y-149000000D01*
X103500000Y-148950000D02*
X101900000Y-148950000D01*
X103500000Y-148900000D02*
X101900000Y-148900000D01*
X103500000Y-148850000D02*
X101900000Y-148850000D01*
X103500000Y-145850000D02*
X103500000Y-145350000D01*
X101900000Y-145850000D02*
X101900000Y-145350000D01*
X101900000Y-149150000D02*
X101900000Y-145750000D01*
X103500000Y-145350000D02*
X101900000Y-145350000D01*
X103500000Y-148250000D02*
X103500000Y-149150000D01*
X103500000Y-145850000D02*
X103500000Y-148250000D01*
X103500000Y-149150000D02*
X101900000Y-149150000D01*
X113050000Y-130100000D02*
X111450000Y-130100000D01*
X113050000Y-130050000D02*
X111450000Y-130050000D01*
X113050000Y-130000000D02*
X111450000Y-130000000D01*
X113050000Y-129950000D02*
X111450000Y-129950000D01*
X113050000Y-126950000D02*
X113050000Y-126450000D01*
X111450000Y-126950000D02*
X111450000Y-126450000D01*
X111450000Y-130250000D02*
X111450000Y-126850000D01*
X113050000Y-126450000D02*
X111450000Y-126450000D01*
X113050000Y-129350000D02*
X113050000Y-130250000D01*
X113050000Y-126950000D02*
X113050000Y-129350000D01*
X113050000Y-130250000D02*
X111450000Y-130250000D01*
X108200000Y-110750000D02*
X106600000Y-110750000D01*
X108200000Y-110700000D02*
X106600000Y-110700000D01*
X108200000Y-110650000D02*
X106600000Y-110650000D01*
X108200000Y-110600000D02*
X106600000Y-110600000D01*
X108200000Y-107600000D02*
X108200000Y-107100000D01*
X106600000Y-107600000D02*
X106600000Y-107100000D01*
X106600000Y-110900000D02*
X106600000Y-107500000D01*
X108200000Y-107100000D02*
X106600000Y-107100000D01*
X108200000Y-110000000D02*
X108200000Y-110900000D01*
X108200000Y-107600000D02*
X108200000Y-110000000D01*
X108200000Y-110900000D02*
X106600000Y-110900000D01*
X106000000Y-91750000D02*
X104400000Y-91750000D01*
X106000000Y-91700000D02*
X104400000Y-91700000D01*
X106000000Y-91650000D02*
X104400000Y-91650000D01*
X106000000Y-91600000D02*
X104400000Y-91600000D01*
X106000000Y-88600000D02*
X106000000Y-88100000D01*
X104400000Y-88600000D02*
X104400000Y-88100000D01*
X104400000Y-91900000D02*
X104400000Y-88500000D01*
X106000000Y-88100000D02*
X104400000Y-88100000D01*
X106000000Y-91000000D02*
X106000000Y-91900000D01*
X106000000Y-88600000D02*
X106000000Y-91000000D01*
X106000000Y-91900000D02*
X104400000Y-91900000D01*
X100950000Y-73100000D02*
X99350000Y-73100000D01*
X100950000Y-73050000D02*
X99350000Y-73050000D01*
X100950000Y-73000000D02*
X99350000Y-73000000D01*
X100950000Y-72950000D02*
X99350000Y-72950000D01*
X100950000Y-69950000D02*
X100950000Y-69450000D01*
X99350000Y-69950000D02*
X99350000Y-69450000D01*
X99350000Y-73250000D02*
X99350000Y-69850000D01*
X100950000Y-69450000D02*
X99350000Y-69450000D01*
X100950000Y-72350000D02*
X100950000Y-73250000D01*
X100950000Y-69950000D02*
X100950000Y-72350000D01*
X100950000Y-73250000D02*
X99350000Y-73250000D01*
D12*
X57183333Y-105204761D02*
X57040476Y-105252380D01*
X56802380Y-105252380D01*
X56707142Y-105204761D01*
X56659523Y-105157142D01*
X56611904Y-105061904D01*
X56611904Y-104966666D01*
X56659523Y-104871428D01*
X56707142Y-104823809D01*
X56802380Y-104776190D01*
X56992857Y-104728571D01*
X57088095Y-104680952D01*
X57135714Y-104633333D01*
X57183333Y-104538095D01*
X57183333Y-104442857D01*
X57135714Y-104347619D01*
X57088095Y-104300000D01*
X56992857Y-104252380D01*
X56754761Y-104252380D01*
X56611904Y-104300000D01*
X56278571Y-104252380D02*
X56040476Y-105252380D01*
X55850000Y-104538095D01*
X55659523Y-105252380D01*
X55421428Y-104252380D01*
X55088095Y-104347619D02*
X55040476Y-104300000D01*
X54945238Y-104252380D01*
X54707142Y-104252380D01*
X54611904Y-104300000D01*
X54564285Y-104347619D01*
X54516666Y-104442857D01*
X54516666Y-104538095D01*
X54564285Y-104680952D01*
X55135714Y-105252380D01*
X54516666Y-105252380D01*
X57133333Y-116504761D02*
X56990476Y-116552380D01*
X56752380Y-116552380D01*
X56657142Y-116504761D01*
X56609523Y-116457142D01*
X56561904Y-116361904D01*
X56561904Y-116266666D01*
X56609523Y-116171428D01*
X56657142Y-116123809D01*
X56752380Y-116076190D01*
X56942857Y-116028571D01*
X57038095Y-115980952D01*
X57085714Y-115933333D01*
X57133333Y-115838095D01*
X57133333Y-115742857D01*
X57085714Y-115647619D01*
X57038095Y-115600000D01*
X56942857Y-115552380D01*
X56704761Y-115552380D01*
X56561904Y-115600000D01*
X56228571Y-115552380D02*
X55990476Y-116552380D01*
X55800000Y-115838095D01*
X55609523Y-116552380D01*
X55371428Y-115552380D01*
X54466666Y-116552380D02*
X55038095Y-116552380D01*
X54752380Y-116552380D02*
X54752380Y-115552380D01*
X54847619Y-115695238D01*
X54942857Y-115790476D01*
X55038095Y-115838095D01*
X74759523Y-121811904D02*
X74759523Y-121011904D01*
X74569047Y-121011904D01*
X74454761Y-121050000D01*
X74378571Y-121126190D01*
X74340476Y-121202380D01*
X74302380Y-121354761D01*
X74302380Y-121469047D01*
X74340476Y-121621428D01*
X74378571Y-121697619D01*
X74454761Y-121773809D01*
X74569047Y-121811904D01*
X74759523Y-121811904D01*
X72361904Y-83890476D02*
X71561904Y-83890476D01*
X71561904Y-84080952D01*
X71600000Y-84195238D01*
X71676190Y-84271428D01*
X71752380Y-84309523D01*
X71904761Y-84347619D01*
X72019047Y-84347619D01*
X72171428Y-84309523D01*
X72247619Y-84271428D01*
X72323809Y-84195238D01*
X72361904Y-84080952D01*
X72361904Y-83890476D01*
X384761904Y-146690476D02*
X383961904Y-146690476D01*
X383961904Y-146880952D01*
X384000000Y-146995238D01*
X384076190Y-147071428D01*
X384152380Y-147109523D01*
X384304761Y-147147619D01*
X384419047Y-147147619D01*
X384571428Y-147109523D01*
X384647619Y-147071428D01*
X384723809Y-146995238D01*
X384761904Y-146880952D01*
X384761904Y-146690476D01*
X384711904Y-127690476D02*
X383911904Y-127690476D01*
X383911904Y-127880952D01*
X383950000Y-127995238D01*
X384026190Y-128071428D01*
X384102380Y-128109523D01*
X384254761Y-128147619D01*
X384369047Y-128147619D01*
X384521428Y-128109523D01*
X384597619Y-128071428D01*
X384673809Y-127995238D01*
X384711904Y-127880952D01*
X384711904Y-127690476D01*
X384761904Y-108690476D02*
X383961904Y-108690476D01*
X383961904Y-108880952D01*
X384000000Y-108995238D01*
X384076190Y-109071428D01*
X384152380Y-109109523D01*
X384304761Y-109147619D01*
X384419047Y-109147619D01*
X384571428Y-109109523D01*
X384647619Y-109071428D01*
X384723809Y-108995238D01*
X384761904Y-108880952D01*
X384761904Y-108690476D01*
X384661904Y-89840476D02*
X383861904Y-89840476D01*
X383861904Y-90030952D01*
X383900000Y-90145238D01*
X383976190Y-90221428D01*
X384052380Y-90259523D01*
X384204761Y-90297619D01*
X384319047Y-90297619D01*
X384471428Y-90259523D01*
X384547619Y-90221428D01*
X384623809Y-90145238D01*
X384661904Y-90030952D01*
X384661904Y-89840476D01*
X384761904Y-70840476D02*
X383961904Y-70840476D01*
X383961904Y-71030952D01*
X384000000Y-71145238D01*
X384076190Y-71221428D01*
X384152380Y-71259523D01*
X384304761Y-71297619D01*
X384419047Y-71297619D01*
X384571428Y-71259523D01*
X384647619Y-71221428D01*
X384723809Y-71145238D01*
X384761904Y-71030952D01*
X384761904Y-70840476D01*
X365511904Y-146640476D02*
X364711904Y-146640476D01*
X364711904Y-146830952D01*
X364750000Y-146945238D01*
X364826190Y-147021428D01*
X364902380Y-147059523D01*
X365054761Y-147097619D01*
X365169047Y-147097619D01*
X365321428Y-147059523D01*
X365397619Y-147021428D01*
X365473809Y-146945238D01*
X365511904Y-146830952D01*
X365511904Y-146640476D01*
X365511904Y-127690476D02*
X364711904Y-127690476D01*
X364711904Y-127880952D01*
X364750000Y-127995238D01*
X364826190Y-128071428D01*
X364902380Y-128109523D01*
X365054761Y-128147619D01*
X365169047Y-128147619D01*
X365321428Y-128109523D01*
X365397619Y-128071428D01*
X365473809Y-127995238D01*
X365511904Y-127880952D01*
X365511904Y-127690476D01*
X353761904Y-108840476D02*
X352961904Y-108840476D01*
X352961904Y-109030952D01*
X353000000Y-109145238D01*
X353076190Y-109221428D01*
X353152380Y-109259523D01*
X353304761Y-109297619D01*
X353419047Y-109297619D01*
X353571428Y-109259523D01*
X353647619Y-109221428D01*
X353723809Y-109145238D01*
X353761904Y-109030952D01*
X353761904Y-108840476D01*
X360811904Y-89890476D02*
X360011904Y-89890476D01*
X360011904Y-90080952D01*
X360050000Y-90195238D01*
X360126190Y-90271428D01*
X360202380Y-90309523D01*
X360354761Y-90347619D01*
X360469047Y-90347619D01*
X360621428Y-90309523D01*
X360697619Y-90271428D01*
X360773809Y-90195238D01*
X360811904Y-90080952D01*
X360811904Y-89890476D01*
X356011904Y-70740476D02*
X355211904Y-70740476D01*
X355211904Y-70930952D01*
X355250000Y-71045238D01*
X355326190Y-71121428D01*
X355402380Y-71159523D01*
X355554761Y-71197619D01*
X355669047Y-71197619D01*
X355821428Y-71159523D01*
X355897619Y-71121428D01*
X355973809Y-71045238D01*
X356011904Y-70930952D01*
X356011904Y-70740476D01*
X346511904Y-146940476D02*
X345711904Y-146940476D01*
X345711904Y-147130952D01*
X345750000Y-147245238D01*
X345826190Y-147321428D01*
X345902380Y-147359523D01*
X346054761Y-147397619D01*
X346169047Y-147397619D01*
X346321428Y-147359523D01*
X346397619Y-147321428D01*
X346473809Y-147245238D01*
X346511904Y-147130952D01*
X346511904Y-146940476D01*
X339411904Y-127790476D02*
X338611904Y-127790476D01*
X338611904Y-127980952D01*
X338650000Y-128095238D01*
X338726190Y-128171428D01*
X338802380Y-128209523D01*
X338954761Y-128247619D01*
X339069047Y-128247619D01*
X339221428Y-128209523D01*
X339297619Y-128171428D01*
X339373809Y-128095238D01*
X339411904Y-127980952D01*
X339411904Y-127790476D01*
X337111904Y-89890476D02*
X336311904Y-89890476D01*
X336311904Y-90080952D01*
X336350000Y-90195238D01*
X336426190Y-90271428D01*
X336502380Y-90309523D01*
X336654761Y-90347619D01*
X336769047Y-90347619D01*
X336921428Y-90309523D01*
X336997619Y-90271428D01*
X337073809Y-90195238D01*
X337111904Y-90080952D01*
X337111904Y-89890476D01*
X327511904Y-70740476D02*
X326711904Y-70740476D01*
X326711904Y-70930952D01*
X326750000Y-71045238D01*
X326826190Y-71121428D01*
X326902380Y-71159523D01*
X327054761Y-71197619D01*
X327169047Y-71197619D01*
X327321428Y-71159523D01*
X327397619Y-71121428D01*
X327473809Y-71045238D01*
X327511904Y-70930952D01*
X327511904Y-70740476D01*
X327611904Y-146940476D02*
X326811904Y-146940476D01*
X326811904Y-147130952D01*
X326850000Y-147245238D01*
X326926190Y-147321428D01*
X327002380Y-147359523D01*
X327154761Y-147397619D01*
X327269047Y-147397619D01*
X327421428Y-147359523D01*
X327497619Y-147321428D01*
X327573809Y-147245238D01*
X327611904Y-147130952D01*
X327611904Y-146940476D01*
X322861904Y-109040476D02*
X322061904Y-109040476D01*
X322061904Y-109230952D01*
X322100000Y-109345238D01*
X322176190Y-109421428D01*
X322252380Y-109459523D01*
X322404761Y-109497619D01*
X322519047Y-109497619D01*
X322671428Y-109459523D01*
X322747619Y-109421428D01*
X322823809Y-109345238D01*
X322861904Y-109230952D01*
X322861904Y-109040476D01*
X318011904Y-89790476D02*
X317211904Y-89790476D01*
X317211904Y-89980952D01*
X317250000Y-90095238D01*
X317326190Y-90171428D01*
X317402380Y-90209523D01*
X317554761Y-90247619D01*
X317669047Y-90247619D01*
X317821428Y-90209523D01*
X317897619Y-90171428D01*
X317973809Y-90095238D01*
X318011904Y-89980952D01*
X318011904Y-89790476D01*
X308461904Y-70640476D02*
X307661904Y-70640476D01*
X307661904Y-70830952D01*
X307700000Y-70945238D01*
X307776190Y-71021428D01*
X307852380Y-71059523D01*
X308004761Y-71097619D01*
X308119047Y-71097619D01*
X308271428Y-71059523D01*
X308347619Y-71021428D01*
X308423809Y-70945238D01*
X308461904Y-70830952D01*
X308461904Y-70640476D01*
X308511904Y-146890476D02*
X307711904Y-146890476D01*
X307711904Y-147080952D01*
X307750000Y-147195238D01*
X307826190Y-147271428D01*
X307902380Y-147309523D01*
X308054761Y-147347619D01*
X308169047Y-147347619D01*
X308321428Y-147309523D01*
X308397619Y-147271428D01*
X308473809Y-147195238D01*
X308511904Y-147080952D01*
X308511904Y-146890476D01*
X313161904Y-127840476D02*
X312361904Y-127840476D01*
X312361904Y-128030952D01*
X312400000Y-128145238D01*
X312476190Y-128221428D01*
X312552380Y-128259523D01*
X312704761Y-128297619D01*
X312819047Y-128297619D01*
X312971428Y-128259523D01*
X313047619Y-128221428D01*
X313123809Y-128145238D01*
X313161904Y-128030952D01*
X313161904Y-127840476D01*
X303861904Y-108740476D02*
X303061904Y-108740476D01*
X303061904Y-108930952D01*
X303100000Y-109045238D01*
X303176190Y-109121428D01*
X303252380Y-109159523D01*
X303404761Y-109197619D01*
X303519047Y-109197619D01*
X303671428Y-109159523D01*
X303747619Y-109121428D01*
X303823809Y-109045238D01*
X303861904Y-108930952D01*
X303861904Y-108740476D01*
X298911904Y-89840476D02*
X298111904Y-89840476D01*
X298111904Y-90030952D01*
X298150000Y-90145238D01*
X298226190Y-90221428D01*
X298302380Y-90259523D01*
X298454761Y-90297619D01*
X298569047Y-90297619D01*
X298721428Y-90259523D01*
X298797619Y-90221428D01*
X298873809Y-90145238D01*
X298911904Y-90030952D01*
X298911904Y-89840476D01*
X289411904Y-70740476D02*
X288611904Y-70740476D01*
X288611904Y-70930952D01*
X288650000Y-71045238D01*
X288726190Y-71121428D01*
X288802380Y-71159523D01*
X288954761Y-71197619D01*
X289069047Y-71197619D01*
X289221428Y-71159523D01*
X289297619Y-71121428D01*
X289373809Y-71045238D01*
X289411904Y-70930952D01*
X289411904Y-70740476D01*
X289411904Y-146890476D02*
X288611904Y-146890476D01*
X288611904Y-147080952D01*
X288650000Y-147195238D01*
X288726190Y-147271428D01*
X288802380Y-147309523D01*
X288954761Y-147347619D01*
X289069047Y-147347619D01*
X289221428Y-147309523D01*
X289297619Y-147271428D01*
X289373809Y-147195238D01*
X289411904Y-147080952D01*
X289411904Y-146890476D01*
X294161904Y-127790476D02*
X293361904Y-127790476D01*
X293361904Y-127980952D01*
X293400000Y-128095238D01*
X293476190Y-128171428D01*
X293552380Y-128209523D01*
X293704761Y-128247619D01*
X293819047Y-128247619D01*
X293971428Y-128209523D01*
X294047619Y-128171428D01*
X294123809Y-128095238D01*
X294161904Y-127980952D01*
X294161904Y-127790476D01*
X284811904Y-108790476D02*
X284011904Y-108790476D01*
X284011904Y-108980952D01*
X284050000Y-109095238D01*
X284126190Y-109171428D01*
X284202380Y-109209523D01*
X284354761Y-109247619D01*
X284469047Y-109247619D01*
X284621428Y-109209523D01*
X284697619Y-109171428D01*
X284773809Y-109095238D01*
X284811904Y-108980952D01*
X284811904Y-108790476D01*
X279911904Y-89790476D02*
X279111904Y-89790476D01*
X279111904Y-89980952D01*
X279150000Y-90095238D01*
X279226190Y-90171428D01*
X279302380Y-90209523D01*
X279454761Y-90247619D01*
X279569047Y-90247619D01*
X279721428Y-90209523D01*
X279797619Y-90171428D01*
X279873809Y-90095238D01*
X279911904Y-89980952D01*
X279911904Y-89790476D01*
X270361904Y-70690476D02*
X269561904Y-70690476D01*
X269561904Y-70880952D01*
X269600000Y-70995238D01*
X269676190Y-71071428D01*
X269752380Y-71109523D01*
X269904761Y-71147619D01*
X270019047Y-71147619D01*
X270171428Y-71109523D01*
X270247619Y-71071428D01*
X270323809Y-70995238D01*
X270361904Y-70880952D01*
X270361904Y-70690476D01*
X275161904Y-127590476D02*
X274361904Y-127590476D01*
X274361904Y-127780952D01*
X274400000Y-127895238D01*
X274476190Y-127971428D01*
X274552380Y-128009523D01*
X274704761Y-128047619D01*
X274819047Y-128047619D01*
X274971428Y-128009523D01*
X275047619Y-127971428D01*
X275123809Y-127895238D01*
X275161904Y-127780952D01*
X275161904Y-127590476D01*
X265661904Y-108690476D02*
X264861904Y-108690476D01*
X264861904Y-108880952D01*
X264900000Y-108995238D01*
X264976190Y-109071428D01*
X265052380Y-109109523D01*
X265204761Y-109147619D01*
X265319047Y-109147619D01*
X265471428Y-109109523D01*
X265547619Y-109071428D01*
X265623809Y-108995238D01*
X265661904Y-108880952D01*
X265661904Y-108690476D01*
X260861904Y-89840476D02*
X260061904Y-89840476D01*
X260061904Y-90030952D01*
X260100000Y-90145238D01*
X260176190Y-90221428D01*
X260252380Y-90259523D01*
X260404761Y-90297619D01*
X260519047Y-90297619D01*
X260671428Y-90259523D01*
X260747619Y-90221428D01*
X260823809Y-90145238D01*
X260861904Y-90030952D01*
X260861904Y-89840476D01*
X251361904Y-70740476D02*
X250561904Y-70740476D01*
X250561904Y-70930952D01*
X250600000Y-71045238D01*
X250676190Y-71121428D01*
X250752380Y-71159523D01*
X250904761Y-71197619D01*
X251019047Y-71197619D01*
X251171428Y-71159523D01*
X251247619Y-71121428D01*
X251323809Y-71045238D01*
X251361904Y-70930952D01*
X251361904Y-70740476D01*
X256111904Y-127790476D02*
X255311904Y-127790476D01*
X255311904Y-127980952D01*
X255350000Y-128095238D01*
X255426190Y-128171428D01*
X255502380Y-128209523D01*
X255654761Y-128247619D01*
X255769047Y-128247619D01*
X255921428Y-128209523D01*
X255997619Y-128171428D01*
X256073809Y-128095238D01*
X256111904Y-127980952D01*
X256111904Y-127790476D01*
X246561904Y-108740476D02*
X245761904Y-108740476D01*
X245761904Y-108930952D01*
X245800000Y-109045238D01*
X245876190Y-109121428D01*
X245952380Y-109159523D01*
X246104761Y-109197619D01*
X246219047Y-109197619D01*
X246371428Y-109159523D01*
X246447619Y-109121428D01*
X246523809Y-109045238D01*
X246561904Y-108930952D01*
X246561904Y-108740476D01*
X241661904Y-89690476D02*
X240861904Y-89690476D01*
X240861904Y-89880952D01*
X240900000Y-89995238D01*
X240976190Y-90071428D01*
X241052380Y-90109523D01*
X241204761Y-90147619D01*
X241319047Y-90147619D01*
X241471428Y-90109523D01*
X241547619Y-90071428D01*
X241623809Y-89995238D01*
X241661904Y-89880952D01*
X241661904Y-89690476D01*
X232311904Y-70690476D02*
X231511904Y-70690476D01*
X231511904Y-70880952D01*
X231550000Y-70995238D01*
X231626190Y-71071428D01*
X231702380Y-71109523D01*
X231854761Y-71147619D01*
X231969047Y-71147619D01*
X232121428Y-71109523D01*
X232197619Y-71071428D01*
X232273809Y-70995238D01*
X232311904Y-70880952D01*
X232311904Y-70690476D01*
X237061904Y-127890476D02*
X236261904Y-127890476D01*
X236261904Y-128080952D01*
X236300000Y-128195238D01*
X236376190Y-128271428D01*
X236452380Y-128309523D01*
X236604761Y-128347619D01*
X236719047Y-128347619D01*
X236871428Y-128309523D01*
X236947619Y-128271428D01*
X237023809Y-128195238D01*
X237061904Y-128080952D01*
X237061904Y-127890476D01*
X227561904Y-108590476D02*
X226761904Y-108590476D01*
X226761904Y-108780952D01*
X226800000Y-108895238D01*
X226876190Y-108971428D01*
X226952380Y-109009523D01*
X227104761Y-109047619D01*
X227219047Y-109047619D01*
X227371428Y-109009523D01*
X227447619Y-108971428D01*
X227523809Y-108895238D01*
X227561904Y-108780952D01*
X227561904Y-108590476D01*
X222861904Y-89790476D02*
X222061904Y-89790476D01*
X222061904Y-89980952D01*
X222100000Y-90095238D01*
X222176190Y-90171428D01*
X222252380Y-90209523D01*
X222404761Y-90247619D01*
X222519047Y-90247619D01*
X222671428Y-90209523D01*
X222747619Y-90171428D01*
X222823809Y-90095238D01*
X222861904Y-89980952D01*
X222861904Y-89790476D01*
X213211904Y-70690476D02*
X212411904Y-70690476D01*
X212411904Y-70880952D01*
X212450000Y-70995238D01*
X212526190Y-71071428D01*
X212602380Y-71109523D01*
X212754761Y-71147619D01*
X212869047Y-71147619D01*
X213021428Y-71109523D01*
X213097619Y-71071428D01*
X213173809Y-70995238D01*
X213211904Y-70880952D01*
X213211904Y-70690476D01*
X220361904Y-146740476D02*
X219561904Y-146740476D01*
X219561904Y-146930952D01*
X219600000Y-147045238D01*
X219676190Y-147121428D01*
X219752380Y-147159523D01*
X219904761Y-147197619D01*
X220019047Y-147197619D01*
X220171428Y-147159523D01*
X220247619Y-147121428D01*
X220323809Y-147045238D01*
X220361904Y-146930952D01*
X220361904Y-146740476D01*
X217911904Y-127540476D02*
X217111904Y-127540476D01*
X217111904Y-127730952D01*
X217150000Y-127845238D01*
X217226190Y-127921428D01*
X217302380Y-127959523D01*
X217454761Y-127997619D01*
X217569047Y-127997619D01*
X217721428Y-127959523D01*
X217797619Y-127921428D01*
X217873809Y-127845238D01*
X217911904Y-127730952D01*
X217911904Y-127540476D01*
X208611904Y-108790476D02*
X207811904Y-108790476D01*
X207811904Y-108980952D01*
X207850000Y-109095238D01*
X207926190Y-109171428D01*
X208002380Y-109209523D01*
X208154761Y-109247619D01*
X208269047Y-109247619D01*
X208421428Y-109209523D01*
X208497619Y-109171428D01*
X208573809Y-109095238D01*
X208611904Y-108980952D01*
X208611904Y-108790476D01*
X203711904Y-89790476D02*
X202911904Y-89790476D01*
X202911904Y-89980952D01*
X202950000Y-90095238D01*
X203026190Y-90171428D01*
X203102380Y-90209523D01*
X203254761Y-90247619D01*
X203369047Y-90247619D01*
X203521428Y-90209523D01*
X203597619Y-90171428D01*
X203673809Y-90095238D01*
X203711904Y-89980952D01*
X203711904Y-89790476D01*
X194261904Y-70790476D02*
X193461904Y-70790476D01*
X193461904Y-70980952D01*
X193500000Y-71095238D01*
X193576190Y-71171428D01*
X193652380Y-71209523D01*
X193804761Y-71247619D01*
X193919047Y-71247619D01*
X194071428Y-71209523D01*
X194147619Y-71171428D01*
X194223809Y-71095238D01*
X194261904Y-70980952D01*
X194261904Y-70790476D01*
X198861904Y-127790476D02*
X198061904Y-127790476D01*
X198061904Y-127980952D01*
X198100000Y-128095238D01*
X198176190Y-128171428D01*
X198252380Y-128209523D01*
X198404761Y-128247619D01*
X198519047Y-128247619D01*
X198671428Y-128209523D01*
X198747619Y-128171428D01*
X198823809Y-128095238D01*
X198861904Y-127980952D01*
X198861904Y-127790476D01*
X189561904Y-108740476D02*
X188761904Y-108740476D01*
X188761904Y-108930952D01*
X188800000Y-109045238D01*
X188876190Y-109121428D01*
X188952380Y-109159523D01*
X189104761Y-109197619D01*
X189219047Y-109197619D01*
X189371428Y-109159523D01*
X189447619Y-109121428D01*
X189523809Y-109045238D01*
X189561904Y-108930952D01*
X189561904Y-108740476D01*
X184561904Y-89840476D02*
X183761904Y-89840476D01*
X183761904Y-90030952D01*
X183800000Y-90145238D01*
X183876190Y-90221428D01*
X183952380Y-90259523D01*
X184104761Y-90297619D01*
X184219047Y-90297619D01*
X184371428Y-90259523D01*
X184447619Y-90221428D01*
X184523809Y-90145238D01*
X184561904Y-90030952D01*
X184561904Y-89840476D01*
X175061904Y-70790476D02*
X174261904Y-70790476D01*
X174261904Y-70980952D01*
X174300000Y-71095238D01*
X174376190Y-71171428D01*
X174452380Y-71209523D01*
X174604761Y-71247619D01*
X174719047Y-71247619D01*
X174871428Y-71209523D01*
X174947619Y-71171428D01*
X175023809Y-71095238D01*
X175061904Y-70980952D01*
X175061904Y-70790476D01*
X179861904Y-127790476D02*
X179061904Y-127790476D01*
X179061904Y-127980952D01*
X179100000Y-128095238D01*
X179176190Y-128171428D01*
X179252380Y-128209523D01*
X179404761Y-128247619D01*
X179519047Y-128247619D01*
X179671428Y-128209523D01*
X179747619Y-128171428D01*
X179823809Y-128095238D01*
X179861904Y-127980952D01*
X179861904Y-127790476D01*
X170461904Y-108790476D02*
X169661904Y-108790476D01*
X169661904Y-108980952D01*
X169700000Y-109095238D01*
X169776190Y-109171428D01*
X169852380Y-109209523D01*
X170004761Y-109247619D01*
X170119047Y-109247619D01*
X170271428Y-109209523D01*
X170347619Y-109171428D01*
X170423809Y-109095238D01*
X170461904Y-108980952D01*
X170461904Y-108790476D01*
X165611904Y-89890476D02*
X164811904Y-89890476D01*
X164811904Y-90080952D01*
X164850000Y-90195238D01*
X164926190Y-90271428D01*
X165002380Y-90309523D01*
X165154761Y-90347619D01*
X165269047Y-90347619D01*
X165421428Y-90309523D01*
X165497619Y-90271428D01*
X165573809Y-90195238D01*
X165611904Y-90080952D01*
X165611904Y-89890476D01*
X156811904Y-71140476D02*
X156011904Y-71140476D01*
X156011904Y-71330952D01*
X156050000Y-71445238D01*
X156126190Y-71521428D01*
X156202380Y-71559523D01*
X156354761Y-71597619D01*
X156469047Y-71597619D01*
X156621428Y-71559523D01*
X156697619Y-71521428D01*
X156773809Y-71445238D01*
X156811904Y-71330952D01*
X156811904Y-71140476D01*
X148961904Y-146890476D02*
X148161904Y-146890476D01*
X148161904Y-147080952D01*
X148200000Y-147195238D01*
X148276190Y-147271428D01*
X148352380Y-147309523D01*
X148504761Y-147347619D01*
X148619047Y-147347619D01*
X148771428Y-147309523D01*
X148847619Y-147271428D01*
X148923809Y-147195238D01*
X148961904Y-147080952D01*
X148961904Y-146890476D01*
X160711904Y-127640476D02*
X159911904Y-127640476D01*
X159911904Y-127830952D01*
X159950000Y-127945238D01*
X160026190Y-128021428D01*
X160102380Y-128059523D01*
X160254761Y-128097619D01*
X160369047Y-128097619D01*
X160521428Y-128059523D01*
X160597619Y-128021428D01*
X160673809Y-127945238D01*
X160711904Y-127830952D01*
X160711904Y-127640476D01*
X151361904Y-108740476D02*
X150561904Y-108740476D01*
X150561904Y-108930952D01*
X150600000Y-109045238D01*
X150676190Y-109121428D01*
X150752380Y-109159523D01*
X150904761Y-109197619D01*
X151019047Y-109197619D01*
X151171428Y-109159523D01*
X151247619Y-109121428D01*
X151323809Y-109045238D01*
X151361904Y-108930952D01*
X151361904Y-108740476D01*
X146511904Y-89590476D02*
X145711904Y-89590476D01*
X145711904Y-89780952D01*
X145750000Y-89895238D01*
X145826190Y-89971428D01*
X145902380Y-90009523D01*
X146054761Y-90047619D01*
X146169047Y-90047619D01*
X146321428Y-90009523D01*
X146397619Y-89971428D01*
X146473809Y-89895238D01*
X146511904Y-89780952D01*
X146511904Y-89590476D01*
X137011904Y-70840476D02*
X136211904Y-70840476D01*
X136211904Y-71030952D01*
X136250000Y-71145238D01*
X136326190Y-71221428D01*
X136402380Y-71259523D01*
X136554761Y-71297619D01*
X136669047Y-71297619D01*
X136821428Y-71259523D01*
X136897619Y-71221428D01*
X136973809Y-71145238D01*
X137011904Y-71030952D01*
X137011904Y-70840476D01*
X124911904Y-146890476D02*
X124111904Y-146890476D01*
X124111904Y-147080952D01*
X124150000Y-147195238D01*
X124226190Y-147271428D01*
X124302380Y-147309523D01*
X124454761Y-147347619D01*
X124569047Y-147347619D01*
X124721428Y-147309523D01*
X124797619Y-147271428D01*
X124873809Y-147195238D01*
X124911904Y-147080952D01*
X124911904Y-146890476D01*
X141811904Y-127740476D02*
X141011904Y-127740476D01*
X141011904Y-127930952D01*
X141050000Y-128045238D01*
X141126190Y-128121428D01*
X141202380Y-128159523D01*
X141354761Y-128197619D01*
X141469047Y-128197619D01*
X141621428Y-128159523D01*
X141697619Y-128121428D01*
X141773809Y-128045238D01*
X141811904Y-127930952D01*
X141811904Y-127740476D01*
X132311904Y-108690476D02*
X131511904Y-108690476D01*
X131511904Y-108880952D01*
X131550000Y-108995238D01*
X131626190Y-109071428D01*
X131702380Y-109109523D01*
X131854761Y-109147619D01*
X131969047Y-109147619D01*
X132121428Y-109109523D01*
X132197619Y-109071428D01*
X132273809Y-108995238D01*
X132311904Y-108880952D01*
X132311904Y-108690476D01*
X127561904Y-89790476D02*
X126761904Y-89790476D01*
X126761904Y-89980952D01*
X126800000Y-90095238D01*
X126876190Y-90171428D01*
X126952380Y-90209523D01*
X127104761Y-90247619D01*
X127219047Y-90247619D01*
X127371428Y-90209523D01*
X127447619Y-90171428D01*
X127523809Y-90095238D01*
X127561904Y-89980952D01*
X127561904Y-89790476D01*
X117911904Y-70890476D02*
X117111904Y-70890476D01*
X117111904Y-71080952D01*
X117150000Y-71195238D01*
X117226190Y-71271428D01*
X117302380Y-71309523D01*
X117454761Y-71347619D01*
X117569047Y-71347619D01*
X117721428Y-71309523D01*
X117797619Y-71271428D01*
X117873809Y-71195238D01*
X117911904Y-71080952D01*
X117911904Y-70890476D01*
X101261904Y-146840476D02*
X100461904Y-146840476D01*
X100461904Y-147030952D01*
X100500000Y-147145238D01*
X100576190Y-147221428D01*
X100652380Y-147259523D01*
X100804761Y-147297619D01*
X100919047Y-147297619D01*
X101071428Y-147259523D01*
X101147619Y-147221428D01*
X101223809Y-147145238D01*
X101261904Y-147030952D01*
X101261904Y-146840476D01*
X110811904Y-127940476D02*
X110011904Y-127940476D01*
X110011904Y-128130952D01*
X110050000Y-128245238D01*
X110126190Y-128321428D01*
X110202380Y-128359523D01*
X110354761Y-128397619D01*
X110469047Y-128397619D01*
X110621428Y-128359523D01*
X110697619Y-128321428D01*
X110773809Y-128245238D01*
X110811904Y-128130952D01*
X110811904Y-127940476D01*
X105961904Y-108590476D02*
X105161904Y-108590476D01*
X105161904Y-108780952D01*
X105200000Y-108895238D01*
X105276190Y-108971428D01*
X105352380Y-109009523D01*
X105504761Y-109047619D01*
X105619047Y-109047619D01*
X105771428Y-109009523D01*
X105847619Y-108971428D01*
X105923809Y-108895238D01*
X105961904Y-108780952D01*
X105961904Y-108590476D01*
X103761904Y-89590476D02*
X102961904Y-89590476D01*
X102961904Y-89780952D01*
X103000000Y-89895238D01*
X103076190Y-89971428D01*
X103152380Y-90009523D01*
X103304761Y-90047619D01*
X103419047Y-90047619D01*
X103571428Y-90009523D01*
X103647619Y-89971428D01*
X103723809Y-89895238D01*
X103761904Y-89780952D01*
X103761904Y-89590476D01*
X98711904Y-70940476D02*
X97911904Y-70940476D01*
X97911904Y-71130952D01*
X97950000Y-71245238D01*
X98026190Y-71321428D01*
X98102380Y-71359523D01*
X98254761Y-71397619D01*
X98369047Y-71397619D01*
X98521428Y-71359523D01*
X98597619Y-71321428D01*
X98673809Y-71245238D01*
X98711904Y-71130952D01*
X98711904Y-70940476D01*
M02*
