M48
; DRILL file {KiCad (5.1.0)-1} date 21-Aug-20 01:31:32
; FORMAT={-:-/ absolute / metric / decimal}
; #@! TF.CreationDate,2020-08-21T01:31:32+01:00
; #@! TF.GenerationSoftware,Kicad,Pcbnew,(5.1.0)-1
; #@! TF.FileFunction,NonPlated,1,2,NPTH
FMAT,2
METRIC
T1C2.200
T2C4.000
%
G90
G05
T1
X237.65Y-82.3
X376.8Y-85.4
X356.65Y-121.35
X66.25Y-70.9
X89.35Y-140.3
X237.6Y-139.65
T2
X228.06Y-85.54
X142.36Y-66.49
X361.41Y-66.49
X225.66Y-142.69
X185.21Y-123.64
X309.06Y-104.59
X194.76Y-104.59
X147.11Y-123.64
X390.01Y-142.69
X323.31Y-85.54
X247.11Y-85.54
X161.41Y-66.49
X318.56Y-123.64
X213.81Y-104.59
X116.16Y-123.64
X370.96Y-123.64
X275.71Y-66.49
X256.66Y-66.49
X111.41Y-104.59
X344.76Y-123.64
X280.46Y-123.64
X370.96Y-142.69
X270.96Y-104.59
X389.96Y-85.54
X218.56Y-66.49
X109.01Y-85.53
X223.31Y-123.64
X166.16Y-123.64
X304.26Y-85.54
X189.96Y-85.54
X156.66Y-104.59
X342.36Y-85.54
X261.41Y-123.64
X132.81Y-85.54
X390.01Y-123.64
X294.76Y-66.49
X104.26Y-66.49
X199.51Y-66.49
X180.46Y-66.49
X359.06Y-104.59
X328.11Y-104.59
X232.86Y-104.59
X175.71Y-104.59
X332.86Y-66.48
X313.81Y-66.49
X366.16Y-85.54
X251.91Y-104.59
X130.41Y-142.69
X266.16Y-85.54
X137.61Y-104.59
X290.01Y-104.59
X351.86Y-142.69
X204.26Y-123.64
X154.21Y-142.69
X299.51Y-123.64
X237.61Y-66.49
X170.91Y-85.54
X313.76Y-142.68
X209.01Y-85.54
X123.31Y-66.49
X390.01Y-66.48
X285.21Y-85.54
X242.36Y-123.64
X106.61Y-142.69
X390.01Y-104.59
X294.71Y-142.69
X151.86Y-85.54
X332.81Y-142.69
T0
M30
