G04 #@! TF.GenerationSoftware,KiCad,Pcbnew,(5.1.0)-1*
G04 #@! TF.CreationDate,2020-08-21T01:29:19+01:00*
G04 #@! TF.ProjectId,marcoboard,6d617263-6f62-46f6-9172-642e6b696361,rev?*
G04 #@! TF.SameCoordinates,Original*
G04 #@! TF.FileFunction,Paste,Top*
G04 #@! TF.FilePolarity,Positive*
%FSLAX46Y46*%
G04 Gerber Fmt 4.6, Leading zero omitted, Abs format (unit mm)*
G04 Created by KiCad (PCBNEW (5.1.0)-1) date 2020-08-21 01:29:19*
%MOMM*%
%LPD*%
G04 APERTURE LIST*
%ADD10R,1.060000X0.650000*%
%ADD11C,0.100000*%
%ADD12C,0.875000*%
G04 APERTURE END LIST*
D10*
X85150000Y-70900000D03*
X85150000Y-71850000D03*
X85150000Y-69950000D03*
X87350000Y-69950000D03*
X87350000Y-70900000D03*
X87350000Y-71850000D03*
D11*
G36*
X46477691Y-119338553D02*
G01*
X46498926Y-119341703D01*
X46519750Y-119346919D01*
X46539962Y-119354151D01*
X46559368Y-119363330D01*
X46577781Y-119374366D01*
X46595024Y-119387154D01*
X46610930Y-119401570D01*
X46625346Y-119417476D01*
X46638134Y-119434719D01*
X46649170Y-119453132D01*
X46658349Y-119472538D01*
X46665581Y-119492750D01*
X46670797Y-119513574D01*
X46673947Y-119534809D01*
X46675000Y-119556250D01*
X46675000Y-119993750D01*
X46673947Y-120015191D01*
X46670797Y-120036426D01*
X46665581Y-120057250D01*
X46658349Y-120077462D01*
X46649170Y-120096868D01*
X46638134Y-120115281D01*
X46625346Y-120132524D01*
X46610930Y-120148430D01*
X46595024Y-120162846D01*
X46577781Y-120175634D01*
X46559368Y-120186670D01*
X46539962Y-120195849D01*
X46519750Y-120203081D01*
X46498926Y-120208297D01*
X46477691Y-120211447D01*
X46456250Y-120212500D01*
X45943750Y-120212500D01*
X45922309Y-120211447D01*
X45901074Y-120208297D01*
X45880250Y-120203081D01*
X45860038Y-120195849D01*
X45840632Y-120186670D01*
X45822219Y-120175634D01*
X45804976Y-120162846D01*
X45789070Y-120148430D01*
X45774654Y-120132524D01*
X45761866Y-120115281D01*
X45750830Y-120096868D01*
X45741651Y-120077462D01*
X45734419Y-120057250D01*
X45729203Y-120036426D01*
X45726053Y-120015191D01*
X45725000Y-119993750D01*
X45725000Y-119556250D01*
X45726053Y-119534809D01*
X45729203Y-119513574D01*
X45734419Y-119492750D01*
X45741651Y-119472538D01*
X45750830Y-119453132D01*
X45761866Y-119434719D01*
X45774654Y-119417476D01*
X45789070Y-119401570D01*
X45804976Y-119387154D01*
X45822219Y-119374366D01*
X45840632Y-119363330D01*
X45860038Y-119354151D01*
X45880250Y-119346919D01*
X45901074Y-119341703D01*
X45922309Y-119338553D01*
X45943750Y-119337500D01*
X46456250Y-119337500D01*
X46477691Y-119338553D01*
X46477691Y-119338553D01*
G37*
D12*
X46200000Y-119775000D03*
D11*
G36*
X46477691Y-117763553D02*
G01*
X46498926Y-117766703D01*
X46519750Y-117771919D01*
X46539962Y-117779151D01*
X46559368Y-117788330D01*
X46577781Y-117799366D01*
X46595024Y-117812154D01*
X46610930Y-117826570D01*
X46625346Y-117842476D01*
X46638134Y-117859719D01*
X46649170Y-117878132D01*
X46658349Y-117897538D01*
X46665581Y-117917750D01*
X46670797Y-117938574D01*
X46673947Y-117959809D01*
X46675000Y-117981250D01*
X46675000Y-118418750D01*
X46673947Y-118440191D01*
X46670797Y-118461426D01*
X46665581Y-118482250D01*
X46658349Y-118502462D01*
X46649170Y-118521868D01*
X46638134Y-118540281D01*
X46625346Y-118557524D01*
X46610930Y-118573430D01*
X46595024Y-118587846D01*
X46577781Y-118600634D01*
X46559368Y-118611670D01*
X46539962Y-118620849D01*
X46519750Y-118628081D01*
X46498926Y-118633297D01*
X46477691Y-118636447D01*
X46456250Y-118637500D01*
X45943750Y-118637500D01*
X45922309Y-118636447D01*
X45901074Y-118633297D01*
X45880250Y-118628081D01*
X45860038Y-118620849D01*
X45840632Y-118611670D01*
X45822219Y-118600634D01*
X45804976Y-118587846D01*
X45789070Y-118573430D01*
X45774654Y-118557524D01*
X45761866Y-118540281D01*
X45750830Y-118521868D01*
X45741651Y-118502462D01*
X45734419Y-118482250D01*
X45729203Y-118461426D01*
X45726053Y-118440191D01*
X45725000Y-118418750D01*
X45725000Y-117981250D01*
X45726053Y-117959809D01*
X45729203Y-117938574D01*
X45734419Y-117917750D01*
X45741651Y-117897538D01*
X45750830Y-117878132D01*
X45761866Y-117859719D01*
X45774654Y-117842476D01*
X45789070Y-117826570D01*
X45804976Y-117812154D01*
X45822219Y-117799366D01*
X45840632Y-117788330D01*
X45860038Y-117779151D01*
X45880250Y-117771919D01*
X45901074Y-117766703D01*
X45922309Y-117763553D01*
X45943750Y-117762500D01*
X46456250Y-117762500D01*
X46477691Y-117763553D01*
X46477691Y-117763553D01*
G37*
D12*
X46200000Y-118200000D03*
D11*
G36*
X50077691Y-119188553D02*
G01*
X50098926Y-119191703D01*
X50119750Y-119196919D01*
X50139962Y-119204151D01*
X50159368Y-119213330D01*
X50177781Y-119224366D01*
X50195024Y-119237154D01*
X50210930Y-119251570D01*
X50225346Y-119267476D01*
X50238134Y-119284719D01*
X50249170Y-119303132D01*
X50258349Y-119322538D01*
X50265581Y-119342750D01*
X50270797Y-119363574D01*
X50273947Y-119384809D01*
X50275000Y-119406250D01*
X50275000Y-119843750D01*
X50273947Y-119865191D01*
X50270797Y-119886426D01*
X50265581Y-119907250D01*
X50258349Y-119927462D01*
X50249170Y-119946868D01*
X50238134Y-119965281D01*
X50225346Y-119982524D01*
X50210930Y-119998430D01*
X50195024Y-120012846D01*
X50177781Y-120025634D01*
X50159368Y-120036670D01*
X50139962Y-120045849D01*
X50119750Y-120053081D01*
X50098926Y-120058297D01*
X50077691Y-120061447D01*
X50056250Y-120062500D01*
X49543750Y-120062500D01*
X49522309Y-120061447D01*
X49501074Y-120058297D01*
X49480250Y-120053081D01*
X49460038Y-120045849D01*
X49440632Y-120036670D01*
X49422219Y-120025634D01*
X49404976Y-120012846D01*
X49389070Y-119998430D01*
X49374654Y-119982524D01*
X49361866Y-119965281D01*
X49350830Y-119946868D01*
X49341651Y-119927462D01*
X49334419Y-119907250D01*
X49329203Y-119886426D01*
X49326053Y-119865191D01*
X49325000Y-119843750D01*
X49325000Y-119406250D01*
X49326053Y-119384809D01*
X49329203Y-119363574D01*
X49334419Y-119342750D01*
X49341651Y-119322538D01*
X49350830Y-119303132D01*
X49361866Y-119284719D01*
X49374654Y-119267476D01*
X49389070Y-119251570D01*
X49404976Y-119237154D01*
X49422219Y-119224366D01*
X49440632Y-119213330D01*
X49460038Y-119204151D01*
X49480250Y-119196919D01*
X49501074Y-119191703D01*
X49522309Y-119188553D01*
X49543750Y-119187500D01*
X50056250Y-119187500D01*
X50077691Y-119188553D01*
X50077691Y-119188553D01*
G37*
D12*
X49800000Y-119625000D03*
D11*
G36*
X50077691Y-117613553D02*
G01*
X50098926Y-117616703D01*
X50119750Y-117621919D01*
X50139962Y-117629151D01*
X50159368Y-117638330D01*
X50177781Y-117649366D01*
X50195024Y-117662154D01*
X50210930Y-117676570D01*
X50225346Y-117692476D01*
X50238134Y-117709719D01*
X50249170Y-117728132D01*
X50258349Y-117747538D01*
X50265581Y-117767750D01*
X50270797Y-117788574D01*
X50273947Y-117809809D01*
X50275000Y-117831250D01*
X50275000Y-118268750D01*
X50273947Y-118290191D01*
X50270797Y-118311426D01*
X50265581Y-118332250D01*
X50258349Y-118352462D01*
X50249170Y-118371868D01*
X50238134Y-118390281D01*
X50225346Y-118407524D01*
X50210930Y-118423430D01*
X50195024Y-118437846D01*
X50177781Y-118450634D01*
X50159368Y-118461670D01*
X50139962Y-118470849D01*
X50119750Y-118478081D01*
X50098926Y-118483297D01*
X50077691Y-118486447D01*
X50056250Y-118487500D01*
X49543750Y-118487500D01*
X49522309Y-118486447D01*
X49501074Y-118483297D01*
X49480250Y-118478081D01*
X49460038Y-118470849D01*
X49440632Y-118461670D01*
X49422219Y-118450634D01*
X49404976Y-118437846D01*
X49389070Y-118423430D01*
X49374654Y-118407524D01*
X49361866Y-118390281D01*
X49350830Y-118371868D01*
X49341651Y-118352462D01*
X49334419Y-118332250D01*
X49329203Y-118311426D01*
X49326053Y-118290191D01*
X49325000Y-118268750D01*
X49325000Y-117831250D01*
X49326053Y-117809809D01*
X49329203Y-117788574D01*
X49334419Y-117767750D01*
X49341651Y-117747538D01*
X49350830Y-117728132D01*
X49361866Y-117709719D01*
X49374654Y-117692476D01*
X49389070Y-117676570D01*
X49404976Y-117662154D01*
X49422219Y-117649366D01*
X49440632Y-117638330D01*
X49460038Y-117629151D01*
X49480250Y-117621919D01*
X49501074Y-117616703D01*
X49522309Y-117613553D01*
X49543750Y-117612500D01*
X50056250Y-117612500D01*
X50077691Y-117613553D01*
X50077691Y-117613553D01*
G37*
D12*
X49800000Y-118050000D03*
D11*
G36*
X90740191Y-68426053D02*
G01*
X90761426Y-68429203D01*
X90782250Y-68434419D01*
X90802462Y-68441651D01*
X90821868Y-68450830D01*
X90840281Y-68461866D01*
X90857524Y-68474654D01*
X90873430Y-68489070D01*
X90887846Y-68504976D01*
X90900634Y-68522219D01*
X90911670Y-68540632D01*
X90920849Y-68560038D01*
X90928081Y-68580250D01*
X90933297Y-68601074D01*
X90936447Y-68622309D01*
X90937500Y-68643750D01*
X90937500Y-69156250D01*
X90936447Y-69177691D01*
X90933297Y-69198926D01*
X90928081Y-69219750D01*
X90920849Y-69239962D01*
X90911670Y-69259368D01*
X90900634Y-69277781D01*
X90887846Y-69295024D01*
X90873430Y-69310930D01*
X90857524Y-69325346D01*
X90840281Y-69338134D01*
X90821868Y-69349170D01*
X90802462Y-69358349D01*
X90782250Y-69365581D01*
X90761426Y-69370797D01*
X90740191Y-69373947D01*
X90718750Y-69375000D01*
X90281250Y-69375000D01*
X90259809Y-69373947D01*
X90238574Y-69370797D01*
X90217750Y-69365581D01*
X90197538Y-69358349D01*
X90178132Y-69349170D01*
X90159719Y-69338134D01*
X90142476Y-69325346D01*
X90126570Y-69310930D01*
X90112154Y-69295024D01*
X90099366Y-69277781D01*
X90088330Y-69259368D01*
X90079151Y-69239962D01*
X90071919Y-69219750D01*
X90066703Y-69198926D01*
X90063553Y-69177691D01*
X90062500Y-69156250D01*
X90062500Y-68643750D01*
X90063553Y-68622309D01*
X90066703Y-68601074D01*
X90071919Y-68580250D01*
X90079151Y-68560038D01*
X90088330Y-68540632D01*
X90099366Y-68522219D01*
X90112154Y-68504976D01*
X90126570Y-68489070D01*
X90142476Y-68474654D01*
X90159719Y-68461866D01*
X90178132Y-68450830D01*
X90197538Y-68441651D01*
X90217750Y-68434419D01*
X90238574Y-68429203D01*
X90259809Y-68426053D01*
X90281250Y-68425000D01*
X90718750Y-68425000D01*
X90740191Y-68426053D01*
X90740191Y-68426053D01*
G37*
D12*
X90500000Y-68900000D03*
D11*
G36*
X92315191Y-68426053D02*
G01*
X92336426Y-68429203D01*
X92357250Y-68434419D01*
X92377462Y-68441651D01*
X92396868Y-68450830D01*
X92415281Y-68461866D01*
X92432524Y-68474654D01*
X92448430Y-68489070D01*
X92462846Y-68504976D01*
X92475634Y-68522219D01*
X92486670Y-68540632D01*
X92495849Y-68560038D01*
X92503081Y-68580250D01*
X92508297Y-68601074D01*
X92511447Y-68622309D01*
X92512500Y-68643750D01*
X92512500Y-69156250D01*
X92511447Y-69177691D01*
X92508297Y-69198926D01*
X92503081Y-69219750D01*
X92495849Y-69239962D01*
X92486670Y-69259368D01*
X92475634Y-69277781D01*
X92462846Y-69295024D01*
X92448430Y-69310930D01*
X92432524Y-69325346D01*
X92415281Y-69338134D01*
X92396868Y-69349170D01*
X92377462Y-69358349D01*
X92357250Y-69365581D01*
X92336426Y-69370797D01*
X92315191Y-69373947D01*
X92293750Y-69375000D01*
X91856250Y-69375000D01*
X91834809Y-69373947D01*
X91813574Y-69370797D01*
X91792750Y-69365581D01*
X91772538Y-69358349D01*
X91753132Y-69349170D01*
X91734719Y-69338134D01*
X91717476Y-69325346D01*
X91701570Y-69310930D01*
X91687154Y-69295024D01*
X91674366Y-69277781D01*
X91663330Y-69259368D01*
X91654151Y-69239962D01*
X91646919Y-69219750D01*
X91641703Y-69198926D01*
X91638553Y-69177691D01*
X91637500Y-69156250D01*
X91637500Y-68643750D01*
X91638553Y-68622309D01*
X91641703Y-68601074D01*
X91646919Y-68580250D01*
X91654151Y-68560038D01*
X91663330Y-68540632D01*
X91674366Y-68522219D01*
X91687154Y-68504976D01*
X91701570Y-68489070D01*
X91717476Y-68474654D01*
X91734719Y-68461866D01*
X91753132Y-68450830D01*
X91772538Y-68441651D01*
X91792750Y-68434419D01*
X91813574Y-68429203D01*
X91834809Y-68426053D01*
X91856250Y-68425000D01*
X92293750Y-68425000D01*
X92315191Y-68426053D01*
X92315191Y-68426053D01*
G37*
D12*
X92075000Y-68900000D03*
D11*
G36*
X90740191Y-72076053D02*
G01*
X90761426Y-72079203D01*
X90782250Y-72084419D01*
X90802462Y-72091651D01*
X90821868Y-72100830D01*
X90840281Y-72111866D01*
X90857524Y-72124654D01*
X90873430Y-72139070D01*
X90887846Y-72154976D01*
X90900634Y-72172219D01*
X90911670Y-72190632D01*
X90920849Y-72210038D01*
X90928081Y-72230250D01*
X90933297Y-72251074D01*
X90936447Y-72272309D01*
X90937500Y-72293750D01*
X90937500Y-72806250D01*
X90936447Y-72827691D01*
X90933297Y-72848926D01*
X90928081Y-72869750D01*
X90920849Y-72889962D01*
X90911670Y-72909368D01*
X90900634Y-72927781D01*
X90887846Y-72945024D01*
X90873430Y-72960930D01*
X90857524Y-72975346D01*
X90840281Y-72988134D01*
X90821868Y-72999170D01*
X90802462Y-73008349D01*
X90782250Y-73015581D01*
X90761426Y-73020797D01*
X90740191Y-73023947D01*
X90718750Y-73025000D01*
X90281250Y-73025000D01*
X90259809Y-73023947D01*
X90238574Y-73020797D01*
X90217750Y-73015581D01*
X90197538Y-73008349D01*
X90178132Y-72999170D01*
X90159719Y-72988134D01*
X90142476Y-72975346D01*
X90126570Y-72960930D01*
X90112154Y-72945024D01*
X90099366Y-72927781D01*
X90088330Y-72909368D01*
X90079151Y-72889962D01*
X90071919Y-72869750D01*
X90066703Y-72848926D01*
X90063553Y-72827691D01*
X90062500Y-72806250D01*
X90062500Y-72293750D01*
X90063553Y-72272309D01*
X90066703Y-72251074D01*
X90071919Y-72230250D01*
X90079151Y-72210038D01*
X90088330Y-72190632D01*
X90099366Y-72172219D01*
X90112154Y-72154976D01*
X90126570Y-72139070D01*
X90142476Y-72124654D01*
X90159719Y-72111866D01*
X90178132Y-72100830D01*
X90197538Y-72091651D01*
X90217750Y-72084419D01*
X90238574Y-72079203D01*
X90259809Y-72076053D01*
X90281250Y-72075000D01*
X90718750Y-72075000D01*
X90740191Y-72076053D01*
X90740191Y-72076053D01*
G37*
D12*
X90500000Y-72550000D03*
D11*
G36*
X92315191Y-72076053D02*
G01*
X92336426Y-72079203D01*
X92357250Y-72084419D01*
X92377462Y-72091651D01*
X92396868Y-72100830D01*
X92415281Y-72111866D01*
X92432524Y-72124654D01*
X92448430Y-72139070D01*
X92462846Y-72154976D01*
X92475634Y-72172219D01*
X92486670Y-72190632D01*
X92495849Y-72210038D01*
X92503081Y-72230250D01*
X92508297Y-72251074D01*
X92511447Y-72272309D01*
X92512500Y-72293750D01*
X92512500Y-72806250D01*
X92511447Y-72827691D01*
X92508297Y-72848926D01*
X92503081Y-72869750D01*
X92495849Y-72889962D01*
X92486670Y-72909368D01*
X92475634Y-72927781D01*
X92462846Y-72945024D01*
X92448430Y-72960930D01*
X92432524Y-72975346D01*
X92415281Y-72988134D01*
X92396868Y-72999170D01*
X92377462Y-73008349D01*
X92357250Y-73015581D01*
X92336426Y-73020797D01*
X92315191Y-73023947D01*
X92293750Y-73025000D01*
X91856250Y-73025000D01*
X91834809Y-73023947D01*
X91813574Y-73020797D01*
X91792750Y-73015581D01*
X91772538Y-73008349D01*
X91753132Y-72999170D01*
X91734719Y-72988134D01*
X91717476Y-72975346D01*
X91701570Y-72960930D01*
X91687154Y-72945024D01*
X91674366Y-72927781D01*
X91663330Y-72909368D01*
X91654151Y-72889962D01*
X91646919Y-72869750D01*
X91641703Y-72848926D01*
X91638553Y-72827691D01*
X91637500Y-72806250D01*
X91637500Y-72293750D01*
X91638553Y-72272309D01*
X91641703Y-72251074D01*
X91646919Y-72230250D01*
X91654151Y-72210038D01*
X91663330Y-72190632D01*
X91674366Y-72172219D01*
X91687154Y-72154976D01*
X91701570Y-72139070D01*
X91717476Y-72124654D01*
X91734719Y-72111866D01*
X91753132Y-72100830D01*
X91772538Y-72091651D01*
X91792750Y-72084419D01*
X91813574Y-72079203D01*
X91834809Y-72076053D01*
X91856250Y-72075000D01*
X92293750Y-72075000D01*
X92315191Y-72076053D01*
X92315191Y-72076053D01*
G37*
D12*
X92075000Y-72550000D03*
D11*
G36*
X95827691Y-61063553D02*
G01*
X95848926Y-61066703D01*
X95869750Y-61071919D01*
X95889962Y-61079151D01*
X95909368Y-61088330D01*
X95927781Y-61099366D01*
X95945024Y-61112154D01*
X95960930Y-61126570D01*
X95975346Y-61142476D01*
X95988134Y-61159719D01*
X95999170Y-61178132D01*
X96008349Y-61197538D01*
X96015581Y-61217750D01*
X96020797Y-61238574D01*
X96023947Y-61259809D01*
X96025000Y-61281250D01*
X96025000Y-61718750D01*
X96023947Y-61740191D01*
X96020797Y-61761426D01*
X96015581Y-61782250D01*
X96008349Y-61802462D01*
X95999170Y-61821868D01*
X95988134Y-61840281D01*
X95975346Y-61857524D01*
X95960930Y-61873430D01*
X95945024Y-61887846D01*
X95927781Y-61900634D01*
X95909368Y-61911670D01*
X95889962Y-61920849D01*
X95869750Y-61928081D01*
X95848926Y-61933297D01*
X95827691Y-61936447D01*
X95806250Y-61937500D01*
X95293750Y-61937500D01*
X95272309Y-61936447D01*
X95251074Y-61933297D01*
X95230250Y-61928081D01*
X95210038Y-61920849D01*
X95190632Y-61911670D01*
X95172219Y-61900634D01*
X95154976Y-61887846D01*
X95139070Y-61873430D01*
X95124654Y-61857524D01*
X95111866Y-61840281D01*
X95100830Y-61821868D01*
X95091651Y-61802462D01*
X95084419Y-61782250D01*
X95079203Y-61761426D01*
X95076053Y-61740191D01*
X95075000Y-61718750D01*
X95075000Y-61281250D01*
X95076053Y-61259809D01*
X95079203Y-61238574D01*
X95084419Y-61217750D01*
X95091651Y-61197538D01*
X95100830Y-61178132D01*
X95111866Y-61159719D01*
X95124654Y-61142476D01*
X95139070Y-61126570D01*
X95154976Y-61112154D01*
X95172219Y-61099366D01*
X95190632Y-61088330D01*
X95210038Y-61079151D01*
X95230250Y-61071919D01*
X95251074Y-61066703D01*
X95272309Y-61063553D01*
X95293750Y-61062500D01*
X95806250Y-61062500D01*
X95827691Y-61063553D01*
X95827691Y-61063553D01*
G37*
D12*
X95550000Y-61500000D03*
D11*
G36*
X95827691Y-62638553D02*
G01*
X95848926Y-62641703D01*
X95869750Y-62646919D01*
X95889962Y-62654151D01*
X95909368Y-62663330D01*
X95927781Y-62674366D01*
X95945024Y-62687154D01*
X95960930Y-62701570D01*
X95975346Y-62717476D01*
X95988134Y-62734719D01*
X95999170Y-62753132D01*
X96008349Y-62772538D01*
X96015581Y-62792750D01*
X96020797Y-62813574D01*
X96023947Y-62834809D01*
X96025000Y-62856250D01*
X96025000Y-63293750D01*
X96023947Y-63315191D01*
X96020797Y-63336426D01*
X96015581Y-63357250D01*
X96008349Y-63377462D01*
X95999170Y-63396868D01*
X95988134Y-63415281D01*
X95975346Y-63432524D01*
X95960930Y-63448430D01*
X95945024Y-63462846D01*
X95927781Y-63475634D01*
X95909368Y-63486670D01*
X95889962Y-63495849D01*
X95869750Y-63503081D01*
X95848926Y-63508297D01*
X95827691Y-63511447D01*
X95806250Y-63512500D01*
X95293750Y-63512500D01*
X95272309Y-63511447D01*
X95251074Y-63508297D01*
X95230250Y-63503081D01*
X95210038Y-63495849D01*
X95190632Y-63486670D01*
X95172219Y-63475634D01*
X95154976Y-63462846D01*
X95139070Y-63448430D01*
X95124654Y-63432524D01*
X95111866Y-63415281D01*
X95100830Y-63396868D01*
X95091651Y-63377462D01*
X95084419Y-63357250D01*
X95079203Y-63336426D01*
X95076053Y-63315191D01*
X95075000Y-63293750D01*
X95075000Y-62856250D01*
X95076053Y-62834809D01*
X95079203Y-62813574D01*
X95084419Y-62792750D01*
X95091651Y-62772538D01*
X95100830Y-62753132D01*
X95111866Y-62734719D01*
X95124654Y-62717476D01*
X95139070Y-62701570D01*
X95154976Y-62687154D01*
X95172219Y-62674366D01*
X95190632Y-62663330D01*
X95210038Y-62654151D01*
X95230250Y-62646919D01*
X95251074Y-62641703D01*
X95272309Y-62638553D01*
X95293750Y-62637500D01*
X95806250Y-62637500D01*
X95827691Y-62638553D01*
X95827691Y-62638553D01*
G37*
D12*
X95550000Y-63075000D03*
D11*
G36*
X93177691Y-62638553D02*
G01*
X93198926Y-62641703D01*
X93219750Y-62646919D01*
X93239962Y-62654151D01*
X93259368Y-62663330D01*
X93277781Y-62674366D01*
X93295024Y-62687154D01*
X93310930Y-62701570D01*
X93325346Y-62717476D01*
X93338134Y-62734719D01*
X93349170Y-62753132D01*
X93358349Y-62772538D01*
X93365581Y-62792750D01*
X93370797Y-62813574D01*
X93373947Y-62834809D01*
X93375000Y-62856250D01*
X93375000Y-63293750D01*
X93373947Y-63315191D01*
X93370797Y-63336426D01*
X93365581Y-63357250D01*
X93358349Y-63377462D01*
X93349170Y-63396868D01*
X93338134Y-63415281D01*
X93325346Y-63432524D01*
X93310930Y-63448430D01*
X93295024Y-63462846D01*
X93277781Y-63475634D01*
X93259368Y-63486670D01*
X93239962Y-63495849D01*
X93219750Y-63503081D01*
X93198926Y-63508297D01*
X93177691Y-63511447D01*
X93156250Y-63512500D01*
X92643750Y-63512500D01*
X92622309Y-63511447D01*
X92601074Y-63508297D01*
X92580250Y-63503081D01*
X92560038Y-63495849D01*
X92540632Y-63486670D01*
X92522219Y-63475634D01*
X92504976Y-63462846D01*
X92489070Y-63448430D01*
X92474654Y-63432524D01*
X92461866Y-63415281D01*
X92450830Y-63396868D01*
X92441651Y-63377462D01*
X92434419Y-63357250D01*
X92429203Y-63336426D01*
X92426053Y-63315191D01*
X92425000Y-63293750D01*
X92425000Y-62856250D01*
X92426053Y-62834809D01*
X92429203Y-62813574D01*
X92434419Y-62792750D01*
X92441651Y-62772538D01*
X92450830Y-62753132D01*
X92461866Y-62734719D01*
X92474654Y-62717476D01*
X92489070Y-62701570D01*
X92504976Y-62687154D01*
X92522219Y-62674366D01*
X92540632Y-62663330D01*
X92560038Y-62654151D01*
X92580250Y-62646919D01*
X92601074Y-62641703D01*
X92622309Y-62638553D01*
X92643750Y-62637500D01*
X93156250Y-62637500D01*
X93177691Y-62638553D01*
X93177691Y-62638553D01*
G37*
D12*
X92900000Y-63075000D03*
D11*
G36*
X93177691Y-61063553D02*
G01*
X93198926Y-61066703D01*
X93219750Y-61071919D01*
X93239962Y-61079151D01*
X93259368Y-61088330D01*
X93277781Y-61099366D01*
X93295024Y-61112154D01*
X93310930Y-61126570D01*
X93325346Y-61142476D01*
X93338134Y-61159719D01*
X93349170Y-61178132D01*
X93358349Y-61197538D01*
X93365581Y-61217750D01*
X93370797Y-61238574D01*
X93373947Y-61259809D01*
X93375000Y-61281250D01*
X93375000Y-61718750D01*
X93373947Y-61740191D01*
X93370797Y-61761426D01*
X93365581Y-61782250D01*
X93358349Y-61802462D01*
X93349170Y-61821868D01*
X93338134Y-61840281D01*
X93325346Y-61857524D01*
X93310930Y-61873430D01*
X93295024Y-61887846D01*
X93277781Y-61900634D01*
X93259368Y-61911670D01*
X93239962Y-61920849D01*
X93219750Y-61928081D01*
X93198926Y-61933297D01*
X93177691Y-61936447D01*
X93156250Y-61937500D01*
X92643750Y-61937500D01*
X92622309Y-61936447D01*
X92601074Y-61933297D01*
X92580250Y-61928081D01*
X92560038Y-61920849D01*
X92540632Y-61911670D01*
X92522219Y-61900634D01*
X92504976Y-61887846D01*
X92489070Y-61873430D01*
X92474654Y-61857524D01*
X92461866Y-61840281D01*
X92450830Y-61821868D01*
X92441651Y-61802462D01*
X92434419Y-61782250D01*
X92429203Y-61761426D01*
X92426053Y-61740191D01*
X92425000Y-61718750D01*
X92425000Y-61281250D01*
X92426053Y-61259809D01*
X92429203Y-61238574D01*
X92434419Y-61217750D01*
X92441651Y-61197538D01*
X92450830Y-61178132D01*
X92461866Y-61159719D01*
X92474654Y-61142476D01*
X92489070Y-61126570D01*
X92504976Y-61112154D01*
X92522219Y-61099366D01*
X92540632Y-61088330D01*
X92560038Y-61079151D01*
X92580250Y-61071919D01*
X92601074Y-61066703D01*
X92622309Y-61063553D01*
X92643750Y-61062500D01*
X93156250Y-61062500D01*
X93177691Y-61063553D01*
X93177691Y-61063553D01*
G37*
D12*
X92900000Y-61500000D03*
D11*
G36*
X62127691Y-108763553D02*
G01*
X62148926Y-108766703D01*
X62169750Y-108771919D01*
X62189962Y-108779151D01*
X62209368Y-108788330D01*
X62227781Y-108799366D01*
X62245024Y-108812154D01*
X62260930Y-108826570D01*
X62275346Y-108842476D01*
X62288134Y-108859719D01*
X62299170Y-108878132D01*
X62308349Y-108897538D01*
X62315581Y-108917750D01*
X62320797Y-108938574D01*
X62323947Y-108959809D01*
X62325000Y-108981250D01*
X62325000Y-109418750D01*
X62323947Y-109440191D01*
X62320797Y-109461426D01*
X62315581Y-109482250D01*
X62308349Y-109502462D01*
X62299170Y-109521868D01*
X62288134Y-109540281D01*
X62275346Y-109557524D01*
X62260930Y-109573430D01*
X62245024Y-109587846D01*
X62227781Y-109600634D01*
X62209368Y-109611670D01*
X62189962Y-109620849D01*
X62169750Y-109628081D01*
X62148926Y-109633297D01*
X62127691Y-109636447D01*
X62106250Y-109637500D01*
X61593750Y-109637500D01*
X61572309Y-109636447D01*
X61551074Y-109633297D01*
X61530250Y-109628081D01*
X61510038Y-109620849D01*
X61490632Y-109611670D01*
X61472219Y-109600634D01*
X61454976Y-109587846D01*
X61439070Y-109573430D01*
X61424654Y-109557524D01*
X61411866Y-109540281D01*
X61400830Y-109521868D01*
X61391651Y-109502462D01*
X61384419Y-109482250D01*
X61379203Y-109461426D01*
X61376053Y-109440191D01*
X61375000Y-109418750D01*
X61375000Y-108981250D01*
X61376053Y-108959809D01*
X61379203Y-108938574D01*
X61384419Y-108917750D01*
X61391651Y-108897538D01*
X61400830Y-108878132D01*
X61411866Y-108859719D01*
X61424654Y-108842476D01*
X61439070Y-108826570D01*
X61454976Y-108812154D01*
X61472219Y-108799366D01*
X61490632Y-108788330D01*
X61510038Y-108779151D01*
X61530250Y-108771919D01*
X61551074Y-108766703D01*
X61572309Y-108763553D01*
X61593750Y-108762500D01*
X62106250Y-108762500D01*
X62127691Y-108763553D01*
X62127691Y-108763553D01*
G37*
D12*
X61850000Y-109200000D03*
D11*
G36*
X62127691Y-107188553D02*
G01*
X62148926Y-107191703D01*
X62169750Y-107196919D01*
X62189962Y-107204151D01*
X62209368Y-107213330D01*
X62227781Y-107224366D01*
X62245024Y-107237154D01*
X62260930Y-107251570D01*
X62275346Y-107267476D01*
X62288134Y-107284719D01*
X62299170Y-107303132D01*
X62308349Y-107322538D01*
X62315581Y-107342750D01*
X62320797Y-107363574D01*
X62323947Y-107384809D01*
X62325000Y-107406250D01*
X62325000Y-107843750D01*
X62323947Y-107865191D01*
X62320797Y-107886426D01*
X62315581Y-107907250D01*
X62308349Y-107927462D01*
X62299170Y-107946868D01*
X62288134Y-107965281D01*
X62275346Y-107982524D01*
X62260930Y-107998430D01*
X62245024Y-108012846D01*
X62227781Y-108025634D01*
X62209368Y-108036670D01*
X62189962Y-108045849D01*
X62169750Y-108053081D01*
X62148926Y-108058297D01*
X62127691Y-108061447D01*
X62106250Y-108062500D01*
X61593750Y-108062500D01*
X61572309Y-108061447D01*
X61551074Y-108058297D01*
X61530250Y-108053081D01*
X61510038Y-108045849D01*
X61490632Y-108036670D01*
X61472219Y-108025634D01*
X61454976Y-108012846D01*
X61439070Y-107998430D01*
X61424654Y-107982524D01*
X61411866Y-107965281D01*
X61400830Y-107946868D01*
X61391651Y-107927462D01*
X61384419Y-107907250D01*
X61379203Y-107886426D01*
X61376053Y-107865191D01*
X61375000Y-107843750D01*
X61375000Y-107406250D01*
X61376053Y-107384809D01*
X61379203Y-107363574D01*
X61384419Y-107342750D01*
X61391651Y-107322538D01*
X61400830Y-107303132D01*
X61411866Y-107284719D01*
X61424654Y-107267476D01*
X61439070Y-107251570D01*
X61454976Y-107237154D01*
X61472219Y-107224366D01*
X61490632Y-107213330D01*
X61510038Y-107204151D01*
X61530250Y-107196919D01*
X61551074Y-107191703D01*
X61572309Y-107188553D01*
X61593750Y-107187500D01*
X62106250Y-107187500D01*
X62127691Y-107188553D01*
X62127691Y-107188553D01*
G37*
D12*
X61850000Y-107625000D03*
D11*
G36*
X78177691Y-64013553D02*
G01*
X78198926Y-64016703D01*
X78219750Y-64021919D01*
X78239962Y-64029151D01*
X78259368Y-64038330D01*
X78277781Y-64049366D01*
X78295024Y-64062154D01*
X78310930Y-64076570D01*
X78325346Y-64092476D01*
X78338134Y-64109719D01*
X78349170Y-64128132D01*
X78358349Y-64147538D01*
X78365581Y-64167750D01*
X78370797Y-64188574D01*
X78373947Y-64209809D01*
X78375000Y-64231250D01*
X78375000Y-64668750D01*
X78373947Y-64690191D01*
X78370797Y-64711426D01*
X78365581Y-64732250D01*
X78358349Y-64752462D01*
X78349170Y-64771868D01*
X78338134Y-64790281D01*
X78325346Y-64807524D01*
X78310930Y-64823430D01*
X78295024Y-64837846D01*
X78277781Y-64850634D01*
X78259368Y-64861670D01*
X78239962Y-64870849D01*
X78219750Y-64878081D01*
X78198926Y-64883297D01*
X78177691Y-64886447D01*
X78156250Y-64887500D01*
X77643750Y-64887500D01*
X77622309Y-64886447D01*
X77601074Y-64883297D01*
X77580250Y-64878081D01*
X77560038Y-64870849D01*
X77540632Y-64861670D01*
X77522219Y-64850634D01*
X77504976Y-64837846D01*
X77489070Y-64823430D01*
X77474654Y-64807524D01*
X77461866Y-64790281D01*
X77450830Y-64771868D01*
X77441651Y-64752462D01*
X77434419Y-64732250D01*
X77429203Y-64711426D01*
X77426053Y-64690191D01*
X77425000Y-64668750D01*
X77425000Y-64231250D01*
X77426053Y-64209809D01*
X77429203Y-64188574D01*
X77434419Y-64167750D01*
X77441651Y-64147538D01*
X77450830Y-64128132D01*
X77461866Y-64109719D01*
X77474654Y-64092476D01*
X77489070Y-64076570D01*
X77504976Y-64062154D01*
X77522219Y-64049366D01*
X77540632Y-64038330D01*
X77560038Y-64029151D01*
X77580250Y-64021919D01*
X77601074Y-64016703D01*
X77622309Y-64013553D01*
X77643750Y-64012500D01*
X78156250Y-64012500D01*
X78177691Y-64013553D01*
X78177691Y-64013553D01*
G37*
D12*
X77900000Y-64450000D03*
D11*
G36*
X78177691Y-65588553D02*
G01*
X78198926Y-65591703D01*
X78219750Y-65596919D01*
X78239962Y-65604151D01*
X78259368Y-65613330D01*
X78277781Y-65624366D01*
X78295024Y-65637154D01*
X78310930Y-65651570D01*
X78325346Y-65667476D01*
X78338134Y-65684719D01*
X78349170Y-65703132D01*
X78358349Y-65722538D01*
X78365581Y-65742750D01*
X78370797Y-65763574D01*
X78373947Y-65784809D01*
X78375000Y-65806250D01*
X78375000Y-66243750D01*
X78373947Y-66265191D01*
X78370797Y-66286426D01*
X78365581Y-66307250D01*
X78358349Y-66327462D01*
X78349170Y-66346868D01*
X78338134Y-66365281D01*
X78325346Y-66382524D01*
X78310930Y-66398430D01*
X78295024Y-66412846D01*
X78277781Y-66425634D01*
X78259368Y-66436670D01*
X78239962Y-66445849D01*
X78219750Y-66453081D01*
X78198926Y-66458297D01*
X78177691Y-66461447D01*
X78156250Y-66462500D01*
X77643750Y-66462500D01*
X77622309Y-66461447D01*
X77601074Y-66458297D01*
X77580250Y-66453081D01*
X77560038Y-66445849D01*
X77540632Y-66436670D01*
X77522219Y-66425634D01*
X77504976Y-66412846D01*
X77489070Y-66398430D01*
X77474654Y-66382524D01*
X77461866Y-66365281D01*
X77450830Y-66346868D01*
X77441651Y-66327462D01*
X77434419Y-66307250D01*
X77429203Y-66286426D01*
X77426053Y-66265191D01*
X77425000Y-66243750D01*
X77425000Y-65806250D01*
X77426053Y-65784809D01*
X77429203Y-65763574D01*
X77434419Y-65742750D01*
X77441651Y-65722538D01*
X77450830Y-65703132D01*
X77461866Y-65684719D01*
X77474654Y-65667476D01*
X77489070Y-65651570D01*
X77504976Y-65637154D01*
X77522219Y-65624366D01*
X77540632Y-65613330D01*
X77560038Y-65604151D01*
X77580250Y-65596919D01*
X77601074Y-65591703D01*
X77622309Y-65588553D01*
X77643750Y-65587500D01*
X78156250Y-65587500D01*
X78177691Y-65588553D01*
X78177691Y-65588553D01*
G37*
D12*
X77900000Y-66025000D03*
D11*
G36*
X73815191Y-73076053D02*
G01*
X73836426Y-73079203D01*
X73857250Y-73084419D01*
X73877462Y-73091651D01*
X73896868Y-73100830D01*
X73915281Y-73111866D01*
X73932524Y-73124654D01*
X73948430Y-73139070D01*
X73962846Y-73154976D01*
X73975634Y-73172219D01*
X73986670Y-73190632D01*
X73995849Y-73210038D01*
X74003081Y-73230250D01*
X74008297Y-73251074D01*
X74011447Y-73272309D01*
X74012500Y-73293750D01*
X74012500Y-73806250D01*
X74011447Y-73827691D01*
X74008297Y-73848926D01*
X74003081Y-73869750D01*
X73995849Y-73889962D01*
X73986670Y-73909368D01*
X73975634Y-73927781D01*
X73962846Y-73945024D01*
X73948430Y-73960930D01*
X73932524Y-73975346D01*
X73915281Y-73988134D01*
X73896868Y-73999170D01*
X73877462Y-74008349D01*
X73857250Y-74015581D01*
X73836426Y-74020797D01*
X73815191Y-74023947D01*
X73793750Y-74025000D01*
X73356250Y-74025000D01*
X73334809Y-74023947D01*
X73313574Y-74020797D01*
X73292750Y-74015581D01*
X73272538Y-74008349D01*
X73253132Y-73999170D01*
X73234719Y-73988134D01*
X73217476Y-73975346D01*
X73201570Y-73960930D01*
X73187154Y-73945024D01*
X73174366Y-73927781D01*
X73163330Y-73909368D01*
X73154151Y-73889962D01*
X73146919Y-73869750D01*
X73141703Y-73848926D01*
X73138553Y-73827691D01*
X73137500Y-73806250D01*
X73137500Y-73293750D01*
X73138553Y-73272309D01*
X73141703Y-73251074D01*
X73146919Y-73230250D01*
X73154151Y-73210038D01*
X73163330Y-73190632D01*
X73174366Y-73172219D01*
X73187154Y-73154976D01*
X73201570Y-73139070D01*
X73217476Y-73124654D01*
X73234719Y-73111866D01*
X73253132Y-73100830D01*
X73272538Y-73091651D01*
X73292750Y-73084419D01*
X73313574Y-73079203D01*
X73334809Y-73076053D01*
X73356250Y-73075000D01*
X73793750Y-73075000D01*
X73815191Y-73076053D01*
X73815191Y-73076053D01*
G37*
D12*
X73575000Y-73550000D03*
D11*
G36*
X75390191Y-73076053D02*
G01*
X75411426Y-73079203D01*
X75432250Y-73084419D01*
X75452462Y-73091651D01*
X75471868Y-73100830D01*
X75490281Y-73111866D01*
X75507524Y-73124654D01*
X75523430Y-73139070D01*
X75537846Y-73154976D01*
X75550634Y-73172219D01*
X75561670Y-73190632D01*
X75570849Y-73210038D01*
X75578081Y-73230250D01*
X75583297Y-73251074D01*
X75586447Y-73272309D01*
X75587500Y-73293750D01*
X75587500Y-73806250D01*
X75586447Y-73827691D01*
X75583297Y-73848926D01*
X75578081Y-73869750D01*
X75570849Y-73889962D01*
X75561670Y-73909368D01*
X75550634Y-73927781D01*
X75537846Y-73945024D01*
X75523430Y-73960930D01*
X75507524Y-73975346D01*
X75490281Y-73988134D01*
X75471868Y-73999170D01*
X75452462Y-74008349D01*
X75432250Y-74015581D01*
X75411426Y-74020797D01*
X75390191Y-74023947D01*
X75368750Y-74025000D01*
X74931250Y-74025000D01*
X74909809Y-74023947D01*
X74888574Y-74020797D01*
X74867750Y-74015581D01*
X74847538Y-74008349D01*
X74828132Y-73999170D01*
X74809719Y-73988134D01*
X74792476Y-73975346D01*
X74776570Y-73960930D01*
X74762154Y-73945024D01*
X74749366Y-73927781D01*
X74738330Y-73909368D01*
X74729151Y-73889962D01*
X74721919Y-73869750D01*
X74716703Y-73848926D01*
X74713553Y-73827691D01*
X74712500Y-73806250D01*
X74712500Y-73293750D01*
X74713553Y-73272309D01*
X74716703Y-73251074D01*
X74721919Y-73230250D01*
X74729151Y-73210038D01*
X74738330Y-73190632D01*
X74749366Y-73172219D01*
X74762154Y-73154976D01*
X74776570Y-73139070D01*
X74792476Y-73124654D01*
X74809719Y-73111866D01*
X74828132Y-73100830D01*
X74847538Y-73091651D01*
X74867750Y-73084419D01*
X74888574Y-73079203D01*
X74909809Y-73076053D01*
X74931250Y-73075000D01*
X75368750Y-73075000D01*
X75390191Y-73076053D01*
X75390191Y-73076053D01*
G37*
D12*
X75150000Y-73550000D03*
D11*
G36*
X73765191Y-67676053D02*
G01*
X73786426Y-67679203D01*
X73807250Y-67684419D01*
X73827462Y-67691651D01*
X73846868Y-67700830D01*
X73865281Y-67711866D01*
X73882524Y-67724654D01*
X73898430Y-67739070D01*
X73912846Y-67754976D01*
X73925634Y-67772219D01*
X73936670Y-67790632D01*
X73945849Y-67810038D01*
X73953081Y-67830250D01*
X73958297Y-67851074D01*
X73961447Y-67872309D01*
X73962500Y-67893750D01*
X73962500Y-68406250D01*
X73961447Y-68427691D01*
X73958297Y-68448926D01*
X73953081Y-68469750D01*
X73945849Y-68489962D01*
X73936670Y-68509368D01*
X73925634Y-68527781D01*
X73912846Y-68545024D01*
X73898430Y-68560930D01*
X73882524Y-68575346D01*
X73865281Y-68588134D01*
X73846868Y-68599170D01*
X73827462Y-68608349D01*
X73807250Y-68615581D01*
X73786426Y-68620797D01*
X73765191Y-68623947D01*
X73743750Y-68625000D01*
X73306250Y-68625000D01*
X73284809Y-68623947D01*
X73263574Y-68620797D01*
X73242750Y-68615581D01*
X73222538Y-68608349D01*
X73203132Y-68599170D01*
X73184719Y-68588134D01*
X73167476Y-68575346D01*
X73151570Y-68560930D01*
X73137154Y-68545024D01*
X73124366Y-68527781D01*
X73113330Y-68509368D01*
X73104151Y-68489962D01*
X73096919Y-68469750D01*
X73091703Y-68448926D01*
X73088553Y-68427691D01*
X73087500Y-68406250D01*
X73087500Y-67893750D01*
X73088553Y-67872309D01*
X73091703Y-67851074D01*
X73096919Y-67830250D01*
X73104151Y-67810038D01*
X73113330Y-67790632D01*
X73124366Y-67772219D01*
X73137154Y-67754976D01*
X73151570Y-67739070D01*
X73167476Y-67724654D01*
X73184719Y-67711866D01*
X73203132Y-67700830D01*
X73222538Y-67691651D01*
X73242750Y-67684419D01*
X73263574Y-67679203D01*
X73284809Y-67676053D01*
X73306250Y-67675000D01*
X73743750Y-67675000D01*
X73765191Y-67676053D01*
X73765191Y-67676053D01*
G37*
D12*
X73525000Y-68150000D03*
D11*
G36*
X75340191Y-67676053D02*
G01*
X75361426Y-67679203D01*
X75382250Y-67684419D01*
X75402462Y-67691651D01*
X75421868Y-67700830D01*
X75440281Y-67711866D01*
X75457524Y-67724654D01*
X75473430Y-67739070D01*
X75487846Y-67754976D01*
X75500634Y-67772219D01*
X75511670Y-67790632D01*
X75520849Y-67810038D01*
X75528081Y-67830250D01*
X75533297Y-67851074D01*
X75536447Y-67872309D01*
X75537500Y-67893750D01*
X75537500Y-68406250D01*
X75536447Y-68427691D01*
X75533297Y-68448926D01*
X75528081Y-68469750D01*
X75520849Y-68489962D01*
X75511670Y-68509368D01*
X75500634Y-68527781D01*
X75487846Y-68545024D01*
X75473430Y-68560930D01*
X75457524Y-68575346D01*
X75440281Y-68588134D01*
X75421868Y-68599170D01*
X75402462Y-68608349D01*
X75382250Y-68615581D01*
X75361426Y-68620797D01*
X75340191Y-68623947D01*
X75318750Y-68625000D01*
X74881250Y-68625000D01*
X74859809Y-68623947D01*
X74838574Y-68620797D01*
X74817750Y-68615581D01*
X74797538Y-68608349D01*
X74778132Y-68599170D01*
X74759719Y-68588134D01*
X74742476Y-68575346D01*
X74726570Y-68560930D01*
X74712154Y-68545024D01*
X74699366Y-68527781D01*
X74688330Y-68509368D01*
X74679151Y-68489962D01*
X74671919Y-68469750D01*
X74666703Y-68448926D01*
X74663553Y-68427691D01*
X74662500Y-68406250D01*
X74662500Y-67893750D01*
X74663553Y-67872309D01*
X74666703Y-67851074D01*
X74671919Y-67830250D01*
X74679151Y-67810038D01*
X74688330Y-67790632D01*
X74699366Y-67772219D01*
X74712154Y-67754976D01*
X74726570Y-67739070D01*
X74742476Y-67724654D01*
X74759719Y-67711866D01*
X74778132Y-67700830D01*
X74797538Y-67691651D01*
X74817750Y-67684419D01*
X74838574Y-67679203D01*
X74859809Y-67676053D01*
X74881250Y-67675000D01*
X75318750Y-67675000D01*
X75340191Y-67676053D01*
X75340191Y-67676053D01*
G37*
D12*
X75100000Y-68150000D03*
D11*
G36*
X73815191Y-70376053D02*
G01*
X73836426Y-70379203D01*
X73857250Y-70384419D01*
X73877462Y-70391651D01*
X73896868Y-70400830D01*
X73915281Y-70411866D01*
X73932524Y-70424654D01*
X73948430Y-70439070D01*
X73962846Y-70454976D01*
X73975634Y-70472219D01*
X73986670Y-70490632D01*
X73995849Y-70510038D01*
X74003081Y-70530250D01*
X74008297Y-70551074D01*
X74011447Y-70572309D01*
X74012500Y-70593750D01*
X74012500Y-71106250D01*
X74011447Y-71127691D01*
X74008297Y-71148926D01*
X74003081Y-71169750D01*
X73995849Y-71189962D01*
X73986670Y-71209368D01*
X73975634Y-71227781D01*
X73962846Y-71245024D01*
X73948430Y-71260930D01*
X73932524Y-71275346D01*
X73915281Y-71288134D01*
X73896868Y-71299170D01*
X73877462Y-71308349D01*
X73857250Y-71315581D01*
X73836426Y-71320797D01*
X73815191Y-71323947D01*
X73793750Y-71325000D01*
X73356250Y-71325000D01*
X73334809Y-71323947D01*
X73313574Y-71320797D01*
X73292750Y-71315581D01*
X73272538Y-71308349D01*
X73253132Y-71299170D01*
X73234719Y-71288134D01*
X73217476Y-71275346D01*
X73201570Y-71260930D01*
X73187154Y-71245024D01*
X73174366Y-71227781D01*
X73163330Y-71209368D01*
X73154151Y-71189962D01*
X73146919Y-71169750D01*
X73141703Y-71148926D01*
X73138553Y-71127691D01*
X73137500Y-71106250D01*
X73137500Y-70593750D01*
X73138553Y-70572309D01*
X73141703Y-70551074D01*
X73146919Y-70530250D01*
X73154151Y-70510038D01*
X73163330Y-70490632D01*
X73174366Y-70472219D01*
X73187154Y-70454976D01*
X73201570Y-70439070D01*
X73217476Y-70424654D01*
X73234719Y-70411866D01*
X73253132Y-70400830D01*
X73272538Y-70391651D01*
X73292750Y-70384419D01*
X73313574Y-70379203D01*
X73334809Y-70376053D01*
X73356250Y-70375000D01*
X73793750Y-70375000D01*
X73815191Y-70376053D01*
X73815191Y-70376053D01*
G37*
D12*
X73575000Y-70850000D03*
D11*
G36*
X75390191Y-70376053D02*
G01*
X75411426Y-70379203D01*
X75432250Y-70384419D01*
X75452462Y-70391651D01*
X75471868Y-70400830D01*
X75490281Y-70411866D01*
X75507524Y-70424654D01*
X75523430Y-70439070D01*
X75537846Y-70454976D01*
X75550634Y-70472219D01*
X75561670Y-70490632D01*
X75570849Y-70510038D01*
X75578081Y-70530250D01*
X75583297Y-70551074D01*
X75586447Y-70572309D01*
X75587500Y-70593750D01*
X75587500Y-71106250D01*
X75586447Y-71127691D01*
X75583297Y-71148926D01*
X75578081Y-71169750D01*
X75570849Y-71189962D01*
X75561670Y-71209368D01*
X75550634Y-71227781D01*
X75537846Y-71245024D01*
X75523430Y-71260930D01*
X75507524Y-71275346D01*
X75490281Y-71288134D01*
X75471868Y-71299170D01*
X75452462Y-71308349D01*
X75432250Y-71315581D01*
X75411426Y-71320797D01*
X75390191Y-71323947D01*
X75368750Y-71325000D01*
X74931250Y-71325000D01*
X74909809Y-71323947D01*
X74888574Y-71320797D01*
X74867750Y-71315581D01*
X74847538Y-71308349D01*
X74828132Y-71299170D01*
X74809719Y-71288134D01*
X74792476Y-71275346D01*
X74776570Y-71260930D01*
X74762154Y-71245024D01*
X74749366Y-71227781D01*
X74738330Y-71209368D01*
X74729151Y-71189962D01*
X74721919Y-71169750D01*
X74716703Y-71148926D01*
X74713553Y-71127691D01*
X74712500Y-71106250D01*
X74712500Y-70593750D01*
X74713553Y-70572309D01*
X74716703Y-70551074D01*
X74721919Y-70530250D01*
X74729151Y-70510038D01*
X74738330Y-70490632D01*
X74749366Y-70472219D01*
X74762154Y-70454976D01*
X74776570Y-70439070D01*
X74792476Y-70424654D01*
X74809719Y-70411866D01*
X74828132Y-70400830D01*
X74847538Y-70391651D01*
X74867750Y-70384419D01*
X74888574Y-70379203D01*
X74909809Y-70376053D01*
X74931250Y-70375000D01*
X75368750Y-70375000D01*
X75390191Y-70376053D01*
X75390191Y-70376053D01*
G37*
D12*
X75150000Y-70850000D03*
D11*
G36*
X68865191Y-107626053D02*
G01*
X68886426Y-107629203D01*
X68907250Y-107634419D01*
X68927462Y-107641651D01*
X68946868Y-107650830D01*
X68965281Y-107661866D01*
X68982524Y-107674654D01*
X68998430Y-107689070D01*
X69012846Y-107704976D01*
X69025634Y-107722219D01*
X69036670Y-107740632D01*
X69045849Y-107760038D01*
X69053081Y-107780250D01*
X69058297Y-107801074D01*
X69061447Y-107822309D01*
X69062500Y-107843750D01*
X69062500Y-108356250D01*
X69061447Y-108377691D01*
X69058297Y-108398926D01*
X69053081Y-108419750D01*
X69045849Y-108439962D01*
X69036670Y-108459368D01*
X69025634Y-108477781D01*
X69012846Y-108495024D01*
X68998430Y-108510930D01*
X68982524Y-108525346D01*
X68965281Y-108538134D01*
X68946868Y-108549170D01*
X68927462Y-108558349D01*
X68907250Y-108565581D01*
X68886426Y-108570797D01*
X68865191Y-108573947D01*
X68843750Y-108575000D01*
X68406250Y-108575000D01*
X68384809Y-108573947D01*
X68363574Y-108570797D01*
X68342750Y-108565581D01*
X68322538Y-108558349D01*
X68303132Y-108549170D01*
X68284719Y-108538134D01*
X68267476Y-108525346D01*
X68251570Y-108510930D01*
X68237154Y-108495024D01*
X68224366Y-108477781D01*
X68213330Y-108459368D01*
X68204151Y-108439962D01*
X68196919Y-108419750D01*
X68191703Y-108398926D01*
X68188553Y-108377691D01*
X68187500Y-108356250D01*
X68187500Y-107843750D01*
X68188553Y-107822309D01*
X68191703Y-107801074D01*
X68196919Y-107780250D01*
X68204151Y-107760038D01*
X68213330Y-107740632D01*
X68224366Y-107722219D01*
X68237154Y-107704976D01*
X68251570Y-107689070D01*
X68267476Y-107674654D01*
X68284719Y-107661866D01*
X68303132Y-107650830D01*
X68322538Y-107641651D01*
X68342750Y-107634419D01*
X68363574Y-107629203D01*
X68384809Y-107626053D01*
X68406250Y-107625000D01*
X68843750Y-107625000D01*
X68865191Y-107626053D01*
X68865191Y-107626053D01*
G37*
D12*
X68625000Y-108100000D03*
D11*
G36*
X70440191Y-107626053D02*
G01*
X70461426Y-107629203D01*
X70482250Y-107634419D01*
X70502462Y-107641651D01*
X70521868Y-107650830D01*
X70540281Y-107661866D01*
X70557524Y-107674654D01*
X70573430Y-107689070D01*
X70587846Y-107704976D01*
X70600634Y-107722219D01*
X70611670Y-107740632D01*
X70620849Y-107760038D01*
X70628081Y-107780250D01*
X70633297Y-107801074D01*
X70636447Y-107822309D01*
X70637500Y-107843750D01*
X70637500Y-108356250D01*
X70636447Y-108377691D01*
X70633297Y-108398926D01*
X70628081Y-108419750D01*
X70620849Y-108439962D01*
X70611670Y-108459368D01*
X70600634Y-108477781D01*
X70587846Y-108495024D01*
X70573430Y-108510930D01*
X70557524Y-108525346D01*
X70540281Y-108538134D01*
X70521868Y-108549170D01*
X70502462Y-108558349D01*
X70482250Y-108565581D01*
X70461426Y-108570797D01*
X70440191Y-108573947D01*
X70418750Y-108575000D01*
X69981250Y-108575000D01*
X69959809Y-108573947D01*
X69938574Y-108570797D01*
X69917750Y-108565581D01*
X69897538Y-108558349D01*
X69878132Y-108549170D01*
X69859719Y-108538134D01*
X69842476Y-108525346D01*
X69826570Y-108510930D01*
X69812154Y-108495024D01*
X69799366Y-108477781D01*
X69788330Y-108459368D01*
X69779151Y-108439962D01*
X69771919Y-108419750D01*
X69766703Y-108398926D01*
X69763553Y-108377691D01*
X69762500Y-108356250D01*
X69762500Y-107843750D01*
X69763553Y-107822309D01*
X69766703Y-107801074D01*
X69771919Y-107780250D01*
X69779151Y-107760038D01*
X69788330Y-107740632D01*
X69799366Y-107722219D01*
X69812154Y-107704976D01*
X69826570Y-107689070D01*
X69842476Y-107674654D01*
X69859719Y-107661866D01*
X69878132Y-107650830D01*
X69897538Y-107641651D01*
X69917750Y-107634419D01*
X69938574Y-107629203D01*
X69959809Y-107626053D01*
X69981250Y-107625000D01*
X70418750Y-107625000D01*
X70440191Y-107626053D01*
X70440191Y-107626053D01*
G37*
D12*
X70200000Y-108100000D03*
D11*
G36*
X68765191Y-112876053D02*
G01*
X68786426Y-112879203D01*
X68807250Y-112884419D01*
X68827462Y-112891651D01*
X68846868Y-112900830D01*
X68865281Y-112911866D01*
X68882524Y-112924654D01*
X68898430Y-112939070D01*
X68912846Y-112954976D01*
X68925634Y-112972219D01*
X68936670Y-112990632D01*
X68945849Y-113010038D01*
X68953081Y-113030250D01*
X68958297Y-113051074D01*
X68961447Y-113072309D01*
X68962500Y-113093750D01*
X68962500Y-113606250D01*
X68961447Y-113627691D01*
X68958297Y-113648926D01*
X68953081Y-113669750D01*
X68945849Y-113689962D01*
X68936670Y-113709368D01*
X68925634Y-113727781D01*
X68912846Y-113745024D01*
X68898430Y-113760930D01*
X68882524Y-113775346D01*
X68865281Y-113788134D01*
X68846868Y-113799170D01*
X68827462Y-113808349D01*
X68807250Y-113815581D01*
X68786426Y-113820797D01*
X68765191Y-113823947D01*
X68743750Y-113825000D01*
X68306250Y-113825000D01*
X68284809Y-113823947D01*
X68263574Y-113820797D01*
X68242750Y-113815581D01*
X68222538Y-113808349D01*
X68203132Y-113799170D01*
X68184719Y-113788134D01*
X68167476Y-113775346D01*
X68151570Y-113760930D01*
X68137154Y-113745024D01*
X68124366Y-113727781D01*
X68113330Y-113709368D01*
X68104151Y-113689962D01*
X68096919Y-113669750D01*
X68091703Y-113648926D01*
X68088553Y-113627691D01*
X68087500Y-113606250D01*
X68087500Y-113093750D01*
X68088553Y-113072309D01*
X68091703Y-113051074D01*
X68096919Y-113030250D01*
X68104151Y-113010038D01*
X68113330Y-112990632D01*
X68124366Y-112972219D01*
X68137154Y-112954976D01*
X68151570Y-112939070D01*
X68167476Y-112924654D01*
X68184719Y-112911866D01*
X68203132Y-112900830D01*
X68222538Y-112891651D01*
X68242750Y-112884419D01*
X68263574Y-112879203D01*
X68284809Y-112876053D01*
X68306250Y-112875000D01*
X68743750Y-112875000D01*
X68765191Y-112876053D01*
X68765191Y-112876053D01*
G37*
D12*
X68525000Y-113350000D03*
D11*
G36*
X70340191Y-112876053D02*
G01*
X70361426Y-112879203D01*
X70382250Y-112884419D01*
X70402462Y-112891651D01*
X70421868Y-112900830D01*
X70440281Y-112911866D01*
X70457524Y-112924654D01*
X70473430Y-112939070D01*
X70487846Y-112954976D01*
X70500634Y-112972219D01*
X70511670Y-112990632D01*
X70520849Y-113010038D01*
X70528081Y-113030250D01*
X70533297Y-113051074D01*
X70536447Y-113072309D01*
X70537500Y-113093750D01*
X70537500Y-113606250D01*
X70536447Y-113627691D01*
X70533297Y-113648926D01*
X70528081Y-113669750D01*
X70520849Y-113689962D01*
X70511670Y-113709368D01*
X70500634Y-113727781D01*
X70487846Y-113745024D01*
X70473430Y-113760930D01*
X70457524Y-113775346D01*
X70440281Y-113788134D01*
X70421868Y-113799170D01*
X70402462Y-113808349D01*
X70382250Y-113815581D01*
X70361426Y-113820797D01*
X70340191Y-113823947D01*
X70318750Y-113825000D01*
X69881250Y-113825000D01*
X69859809Y-113823947D01*
X69838574Y-113820797D01*
X69817750Y-113815581D01*
X69797538Y-113808349D01*
X69778132Y-113799170D01*
X69759719Y-113788134D01*
X69742476Y-113775346D01*
X69726570Y-113760930D01*
X69712154Y-113745024D01*
X69699366Y-113727781D01*
X69688330Y-113709368D01*
X69679151Y-113689962D01*
X69671919Y-113669750D01*
X69666703Y-113648926D01*
X69663553Y-113627691D01*
X69662500Y-113606250D01*
X69662500Y-113093750D01*
X69663553Y-113072309D01*
X69666703Y-113051074D01*
X69671919Y-113030250D01*
X69679151Y-113010038D01*
X69688330Y-112990632D01*
X69699366Y-112972219D01*
X69712154Y-112954976D01*
X69726570Y-112939070D01*
X69742476Y-112924654D01*
X69759719Y-112911866D01*
X69778132Y-112900830D01*
X69797538Y-112891651D01*
X69817750Y-112884419D01*
X69838574Y-112879203D01*
X69859809Y-112876053D01*
X69881250Y-112875000D01*
X70318750Y-112875000D01*
X70340191Y-112876053D01*
X70340191Y-112876053D01*
G37*
D12*
X70100000Y-113350000D03*
M02*
