G04 #@! TF.GenerationSoftware,KiCad,Pcbnew,(5.1.0)-1*
G04 #@! TF.CreationDate,2020-08-21T01:29:19+01:00*
G04 #@! TF.ProjectId,marcoboard,6d617263-6f62-46f6-9172-642e6b696361,rev?*
G04 #@! TF.SameCoordinates,Original*
G04 #@! TF.FileFunction,Paste,Bot*
G04 #@! TF.FilePolarity,Positive*
%FSLAX46Y46*%
G04 Gerber Fmt 4.6, Leading zero omitted, Abs format (unit mm)*
G04 Created by KiCad (PCBNEW (5.1.0)-1) date 2020-08-21 01:29:19*
%MOMM*%
%LPD*%
G04 APERTURE LIST*
%ADD10R,1.000000X0.800000*%
%ADD11R,0.800000X1.000000*%
G04 APERTURE END LIST*
D10*
X75450000Y-119650000D03*
X73750000Y-119650000D03*
D11*
X73800000Y-85000000D03*
X73800000Y-83300000D03*
X386200000Y-147800000D03*
X386200000Y-146100000D03*
X386150000Y-128800000D03*
X386150000Y-127100000D03*
X386200000Y-109800000D03*
X386200000Y-108100000D03*
X386100000Y-90950000D03*
X386100000Y-89250000D03*
X386200000Y-71950000D03*
X386200000Y-70250000D03*
X366950000Y-147750000D03*
X366950000Y-146050000D03*
X366950000Y-128800000D03*
X366950000Y-127100000D03*
X355200000Y-109950000D03*
X355200000Y-108250000D03*
X362250000Y-91000000D03*
X362250000Y-89300000D03*
X357450000Y-71850000D03*
X357450000Y-70150000D03*
X347950000Y-148050000D03*
X347950000Y-146350000D03*
X340850000Y-128900000D03*
X340850000Y-127200000D03*
X338550000Y-91000000D03*
X338550000Y-89300000D03*
X328950000Y-71850000D03*
X328950000Y-70150000D03*
X329050000Y-148050000D03*
X329050000Y-146350000D03*
X324300000Y-110150000D03*
X324300000Y-108450000D03*
X319450000Y-90900000D03*
X319450000Y-89200000D03*
X309900000Y-71750000D03*
X309900000Y-70050000D03*
X309950000Y-148000000D03*
X309950000Y-146300000D03*
X314600000Y-128950000D03*
X314600000Y-127250000D03*
X305300000Y-109850000D03*
X305300000Y-108150000D03*
X300350000Y-90950000D03*
X300350000Y-89250000D03*
X290850000Y-71850000D03*
X290850000Y-70150000D03*
X290850000Y-148000000D03*
X290850000Y-146300000D03*
X295600000Y-128900000D03*
X295600000Y-127200000D03*
X286250000Y-109900000D03*
X286250000Y-108200000D03*
X281350000Y-90900000D03*
X281350000Y-89200000D03*
X271800000Y-71800000D03*
X271800000Y-70100000D03*
X276600000Y-128700000D03*
X276600000Y-127000000D03*
X267100000Y-109800000D03*
X267100000Y-108100000D03*
X262300000Y-90950000D03*
X262300000Y-89250000D03*
X252800000Y-71850000D03*
X252800000Y-70150000D03*
X257550000Y-128900000D03*
X257550000Y-127200000D03*
X248000000Y-109850000D03*
X248000000Y-108150000D03*
X243100000Y-90800000D03*
X243100000Y-89100000D03*
X233750000Y-71800000D03*
X233750000Y-70100000D03*
X238500000Y-129000000D03*
X238500000Y-127300000D03*
X229000000Y-109700000D03*
X229000000Y-108000000D03*
X224300000Y-90900000D03*
X224300000Y-89200000D03*
X214650000Y-71800000D03*
X214650000Y-70100000D03*
X221800000Y-147850000D03*
X221800000Y-146150000D03*
X219350000Y-128650000D03*
X219350000Y-126950000D03*
X210050000Y-109900000D03*
X210050000Y-108200000D03*
X205150000Y-90900000D03*
X205150000Y-89200000D03*
X195700000Y-71900000D03*
X195700000Y-70200000D03*
X200300000Y-128900000D03*
X200300000Y-127200000D03*
X191000000Y-109850000D03*
X191000000Y-108150000D03*
X186000000Y-90950000D03*
X186000000Y-89250000D03*
X176500000Y-71900000D03*
X176500000Y-70200000D03*
X181300000Y-128900000D03*
X181300000Y-127200000D03*
X171900000Y-109900000D03*
X171900000Y-108200000D03*
X167050000Y-91000000D03*
X167050000Y-89300000D03*
X158250000Y-72250000D03*
X158250000Y-70550000D03*
X150400000Y-148000000D03*
X150400000Y-146300000D03*
X162150000Y-128750000D03*
X162150000Y-127050000D03*
X152800000Y-109850000D03*
X152800000Y-108150000D03*
X147950000Y-90700000D03*
X147950000Y-89000000D03*
X138450000Y-71950000D03*
X138450000Y-70250000D03*
X126350000Y-148000000D03*
X126350000Y-146300000D03*
X143250000Y-128850000D03*
X143250000Y-127150000D03*
X133750000Y-109800000D03*
X133750000Y-108100000D03*
X129000000Y-90900000D03*
X129000000Y-89200000D03*
X119350000Y-72000000D03*
X119350000Y-70300000D03*
X102700000Y-147950000D03*
X102700000Y-146250000D03*
X112250000Y-129050000D03*
X112250000Y-127350000D03*
X107400000Y-109700000D03*
X107400000Y-108000000D03*
X105200000Y-90700000D03*
X105200000Y-89000000D03*
X100150000Y-72050000D03*
X100150000Y-70350000D03*
M02*
